  0
SECTION
  2
HEADER
  9
$ANGBASE
  50
0.0
  9
$ANGDIR
  70
  1
  9
$MEASUREMENT
  70
0
  0
ENDSEC
  0
SECTION
  2
TABLES
  0
TABLE
  2
LTYPE
  70
1
  0
LTYPE
  2
CONTINUOUS
  70
0
  3
Solid line
  72
65
  73
0
  40
0.0
  0
ENDTAB
  0
TABLE
  2
STYLE
  70
4
  0
STYLE
  2
KICAD
  70
0
  40
0
  41
1
  42
1
  50
0
  71
0
  3
isocp.shx
  0
STYLE
  2
KICADB
  70
0
  40
0
  41
1
  42
1
  50
0
  71
0
  3
isocp.shx
  0
STYLE
  2
KICADI
  70
0
  40
0
  41
1
  42
1
  50
15
  71
0
  3
isocp.shx
  0
STYLE
  2
KICADBI
  70
0
  40
0
  41
1
  42
1
  50
15
  71
0
  3
isocp.shx
  0
ENDTAB
  0
TABLE
  2
LAYER
  70
30
  0
LAYER
  2
BLACK
  70
0
  62
7
  6
CONTINUOUS
  0
LAYER
  2
GRAY1
  70
0
  62
251
  6
CONTINUOUS
  0
LAYER
  2
GRAY2
  70
0
  62
8
  6
CONTINUOUS
  0
LAYER
  2
GRAY3
  70
0
  62
9
  6
CONTINUOUS
  0
LAYER
  2
WHITE
  70
0
  62
7
  6
CONTINUOUS
  0
LAYER
  2
LYELLOW
  70
0
  62
51
  6
CONTINUOUS
  0
LAYER
  2
BLUE1
  70
0
  62
178
  6
CONTINUOUS
  0
LAYER
  2
GREEN1
  70
0
  62
98
  6
CONTINUOUS
  0
LAYER
  2
CYAN1
  70
0
  62
138
  6
CONTINUOUS
  0
LAYER
  2
RED1
  70
0
  62
18
  6
CONTINUOUS
  0
LAYER
  2
MAGENTA1
  70
0
  62
228
  6
CONTINUOUS
  0
LAYER
  2
BROWN1
  70
0
  62
58
  6
CONTINUOUS
  0
LAYER
  2
BLUE2
  70
0
  62
5
  6
CONTINUOUS
  0
LAYER
  2
GREEN2
  70
0
  62
3
  6
CONTINUOUS
  0
LAYER
  2
CYAN2
  70
0
  62
4
  6
CONTINUOUS
  0
LAYER
  2
RED2
  70
0
  62
1
  6
CONTINUOUS
  0
LAYER
  2
MAGENTA2
  70
0
  62
6
  6
CONTINUOUS
  0
LAYER
  2
BROWN2
  70
0
  62
54
  6
CONTINUOUS
  0
LAYER
  2
BLUE3
  70
0
  62
171
  6
CONTINUOUS
  0
LAYER
  2
GREEN3
  70
0
  62
91
  6
CONTINUOUS
  0
LAYER
  2
CYAN3
  70
0
  62
131
  6
CONTINUOUS
  0
LAYER
  2
RED3
  70
0
  62
11
  6
CONTINUOUS
  0
LAYER
  2
MAGENTA3
  70
0
  62
221
  6
CONTINUOUS
  0
LAYER
  2
YELLOW3
  70
0
  62
2
  6
CONTINUOUS
  0
LAYER
  2
BLUE4
  70
0
  62
5
  6
CONTINUOUS
  0
LAYER
  2
GREEN4
  70
0
  62
3
  6
CONTINUOUS
  0
LAYER
  2
CYAN4
  70
0
  62
4
  6
CONTINUOUS
  0
LAYER
  2
RED4
  70
0
  62
1
  6
CONTINUOUS
  0
LAYER
  2
MAGENTA4
  70
0
  62
6
  6
CONTINUOUS
  0
LAYER
  2
YELLOW4
  70
0
  62
2
  6
CONTINUOUS
  0
ENDTAB
  0
ENDSEC
  0
SECTION
  2
ENTITIES
0
ARC
8
Black
10
125.095
20
-59.944
40
2.78533
50
-180
51
-133.152
0
ARC
8
Black
10
118.364
20
-41.148
40
1.143
50
-153.435
51
-90
0
LINE
8
Black
10
122.354
20
-43.635
11
120.957
21
-42.238
0
LINE
8
Black
10
122.248
20
-43.741
11
120.851
21
-42.344
0
ARC
8
Black
10
120.904
20
-42.291
40
0.075
50
405
51
585
0
ARC
8
Black
10
122.301
20
-43.688
40
0.075
50
225
51
405
0
LINE
8
Black
10
118.364
20
-42.366
11
120.904
21
-42.366
0
LINE
8
Black
10
118.364
20
-42.216
11
120.904
21
-42.216
0
ARC
8
Black
10
120.904
20
-42.291
40
0.075
50
270
51
450
0
ARC
8
Black
10
118.364
20
-42.291
40
0.075
50
90
51
270
0
LINE
8
Black
10
177.091
20
-74.496
11
175.567
21
-72.972
0
LINE
8
Black
10
176.985
20
-74.602
11
175.461
21
-73.078
0
ARC
8
Black
10
175.514
20
-73.025
40
0.075
50
405
51
585
0
ARC
8
Black
10
177.038
20
-74.549
40
0.075
50
225
51
405
0
LINE
8
Black
10
132.768
20
-71.448
11
123.243
21
-61.923
0
LINE
8
Black
10
132.662
20
-71.554
11
123.137
21
-62.029
0
ARC
8
Black
10
123.19
20
-61.976
40
0.075
50
405
51
585
0
ARC
8
Black
10
132.715
20
-71.501
40
0.075
50
225
51
405
0
ARC
8
Black
10
137.287
20
-65.405
40
7.62
50
-126.87
51
-90
0
LINE
8
Black
10
122.376
20
-59.944
11
122.376
21
-43.688
0
LINE
8
Black
10
122.226
20
-59.944
11
122.226
21
-43.688
0
ARC
8
Black
10
122.301
20
-43.688
40
0.075
50
360
51
540
0
ARC
8
Black
10
122.301
20
-59.944
40
0.075
50
180
51
360
0
LINE
8
Black
10
137.287
20
-73.1
11
175.514
21
-73.1
0
LINE
8
Black
10
137.287
20
-72.95
11
175.514
21
-72.95
0
ARC
8
Black
10
175.514
20
-73.025
40
0.075
50
270
51
450
0
ARC
8
Black
10
137.287
20
-73.025
40
0.075
50
90
51
270
0
LINE
8
Black
10
177.113
20
-85.979
11
177.113
21
-74.549
0
LINE
8
Black
10
176.963
20
-85.979
11
176.963
21
-74.549
0
ARC
8
Black
10
177.038
20
-74.549
40
0.075
50
360
51
540
0
ARC
8
Black
10
177.038
20
-85.979
40
0.075
50
180
51
360
0
LINE
8
Black
10
179.631
20
-88.466
11
177.091
21
-85.926
0
LINE
8
Black
10
179.525
20
-88.572
11
176.985
21
-86.032
0
ARC
8
Black
10
177.038
20
-85.979
40
0.075
50
405
51
585
0
ARC
8
Black
10
179.578
20
-88.519
40
0.075
50
225
51
405
0
LINE
8
Black
10
179.653
20
-121.285
11
179.653
21
-88.519
0
LINE
8
Black
10
179.503
20
-121.285
11
179.503
21
-88.519
0
ARC
8
Black
10
179.578
20
-88.519
40
0.075
50
360
51
540
0
ARC
8
Black
10
179.578
20
-121.285
40
0.075
50
180
51
360
0
ARC
8
Black
10
113.538
20
-39.497
40
2.54
50
36.8699
51
180
0
LINE
8
Black
10
117.416
20
-41.6234
11
115.638
21
-37.9404
0
LINE
8
Black
10
117.28
20
-41.6886
11
115.502
21
-38.0056
0
ARC
8
Black
10
115.57
20
-37.973
40
0.075
50
385.769
51
565.769
0
ARC
8
Black
10
117.348
20
-41.656
40
0.075
50
205.769
51
385.769
0
LINE
8
Black
10
177.091
20
-123.878
11
179.631
21
-121.338
0
LINE
8
Black
10
176.985
20
-123.772
11
179.525
21
-121.232
0
ARC
8
Black
10
179.578
20
-121.285
40
0.075
50
315
51
495
0
ARC
8
Black
10
177.038
20
-123.825
40
0.075
50
135
51
315
0
LINE
8
Black
10
177.113
20
-126.365
11
177.113
21
-123.825
0
LINE
8
Black
10
176.963
20
-126.365
11
176.963
21
-123.825
0
ARC
8
Black
10
177.038
20
-123.825
40
0.075
50
360
51
540
0
ARC
8
Black
10
177.038
20
-126.365
40
0.075
50
180
51
360
0
LINE
8
Black
10
110.998
20
-126.44
11
177.038
21
-126.44
0
LINE
8
Black
10
110.998
20
-126.29
11
177.038
21
-126.29
0
ARC
8
Black
10
177.038
20
-126.365
40
0.075
50
270
51
450
0
ARC
8
Black
10
110.998
20
-126.365
40
0.075
50
90
51
270
0
LINE
8
Black
10
111.073
20
-126.365
11
111.073
21
-39.497
0
LINE
8
Black
10
110.923
20
-126.365
11
110.923
21
-39.497
0
ARC
8
Black
10
110.998
20
-39.497
40
0.075
50
360
51
540
0
ARC
8
Black
10
110.998
20
-126.365
40
0.075
50
180
51
360
0
LINE
8
Black
10
114.408
20
-107.605
11
115.208
21
-108.405
0
LINE
8
Black
10
115.208
20
-107.605
11
114.408
21
-108.405
0
LINE
8
Black
10
118.624
20
-39.097
11
119.424
21
-39.897
0
LINE
8
Black
10
119.424
20
-39.097
11
118.624
21
-39.897
0
LINE
8
Black
10
119.408
20
-108.905
11
120.208
21
-109.705
0
LINE
8
Black
10
120.208
20
-108.905
11
119.408
21
-109.705
0
LINE
8
Black
10
121.164
20
-39.097
11
121.964
21
-39.897
0
LINE
8
Black
10
121.964
20
-39.097
11
121.164
21
-39.897
0
LINE
8
Black
10
121.52
20
-89.135
11
122.32
21
-89.935
0
LINE
8
Black
10
122.32
20
-89.135
11
121.52
21
-89.935
0
LINE
8
Black
10
121.52
20
-96.755
11
122.32
21
-97.555
0
LINE
8
Black
10
122.32
20
-96.755
11
121.52
21
-97.555
0
LINE
8
Black
10
123.704
20
-39.097
11
124.504
21
-39.897
0
LINE
8
Black
10
124.504
20
-39.097
11
123.704
21
-39.897
0
LINE
8
Black
10
126.244
20
-39.097
11
127.044
21
-39.897
0
LINE
8
Black
10
127.044
20
-39.097
11
126.244
21
-39.897
0
LINE
8
Black
10
128.736
20
-119.179
11
129.536
21
-119.979
0
LINE
8
Black
10
129.536
20
-119.179
11
128.736
21
-119.979
0
LINE
8
Black
10
128.736
20
-123.679
11
129.536
21
-124.479
0
LINE
8
Black
10
129.536
20
-123.679
11
128.736
21
-124.479
0
LINE
8
Black
10
128.784
20
-39.097
11
129.584
21
-39.897
0
LINE
8
Black
10
129.584
20
-39.097
11
128.784
21
-39.897
0
LINE
8
Black
10
131.324
20
-39.097
11
132.124
21
-39.897
0
LINE
8
Black
10
132.124
20
-39.097
11
131.324
21
-39.897
0
LINE
8
Black
10
131.68
20
-89.135
11
132.48
21
-89.935
0
LINE
8
Black
10
132.48
20
-89.135
11
131.68
21
-89.935
0
LINE
8
Black
10
131.68
20
-96.755
11
132.48
21
-97.555
0
LINE
8
Black
10
132.48
20
-96.755
11
131.68
21
-97.555
0
LINE
8
Black
10
133.864
20
-39.097
11
134.664
21
-39.897
0
LINE
8
Black
10
134.664
20
-39.097
11
133.864
21
-39.897
0
LINE
8
Black
10
135.236
20
-119.179
11
136.036
21
-119.979
0
LINE
8
Black
10
136.036
20
-119.179
11
135.236
21
-119.979
0
LINE
8
Black
10
135.236
20
-123.679
11
136.036
21
-124.479
0
LINE
8
Black
10
136.036
20
-123.679
11
135.236
21
-124.479
0
LINE
8
Black
10
136.404
20
-39.097
11
137.204
21
-39.897
0
LINE
8
Black
10
137.204
20
-39.097
11
136.404
21
-39.897
0
LINE
8
Black
10
138.066
20
-107.205
11
138.866
21
-108.005
0
LINE
8
Black
10
138.866
20
-107.205
11
138.066
21
-108.005
0
LINE
8
Black
10
138.066
20
-109.705
11
138.866
21
-110.505
0
LINE
8
Black
10
138.866
20
-109.705
11
138.066
21
-110.505
0
LINE
8
Black
10
138.944
20
-39.097
11
139.744
21
-39.897
0
LINE
8
Black
10
139.744
20
-39.097
11
138.944
21
-39.897
0
LINE
8
Black
10
140.189
20
-83.928
11
140.989
21
-84.728
0
LINE
8
Black
10
140.989
20
-83.928
11
140.189
21
-84.728
0
LINE
8
Black
10
140.431
20
-107.195
11
141.231
21
-107.995
0
LINE
8
Black
10
141.231
20
-107.195
11
140.431
21
-107.995
0
LINE
8
Black
10
140.456
20
-109.735
11
141.256
21
-110.535
0
LINE
8
Black
10
141.256
20
-109.735
11
140.456
21
-110.535
0
LINE
8
Black
10
141.484
20
-39.097
11
142.284
21
-39.897
0
LINE
8
Black
10
142.284
20
-39.097
11
141.484
21
-39.897
0
LINE
8
Black
10
143.11
20
-91.929
11
143.91
21
-92.729
0
LINE
8
Black
10
143.91
20
-91.929
11
143.11
21
-92.729
0
LINE
8
Black
10
143.135
20
-94.469
11
143.935
21
-95.269
0
LINE
8
Black
10
143.935
20
-94.469
11
143.135
21
-95.269
0
LINE
8
Black
10
143.491
20
-77.451
11
144.291
21
-78.251
0
LINE
8
Black
10
144.291
20
-77.451
11
143.491
21
-78.251
0
LINE
8
Black
10
143.618
20
-102.978
11
144.418
21
-103.778
0
LINE
8
Black
10
144.418
20
-102.978
11
143.618
21
-103.778
0
LINE
8
Black
10
144.024
20
-39.097
11
144.824
21
-39.897
0
LINE
8
Black
10
144.824
20
-39.097
11
144.024
21
-39.897
0
LINE
8
Black
10
145.65
20
-89.135
11
146.45
21
-89.935
0
LINE
8
Black
10
146.45
20
-89.135
11
145.65
21
-89.935
0
LINE
8
Black
10
145.65
20
-96.755
11
146.45
21
-97.555
0
LINE
8
Black
10
146.45
20
-96.755
11
145.65
21
-97.555
0
LINE
8
Black
10
146.564
20
-39.097
11
147.364
21
-39.897
0
LINE
8
Black
10
147.364
20
-39.097
11
146.564
21
-39.897
0
LINE
8
Black
10
149.104
20
-39.097
11
149.904
21
-39.897
0
LINE
8
Black
10
149.904
20
-39.097
11
149.104
21
-39.897
0
LINE
8
Black
10
151.644
20
-39.097
11
152.444
21
-39.897
0
LINE
8
Black
10
152.444
20
-39.097
11
151.644
21
-39.897
0
LINE
8
Black
10
152.127
20
-83.928
11
152.927
21
-84.728
0
LINE
8
Black
10
152.927
20
-83.928
11
152.127
21
-84.728
0
LINE
8
Black
10
154.184
20
-39.097
11
154.984
21
-39.897
0
LINE
8
Black
10
154.984
20
-39.097
11
154.184
21
-39.897
0
LINE
8
Black
10
155.81
20
-89.135
11
156.61
21
-89.935
0
LINE
8
Black
10
156.61
20
-89.135
11
155.81
21
-89.935
0
LINE
8
Black
10
155.81
20
-96.755
11
156.61
21
-97.555
0
LINE
8
Black
10
156.61
20
-96.755
11
155.81
21
-97.555
0
LINE
8
Black
10
156.724
20
-39.097
11
157.524
21
-39.897
0
LINE
8
Black
10
157.524
20
-39.097
11
156.724
21
-39.897
0
LINE
8
Black
10
167.215
20
-91.675
11
168.015
21
-92.475
0
LINE
8
Black
10
168.015
20
-91.675
11
167.215
21
-92.475
0
LINE
8
Black
10
167.24
20
-94.215
11
168.04
21
-95.015
0
LINE
8
Black
10
168.04
20
-94.215
11
167.24
21
-95.015
0
LINE
8
Black
10
169.526
20
-81.515
11
170.326
21
-82.315
0
LINE
8
Black
10
170.326
20
-81.515
11
169.526
21
-82.315
0
LINE
8
Black
10
169.526
20
-91.675
11
170.326
21
-92.475
0
LINE
8
Black
10
170.326
20
-91.675
11
169.526
21
-92.475
0
LINE
8
Black
10
170.669
20
-79.483
11
171.469
21
-80.283
0
LINE
8
Black
10
171.469
20
-79.483
11
170.669
21
-80.283
0
LINE
8
Black
10
173.209
20
-79.483
11
174.009
21
-80.283
0
LINE
8
Black
10
174.009
20
-79.483
11
173.209
21
-80.283
0
CIRCLE
8
Black
10
121.92
20
-87.122
40
0.5
0
CIRCLE
8
Black
10
121.92
20
-99.822
40
0.5
0
CIRCLE
8
Black
10
124.46
20
-87.122
40
0.5
0
CIRCLE
8
Black
10
124.46
20
-99.822
40
0.5
0
CIRCLE
8
Black
10
127
20
-87.122
40
0.5
0
CIRCLE
8
Black
10
127
20
-99.822
40
0.5
0
CIRCLE
8
Black
10
129.54
20
-87.122
40
0.5
0
CIRCLE
8
Black
10
129.54
20
-99.822
40
0.5
0
CIRCLE
8
Black
10
132.08
20
-87.122
40
0.5
0
CIRCLE
8
Black
10
132.08
20
-99.822
40
0.5
0
CIRCLE
8
Black
10
134.62
20
-87.122
40
0.5
0
CIRCLE
8
Black
10
134.62
20
-99.822
40
0.5
0
CIRCLE
8
Black
10
137.16
20
-87.122
40
0.5
0
CIRCLE
8
Black
10
137.16
20
-99.822
40
0.5
0
CIRCLE
8
Black
10
139.7
20
-87.122
40
0.5
0
CIRCLE
8
Black
10
139.7
20
-99.822
40
0.5
0
CIRCLE
8
Black
10
146.05
20
-87.122
40
0.5
0
CIRCLE
8
Black
10
146.05
20
-99.822
40
0.5
0
CIRCLE
8
Black
10
148.59
20
-87.122
40
0.5
0
CIRCLE
8
Black
10
148.59
20
-99.822
40
0.5
0
CIRCLE
8
Black
10
151.13
20
-87.122
40
0.5
0
CIRCLE
8
Black
10
151.13
20
-99.822
40
0.5
0
CIRCLE
8
Black
10
153.67
20
-87.122
40
0.5
0
CIRCLE
8
Black
10
153.67
20
-99.822
40
0.5
0
CIRCLE
8
Black
10
156.21
20
-87.122
40
0.5
0
CIRCLE
8
Black
10
156.21
20
-99.822
40
0.5
0
CIRCLE
8
Black
10
158.75
20
-87.122
40
0.5
0
CIRCLE
8
Black
10
158.75
20
-99.822
40
0.5
0
CIRCLE
8
Black
10
161.29
20
-87.122
40
0.5
0
CIRCLE
8
Black
10
161.29
20
-99.822
40
0.5
0
CIRCLE
8
Black
10
163.83
20
-87.122
40
0.5
0
CIRCLE
8
Black
10
163.83
20
-99.822
40
0.5
0
CIRCLE
8
Black
10
164.592
20
-107.95
40
0.5
0
CIRCLE
8
Black
10
164.592
20
-120.65
40
0.5
0
CIRCLE
8
Black
10
167.132
20
-107.95
40
0.5
0
CIRCLE
8
Black
10
169.672
20
-107.95
40
0.5
0
CIRCLE
8
Black
10
169.672
20
-120.65
40
0.5
0
LINE
8
Black
10
123.19
20
-107.069
11
123.19
21
-108.069
0
LINE
8
Black
10
122.69
20
-107.569
11
123.69
21
-107.569
0
LINE
8
Black
10
123.19
20
-109.609
11
123.19
21
-110.609
0
LINE
8
Black
10
122.69
20
-110.109
11
123.69
21
-110.109
0
LINE
8
Black
10
126.111
20
-109.609
11
126.111
21
-110.609
0
LINE
8
Black
10
125.611
20
-110.109
11
126.611
21
-110.109
0
LINE
8
Black
10
136.271
20
-109.609
11
136.271
21
-110.609
0
LINE
8
Black
10
135.771
20
-110.109
11
136.771
21
-110.109
0
LINE
8
Black
10
124.819
20
-103.991
11
124.819
21
-103.273
0
LINE
8
Black
10
124.819
20
-103.273
11
124.101
21
-103.273
0
LINE
8
Black
10
124.101
20
-103.273
11
124.101
21
-103.991
0
LINE
8
Black
10
124.101
20
-103.991
11
124.819
21
-103.991
0
LINE
8
Black
10
127.359
20
-103.991
11
127.359
21
-103.273
0
LINE
8
Black
10
127.359
20
-103.273
11
126.641
21
-103.273
0
LINE
8
Black
10
126.641
20
-103.273
11
126.641
21
-103.991
0
LINE
8
Black
10
126.641
20
-103.991
11
127.359
21
-103.991
0
LINE
8
Black
10
129.899
20
-103.991
11
129.899
21
-103.273
0
LINE
8
Black
10
129.899
20
-103.273
11
129.181
21
-103.273
0
LINE
8
Black
10
129.181
20
-103.273
11
129.181
21
-103.991
0
LINE
8
Black
10
129.181
20
-103.991
11
129.899
21
-103.991
0
LINE
8
Black
10
130.153
20
-75.9242
11
130.153
21
-75.2058
0
LINE
8
Black
10
130.153
20
-75.2058
11
129.435
21
-75.2058
0
LINE
8
Black
10
129.435
20
-75.2058
11
129.435
21
-75.9242
0
LINE
8
Black
10
129.435
20
-75.9242
11
130.153
21
-75.9242
0
LINE
8
Black
10
132.439
20
-81.0042
11
132.439
21
-80.2858
0
LINE
8
Black
10
132.439
20
-80.2858
11
131.721
21
-80.2858
0
LINE
8
Black
10
131.721
20
-80.2858
11
131.721
21
-81.0042
0
LINE
8
Black
10
131.721
20
-81.0042
11
132.439
21
-81.0042
0
LINE
8
Black
10
132.439
20
-83.5442
11
132.439
21
-82.8258
0
LINE
8
Black
10
132.439
20
-82.8258
11
131.721
21
-82.8258
0
LINE
8
Black
10
131.721
20
-82.8258
11
131.721
21
-83.5442
0
LINE
8
Black
10
131.721
20
-83.5442
11
132.439
21
-83.5442
0
LINE
8
Black
10
132.439
20
-103.991
11
132.439
21
-103.273
0
LINE
8
Black
10
132.439
20
-103.273
11
131.721
21
-103.273
0
LINE
8
Black
10
131.721
20
-103.273
11
131.721
21
-103.991
0
LINE
8
Black
10
131.721
20
-103.991
11
132.439
21
-103.991
0
LINE
8
Black
10
132.693
20
-75.9242
11
132.693
21
-75.2058
0
LINE
8
Black
10
132.693
20
-75.2058
11
131.975
21
-75.2058
0
LINE
8
Black
10
131.975
20
-75.2058
11
131.975
21
-75.9242
0
LINE
8
Black
10
131.975
20
-75.9242
11
132.693
21
-75.9242
0
LINE
8
Black
10
134.979
20
-81.0042
11
134.979
21
-80.2858
0
LINE
8
Black
10
134.979
20
-80.2858
11
134.261
21
-80.2858
0
LINE
8
Black
10
134.261
20
-80.2858
11
134.261
21
-81.0042
0
LINE
8
Black
10
134.261
20
-81.0042
11
134.979
21
-81.0042
0
LINE
8
Black
10
134.979
20
-83.5442
11
134.979
21
-82.8258
0
LINE
8
Black
10
134.979
20
-82.8258
11
134.261
21
-82.8258
0
LINE
8
Black
10
134.261
20
-82.8258
11
134.261
21
-83.5442
0
LINE
8
Black
10
134.261
20
-83.5442
11
134.979
21
-83.5442
0
LINE
8
Black
10
135.233
20
-75.9242
11
135.233
21
-75.2058
0
LINE
8
Black
10
135.233
20
-75.2058
11
134.515
21
-75.2058
0
LINE
8
Black
10
134.515
20
-75.2058
11
134.515
21
-75.9242
0
LINE
8
Black
10
134.515
20
-75.9242
11
135.233
21
-75.9242
0
LINE
8
Black
10
137.519
20
-81.0042
11
137.519
21
-80.2858
0
LINE
8
Black
10
137.519
20
-80.2858
11
136.801
21
-80.2858
0
LINE
8
Black
10
136.801
20
-80.2858
11
136.801
21
-81.0042
0
LINE
8
Black
10
136.801
20
-81.0042
11
137.519
21
-81.0042
0
LINE
8
Black
10
137.519
20
-83.5442
11
137.519
21
-82.8258
0
LINE
8
Black
10
137.519
20
-82.8258
11
136.801
21
-82.8258
0
LINE
8
Black
10
136.801
20
-82.8258
11
136.801
21
-83.5442
0
LINE
8
Black
10
136.801
20
-83.5442
11
137.519
21
-83.5442
0
LINE
8
Black
10
137.773
20
-75.9242
11
137.773
21
-75.2058
0
LINE
8
Black
10
137.773
20
-75.2058
11
137.055
21
-75.2058
0
LINE
8
Black
10
137.055
20
-75.2058
11
137.055
21
-75.9242
0
LINE
8
Black
10
137.055
20
-75.9242
11
137.773
21
-75.9242
0
LINE
8
Black
10
139.297
20
-124.184
11
139.297
21
-123.466
0
LINE
8
Black
10
139.297
20
-123.466
11
138.579
21
-123.466
0
LINE
8
Black
10
138.579
20
-123.466
11
138.579
21
-124.184
0
LINE
8
Black
10
138.579
20
-124.184
11
139.297
21
-124.184
0
LINE
8
Black
10
140.313
20
-75.9242
11
140.313
21
-75.2058
0
LINE
8
Black
10
140.313
20
-75.2058
11
139.595
21
-75.2058
0
LINE
8
Black
10
139.595
20
-75.2058
11
139.595
21
-75.9242
0
LINE
8
Black
10
139.595
20
-75.9242
11
140.313
21
-75.9242
0
LINE
8
Black
10
141.837
20
-124.184
11
141.837
21
-123.466
0
LINE
8
Black
10
141.837
20
-123.466
11
141.119
21
-123.466
0
LINE
8
Black
10
141.119
20
-123.466
11
141.119
21
-124.184
0
LINE
8
Black
10
141.119
20
-124.184
11
141.837
21
-124.184
0
LINE
8
Black
10
142.853
20
-75.9242
11
142.853
21
-75.2058
0
LINE
8
Black
10
142.853
20
-75.2058
11
142.135
21
-75.2058
0
LINE
8
Black
10
142.135
20
-75.2058
11
142.135
21
-75.9242
0
LINE
8
Black
10
142.135
20
-75.9242
11
142.853
21
-75.9242
0
LINE
8
Black
10
144.377
20
-124.184
11
144.377
21
-123.466
0
LINE
8
Black
10
144.377
20
-123.466
11
143.659
21
-123.466
0
LINE
8
Black
10
143.659
20
-123.466
11
143.659
21
-124.184
0
LINE
8
Black
10
143.659
20
-124.184
11
144.377
21
-124.184
0
LINE
8
Black
10
145.393
20
-75.9242
11
145.393
21
-75.2058
0
LINE
8
Black
10
145.393
20
-75.2058
11
144.675
21
-75.2058
0
LINE
8
Black
10
144.675
20
-75.2058
11
144.675
21
-75.9242
0
LINE
8
Black
10
144.675
20
-75.9242
11
145.393
21
-75.9242
0
LINE
8
Black
10
146.917
20
-124.184
11
146.917
21
-123.466
0
LINE
8
Black
10
146.917
20
-123.466
11
146.199
21
-123.466
0
LINE
8
Black
10
146.199
20
-123.466
11
146.199
21
-124.184
0
LINE
8
Black
10
146.199
20
-124.184
11
146.917
21
-124.184
0
LINE
8
Black
10
147.933
20
-75.9242
11
147.933
21
-75.2058
0
LINE
8
Black
10
147.933
20
-75.2058
11
147.215
21
-75.2058
0
LINE
8
Black
10
147.215
20
-75.2058
11
147.215
21
-75.9242
0
LINE
8
Black
10
147.215
20
-75.9242
11
147.933
21
-75.9242
0
LINE
8
Black
10
148.949
20
-103.991
11
148.949
21
-103.273
0
LINE
8
Black
10
148.949
20
-103.273
11
148.231
21
-103.273
0
LINE
8
Black
10
148.231
20
-103.273
11
148.231
21
-103.991
0
LINE
8
Black
10
148.231
20
-103.991
11
148.949
21
-103.991
0
LINE
8
Black
10
149.457
20
-124.184
11
149.457
21
-123.466
0
LINE
8
Black
10
149.457
20
-123.466
11
148.739
21
-123.466
0
LINE
8
Black
10
148.739
20
-123.466
11
148.739
21
-124.184
0
LINE
8
Black
10
148.739
20
-124.184
11
149.457
21
-124.184
0
LINE
8
Black
10
150.473
20
-75.9242
11
150.473
21
-75.2058
0
LINE
8
Black
10
150.473
20
-75.2058
11
149.755
21
-75.2058
0
LINE
8
Black
10
149.755
20
-75.2058
11
149.755
21
-75.9242
0
LINE
8
Black
10
149.755
20
-75.9242
11
150.473
21
-75.9242
0
LINE
8
Black
10
151.489
20
-103.991
11
151.489
21
-103.273
0
LINE
8
Black
10
151.489
20
-103.273
11
150.771
21
-103.273
0
LINE
8
Black
10
150.771
20
-103.273
11
150.771
21
-103.991
0
LINE
8
Black
10
150.771
20
-103.991
11
151.489
21
-103.991
0
LINE
8
Black
10
151.997
20
-124.184
11
151.997
21
-123.466
0
LINE
8
Black
10
151.997
20
-123.466
11
151.279
21
-123.466
0
LINE
8
Black
10
151.279
20
-123.466
11
151.279
21
-124.184
0
LINE
8
Black
10
151.279
20
-124.184
11
151.997
21
-124.184
0
LINE
8
Black
10
153.013
20
-75.9242
11
153.013
21
-75.2058
0
LINE
8
Black
10
153.013
20
-75.2058
11
152.295
21
-75.2058
0
LINE
8
Black
10
152.295
20
-75.2058
11
152.295
21
-75.9242
0
LINE
8
Black
10
152.295
20
-75.9242
11
153.013
21
-75.9242
0
LINE
8
Black
10
154.029
20
-103.991
11
154.029
21
-103.273
0
LINE
8
Black
10
154.029
20
-103.273
11
153.311
21
-103.273
0
LINE
8
Black
10
153.311
20
-103.273
11
153.311
21
-103.991
0
LINE
8
Black
10
153.311
20
-103.991
11
154.029
21
-103.991
0
LINE
8
Black
10
154.537
20
-124.184
11
154.537
21
-123.466
0
LINE
8
Black
10
154.537
20
-123.466
11
153.819
21
-123.466
0
LINE
8
Black
10
153.819
20
-123.466
11
153.819
21
-124.184
0
LINE
8
Black
10
153.819
20
-124.184
11
154.537
21
-124.184
0
LINE
8
Black
10
156.569
20
-81.0042
11
156.569
21
-80.2858
0
LINE
8
Black
10
156.569
20
-80.2858
11
155.851
21
-80.2858
0
LINE
8
Black
10
155.851
20
-80.2858
11
155.851
21
-81.0042
0
LINE
8
Black
10
155.851
20
-81.0042
11
156.569
21
-81.0042
0
LINE
8
Black
10
156.569
20
-83.5442
11
156.569
21
-82.8258
0
LINE
8
Black
10
156.569
20
-82.8258
11
155.851
21
-82.8258
0
LINE
8
Black
10
155.851
20
-82.8258
11
155.851
21
-83.5442
0
LINE
8
Black
10
155.851
20
-83.5442
11
156.569
21
-83.5442
0
LINE
8
Black
10
156.569
20
-103.991
11
156.569
21
-103.273
0
LINE
8
Black
10
156.569
20
-103.273
11
155.851
21
-103.273
0
LINE
8
Black
10
155.851
20
-103.273
11
155.851
21
-103.991
0
LINE
8
Black
10
155.851
20
-103.991
11
156.569
21
-103.991
0
LINE
8
Black
10
157.077
20
-75.9242
11
157.077
21
-75.2058
0
LINE
8
Black
10
157.077
20
-75.2058
11
156.359
21
-75.2058
0
LINE
8
Black
10
156.359
20
-75.2058
11
156.359
21
-75.9242
0
LINE
8
Black
10
156.359
20
-75.9242
11
157.077
21
-75.9242
0
LINE
8
Black
10
157.077
20
-124.184
11
157.077
21
-123.466
0
LINE
8
Black
10
157.077
20
-123.466
11
156.359
21
-123.466
0
LINE
8
Black
10
156.359
20
-123.466
11
156.359
21
-124.184
0
LINE
8
Black
10
156.359
20
-124.184
11
157.077
21
-124.184
0
LINE
8
Black
10
159.109
20
-81.0042
11
159.109
21
-80.2858
0
LINE
8
Black
10
159.109
20
-80.2858
11
158.391
21
-80.2858
0
LINE
8
Black
10
158.391
20
-80.2858
11
158.391
21
-81.0042
0
LINE
8
Black
10
158.391
20
-81.0042
11
159.109
21
-81.0042
0
LINE
8
Black
10
159.109
20
-83.5442
11
159.109
21
-82.8258
0
LINE
8
Black
10
159.109
20
-82.8258
11
158.391
21
-82.8258
0
LINE
8
Black
10
158.391
20
-82.8258
11
158.391
21
-83.5442
0
LINE
8
Black
10
158.391
20
-83.5442
11
159.109
21
-83.5442
0
LINE
8
Black
10
159.617
20
-75.9242
11
159.617
21
-75.2058
0
LINE
8
Black
10
159.617
20
-75.2058
11
158.899
21
-75.2058
0
LINE
8
Black
10
158.899
20
-75.2058
11
158.899
21
-75.9242
0
LINE
8
Black
10
158.899
20
-75.9242
11
159.617
21
-75.9242
0
LINE
8
Black
10
161.649
20
-81.0042
11
161.649
21
-80.2858
0
LINE
8
Black
10
161.649
20
-80.2858
11
160.931
21
-80.2858
0
LINE
8
Black
10
160.931
20
-80.2858
11
160.931
21
-81.0042
0
LINE
8
Black
10
160.931
20
-81.0042
11
161.649
21
-81.0042
0
LINE
8
Black
10
161.649
20
-83.5442
11
161.649
21
-82.8258
0
LINE
8
Black
10
161.649
20
-82.8258
11
160.931
21
-82.8258
0
LINE
8
Black
10
160.931
20
-82.8258
11
160.931
21
-83.5442
0
LINE
8
Black
10
160.931
20
-83.5442
11
161.649
21
-83.5442
0
LINE
8
Black
10
162.157
20
-75.9242
11
162.157
21
-75.2058
0
LINE
8
Black
10
162.157
20
-75.2058
11
161.439
21
-75.2058
0
LINE
8
Black
10
161.439
20
-75.2058
11
161.439
21
-75.9242
0
LINE
8
Black
10
161.439
20
-75.9242
11
162.157
21
-75.9242
0
LINE
8
Black
10
162.157
20
-124.184
11
162.157
21
-123.466
0
LINE
8
Black
10
162.157
20
-123.466
11
161.439
21
-123.466
0
LINE
8
Black
10
161.439
20
-123.466
11
161.439
21
-124.184
0
LINE
8
Black
10
161.439
20
-124.184
11
162.157
21
-124.184
0
LINE
8
Black
10
164.697
20
-75.9242
11
164.697
21
-75.2058
0
LINE
8
Black
10
164.697
20
-75.2058
11
163.979
21
-75.2058
0
LINE
8
Black
10
163.979
20
-75.2058
11
163.979
21
-75.9242
0
LINE
8
Black
10
163.979
20
-75.9242
11
164.697
21
-75.9242
0
LINE
8
Black
10
164.697
20
-124.184
11
164.697
21
-123.466
0
LINE
8
Black
10
164.697
20
-123.466
11
163.979
21
-123.466
0
LINE
8
Black
10
163.979
20
-123.466
11
163.979
21
-124.184
0
LINE
8
Black
10
163.979
20
-124.184
11
164.697
21
-124.184
0
LINE
8
Black
10
167.237
20
-75.9242
11
167.237
21
-75.2058
0
LINE
8
Black
10
167.237
20
-75.2058
11
166.519
21
-75.2058
0
LINE
8
Black
10
166.519
20
-75.2058
11
166.519
21
-75.9242
0
LINE
8
Black
10
166.519
20
-75.9242
11
167.237
21
-75.9242
0
LINE
8
Black
10
167.237
20
-124.184
11
167.237
21
-123.466
0
LINE
8
Black
10
167.237
20
-123.466
11
166.519
21
-123.466
0
LINE
8
Black
10
166.519
20
-123.466
11
166.519
21
-124.184
0
LINE
8
Black
10
166.519
20
-124.184
11
167.237
21
-124.184
0
LINE
8
Black
10
169.777
20
-75.9242
11
169.777
21
-75.2058
0
LINE
8
Black
10
169.777
20
-75.2058
11
169.059
21
-75.2058
0
LINE
8
Black
10
169.059
20
-75.2058
11
169.059
21
-75.9242
0
LINE
8
Black
10
169.059
20
-75.9242
11
169.777
21
-75.9242
0
LINE
8
Black
10
169.777
20
-124.184
11
169.777
21
-123.466
0
LINE
8
Black
10
169.777
20
-123.466
11
169.059
21
-123.466
0
LINE
8
Black
10
169.059
20
-123.466
11
169.059
21
-124.184
0
LINE
8
Black
10
169.059
20
-124.184
11
169.777
21
-124.184
0
LINE
8
Black
10
172.317
20
-75.9242
11
172.317
21
-75.2058
0
LINE
8
Black
10
172.317
20
-75.2058
11
171.599
21
-75.2058
0
LINE
8
Black
10
171.599
20
-75.2058
11
171.599
21
-75.9242
0
LINE
8
Black
10
171.599
20
-75.9242
11
172.317
21
-75.9242
0
LINE
8
Black
10
172.317
20
-124.184
11
172.317
21
-123.466
0
LINE
8
Black
10
172.317
20
-123.466
11
171.599
21
-123.466
0
LINE
8
Black
10
171.599
20
-123.466
11
171.599
21
-124.184
0
LINE
8
Black
10
171.599
20
-124.184
11
172.317
21
-124.184
0
LINE
8
Black
10
174.857
20
-75.9242
11
174.857
21
-75.2058
0
LINE
8
Black
10
174.857
20
-75.2058
11
174.139
21
-75.2058
0
LINE
8
Black
10
174.139
20
-75.2058
11
174.139
21
-75.9242
0
LINE
8
Black
10
174.139
20
-75.9242
11
174.857
21
-75.9242
0
LINE
8
Black
10
174.857
20
-124.184
11
174.857
21
-123.466
0
LINE
8
Black
10
174.857
20
-123.466
11
174.139
21
-123.466
0
LINE
8
Black
10
174.139
20
-123.466
11
174.139
21
-124.184
0
LINE
8
Black
10
174.139
20
-124.184
11
174.857
21
-124.184
0
LINE
8
Black
10
119.024
20
-45.127
11
119.574
21
-44.577
0
LINE
8
Black
10
119.574
20
-44.577
11
119.024
21
-44.027
0
LINE
8
Black
10
119.024
20
-44.027
11
118.474
21
-44.577
0
LINE
8
Black
10
118.474
20
-44.577
11
119.024
21
-45.127
0
LINE
8
Black
10
119.024
20
-47.667
11
119.574
21
-47.117
0
LINE
8
Black
10
119.574
20
-47.117
11
119.024
21
-46.567
0
LINE
8
Black
10
119.024
20
-46.567
11
118.474
21
-47.117
0
LINE
8
Black
10
118.474
20
-47.117
11
119.024
21
-47.667
0
LINE
8
Black
10
119.024
20
-50.207
11
119.574
21
-49.657
0
LINE
8
Black
10
119.574
20
-49.657
11
119.024
21
-49.107
0
LINE
8
Black
10
119.024
20
-49.107
11
118.474
21
-49.657
0
LINE
8
Black
10
118.474
20
-49.657
11
119.024
21
-50.207
0
LINE
8
Black
10
119.024
20
-52.747
11
119.574
21
-52.197
0
LINE
8
Black
10
119.574
20
-52.197
11
119.024
21
-51.647
0
LINE
8
Black
10
119.024
20
-51.647
11
118.474
21
-52.197
0
LINE
8
Black
10
118.474
20
-52.197
11
119.024
21
-52.747
0
LINE
8
Black
10
118.437
20
-38.8843
11
119.637
21
-40.0843
0
LINE
8
Black
10
119.637
20
-38.8843
11
118.437
21
-40.0843
0
CIRCLE
8
Black
10
119.037
20
-39.4843
40
0.6
0
LINE
8
Black
10
120.977
20
-38.8843
11
122.177
21
-40.0843
0
LINE
8
Black
10
122.177
20
-38.8843
11
120.977
21
-40.0843
0
CIRCLE
8
Black
10
121.577
20
-39.4843
40
0.6
0
LINE
8
Black
10
123.517
20
-38.8843
11
124.717
21
-40.0843
0
LINE
8
Black
10
124.717
20
-38.8843
11
123.517
21
-40.0843
0
CIRCLE
8
Black
10
124.117
20
-39.4843
40
0.6
0
LINE
8
Black
10
126.057
20
-38.8843
11
127.257
21
-40.0843
0
LINE
8
Black
10
127.257
20
-38.8843
11
126.057
21
-40.0843
0
CIRCLE
8
Black
10
126.657
20
-39.4843
40
0.6
0
LINE
8
Black
10
128.597
20
-38.8843
11
129.797
21
-40.0843
0
LINE
8
Black
10
129.797
20
-38.8843
11
128.597
21
-40.0843
0
CIRCLE
8
Black
10
129.197
20
-39.4843
40
0.6
0
LINE
8
Black
10
131.137
20
-38.8843
11
132.337
21
-40.0843
0
LINE
8
Black
10
132.337
20
-38.8843
11
131.137
21
-40.0843
0
CIRCLE
8
Black
10
131.737
20
-39.4843
40
0.6
0
LINE
8
Black
10
133.677
20
-38.8843
11
134.877
21
-40.0843
0
LINE
8
Black
10
134.877
20
-38.8843
11
133.677
21
-40.0843
0
CIRCLE
8
Black
10
134.277
20
-39.4843
40
0.6
0
LINE
8
Black
10
136.217
20
-38.8843
11
137.417
21
-40.0843
0
LINE
8
Black
10
137.417
20
-38.8843
11
136.217
21
-40.0843
0
CIRCLE
8
Black
10
136.817
20
-39.4843
40
0.6
0
LINE
8
Black
10
138.757
20
-38.8843
11
139.957
21
-40.0843
0
LINE
8
Black
10
139.957
20
-38.8843
11
138.757
21
-40.0843
0
CIRCLE
8
Black
10
139.357
20
-39.4843
40
0.6
0
LINE
8
Black
10
141.297
20
-38.8843
11
142.497
21
-40.0843
0
LINE
8
Black
10
142.497
20
-38.8843
11
141.297
21
-40.0843
0
CIRCLE
8
Black
10
141.897
20
-39.4843
40
0.6
0
LINE
8
Black
10
143.837
20
-38.8843
11
145.037
21
-40.0843
0
LINE
8
Black
10
145.037
20
-38.8843
11
143.837
21
-40.0843
0
CIRCLE
8
Black
10
144.437
20
-39.4843
40
0.6
0
LINE
8
Black
10
145.958
20
-116.885
11
147.158
21
-118.085
0
LINE
8
Black
10
147.158
20
-116.885
11
145.958
21
-118.085
0
CIRCLE
8
Black
10
146.558
20
-117.485
40
0.6
0
LINE
8
Black
10
145.978
20
-113.745
11
147.178
21
-114.945
0
LINE
8
Black
10
147.178
20
-113.745
11
145.978
21
-114.945
0
CIRCLE
8
Black
10
146.578
20
-114.345
40
0.6
0
LINE
8
Black
10
146.377
20
-38.8843
11
147.577
21
-40.0843
0
LINE
8
Black
10
147.577
20
-38.8843
11
146.377
21
-40.0843
0
CIRCLE
8
Black
10
146.977
20
-39.4843
40
0.6
0
LINE
8
Black
10
148.917
20
-38.8843
11
150.117
21
-40.0843
0
LINE
8
Black
10
150.117
20
-38.8843
11
148.917
21
-40.0843
0
CIRCLE
8
Black
10
149.517
20
-39.4843
40
0.6
0
LINE
8
Black
10
151.457
20
-38.8843
11
152.657
21
-40.0843
0
LINE
8
Black
10
152.657
20
-38.8843
11
151.457
21
-40.0843
0
CIRCLE
8
Black
10
152.057
20
-39.4843
40
0.6
0
LINE
8
Black
10
153.997
20
-38.8843
11
155.197
21
-40.0843
0
LINE
8
Black
10
155.197
20
-38.8843
11
153.997
21
-40.0843
0
CIRCLE
8
Black
10
154.597
20
-39.4843
40
0.6
0
LINE
8
Black
10
156.118
20
-116.885
11
157.318
21
-118.085
0
LINE
8
Black
10
157.318
20
-116.885
11
156.118
21
-118.085
0
CIRCLE
8
Black
10
156.718
20
-117.485
40
0.6
0
LINE
8
Black
10
156.138
20
-113.745
11
157.338
21
-114.945
0
LINE
8
Black
10
157.338
20
-113.745
11
156.138
21
-114.945
0
CIRCLE
8
Black
10
156.738
20
-114.345
40
0.6
0
LINE
8
Black
10
156.537
20
-38.8843
11
157.737
21
-40.0843
0
LINE
8
Black
10
157.737
20
-38.8843
11
156.537
21
-40.0843
0
CIRCLE
8
Black
10
157.137
20
-39.4843
40
0.6
0
LINE
8
Black
10
114.046
20
-97.483
11
115.57
21
-99.007
0
LINE
8
Black
10
115.57
20
-97.483
11
114.046
21
-99.007
0
LINE
8
Black
10
114.808
20
-97.483
11
114.808
21
-99.007
0
LINE
8
Black
10
114.046
20
-98.245
11
115.57
21
-98.245
0
LINE
8
Black
10
114.046
20
-102.563
11
115.57
21
-104.087
0
LINE
8
Black
10
115.57
20
-102.563
11
114.046
21
-104.087
0
LINE
8
Black
10
114.808
20
-102.563
11
114.808
21
-104.087
0
LINE
8
Black
10
114.046
20
-103.325
11
115.57
21
-103.325
0
LINE
8
Black
10
159.532
20
-113.05
11
162.032
21
-115.55
0
LINE
8
Black
10
162.032
20
-113.05
11
159.532
21
-115.55
0
LINE
8
Black
10
161.666
20
-115.184
11
161.666
21
-113.416
0
LINE
8
Black
10
161.666
20
-113.416
11
159.898
21
-113.416
0
LINE
8
Black
10
159.898
20
-113.416
11
159.898
21
-115.184
0
LINE
8
Black
10
159.898
20
-115.184
11
161.666
21
-115.184
0
LINE
8
Black
10
172.232
20
-113.05
11
174.732
21
-115.55
0
LINE
8
Black
10
174.732
20
-113.05
11
172.232
21
-115.55
0
LINE
8
Black
10
174.366
20
-115.184
11
174.366
21
-113.416
0
LINE
8
Black
10
174.366
20
-113.416
11
172.598
21
-113.416
0
LINE
8
Black
10
172.598
20
-113.416
11
172.598
21
-115.184
0
LINE
8
Black
10
172.598
20
-115.184
11
174.366
21
-115.184
0
LINE
8
Black
10
187.287
20
-38.2343
11
189.787
21
-40.7343
0
LINE
8
Black
10
189.787
20
-38.2343
11
187.287
21
-40.7343
0
LINE
8
Black
10
189.42
20
-40.3682
11
189.42
21
-38.6004
0
LINE
8
Black
10
189.42
20
-38.6004
11
187.653
21
-38.6004
0
LINE
8
Black
10
187.653
20
-38.6004
11
187.653
21
-40.3682
0
LINE
8
Black
10
187.653
20
-40.3682
11
189.42
21
-40.3682
0
LINE
8
Black
10
187.287
20
-69.235
11
189.787
21
-71.735
0
LINE
8
Black
10
189.787
20
-69.235
11
187.287
21
-71.735
0
LINE
8
Black
10
189.42
20
-71.3689
11
189.42
21
-69.6011
0
LINE
8
Black
10
189.42
20
-69.6011
11
187.653
21
-69.6011
0
LINE
8
Black
10
187.653
20
-69.6011
11
187.653
21
-71.3689
0
LINE
8
Black
10
187.653
20
-71.3689
11
189.42
21
-71.3689
0
LINE
8
Black
10
112.014
20
-37.9603
11
115.062
21
-41.0083
0
LINE
8
Black
10
115.062
20
-37.9603
11
112.014
21
-41.0083
0
LINE
8
Black
10
113.538
20
-41.0083
11
115.062
21
-39.4843
0
LINE
8
Black
10
115.062
20
-39.4843
11
113.538
21
-37.9603
0
LINE
8
Black
10
113.538
20
-37.9603
11
112.014
21
-39.4843
0
LINE
8
Black
10
112.014
20
-39.4843
11
113.538
21
-41.0083
0
LINE
8
Black
10
112.014
20
-68.961
11
115.062
21
-72.009
0
LINE
8
Black
10
115.062
20
-68.961
11
112.014
21
-72.009
0
LINE
8
Black
10
113.538
20
-72.009
11
115.062
21
-70.485
0
LINE
8
Black
10
115.062
20
-70.485
11
113.538
21
-68.961
0
LINE
8
Black
10
113.538
20
-68.961
11
112.014
21
-70.485
0
LINE
8
Black
10
112.014
20
-70.485
11
113.538
21
-72.009
0
LINE
8
Black
10
123.444
20
-122.301
11
126.492
21
-125.349
0
LINE
8
Black
10
126.492
20
-122.301
11
123.444
21
-125.349
0
LINE
8
Black
10
124.968
20
-125.349
11
126.492
21
-123.825
0
LINE
8
Black
10
126.492
20
-123.825
11
124.968
21
-122.301
0
LINE
8
Black
10
124.968
20
-122.301
11
123.444
21
-123.825
0
LINE
8
Black
10
123.444
20
-123.825
11
124.968
21
-125.349
0
LINE
8
Black
10
124.714
20
-74.041
11
127.762
21
-77.089
0
LINE
8
Black
10
127.762
20
-74.041
11
124.714
21
-77.089
0
LINE
8
Black
10
126.238
20
-77.089
11
127.762
21
-75.565
0
LINE
8
Black
10
127.762
20
-75.565
11
126.238
21
-74.041
0
LINE
8
Black
10
126.238
20
-74.041
11
124.714
21
-75.565
0
LINE
8
Black
10
124.714
20
-75.565
11
126.238
21
-77.089
0
LINE
8
Black
10
175.514
20
-89.281
11
178.562
21
-92.329
0
LINE
8
Black
10
178.562
20
-89.281
11
175.514
21
-92.329
0
LINE
8
Black
10
177.038
20
-92.329
11
178.562
21
-90.805
0
LINE
8
Black
10
178.562
20
-90.805
11
177.038
21
-89.281
0
LINE
8
Black
10
177.038
20
-89.281
11
175.514
21
-90.805
0
LINE
8
Black
10
175.514
20
-90.805
11
177.038
21
-92.329
0
LINE
8
Black
10
175.514
20
-117.221
11
178.562
21
-120.269
0
LINE
8
Black
10
178.562
20
-117.221
11
175.514
21
-120.269
0
LINE
8
Black
10
177.038
20
-120.269
11
178.562
21
-118.745
0
LINE
8
Black
10
178.562
20
-118.745
11
177.038
21
-117.221
0
LINE
8
Black
10
177.038
20
-117.221
11
175.514
21
-118.745
0
LINE
8
Black
10
175.514
20
-118.745
11
177.038
21
-120.269
0
LINE
8
Black
10
113.637
20
-131.097
11
113.637
21
-128.097
0
LINE
8
Black
10
113.637
20
-128.097
11
114.352
21
-128.097
0
LINE
8
Black
10
114.352
20
-128.097
11
114.78
21
-128.24
0
LINE
8
Black
10
114.78
20
-128.24
11
115.066
21
-128.526
0
LINE
8
Black
10
115.066
20
-128.526
11
115.209
21
-128.811
0
LINE
8
Black
10
115.209
20
-128.811
11
115.352
21
-129.383
0
LINE
8
Black
10
115.352
20
-129.383
11
115.352
21
-129.811
0
LINE
8
Black
10
115.352
20
-129.811
11
115.209
21
-130.383
0
LINE
8
Black
10
115.209
20
-130.383
11
115.066
21
-130.669
0
LINE
8
Black
10
115.066
20
-130.669
11
114.78
21
-130.954
0
LINE
8
Black
10
114.78
20
-130.954
11
114.352
21
-131.097
0
LINE
8
Black
10
114.352
20
-131.097
11
113.637
21
-131.097
0
LINE
8
Black
10
116.637
20
-131.097
11
116.637
21
-129.097
0
LINE
8
Black
10
116.637
20
-129.669
11
116.78
21
-129.383
0
LINE
8
Black
10
116.78
20
-129.383
11
116.923
21
-129.24
0
LINE
8
Black
10
116.923
20
-129.24
11
117.209
21
-129.097
0
LINE
8
Black
10
117.209
20
-129.097
11
117.494
21
-129.097
0
LINE
8
Black
10
118.494
20
-131.097
11
118.494
21
-129.097
0
LINE
8
Black
10
118.494
20
-128.097
11
118.352
21
-128.24
0
LINE
8
Black
10
118.352
20
-128.24
11
118.494
21
-128.383
0
LINE
8
Black
10
118.494
20
-128.383
11
118.637
21
-128.24
0
LINE
8
Black
10
118.637
20
-128.24
11
118.494
21
-128.097
0
LINE
8
Black
10
118.494
20
-128.097
11
118.494
21
-128.383
0
LINE
8
Black
10
120.352
20
-131.097
11
120.066
21
-130.954
0
LINE
8
Black
10
120.066
20
-130.954
11
119.923
21
-130.669
0
LINE
8
Black
10
119.923
20
-130.669
11
119.923
21
-128.097
0
LINE
8
Black
10
121.923
20
-131.097
11
121.637
21
-130.954
0
LINE
8
Black
10
121.637
20
-130.954
11
121.494
21
-130.669
0
LINE
8
Black
10
121.494
20
-130.669
11
121.494
21
-128.097
0
LINE
8
Black
10
125.352
20
-131.097
11
125.352
21
-128.097
0
LINE
8
Black
10
125.352
20
-128.097
11
126.352
21
-130.24
0
LINE
8
Black
10
126.352
20
-130.24
11
127.352
21
-128.097
0
LINE
8
Black
10
127.352
20
-128.097
11
127.352
21
-131.097
0
LINE
8
Black
10
130.066
20
-131.097
11
130.066
21
-129.526
0
LINE
8
Black
10
130.066
20
-129.526
11
129.923
21
-129.24
0
LINE
8
Black
10
129.923
20
-129.24
11
129.637
21
-129.097
0
LINE
8
Black
10
129.637
20
-129.097
11
129.066
21
-129.097
0
LINE
8
Black
10
129.066
20
-129.097
11
128.78
21
-129.24
0
LINE
8
Black
10
130.066
20
-130.954
11
129.78
21
-131.097
0
LINE
8
Black
10
129.78
20
-131.097
11
129.066
21
-131.097
0
LINE
8
Black
10
129.066
20
-131.097
11
128.78
21
-130.954
0
LINE
8
Black
10
128.78
20
-130.954
11
128.637
21
-130.669
0
LINE
8
Black
10
128.637
20
-130.669
11
128.637
21
-130.383
0
LINE
8
Black
10
128.637
20
-130.383
11
128.78
21
-130.097
0
LINE
8
Black
10
128.78
20
-130.097
11
129.066
21
-129.954
0
LINE
8
Black
10
129.066
20
-129.954
11
129.78
21
-129.954
0
LINE
8
Black
10
129.78
20
-129.954
11
130.066
21
-129.811
0
LINE
8
Black
10
131.494
20
-129.097
11
131.494
21
-132.097
0
LINE
8
Black
10
131.494
20
-129.24
11
131.78
21
-129.097
0
LINE
8
Black
10
131.78
20
-129.097
11
132.352
21
-129.097
0
LINE
8
Black
10
132.352
20
-129.097
11
132.637
21
-129.24
0
LINE
8
Black
10
132.637
20
-129.24
11
132.78
21
-129.383
0
LINE
8
Black
10
132.78
20
-129.383
11
132.923
21
-129.669
0
LINE
8
Black
10
132.923
20
-129.669
11
132.923
21
-130.526
0
LINE
8
Black
10
132.923
20
-130.526
11
132.78
21
-130.811
0
LINE
8
Black
10
132.78
20
-130.811
11
132.637
21
-130.954
0
LINE
8
Black
10
132.637
20
-130.954
11
132.352
21
-131.097
0
LINE
8
Black
10
132.352
20
-131.097
11
131.78
21
-131.097
0
LINE
8
Black
10
131.78
20
-131.097
11
131.494
21
-130.954
0
LINE
8
Black
10
134.209
20
-130.811
11
134.352
21
-130.954
0
LINE
8
Black
10
134.352
20
-130.954
11
134.209
21
-131.097
0
LINE
8
Black
10
134.209
20
-131.097
11
134.066
21
-130.954
0
LINE
8
Black
10
134.066
20
-130.954
11
134.209
21
-130.811
0
LINE
8
Black
10
134.209
20
-130.811
11
134.209
21
-131.097
0
LINE
8
Black
10
134.209
20
-129.24
11
134.352
21
-129.383
0
LINE
8
Black
10
134.352
20
-129.383
11
134.209
21
-129.526
0
LINE
8
Black
10
134.209
20
-129.526
11
134.066
21
-129.383
0
LINE
8
Black
10
134.066
20
-129.383
11
134.209
21
-129.24
0
LINE
8
Black
10
134.209
20
-129.24
11
134.209
21
-129.526
0
LINE
8
Black
10
110.123
20
-135.64
11
110.923
21
-136.44
0
LINE
8
Black
10
110.923
20
-135.64
11
110.123
21
-136.44
0
LINE
8
Black
10
114.209
20
-134.397
11
114.494
21
-134.397
0
LINE
8
Black
10
114.494
20
-134.397
11
114.78
21
-134.54
0
LINE
8
Black
10
114.78
20
-134.54
11
114.923
21
-134.683
0
LINE
8
Black
10
114.923
20
-134.683
11
115.066
21
-134.969
0
LINE
8
Black
10
115.066
20
-134.969
11
115.209
21
-135.54
0
LINE
8
Black
10
115.209
20
-135.54
11
115.209
21
-136.254
0
LINE
8
Black
10
115.209
20
-136.254
11
115.066
21
-136.826
0
LINE
8
Black
10
115.066
20
-136.826
11
114.923
21
-137.111
0
LINE
8
Black
10
114.923
20
-137.111
11
114.78
21
-137.254
0
LINE
8
Black
10
114.78
20
-137.254
11
114.494
21
-137.397
0
LINE
8
Black
10
114.494
20
-137.397
11
114.209
21
-137.397
0
LINE
8
Black
10
114.209
20
-137.397
11
113.923
21
-137.254
0
LINE
8
Black
10
113.923
20
-137.254
11
113.78
21
-137.111
0
LINE
8
Black
10
113.78
20
-137.111
11
113.637
21
-136.826
0
LINE
8
Black
10
113.637
20
-136.826
11
113.494
21
-136.254
0
LINE
8
Black
10
113.494
20
-136.254
11
113.494
21
-135.54
0
LINE
8
Black
10
113.494
20
-135.54
11
113.637
21
-134.969
0
LINE
8
Black
10
113.637
20
-134.969
11
113.78
21
-134.683
0
LINE
8
Black
10
113.78
20
-134.683
11
113.923
21
-134.54
0
LINE
8
Black
10
113.923
20
-134.54
11
114.209
21
-134.397
0
LINE
8
Black
10
116.494
20
-137.111
11
116.637
21
-137.254
0
LINE
8
Black
10
116.637
20
-137.254
11
116.494
21
-137.397
0
LINE
8
Black
10
116.494
20
-137.397
11
116.352
21
-137.254
0
LINE
8
Black
10
116.352
20
-137.254
11
116.494
21
-137.111
0
LINE
8
Black
10
116.494
20
-137.111
11
116.494
21
-137.397
0
LINE
8
Black
10
118.352
20
-135.683
11
118.066
21
-135.54
0
LINE
8
Black
10
118.066
20
-135.54
11
117.923
21
-135.397
0
LINE
8
Black
10
117.923
20
-135.397
11
117.78
21
-135.111
0
LINE
8
Black
10
117.78
20
-135.111
11
117.78
21
-134.969
0
LINE
8
Black
10
117.78
20
-134.969
11
117.923
21
-134.683
0
LINE
8
Black
10
117.923
20
-134.683
11
118.066
21
-134.54
0
LINE
8
Black
10
118.066
20
-134.54
11
118.352
21
-134.397
0
LINE
8
Black
10
118.352
20
-134.397
11
118.923
21
-134.397
0
LINE
8
Black
10
118.923
20
-134.397
11
119.209
21
-134.54
0
LINE
8
Black
10
119.209
20
-134.54
11
119.352
21
-134.683
0
LINE
8
Black
10
119.352
20
-134.683
11
119.494
21
-134.969
0
LINE
8
Black
10
119.494
20
-134.969
11
119.494
21
-135.111
0
LINE
8
Black
10
119.494
20
-135.111
11
119.352
21
-135.397
0
LINE
8
Black
10
119.352
20
-135.397
11
119.209
21
-135.54
0
LINE
8
Black
10
119.209
20
-135.54
11
118.923
21
-135.683
0
LINE
8
Black
10
118.923
20
-135.683
11
118.352
21
-135.683
0
LINE
8
Black
10
118.352
20
-135.683
11
118.066
21
-135.826
0
LINE
8
Black
10
118.066
20
-135.826
11
117.923
21
-135.969
0
LINE
8
Black
10
117.923
20
-135.969
11
117.78
21
-136.254
0
LINE
8
Black
10
117.78
20
-136.254
11
117.78
21
-136.826
0
LINE
8
Black
10
117.78
20
-136.826
11
117.923
21
-137.111
0
LINE
8
Black
10
117.923
20
-137.111
11
118.066
21
-137.254
0
LINE
8
Black
10
118.066
20
-137.254
11
118.352
21
-137.397
0
LINE
8
Black
10
118.352
20
-137.397
11
118.923
21
-137.397
0
LINE
8
Black
10
118.923
20
-137.397
11
119.209
21
-137.254
0
LINE
8
Black
10
119.209
20
-137.254
11
119.352
21
-137.111
0
LINE
8
Black
10
119.352
20
-137.111
11
119.494
21
-136.826
0
LINE
8
Black
10
119.494
20
-136.826
11
119.494
21
-136.254
0
LINE
8
Black
10
119.494
20
-136.254
11
119.352
21
-135.969
0
LINE
8
Black
10
119.352
20
-135.969
11
119.209
21
-135.826
0
LINE
8
Black
10
119.209
20
-135.826
11
118.923
21
-135.683
0
LINE
8
Black
10
121.352
20
-134.397
11
121.637
21
-134.397
0
LINE
8
Black
10
121.637
20
-134.397
11
121.923
21
-134.54
0
LINE
8
Black
10
121.923
20
-134.54
11
122.066
21
-134.683
0
LINE
8
Black
10
122.066
20
-134.683
11
122.209
21
-134.969
0
LINE
8
Black
10
122.209
20
-134.969
11
122.352
21
-135.54
0
LINE
8
Black
10
122.352
20
-135.54
11
122.352
21
-136.254
0
LINE
8
Black
10
122.352
20
-136.254
11
122.209
21
-136.826
0
LINE
8
Black
10
122.209
20
-136.826
11
122.066
21
-137.111
0
LINE
8
Black
10
122.066
20
-137.111
11
121.923
21
-137.254
0
LINE
8
Black
10
121.923
20
-137.254
11
121.637
21
-137.397
0
LINE
8
Black
10
121.637
20
-137.397
11
121.352
21
-137.397
0
LINE
8
Black
10
121.352
20
-137.397
11
121.066
21
-137.254
0
LINE
8
Black
10
121.066
20
-137.254
11
120.923
21
-137.111
0
LINE
8
Black
10
120.923
20
-137.111
11
120.78
21
-136.826
0
LINE
8
Black
10
120.78
20
-136.826
11
120.637
21
-136.254
0
LINE
8
Black
10
120.637
20
-136.254
11
120.637
21
-135.54
0
LINE
8
Black
10
120.637
20
-135.54
11
120.78
21
-134.969
0
LINE
8
Black
10
120.78
20
-134.969
11
120.923
21
-134.683
0
LINE
8
Black
10
120.923
20
-134.683
11
121.066
21
-134.54
0
LINE
8
Black
10
121.066
20
-134.54
11
121.352
21
-134.397
0
LINE
8
Black
10
123.637
20
-137.397
11
123.637
21
-135.397
0
LINE
8
Black
10
123.637
20
-135.683
11
123.78
21
-135.54
0
LINE
8
Black
10
123.78
20
-135.54
11
124.066
21
-135.397
0
LINE
8
Black
10
124.066
20
-135.397
11
124.494
21
-135.397
0
LINE
8
Black
10
124.494
20
-135.397
11
124.78
21
-135.54
0
LINE
8
Black
10
124.78
20
-135.54
11
124.923
21
-135.826
0
LINE
8
Black
10
124.923
20
-135.826
11
124.923
21
-137.397
0
LINE
8
Black
10
124.923
20
-135.826
11
125.066
21
-135.54
0
LINE
8
Black
10
125.066
20
-135.54
11
125.352
21
-135.397
0
LINE
8
Black
10
125.352
20
-135.397
11
125.78
21
-135.397
0
LINE
8
Black
10
125.78
20
-135.397
11
126.066
21
-135.54
0
LINE
8
Black
10
126.066
20
-135.54
11
126.209
21
-135.826
0
LINE
8
Black
10
126.209
20
-135.826
11
126.209
21
-137.397
0
LINE
8
Black
10
127.637
20
-137.397
11
127.637
21
-135.397
0
LINE
8
Black
10
127.637
20
-135.683
11
127.78
21
-135.54
0
LINE
8
Black
10
127.78
20
-135.54
11
128.066
21
-135.397
0
LINE
8
Black
10
128.066
20
-135.397
11
128.494
21
-135.397
0
LINE
8
Black
10
128.494
20
-135.397
11
128.78
21
-135.54
0
LINE
8
Black
10
128.78
20
-135.54
11
128.923
21
-135.826
0
LINE
8
Black
10
128.923
20
-135.826
11
128.923
21
-137.397
0
LINE
8
Black
10
128.923
20
-135.826
11
129.066
21
-135.54
0
LINE
8
Black
10
129.066
20
-135.54
11
129.352
21
-135.397
0
LINE
8
Black
10
129.352
20
-135.397
11
129.78
21
-135.397
0
LINE
8
Black
10
129.78
20
-135.397
11
130.066
21
-135.54
0
LINE
8
Black
10
130.066
20
-135.54
11
130.209
21
-135.826
0
LINE
8
Black
10
130.209
20
-135.826
11
130.209
21
-137.397
0
LINE
8
Black
10
136.066
20
-134.254
11
133.494
21
-138.111
0
LINE
8
Black
10
139.923
20
-134.397
11
140.209
21
-134.397
0
LINE
8
Black
10
140.209
20
-134.397
11
140.494
21
-134.54
0
LINE
8
Black
10
140.494
20
-134.54
11
140.637
21
-134.683
0
LINE
8
Black
10
140.637
20
-134.683
11
140.78
21
-134.969
0
LINE
8
Black
10
140.78
20
-134.969
11
140.923
21
-135.54
0
LINE
8
Black
10
140.923
20
-135.54
11
140.923
21
-136.254
0
LINE
8
Black
10
140.923
20
-136.254
11
140.78
21
-136.826
0
LINE
8
Black
10
140.78
20
-136.826
11
140.637
21
-137.111
0
LINE
8
Black
10
140.637
20
-137.111
11
140.494
21
-137.254
0
LINE
8
Black
10
140.494
20
-137.254
11
140.209
21
-137.397
0
LINE
8
Black
10
140.209
20
-137.397
11
139.923
21
-137.397
0
LINE
8
Black
10
139.923
20
-137.397
11
139.637
21
-137.254
0
LINE
8
Black
10
139.637
20
-137.254
11
139.494
21
-137.111
0
LINE
8
Black
10
139.494
20
-137.111
11
139.352
21
-136.826
0
LINE
8
Black
10
139.352
20
-136.826
11
139.209
21
-136.254
0
LINE
8
Black
10
139.209
20
-136.254
11
139.209
21
-135.54
0
LINE
8
Black
10
139.209
20
-135.54
11
139.352
21
-134.969
0
LINE
8
Black
10
139.352
20
-134.969
11
139.494
21
-134.683
0
LINE
8
Black
10
139.494
20
-134.683
11
139.637
21
-134.54
0
LINE
8
Black
10
139.637
20
-134.54
11
139.923
21
-134.397
0
LINE
8
Black
10
142.209
20
-137.111
11
142.352
21
-137.254
0
LINE
8
Black
10
142.352
20
-137.254
11
142.209
21
-137.397
0
LINE
8
Black
10
142.209
20
-137.397
11
142.066
21
-137.254
0
LINE
8
Black
10
142.066
20
-137.254
11
142.209
21
-137.111
0
LINE
8
Black
10
142.209
20
-137.111
11
142.209
21
-137.397
0
LINE
8
Black
10
144.209
20
-134.397
11
144.494
21
-134.397
0
LINE
8
Black
10
144.494
20
-134.397
11
144.78
21
-134.54
0
LINE
8
Black
10
144.78
20
-134.54
11
144.923
21
-134.683
0
LINE
8
Black
10
144.923
20
-134.683
11
145.066
21
-134.969
0
LINE
8
Black
10
145.066
20
-134.969
11
145.209
21
-135.54
0
LINE
8
Black
10
145.209
20
-135.54
11
145.209
21
-136.254
0
LINE
8
Black
10
145.209
20
-136.254
11
145.066
21
-136.826
0
LINE
8
Black
10
145.066
20
-136.826
11
144.923
21
-137.111
0
LINE
8
Black
10
144.923
20
-137.111
11
144.78
21
-137.254
0
LINE
8
Black
10
144.78
20
-137.254
11
144.494
21
-137.397
0
LINE
8
Black
10
144.494
20
-137.397
11
144.209
21
-137.397
0
LINE
8
Black
10
144.209
20
-137.397
11
143.923
21
-137.254
0
LINE
8
Black
10
143.923
20
-137.254
11
143.78
21
-137.111
0
LINE
8
Black
10
143.78
20
-137.111
11
143.637
21
-136.826
0
LINE
8
Black
10
143.637
20
-136.826
11
143.494
21
-136.254
0
LINE
8
Black
10
143.494
20
-136.254
11
143.494
21
-135.54
0
LINE
8
Black
10
143.494
20
-135.54
11
143.637
21
-134.969
0
LINE
8
Black
10
143.637
20
-134.969
11
143.78
21
-134.683
0
LINE
8
Black
10
143.78
20
-134.683
11
143.923
21
-134.54
0
LINE
8
Black
10
143.923
20
-134.54
11
144.209
21
-134.397
0
LINE
8
Black
10
146.209
20
-134.397
11
148.066
21
-134.397
0
LINE
8
Black
10
148.066
20
-134.397
11
147.066
21
-135.54
0
LINE
8
Black
10
147.066
20
-135.54
11
147.494
21
-135.54
0
LINE
8
Black
10
147.494
20
-135.54
11
147.78
21
-135.683
0
LINE
8
Black
10
147.78
20
-135.683
11
147.923
21
-135.826
0
LINE
8
Black
10
147.923
20
-135.826
11
148.066
21
-136.111
0
LINE
8
Black
10
148.066
20
-136.111
11
148.066
21
-136.826
0
LINE
8
Black
10
148.066
20
-136.826
11
147.923
21
-137.111
0
LINE
8
Black
10
147.923
20
-137.111
11
147.78
21
-137.254
0
LINE
8
Black
10
147.78
20
-137.254
11
147.494
21
-137.397
0
LINE
8
Black
10
147.494
20
-137.397
11
146.637
21
-137.397
0
LINE
8
Black
10
146.637
20
-137.397
11
146.352
21
-137.254
0
LINE
8
Black
10
146.352
20
-137.254
11
146.209
21
-137.111
0
LINE
8
Black
10
150.923
20
-137.397
11
149.209
21
-137.397
0
LINE
8
Black
10
150.066
20
-137.397
11
150.066
21
-134.397
0
LINE
8
Black
10
150.066
20
-134.397
11
149.78
21
-134.826
0
LINE
8
Black
10
149.78
20
-134.826
11
149.494
21
-135.111
0
LINE
8
Black
10
149.494
20
-135.111
11
149.209
21
-135.254
0
LINE
8
Black
10
152.066
20
-134.397
11
152.066
21
-134.969
0
LINE
8
Black
10
153.209
20
-134.397
11
153.209
21
-134.969
0
LINE
8
Black
10
157.637
20
-138.54
11
157.494
21
-138.397
0
LINE
8
Black
10
157.494
20
-138.397
11
157.209
21
-137.969
0
LINE
8
Black
10
157.209
20
-137.969
11
157.066
21
-137.683
0
LINE
8
Black
10
157.066
20
-137.683
11
156.923
21
-137.254
0
LINE
8
Black
10
156.923
20
-137.254
11
156.78
21
-136.54
0
LINE
8
Black
10
156.78
20
-136.54
11
156.78
21
-135.969
0
LINE
8
Black
10
156.78
20
-135.969
11
156.923
21
-135.254
0
LINE
8
Black
10
156.923
20
-135.254
11
157.066
21
-134.826
0
LINE
8
Black
10
157.066
20
-134.826
11
157.209
21
-134.54
0
LINE
8
Black
10
157.209
20
-134.54
11
157.494
21
-134.111
0
LINE
8
Black
10
157.494
20
-134.111
11
157.637
21
-133.969
0
LINE
8
Black
10
160.066
20
-135.397
11
160.066
21
-137.397
0
LINE
8
Black
10
159.352
20
-134.254
11
158.637
21
-136.397
0
LINE
8
Black
10
158.637
20
-136.397
11
160.494
21
-136.397
0
LINE
8
Black
10
162.923
20
-134.397
11
162.352
21
-134.397
0
LINE
8
Black
10
162.352
20
-134.397
11
162.066
21
-134.54
0
LINE
8
Black
10
162.066
20
-134.54
11
161.923
21
-134.683
0
LINE
8
Black
10
161.923
20
-134.683
11
161.637
21
-135.111
0
LINE
8
Black
10
161.637
20
-135.111
11
161.494
21
-135.683
0
LINE
8
Black
10
161.494
20
-135.683
11
161.494
21
-136.826
0
LINE
8
Black
10
161.494
20
-136.826
11
161.637
21
-137.111
0
LINE
8
Black
10
161.637
20
-137.111
11
161.78
21
-137.254
0
LINE
8
Black
10
161.78
20
-137.254
11
162.066
21
-137.397
0
LINE
8
Black
10
162.066
20
-137.397
11
162.637
21
-137.397
0
LINE
8
Black
10
162.637
20
-137.397
11
162.923
21
-137.254
0
LINE
8
Black
10
162.923
20
-137.254
11
163.066
21
-137.111
0
LINE
8
Black
10
163.066
20
-137.111
11
163.209
21
-136.826
0
LINE
8
Black
10
163.209
20
-136.826
11
163.209
21
-136.111
0
LINE
8
Black
10
163.209
20
-136.111
11
163.066
21
-135.826
0
LINE
8
Black
10
163.066
20
-135.826
11
162.923
21
-135.683
0
LINE
8
Black
10
162.923
20
-135.683
11
162.637
21
-135.54
0
LINE
8
Black
10
162.637
20
-135.54
11
162.066
21
-135.54
0
LINE
8
Black
10
162.066
20
-135.54
11
161.78
21
-135.683
0
LINE
8
Black
10
161.78
20
-135.683
11
161.637
21
-135.826
0
LINE
8
Black
10
161.637
20
-135.826
11
161.494
21
-136.111
0
LINE
8
Black
10
166.78
20
-137.397
11
166.78
21
-134.397
0
LINE
8
Black
10
168.066
20
-137.397
11
168.066
21
-135.826
0
LINE
8
Black
10
168.066
20
-135.826
11
167.923
21
-135.54
0
LINE
8
Black
10
167.923
20
-135.54
11
167.637
21
-135.397
0
LINE
8
Black
10
167.637
20
-135.397
11
167.209
21
-135.397
0
LINE
8
Black
10
167.209
20
-135.397
11
166.923
21
-135.54
0
LINE
8
Black
10
166.923
20
-135.54
11
166.78
21
-135.683
0
LINE
8
Black
10
169.923
20
-137.397
11
169.637
21
-137.254
0
LINE
8
Black
10
169.637
20
-137.254
11
169.494
21
-137.111
0
LINE
8
Black
10
169.494
20
-137.111
11
169.352
21
-136.826
0
LINE
8
Black
10
169.352
20
-136.826
11
169.352
21
-135.969
0
LINE
8
Black
10
169.352
20
-135.969
11
169.494
21
-135.683
0
LINE
8
Black
10
169.494
20
-135.683
11
169.637
21
-135.54
0
LINE
8
Black
10
169.637
20
-135.54
11
169.923
21
-135.397
0
LINE
8
Black
10
169.923
20
-135.397
11
170.352
21
-135.397
0
LINE
8
Black
10
170.352
20
-135.397
11
170.637
21
-135.54
0
LINE
8
Black
10
170.637
20
-135.54
11
170.78
21
-135.683
0
LINE
8
Black
10
170.78
20
-135.683
11
170.923
21
-135.969
0
LINE
8
Black
10
170.923
20
-135.969
11
170.923
21
-136.826
0
LINE
8
Black
10
170.923
20
-136.826
11
170.78
21
-137.111
0
LINE
8
Black
10
170.78
20
-137.111
11
170.637
21
-137.254
0
LINE
8
Black
10
170.637
20
-137.254
11
170.352
21
-137.397
0
LINE
8
Black
10
170.352
20
-137.397
11
169.923
21
-137.397
0
LINE
8
Black
10
172.637
20
-137.397
11
172.352
21
-137.254
0
LINE
8
Black
10
172.352
20
-137.254
11
172.209
21
-136.969
0
LINE
8
Black
10
172.209
20
-136.969
11
172.209
21
-134.397
0
LINE
8
Black
10
174.923
20
-137.254
11
174.637
21
-137.397
0
LINE
8
Black
10
174.637
20
-137.397
11
174.066
21
-137.397
0
LINE
8
Black
10
174.066
20
-137.397
11
173.78
21
-137.254
0
LINE
8
Black
10
173.78
20
-137.254
11
173.637
21
-136.969
0
LINE
8
Black
10
173.637
20
-136.969
11
173.637
21
-135.826
0
LINE
8
Black
10
173.637
20
-135.826
11
173.78
21
-135.54
0
LINE
8
Black
10
173.78
20
-135.54
11
174.066
21
-135.397
0
LINE
8
Black
10
174.066
20
-135.397
11
174.637
21
-135.397
0
LINE
8
Black
10
174.637
20
-135.397
11
174.923
21
-135.54
0
LINE
8
Black
10
174.923
20
-135.54
11
175.066
21
-135.826
0
LINE
8
Black
10
175.066
20
-135.826
11
175.066
21
-136.111
0
LINE
8
Black
10
175.066
20
-136.111
11
173.637
21
-136.397
0
LINE
8
Black
10
176.209
20
-137.254
11
176.494
21
-137.397
0
LINE
8
Black
10
176.494
20
-137.397
11
177.066
21
-137.397
0
LINE
8
Black
10
177.066
20
-137.397
11
177.352
21
-137.254
0
LINE
8
Black
10
177.352
20
-137.254
11
177.494
21
-136.969
0
LINE
8
Black
10
177.494
20
-136.969
11
177.494
21
-136.826
0
LINE
8
Black
10
177.494
20
-136.826
11
177.352
21
-136.54
0
LINE
8
Black
10
177.352
20
-136.54
11
177.066
21
-136.397
0
LINE
8
Black
10
177.066
20
-136.397
11
176.637
21
-136.397
0
LINE
8
Black
10
176.637
20
-136.397
11
176.352
21
-136.254
0
LINE
8
Black
10
176.352
20
-136.254
11
176.209
21
-135.969
0
LINE
8
Black
10
176.209
20
-135.969
11
176.209
21
-135.826
0
LINE
8
Black
10
176.209
20
-135.826
11
176.352
21
-135.54
0
LINE
8
Black
10
176.352
20
-135.54
11
176.637
21
-135.397
0
LINE
8
Black
10
176.637
20
-135.397
11
177.066
21
-135.397
0
LINE
8
Black
10
177.066
20
-135.397
11
177.352
21
-135.54
0
LINE
8
Black
10
178.494
20
-138.54
11
178.637
21
-138.397
0
LINE
8
Black
10
178.637
20
-138.397
11
178.923
21
-137.969
0
LINE
8
Black
10
178.923
20
-137.969
11
179.066
21
-137.683
0
LINE
8
Black
10
179.066
20
-137.683
11
179.209
21
-137.254
0
LINE
8
Black
10
179.209
20
-137.254
11
179.352
21
-136.54
0
LINE
8
Black
10
179.352
20
-136.54
11
179.352
21
-135.969
0
LINE
8
Black
10
179.352
20
-135.969
11
179.209
21
-135.254
0
LINE
8
Black
10
179.209
20
-135.254
11
179.066
21
-134.826
0
LINE
8
Black
10
179.066
20
-134.826
11
178.923
21
-134.54
0
LINE
8
Black
10
178.923
20
-134.54
11
178.637
21
-134.111
0
LINE
8
Black
10
178.637
20
-134.111
11
178.494
21
-133.969
0
CIRCLE
8
Black
10
110.423
20
-140
40
0.5
0
LINE
8
Black
10
115.209
20
-141.357
11
113.494
21
-141.357
0
LINE
8
Black
10
114.352
20
-141.357
11
114.352
21
-138.357
0
LINE
8
Black
10
114.352
20
-138.357
11
114.066
21
-138.786
0
LINE
8
Black
10
114.066
20
-138.786
11
113.78
21
-139.071
0
LINE
8
Black
10
113.78
20
-139.071
11
113.494
21
-139.214
0
LINE
8
Black
10
116.494
20
-141.071
11
116.637
21
-141.214
0
LINE
8
Black
10
116.637
20
-141.214
11
116.494
21
-141.357
0
LINE
8
Black
10
116.494
20
-141.357
11
116.352
21
-141.214
0
LINE
8
Black
10
116.352
20
-141.214
11
116.494
21
-141.071
0
LINE
8
Black
10
116.494
20
-141.071
11
116.494
21
-141.357
0
LINE
8
Black
10
118.494
20
-138.357
11
118.78
21
-138.357
0
LINE
8
Black
10
118.78
20
-138.357
11
119.066
21
-138.5
0
LINE
8
Black
10
119.066
20
-138.5
11
119.209
21
-138.643
0
LINE
8
Black
10
119.209
20
-138.643
11
119.352
21
-138.929
0
LINE
8
Black
10
119.352
20
-138.929
11
119.494
21
-139.5
0
LINE
8
Black
10
119.494
20
-139.5
11
119.494
21
-140.214
0
LINE
8
Black
10
119.494
20
-140.214
11
119.352
21
-140.786
0
LINE
8
Black
10
119.352
20
-140.786
11
119.209
21
-141.071
0
LINE
8
Black
10
119.209
20
-141.071
11
119.066
21
-141.214
0
LINE
8
Black
10
119.066
20
-141.214
11
118.78
21
-141.357
0
LINE
8
Black
10
118.78
20
-141.357
11
118.494
21
-141.357
0
LINE
8
Black
10
118.494
20
-141.357
11
118.209
21
-141.214
0
LINE
8
Black
10
118.209
20
-141.214
11
118.066
21
-141.071
0
LINE
8
Black
10
118.066
20
-141.071
11
117.923
21
-140.786
0
LINE
8
Black
10
117.923
20
-140.786
11
117.78
21
-140.214
0
LINE
8
Black
10
117.78
20
-140.214
11
117.78
21
-139.5
0
LINE
8
Black
10
117.78
20
-139.5
11
117.923
21
-138.929
0
LINE
8
Black
10
117.923
20
-138.929
11
118.066
21
-138.643
0
LINE
8
Black
10
118.066
20
-138.643
11
118.209
21
-138.5
0
LINE
8
Black
10
118.209
20
-138.5
11
118.494
21
-138.357
0
LINE
8
Black
10
121.352
20
-138.357
11
121.637
21
-138.357
0
LINE
8
Black
10
121.637
20
-138.357
11
121.923
21
-138.5
0
LINE
8
Black
10
121.923
20
-138.5
11
122.066
21
-138.643
0
LINE
8
Black
10
122.066
20
-138.643
11
122.209
21
-138.929
0
LINE
8
Black
10
122.209
20
-138.929
11
122.352
21
-139.5
0
LINE
8
Black
10
122.352
20
-139.5
11
122.352
21
-140.214
0
LINE
8
Black
10
122.352
20
-140.214
11
122.209
21
-140.786
0
LINE
8
Black
10
122.209
20
-140.786
11
122.066
21
-141.071
0
LINE
8
Black
10
122.066
20
-141.071
11
121.923
21
-141.214
0
LINE
8
Black
10
121.923
20
-141.214
11
121.637
21
-141.357
0
LINE
8
Black
10
121.637
20
-141.357
11
121.352
21
-141.357
0
LINE
8
Black
10
121.352
20
-141.357
11
121.066
21
-141.214
0
LINE
8
Black
10
121.066
20
-141.214
11
120.923
21
-141.071
0
LINE
8
Black
10
120.923
20
-141.071
11
120.78
21
-140.786
0
LINE
8
Black
10
120.78
20
-140.786
11
120.637
21
-140.214
0
LINE
8
Black
10
120.637
20
-140.214
11
120.637
21
-139.5
0
LINE
8
Black
10
120.637
20
-139.5
11
120.78
21
-138.929
0
LINE
8
Black
10
120.78
20
-138.929
11
120.923
21
-138.643
0
LINE
8
Black
10
120.923
20
-138.643
11
121.066
21
-138.5
0
LINE
8
Black
10
121.066
20
-138.5
11
121.352
21
-138.357
0
LINE
8
Black
10
123.637
20
-141.357
11
123.637
21
-139.357
0
LINE
8
Black
10
123.637
20
-139.643
11
123.78
21
-139.5
0
LINE
8
Black
10
123.78
20
-139.5
11
124.066
21
-139.357
0
LINE
8
Black
10
124.066
20
-139.357
11
124.494
21
-139.357
0
LINE
8
Black
10
124.494
20
-139.357
11
124.78
21
-139.5
0
LINE
8
Black
10
124.78
20
-139.5
11
124.923
21
-139.786
0
LINE
8
Black
10
124.923
20
-139.786
11
124.923
21
-141.357
0
LINE
8
Black
10
124.923
20
-139.786
11
125.066
21
-139.5
0
LINE
8
Black
10
125.066
20
-139.5
11
125.352
21
-139.357
0
LINE
8
Black
10
125.352
20
-139.357
11
125.78
21
-139.357
0
LINE
8
Black
10
125.78
20
-139.357
11
126.066
21
-139.5
0
LINE
8
Black
10
126.066
20
-139.5
11
126.209
21
-139.786
0
LINE
8
Black
10
126.209
20
-139.786
11
126.209
21
-141.357
0
LINE
8
Black
10
127.637
20
-141.357
11
127.637
21
-139.357
0
LINE
8
Black
10
127.637
20
-139.643
11
127.78
21
-139.5
0
LINE
8
Black
10
127.78
20
-139.5
11
128.066
21
-139.357
0
LINE
8
Black
10
128.066
20
-139.357
11
128.494
21
-139.357
0
LINE
8
Black
10
128.494
20
-139.357
11
128.78
21
-139.5
0
LINE
8
Black
10
128.78
20
-139.5
11
128.923
21
-139.786
0
LINE
8
Black
10
128.923
20
-139.786
11
128.923
21
-141.357
0
LINE
8
Black
10
128.923
20
-139.786
11
129.066
21
-139.5
0
LINE
8
Black
10
129.066
20
-139.5
11
129.352
21
-139.357
0
LINE
8
Black
10
129.352
20
-139.357
11
129.78
21
-139.357
0
LINE
8
Black
10
129.78
20
-139.357
11
130.066
21
-139.5
0
LINE
8
Black
10
130.066
20
-139.5
11
130.209
21
-139.786
0
LINE
8
Black
10
130.209
20
-139.786
11
130.209
21
-141.357
0
LINE
8
Black
10
136.066
20
-138.214
11
133.494
21
-142.071
0
LINE
8
Black
10
139.923
20
-138.357
11
140.209
21
-138.357
0
LINE
8
Black
10
140.209
20
-138.357
11
140.494
21
-138.5
0
LINE
8
Black
10
140.494
20
-138.5
11
140.637
21
-138.643
0
LINE
8
Black
10
140.637
20
-138.643
11
140.78
21
-138.929
0
LINE
8
Black
10
140.78
20
-138.929
11
140.923
21
-139.5
0
LINE
8
Black
10
140.923
20
-139.5
11
140.923
21
-140.214
0
LINE
8
Black
10
140.923
20
-140.214
11
140.78
21
-140.786
0
LINE
8
Black
10
140.78
20
-140.786
11
140.637
21
-141.071
0
LINE
8
Black
10
140.637
20
-141.071
11
140.494
21
-141.214
0
LINE
8
Black
10
140.494
20
-141.214
11
140.209
21
-141.357
0
LINE
8
Black
10
140.209
20
-141.357
11
139.923
21
-141.357
0
LINE
8
Black
10
139.923
20
-141.357
11
139.637
21
-141.214
0
LINE
8
Black
10
139.637
20
-141.214
11
139.494
21
-141.071
0
LINE
8
Black
10
139.494
20
-141.071
11
139.352
21
-140.786
0
LINE
8
Black
10
139.352
20
-140.786
11
139.209
21
-140.214
0
LINE
8
Black
10
139.209
20
-140.214
11
139.209
21
-139.5
0
LINE
8
Black
10
139.209
20
-139.5
11
139.352
21
-138.929
0
LINE
8
Black
10
139.352
20
-138.929
11
139.494
21
-138.643
0
LINE
8
Black
10
139.494
20
-138.643
11
139.637
21
-138.5
0
LINE
8
Black
10
139.637
20
-138.5
11
139.923
21
-138.357
0
LINE
8
Black
10
142.209
20
-141.071
11
142.352
21
-141.214
0
LINE
8
Black
10
142.352
20
-141.214
11
142.209
21
-141.357
0
LINE
8
Black
10
142.209
20
-141.357
11
142.066
21
-141.214
0
LINE
8
Black
10
142.066
20
-141.214
11
142.209
21
-141.071
0
LINE
8
Black
10
142.209
20
-141.071
11
142.209
21
-141.357
0
LINE
8
Black
10
144.209
20
-138.357
11
144.494
21
-138.357
0
LINE
8
Black
10
144.494
20
-138.357
11
144.78
21
-138.5
0
LINE
8
Black
10
144.78
20
-138.5
11
144.923
21
-138.643
0
LINE
8
Black
10
144.923
20
-138.643
11
145.066
21
-138.929
0
LINE
8
Black
10
145.066
20
-138.929
11
145.209
21
-139.5
0
LINE
8
Black
10
145.209
20
-139.5
11
145.209
21
-140.214
0
LINE
8
Black
10
145.209
20
-140.214
11
145.066
21
-140.786
0
LINE
8
Black
10
145.066
20
-140.786
11
144.923
21
-141.071
0
LINE
8
Black
10
144.923
20
-141.071
11
144.78
21
-141.214
0
LINE
8
Black
10
144.78
20
-141.214
11
144.494
21
-141.357
0
LINE
8
Black
10
144.494
20
-141.357
11
144.209
21
-141.357
0
LINE
8
Black
10
144.209
20
-141.357
11
143.923
21
-141.214
0
LINE
8
Black
10
143.923
20
-141.214
11
143.78
21
-141.071
0
LINE
8
Black
10
143.78
20
-141.071
11
143.637
21
-140.786
0
LINE
8
Black
10
143.637
20
-140.786
11
143.494
21
-140.214
0
LINE
8
Black
10
143.494
20
-140.214
11
143.494
21
-139.5
0
LINE
8
Black
10
143.494
20
-139.5
11
143.637
21
-138.929
0
LINE
8
Black
10
143.637
20
-138.929
11
143.78
21
-138.643
0
LINE
8
Black
10
143.78
20
-138.643
11
143.923
21
-138.5
0
LINE
8
Black
10
143.923
20
-138.5
11
144.209
21
-138.357
0
LINE
8
Black
10
146.209
20
-138.357
11
148.066
21
-138.357
0
LINE
8
Black
10
148.066
20
-138.357
11
147.066
21
-139.5
0
LINE
8
Black
10
147.066
20
-139.5
11
147.494
21
-139.5
0
LINE
8
Black
10
147.494
20
-139.5
11
147.78
21
-139.643
0
LINE
8
Black
10
147.78
20
-139.643
11
147.923
21
-139.786
0
LINE
8
Black
10
147.923
20
-139.786
11
148.066
21
-140.071
0
LINE
8
Black
10
148.066
20
-140.071
11
148.066
21
-140.786
0
LINE
8
Black
10
148.066
20
-140.786
11
147.923
21
-141.071
0
LINE
8
Black
10
147.923
20
-141.071
11
147.78
21
-141.214
0
LINE
8
Black
10
147.78
20
-141.214
11
147.494
21
-141.357
0
LINE
8
Black
10
147.494
20
-141.357
11
146.637
21
-141.357
0
LINE
8
Black
10
146.637
20
-141.357
11
146.352
21
-141.214
0
LINE
8
Black
10
146.352
20
-141.214
11
146.209
21
-141.071
0
LINE
8
Black
10
149.494
20
-141.357
11
150.066
21
-141.357
0
LINE
8
Black
10
150.066
20
-141.357
11
150.352
21
-141.214
0
LINE
8
Black
10
150.352
20
-141.214
11
150.494
21
-141.071
0
LINE
8
Black
10
150.494
20
-141.071
11
150.78
21
-140.643
0
LINE
8
Black
10
150.78
20
-140.643
11
150.923
21
-140.071
0
LINE
8
Black
10
150.923
20
-140.071
11
150.923
21
-138.929
0
LINE
8
Black
10
150.923
20
-138.929
11
150.78
21
-138.643
0
LINE
8
Black
10
150.78
20
-138.643
11
150.637
21
-138.5
0
LINE
8
Black
10
150.637
20
-138.5
11
150.352
21
-138.357
0
LINE
8
Black
10
150.352
20
-138.357
11
149.78
21
-138.357
0
LINE
8
Black
10
149.78
20
-138.357
11
149.494
21
-138.5
0
LINE
8
Black
10
149.494
20
-138.5
11
149.352
21
-138.643
0
LINE
8
Black
10
149.352
20
-138.643
11
149.209
21
-138.929
0
LINE
8
Black
10
149.209
20
-138.929
11
149.209
21
-139.643
0
LINE
8
Black
10
149.209
20
-139.643
11
149.352
21
-139.929
0
LINE
8
Black
10
149.352
20
-139.929
11
149.494
21
-140.071
0
LINE
8
Black
10
149.494
20
-140.071
11
149.78
21
-140.214
0
LINE
8
Black
10
149.78
20
-140.214
11
150.352
21
-140.214
0
LINE
8
Black
10
150.352
20
-140.214
11
150.637
21
-140.071
0
LINE
8
Black
10
150.637
20
-140.071
11
150.78
21
-139.929
0
LINE
8
Black
10
150.78
20
-139.929
11
150.923
21
-139.643
0
LINE
8
Black
10
152.066
20
-138.357
11
152.066
21
-138.929
0
LINE
8
Black
10
153.209
20
-138.357
11
153.209
21
-138.929
0
LINE
8
Black
10
157.637
20
-142.5
11
157.494
21
-142.357
0
LINE
8
Black
10
157.494
20
-142.357
11
157.209
21
-141.929
0
LINE
8
Black
10
157.209
20
-141.929
11
157.066
21
-141.643
0
LINE
8
Black
10
157.066
20
-141.643
11
156.923
21
-141.214
0
LINE
8
Black
10
156.923
20
-141.214
11
156.78
21
-140.5
0
LINE
8
Black
10
156.78
20
-140.5
11
156.78
21
-139.929
0
LINE
8
Black
10
156.78
20
-139.929
11
156.923
21
-139.214
0
LINE
8
Black
10
156.923
20
-139.214
11
157.066
21
-138.786
0
LINE
8
Black
10
157.066
20
-138.786
11
157.209
21
-138.5
0
LINE
8
Black
10
157.209
20
-138.5
11
157.494
21
-138.071
0
LINE
8
Black
10
157.494
20
-138.071
11
157.637
21
-137.929
0
LINE
8
Black
10
158.494
20
-138.357
11
160.352
21
-138.357
0
LINE
8
Black
10
160.352
20
-138.357
11
159.352
21
-139.5
0
LINE
8
Black
10
159.352
20
-139.5
11
159.78
21
-139.5
0
LINE
8
Black
10
159.78
20
-139.5
11
160.066
21
-139.643
0
LINE
8
Black
10
160.066
20
-139.643
11
160.209
21
-139.786
0
LINE
8
Black
10
160.209
20
-139.786
11
160.352
21
-140.071
0
LINE
8
Black
10
160.352
20
-140.071
11
160.352
21
-140.786
0
LINE
8
Black
10
160.352
20
-140.786
11
160.209
21
-141.071
0
LINE
8
Black
10
160.209
20
-141.071
11
160.066
21
-141.214
0
LINE
8
Black
10
160.066
20
-141.214
11
159.78
21
-141.357
0
LINE
8
Black
10
159.78
20
-141.357
11
158.923
21
-141.357
0
LINE
8
Black
10
158.923
20
-141.357
11
158.637
21
-141.214
0
LINE
8
Black
10
158.637
20
-141.214
11
158.494
21
-141.071
0
LINE
8
Black
10
161.352
20
-138.357
11
163.352
21
-138.357
0
LINE
8
Black
10
163.352
20
-138.357
11
162.066
21
-141.357
0
LINE
8
Black
10
166.78
20
-141.357
11
166.78
21
-138.357
0
LINE
8
Black
10
168.066
20
-141.357
11
168.066
21
-139.786
0
LINE
8
Black
10
168.066
20
-139.786
11
167.923
21
-139.5
0
LINE
8
Black
10
167.923
20
-139.5
11
167.637
21
-139.357
0
LINE
8
Black
10
167.637
20
-139.357
11
167.209
21
-139.357
0
LINE
8
Black
10
167.209
20
-139.357
11
166.923
21
-139.5
0
LINE
8
Black
10
166.923
20
-139.5
11
166.78
21
-139.643
0
LINE
8
Black
10
169.923
20
-141.357
11
169.637
21
-141.214
0
LINE
8
Black
10
169.637
20
-141.214
11
169.494
21
-141.071
0
LINE
8
Black
10
169.494
20
-141.071
11
169.352
21
-140.786
0
LINE
8
Black
10
169.352
20
-140.786
11
169.352
21
-139.929
0
LINE
8
Black
10
169.352
20
-139.929
11
169.494
21
-139.643
0
LINE
8
Black
10
169.494
20
-139.643
11
169.637
21
-139.5
0
LINE
8
Black
10
169.637
20
-139.5
11
169.923
21
-139.357
0
LINE
8
Black
10
169.923
20
-139.357
11
170.352
21
-139.357
0
LINE
8
Black
10
170.352
20
-139.357
11
170.637
21
-139.5
0
LINE
8
Black
10
170.637
20
-139.5
11
170.78
21
-139.643
0
LINE
8
Black
10
170.78
20
-139.643
11
170.923
21
-139.929
0
LINE
8
Black
10
170.923
20
-139.929
11
170.923
21
-140.786
0
LINE
8
Black
10
170.923
20
-140.786
11
170.78
21
-141.071
0
LINE
8
Black
10
170.78
20
-141.071
11
170.637
21
-141.214
0
LINE
8
Black
10
170.637
20
-141.214
11
170.352
21
-141.357
0
LINE
8
Black
10
170.352
20
-141.357
11
169.923
21
-141.357
0
LINE
8
Black
10
172.637
20
-141.357
11
172.352
21
-141.214
0
LINE
8
Black
10
172.352
20
-141.214
11
172.209
21
-140.929
0
LINE
8
Black
10
172.209
20
-140.929
11
172.209
21
-138.357
0
LINE
8
Black
10
174.923
20
-141.214
11
174.637
21
-141.357
0
LINE
8
Black
10
174.637
20
-141.357
11
174.066
21
-141.357
0
LINE
8
Black
10
174.066
20
-141.357
11
173.78
21
-141.214
0
LINE
8
Black
10
173.78
20
-141.214
11
173.637
21
-140.929
0
LINE
8
Black
10
173.637
20
-140.929
11
173.637
21
-139.786
0
LINE
8
Black
10
173.637
20
-139.786
11
173.78
21
-139.5
0
LINE
8
Black
10
173.78
20
-139.5
11
174.066
21
-139.357
0
LINE
8
Black
10
174.066
20
-139.357
11
174.637
21
-139.357
0
LINE
8
Black
10
174.637
20
-139.357
11
174.923
21
-139.5
0
LINE
8
Black
10
174.923
20
-139.5
11
175.066
21
-139.786
0
LINE
8
Black
10
175.066
20
-139.786
11
175.066
21
-140.071
0
LINE
8
Black
10
175.066
20
-140.071
11
173.637
21
-140.357
0
LINE
8
Black
10
176.209
20
-141.214
11
176.494
21
-141.357
0
LINE
8
Black
10
176.494
20
-141.357
11
177.066
21
-141.357
0
LINE
8
Black
10
177.066
20
-141.357
11
177.352
21
-141.214
0
LINE
8
Black
10
177.352
20
-141.214
11
177.494
21
-140.929
0
LINE
8
Black
10
177.494
20
-140.929
11
177.494
21
-140.786
0
LINE
8
Black
10
177.494
20
-140.786
11
177.352
21
-140.5
0
LINE
8
Black
10
177.352
20
-140.5
11
177.066
21
-140.357
0
LINE
8
Black
10
177.066
20
-140.357
11
176.637
21
-140.357
0
LINE
8
Black
10
176.637
20
-140.357
11
176.352
21
-140.214
0
LINE
8
Black
10
176.352
20
-140.214
11
176.209
21
-139.929
0
LINE
8
Black
10
176.209
20
-139.929
11
176.209
21
-139.786
0
LINE
8
Black
10
176.209
20
-139.786
11
176.352
21
-139.5
0
LINE
8
Black
10
176.352
20
-139.5
11
176.637
21
-139.357
0
LINE
8
Black
10
176.637
20
-139.357
11
177.066
21
-139.357
0
LINE
8
Black
10
177.066
20
-139.357
11
177.352
21
-139.5
0
LINE
8
Black
10
178.494
20
-142.5
11
178.637
21
-142.357
0
LINE
8
Black
10
178.637
20
-142.357
11
178.923
21
-141.929
0
LINE
8
Black
10
178.923
20
-141.929
11
179.066
21
-141.643
0
LINE
8
Black
10
179.066
20
-141.643
11
179.209
21
-141.214
0
LINE
8
Black
10
179.209
20
-141.214
11
179.352
21
-140.5
0
LINE
8
Black
10
179.352
20
-140.5
11
179.352
21
-139.929
0
LINE
8
Black
10
179.352
20
-139.929
11
179.209
21
-139.214
0
LINE
8
Black
10
179.209
20
-139.214
11
179.066
21
-138.786
0
LINE
8
Black
10
179.066
20
-138.786
11
178.923
21
-138.5
0
LINE
8
Black
10
178.923
20
-138.5
11
178.637
21
-138.071
0
LINE
8
Black
10
178.637
20
-138.071
11
178.494
21
-137.929
0
LINE
8
Black
10
110.423
20
-143.46
11
110.423
21
-144.46
0
LINE
8
Black
10
109.922
20
-143.96
11
110.923
21
-143.96
0
LINE
8
Black
10
115.209
20
-145.317
11
113.494
21
-145.317
0
LINE
8
Black
10
114.352
20
-145.317
11
114.352
21
-142.317
0
LINE
8
Black
10
114.352
20
-142.317
11
114.066
21
-142.746
0
LINE
8
Black
10
114.066
20
-142.746
11
113.78
21
-143.031
0
LINE
8
Black
10
113.78
20
-143.031
11
113.494
21
-143.174
0
LINE
8
Black
10
116.494
20
-145.031
11
116.637
21
-145.174
0
LINE
8
Black
10
116.637
20
-145.174
11
116.494
21
-145.317
0
LINE
8
Black
10
116.494
20
-145.317
11
116.352
21
-145.174
0
LINE
8
Black
10
116.352
20
-145.174
11
116.494
21
-145.031
0
LINE
8
Black
10
116.494
20
-145.031
11
116.494
21
-145.317
0
LINE
8
Black
10
118.494
20
-142.317
11
118.78
21
-142.317
0
LINE
8
Black
10
118.78
20
-142.317
11
119.066
21
-142.46
0
LINE
8
Black
10
119.066
20
-142.46
11
119.209
21
-142.603
0
LINE
8
Black
10
119.209
20
-142.603
11
119.352
21
-142.889
0
LINE
8
Black
10
119.352
20
-142.889
11
119.494
21
-143.46
0
LINE
8
Black
10
119.494
20
-143.46
11
119.494
21
-144.174
0
LINE
8
Black
10
119.494
20
-144.174
11
119.352
21
-144.746
0
LINE
8
Black
10
119.352
20
-144.746
11
119.209
21
-145.031
0
LINE
8
Black
10
119.209
20
-145.031
11
119.066
21
-145.174
0
LINE
8
Black
10
119.066
20
-145.174
11
118.78
21
-145.317
0
LINE
8
Black
10
118.78
20
-145.317
11
118.494
21
-145.317
0
LINE
8
Black
10
118.494
20
-145.317
11
118.209
21
-145.174
0
LINE
8
Black
10
118.209
20
-145.174
11
118.066
21
-145.031
0
LINE
8
Black
10
118.066
20
-145.031
11
117.923
21
-144.746
0
LINE
8
Black
10
117.923
20
-144.746
11
117.78
21
-144.174
0
LINE
8
Black
10
117.78
20
-144.174
11
117.78
21
-143.46
0
LINE
8
Black
10
117.78
20
-143.46
11
117.923
21
-142.889
0
LINE
8
Black
10
117.923
20
-142.889
11
118.066
21
-142.603
0
LINE
8
Black
10
118.066
20
-142.603
11
118.209
21
-142.46
0
LINE
8
Black
10
118.209
20
-142.46
11
118.494
21
-142.317
0
LINE
8
Black
10
121.352
20
-142.317
11
121.637
21
-142.317
0
LINE
8
Black
10
121.637
20
-142.317
11
121.923
21
-142.46
0
LINE
8
Black
10
121.923
20
-142.46
11
122.066
21
-142.603
0
LINE
8
Black
10
122.066
20
-142.603
11
122.209
21
-142.889
0
LINE
8
Black
10
122.209
20
-142.889
11
122.352
21
-143.46
0
LINE
8
Black
10
122.352
20
-143.46
11
122.352
21
-144.174
0
LINE
8
Black
10
122.352
20
-144.174
11
122.209
21
-144.746
0
LINE
8
Black
10
122.209
20
-144.746
11
122.066
21
-145.031
0
LINE
8
Black
10
122.066
20
-145.031
11
121.923
21
-145.174
0
LINE
8
Black
10
121.923
20
-145.174
11
121.637
21
-145.317
0
LINE
8
Black
10
121.637
20
-145.317
11
121.352
21
-145.317
0
LINE
8
Black
10
121.352
20
-145.317
11
121.066
21
-145.174
0
LINE
8
Black
10
121.066
20
-145.174
11
120.923
21
-145.031
0
LINE
8
Black
10
120.923
20
-145.031
11
120.78
21
-144.746
0
LINE
8
Black
10
120.78
20
-144.746
11
120.637
21
-144.174
0
LINE
8
Black
10
120.637
20
-144.174
11
120.637
21
-143.46
0
LINE
8
Black
10
120.637
20
-143.46
11
120.78
21
-142.889
0
LINE
8
Black
10
120.78
20
-142.889
11
120.923
21
-142.603
0
LINE
8
Black
10
120.923
20
-142.603
11
121.066
21
-142.46
0
LINE
8
Black
10
121.066
20
-142.46
11
121.352
21
-142.317
0
LINE
8
Black
10
123.637
20
-145.317
11
123.637
21
-143.317
0
LINE
8
Black
10
123.637
20
-143.603
11
123.78
21
-143.46
0
LINE
8
Black
10
123.78
20
-143.46
11
124.066
21
-143.317
0
LINE
8
Black
10
124.066
20
-143.317
11
124.494
21
-143.317
0
LINE
8
Black
10
124.494
20
-143.317
11
124.78
21
-143.46
0
LINE
8
Black
10
124.78
20
-143.46
11
124.923
21
-143.746
0
LINE
8
Black
10
124.923
20
-143.746
11
124.923
21
-145.317
0
LINE
8
Black
10
124.923
20
-143.746
11
125.066
21
-143.46
0
LINE
8
Black
10
125.066
20
-143.46
11
125.352
21
-143.317
0
LINE
8
Black
10
125.352
20
-143.317
11
125.78
21
-143.317
0
LINE
8
Black
10
125.78
20
-143.317
11
126.066
21
-143.46
0
LINE
8
Black
10
126.066
20
-143.46
11
126.209
21
-143.746
0
LINE
8
Black
10
126.209
20
-143.746
11
126.209
21
-145.317
0
LINE
8
Black
10
127.637
20
-145.317
11
127.637
21
-143.317
0
LINE
8
Black
10
127.637
20
-143.603
11
127.78
21
-143.46
0
LINE
8
Black
10
127.78
20
-143.46
11
128.066
21
-143.317
0
LINE
8
Black
10
128.066
20
-143.317
11
128.494
21
-143.317
0
LINE
8
Black
10
128.494
20
-143.317
11
128.78
21
-143.46
0
LINE
8
Black
10
128.78
20
-143.46
11
128.923
21
-143.746
0
LINE
8
Black
10
128.923
20
-143.746
11
128.923
21
-145.317
0
LINE
8
Black
10
128.923
20
-143.746
11
129.066
21
-143.46
0
LINE
8
Black
10
129.066
20
-143.46
11
129.352
21
-143.317
0
LINE
8
Black
10
129.352
20
-143.317
11
129.78
21
-143.317
0
LINE
8
Black
10
129.78
20
-143.317
11
130.066
21
-143.46
0
LINE
8
Black
10
130.066
20
-143.46
11
130.209
21
-143.746
0
LINE
8
Black
10
130.209
20
-143.746
11
130.209
21
-145.317
0
LINE
8
Black
10
136.066
20
-142.174
11
133.494
21
-146.031
0
LINE
8
Black
10
139.923
20
-142.317
11
140.209
21
-142.317
0
LINE
8
Black
10
140.209
20
-142.317
11
140.494
21
-142.46
0
LINE
8
Black
10
140.494
20
-142.46
11
140.637
21
-142.603
0
LINE
8
Black
10
140.637
20
-142.603
11
140.78
21
-142.889
0
LINE
8
Black
10
140.78
20
-142.889
11
140.923
21
-143.46
0
LINE
8
Black
10
140.923
20
-143.46
11
140.923
21
-144.174
0
LINE
8
Black
10
140.923
20
-144.174
11
140.78
21
-144.746
0
LINE
8
Black
10
140.78
20
-144.746
11
140.637
21
-145.031
0
LINE
8
Black
10
140.637
20
-145.031
11
140.494
21
-145.174
0
LINE
8
Black
10
140.494
20
-145.174
11
140.209
21
-145.317
0
LINE
8
Black
10
140.209
20
-145.317
11
139.923
21
-145.317
0
LINE
8
Black
10
139.923
20
-145.317
11
139.637
21
-145.174
0
LINE
8
Black
10
139.637
20
-145.174
11
139.494
21
-145.031
0
LINE
8
Black
10
139.494
20
-145.031
11
139.352
21
-144.746
0
LINE
8
Black
10
139.352
20
-144.746
11
139.209
21
-144.174
0
LINE
8
Black
10
139.209
20
-144.174
11
139.209
21
-143.46
0
LINE
8
Black
10
139.209
20
-143.46
11
139.352
21
-142.889
0
LINE
8
Black
10
139.352
20
-142.889
11
139.494
21
-142.603
0
LINE
8
Black
10
139.494
20
-142.603
11
139.637
21
-142.46
0
LINE
8
Black
10
139.637
20
-142.46
11
139.923
21
-142.317
0
LINE
8
Black
10
142.209
20
-145.031
11
142.352
21
-145.174
0
LINE
8
Black
10
142.352
20
-145.174
11
142.209
21
-145.317
0
LINE
8
Black
10
142.209
20
-145.317
11
142.066
21
-145.174
0
LINE
8
Black
10
142.066
20
-145.174
11
142.209
21
-145.031
0
LINE
8
Black
10
142.209
20
-145.031
11
142.209
21
-145.317
0
LINE
8
Black
10
144.209
20
-142.317
11
144.494
21
-142.317
0
LINE
8
Black
10
144.494
20
-142.317
11
144.78
21
-142.46
0
LINE
8
Black
10
144.78
20
-142.46
11
144.923
21
-142.603
0
LINE
8
Black
10
144.923
20
-142.603
11
145.066
21
-142.889
0
LINE
8
Black
10
145.066
20
-142.889
11
145.209
21
-143.46
0
LINE
8
Black
10
145.209
20
-143.46
11
145.209
21
-144.174
0
LINE
8
Black
10
145.209
20
-144.174
11
145.066
21
-144.746
0
LINE
8
Black
10
145.066
20
-144.746
11
144.923
21
-145.031
0
LINE
8
Black
10
144.923
20
-145.031
11
144.78
21
-145.174
0
LINE
8
Black
10
144.78
20
-145.174
11
144.494
21
-145.317
0
LINE
8
Black
10
144.494
20
-145.317
11
144.209
21
-145.317
0
LINE
8
Black
10
144.209
20
-145.317
11
143.923
21
-145.174
0
LINE
8
Black
10
143.923
20
-145.174
11
143.78
21
-145.031
0
LINE
8
Black
10
143.78
20
-145.031
11
143.637
21
-144.746
0
LINE
8
Black
10
143.637
20
-144.746
11
143.494
21
-144.174
0
LINE
8
Black
10
143.494
20
-144.174
11
143.494
21
-143.46
0
LINE
8
Black
10
143.494
20
-143.46
11
143.637
21
-142.889
0
LINE
8
Black
10
143.637
20
-142.889
11
143.78
21
-142.603
0
LINE
8
Black
10
143.78
20
-142.603
11
143.923
21
-142.46
0
LINE
8
Black
10
143.923
20
-142.46
11
144.209
21
-142.317
0
LINE
8
Black
10
146.209
20
-142.317
11
148.066
21
-142.317
0
LINE
8
Black
10
148.066
20
-142.317
11
147.066
21
-143.46
0
LINE
8
Black
10
147.066
20
-143.46
11
147.494
21
-143.46
0
LINE
8
Black
10
147.494
20
-143.46
11
147.78
21
-143.603
0
LINE
8
Black
10
147.78
20
-143.603
11
147.923
21
-143.746
0
LINE
8
Black
10
147.923
20
-143.746
11
148.066
21
-144.031
0
LINE
8
Black
10
148.066
20
-144.031
11
148.066
21
-144.746
0
LINE
8
Black
10
148.066
20
-144.746
11
147.923
21
-145.031
0
LINE
8
Black
10
147.923
20
-145.031
11
147.78
21
-145.174
0
LINE
8
Black
10
147.78
20
-145.174
11
147.494
21
-145.317
0
LINE
8
Black
10
147.494
20
-145.317
11
146.637
21
-145.317
0
LINE
8
Black
10
146.637
20
-145.317
11
146.352
21
-145.174
0
LINE
8
Black
10
146.352
20
-145.174
11
146.209
21
-145.031
0
LINE
8
Black
10
149.494
20
-145.317
11
150.066
21
-145.317
0
LINE
8
Black
10
150.066
20
-145.317
11
150.352
21
-145.174
0
LINE
8
Black
10
150.352
20
-145.174
11
150.494
21
-145.031
0
LINE
8
Black
10
150.494
20
-145.031
11
150.78
21
-144.603
0
LINE
8
Black
10
150.78
20
-144.603
11
150.923
21
-144.031
0
LINE
8
Black
10
150.923
20
-144.031
11
150.923
21
-142.889
0
LINE
8
Black
10
150.923
20
-142.889
11
150.78
21
-142.603
0
LINE
8
Black
10
150.78
20
-142.603
11
150.637
21
-142.46
0
LINE
8
Black
10
150.637
20
-142.46
11
150.352
21
-142.317
0
LINE
8
Black
10
150.352
20
-142.317
11
149.78
21
-142.317
0
LINE
8
Black
10
149.78
20
-142.317
11
149.494
21
-142.46
0
LINE
8
Black
10
149.494
20
-142.46
11
149.352
21
-142.603
0
LINE
8
Black
10
149.352
20
-142.603
11
149.209
21
-142.889
0
LINE
8
Black
10
149.209
20
-142.889
11
149.209
21
-143.603
0
LINE
8
Black
10
149.209
20
-143.603
11
149.352
21
-143.889
0
LINE
8
Black
10
149.352
20
-143.889
11
149.494
21
-144.031
0
LINE
8
Black
10
149.494
20
-144.031
11
149.78
21
-144.174
0
LINE
8
Black
10
149.78
20
-144.174
11
150.352
21
-144.174
0
LINE
8
Black
10
150.352
20
-144.174
11
150.637
21
-144.031
0
LINE
8
Black
10
150.637
20
-144.031
11
150.78
21
-143.889
0
LINE
8
Black
10
150.78
20
-143.889
11
150.923
21
-143.603
0
LINE
8
Black
10
152.066
20
-142.317
11
152.066
21
-142.889
0
LINE
8
Black
10
153.209
20
-142.317
11
153.209
21
-142.889
0
LINE
8
Black
10
157.637
20
-146.46
11
157.494
21
-146.317
0
LINE
8
Black
10
157.494
20
-146.317
11
157.209
21
-145.889
0
LINE
8
Black
10
157.209
20
-145.889
11
157.066
21
-145.603
0
LINE
8
Black
10
157.066
20
-145.603
11
156.923
21
-145.174
0
LINE
8
Black
10
156.923
20
-145.174
11
156.78
21
-144.46
0
LINE
8
Black
10
156.78
20
-144.46
11
156.78
21
-143.889
0
LINE
8
Black
10
156.78
20
-143.889
11
156.923
21
-143.174
0
LINE
8
Black
10
156.923
20
-143.174
11
157.066
21
-142.746
0
LINE
8
Black
10
157.066
20
-142.746
11
157.209
21
-142.46
0
LINE
8
Black
10
157.209
20
-142.46
11
157.494
21
-142.031
0
LINE
8
Black
10
157.494
20
-142.031
11
157.637
21
-141.889
0
LINE
8
Black
10
160.066
20
-143.317
11
160.066
21
-145.317
0
LINE
8
Black
10
159.352
20
-142.174
11
158.637
21
-144.317
0
LINE
8
Black
10
158.637
20
-144.317
11
160.494
21
-144.317
0
LINE
8
Black
10
163.923
20
-145.317
11
163.923
21
-142.317
0
LINE
8
Black
10
165.209
20
-145.317
11
165.209
21
-143.746
0
LINE
8
Black
10
165.209
20
-143.746
11
165.066
21
-143.46
0
LINE
8
Black
10
165.066
20
-143.46
11
164.78
21
-143.317
0
LINE
8
Black
10
164.78
20
-143.317
11
164.352
21
-143.317
0
LINE
8
Black
10
164.352
20
-143.317
11
164.066
21
-143.46
0
LINE
8
Black
10
164.066
20
-143.46
11
163.923
21
-143.603
0
LINE
8
Black
10
167.066
20
-145.317
11
166.78
21
-145.174
0
LINE
8
Black
10
166.78
20
-145.174
11
166.637
21
-145.031
0
LINE
8
Black
10
166.637
20
-145.031
11
166.494
21
-144.746
0
LINE
8
Black
10
166.494
20
-144.746
11
166.494
21
-143.889
0
LINE
8
Black
10
166.494
20
-143.889
11
166.637
21
-143.603
0
LINE
8
Black
10
166.637
20
-143.603
11
166.78
21
-143.46
0
LINE
8
Black
10
166.78
20
-143.46
11
167.066
21
-143.317
0
LINE
8
Black
10
167.066
20
-143.317
11
167.494
21
-143.317
0
LINE
8
Black
10
167.494
20
-143.317
11
167.78
21
-143.46
0
LINE
8
Black
10
167.78
20
-143.46
11
167.923
21
-143.603
0
LINE
8
Black
10
167.923
20
-143.603
11
168.066
21
-143.889
0
LINE
8
Black
10
168.066
20
-143.889
11
168.066
21
-144.746
0
LINE
8
Black
10
168.066
20
-144.746
11
167.923
21
-145.031
0
LINE
8
Black
10
167.923
20
-145.031
11
167.78
21
-145.174
0
LINE
8
Black
10
167.78
20
-145.174
11
167.494
21
-145.317
0
LINE
8
Black
10
167.494
20
-145.317
11
167.066
21
-145.317
0
LINE
8
Black
10
169.78
20
-145.317
11
169.494
21
-145.174
0
LINE
8
Black
10
169.494
20
-145.174
11
169.352
21
-144.889
0
LINE
8
Black
10
169.352
20
-144.889
11
169.352
21
-142.317
0
LINE
8
Black
10
172.066
20
-145.174
11
171.78
21
-145.317
0
LINE
8
Black
10
171.78
20
-145.317
11
171.209
21
-145.317
0
LINE
8
Black
10
171.209
20
-145.317
11
170.923
21
-145.174
0
LINE
8
Black
10
170.923
20
-145.174
11
170.78
21
-144.889
0
LINE
8
Black
10
170.78
20
-144.889
11
170.78
21
-143.746
0
LINE
8
Black
10
170.78
20
-143.746
11
170.923
21
-143.46
0
LINE
8
Black
10
170.923
20
-143.46
11
171.209
21
-143.317
0
LINE
8
Black
10
171.209
20
-143.317
11
171.78
21
-143.317
0
LINE
8
Black
10
171.78
20
-143.317
11
172.066
21
-143.46
0
LINE
8
Black
10
172.066
20
-143.46
11
172.209
21
-143.746
0
LINE
8
Black
10
172.209
20
-143.746
11
172.209
21
-144.031
0
LINE
8
Black
10
172.209
20
-144.031
11
170.78
21
-144.317
0
LINE
8
Black
10
173.352
20
-145.174
11
173.637
21
-145.317
0
LINE
8
Black
10
173.637
20
-145.317
11
174.209
21
-145.317
0
LINE
8
Black
10
174.209
20
-145.317
11
174.494
21
-145.174
0
LINE
8
Black
10
174.494
20
-145.174
11
174.637
21
-144.889
0
LINE
8
Black
10
174.637
20
-144.889
11
174.637
21
-144.746
0
LINE
8
Black
10
174.637
20
-144.746
11
174.494
21
-144.46
0
LINE
8
Black
10
174.494
20
-144.46
11
174.209
21
-144.317
0
LINE
8
Black
10
174.209
20
-144.317
11
173.78
21
-144.317
0
LINE
8
Black
10
173.78
20
-144.317
11
173.494
21
-144.174
0
LINE
8
Black
10
173.494
20
-144.174
11
173.352
21
-143.889
0
LINE
8
Black
10
173.352
20
-143.889
11
173.352
21
-143.746
0
LINE
8
Black
10
173.352
20
-143.746
11
173.494
21
-143.46
0
LINE
8
Black
10
173.494
20
-143.46
11
173.78
21
-143.317
0
LINE
8
Black
10
173.78
20
-143.317
11
174.209
21
-143.317
0
LINE
8
Black
10
174.209
20
-143.317
11
174.494
21
-143.46
0
LINE
8
Black
10
175.637
20
-146.46
11
175.78
21
-146.317
0
LINE
8
Black
10
175.78
20
-146.317
11
176.066
21
-145.889
0
LINE
8
Black
10
176.066
20
-145.889
11
176.209
21
-145.603
0
LINE
8
Black
10
176.209
20
-145.603
11
176.352
21
-145.174
0
LINE
8
Black
10
176.352
20
-145.174
11
176.494
21
-144.46
0
LINE
8
Black
10
176.494
20
-144.46
11
176.494
21
-143.889
0
LINE
8
Black
10
176.494
20
-143.889
11
176.352
21
-143.174
0
LINE
8
Black
10
176.352
20
-143.174
11
176.209
21
-142.746
0
LINE
8
Black
10
176.209
20
-142.746
11
176.066
21
-142.46
0
LINE
8
Black
10
176.066
20
-142.46
11
175.78
21
-142.031
0
LINE
8
Black
10
175.78
20
-142.031
11
175.637
21
-141.889
0
LINE
8
Black
10
110.774
20
-148.279
11
110.774
21
-147.561
0
LINE
8
Black
10
110.774
20
-147.561
11
110.056
21
-147.561
0
LINE
8
Black
10
110.056
20
-147.561
11
110.056
21
-148.279
0
LINE
8
Black
10
110.056
20
-148.279
11
110.774
21
-148.279
0
LINE
8
Black
10
115.209
20
-149.277
11
113.494
21
-149.277
0
LINE
8
Black
10
114.352
20
-149.277
11
114.352
21
-146.277
0
LINE
8
Black
10
114.352
20
-146.277
11
114.066
21
-146.706
0
LINE
8
Black
10
114.066
20
-146.706
11
113.78
21
-146.991
0
LINE
8
Black
10
113.78
20
-146.991
11
113.494
21
-147.134
0
LINE
8
Black
10
116.494
20
-148.991
11
116.637
21
-149.134
0
LINE
8
Black
10
116.637
20
-149.134
11
116.494
21
-149.277
0
LINE
8
Black
10
116.494
20
-149.277
11
116.352
21
-149.134
0
LINE
8
Black
10
116.352
20
-149.134
11
116.494
21
-148.991
0
LINE
8
Black
10
116.494
20
-148.991
11
116.494
21
-149.277
0
LINE
8
Black
10
118.494
20
-146.277
11
118.78
21
-146.277
0
LINE
8
Black
10
118.78
20
-146.277
11
119.066
21
-146.42
0
LINE
8
Black
10
119.066
20
-146.42
11
119.209
21
-146.563
0
LINE
8
Black
10
119.209
20
-146.563
11
119.352
21
-146.849
0
LINE
8
Black
10
119.352
20
-146.849
11
119.494
21
-147.42
0
LINE
8
Black
10
119.494
20
-147.42
11
119.494
21
-148.134
0
LINE
8
Black
10
119.494
20
-148.134
11
119.352
21
-148.706
0
LINE
8
Black
10
119.352
20
-148.706
11
119.209
21
-148.991
0
LINE
8
Black
10
119.209
20
-148.991
11
119.066
21
-149.134
0
LINE
8
Black
10
119.066
20
-149.134
11
118.78
21
-149.277
0
LINE
8
Black
10
118.78
20
-149.277
11
118.494
21
-149.277
0
LINE
8
Black
10
118.494
20
-149.277
11
118.209
21
-149.134
0
LINE
8
Black
10
118.209
20
-149.134
11
118.066
21
-148.991
0
LINE
8
Black
10
118.066
20
-148.991
11
117.923
21
-148.706
0
LINE
8
Black
10
117.923
20
-148.706
11
117.78
21
-148.134
0
LINE
8
Black
10
117.78
20
-148.134
11
117.78
21
-147.42
0
LINE
8
Black
10
117.78
20
-147.42
11
117.923
21
-146.849
0
LINE
8
Black
10
117.923
20
-146.849
11
118.066
21
-146.563
0
LINE
8
Black
10
118.066
20
-146.563
11
118.209
21
-146.42
0
LINE
8
Black
10
118.209
20
-146.42
11
118.494
21
-146.277
0
LINE
8
Black
10
120.637
20
-146.563
11
120.78
21
-146.42
0
LINE
8
Black
10
120.78
20
-146.42
11
121.066
21
-146.277
0
LINE
8
Black
10
121.066
20
-146.277
11
121.78
21
-146.277
0
LINE
8
Black
10
121.78
20
-146.277
11
122.066
21
-146.42
0
LINE
8
Black
10
122.066
20
-146.42
11
122.209
21
-146.563
0
LINE
8
Black
10
122.209
20
-146.563
11
122.352
21
-146.849
0
LINE
8
Black
10
122.352
20
-146.849
11
122.352
21
-147.134
0
LINE
8
Black
10
122.352
20
-147.134
11
122.209
21
-147.563
0
LINE
8
Black
10
122.209
20
-147.563
11
120.494
21
-149.277
0
LINE
8
Black
10
120.494
20
-149.277
11
122.352
21
-149.277
0
LINE
8
Black
10
123.637
20
-149.277
11
123.637
21
-147.277
0
LINE
8
Black
10
123.637
20
-147.563
11
123.78
21
-147.42
0
LINE
8
Black
10
123.78
20
-147.42
11
124.066
21
-147.277
0
LINE
8
Black
10
124.066
20
-147.277
11
124.494
21
-147.277
0
LINE
8
Black
10
124.494
20
-147.277
11
124.78
21
-147.42
0
LINE
8
Black
10
124.78
20
-147.42
11
124.923
21
-147.706
0
LINE
8
Black
10
124.923
20
-147.706
11
124.923
21
-149.277
0
LINE
8
Black
10
124.923
20
-147.706
11
125.066
21
-147.42
0
LINE
8
Black
10
125.066
20
-147.42
11
125.352
21
-147.277
0
LINE
8
Black
10
125.352
20
-147.277
11
125.78
21
-147.277
0
LINE
8
Black
10
125.78
20
-147.277
11
126.066
21
-147.42
0
LINE
8
Black
10
126.066
20
-147.42
11
126.209
21
-147.706
0
LINE
8
Black
10
126.209
20
-147.706
11
126.209
21
-149.277
0
LINE
8
Black
10
127.637
20
-149.277
11
127.637
21
-147.277
0
LINE
8
Black
10
127.637
20
-147.563
11
127.78
21
-147.42
0
LINE
8
Black
10
127.78
20
-147.42
11
128.066
21
-147.277
0
LINE
8
Black
10
128.066
20
-147.277
11
128.494
21
-147.277
0
LINE
8
Black
10
128.494
20
-147.277
11
128.78
21
-147.42
0
LINE
8
Black
10
128.78
20
-147.42
11
128.923
21
-147.706
0
LINE
8
Black
10
128.923
20
-147.706
11
128.923
21
-149.277
0
LINE
8
Black
10
128.923
20
-147.706
11
129.066
21
-147.42
0
LINE
8
Black
10
129.066
20
-147.42
11
129.352
21
-147.277
0
LINE
8
Black
10
129.352
20
-147.277
11
129.78
21
-147.277
0
LINE
8
Black
10
129.78
20
-147.277
11
130.066
21
-147.42
0
LINE
8
Black
10
130.066
20
-147.42
11
130.209
21
-147.706
0
LINE
8
Black
10
130.209
20
-147.706
11
130.209
21
-149.277
0
LINE
8
Black
10
136.066
20
-146.134
11
133.494
21
-149.991
0
LINE
8
Black
10
139.923
20
-146.277
11
140.209
21
-146.277
0
LINE
8
Black
10
140.209
20
-146.277
11
140.494
21
-146.42
0
LINE
8
Black
10
140.494
20
-146.42
11
140.637
21
-146.563
0
LINE
8
Black
10
140.637
20
-146.563
11
140.78
21
-146.849
0
LINE
8
Black
10
140.78
20
-146.849
11
140.923
21
-147.42
0
LINE
8
Black
10
140.923
20
-147.42
11
140.923
21
-148.134
0
LINE
8
Black
10
140.923
20
-148.134
11
140.78
21
-148.706
0
LINE
8
Black
10
140.78
20
-148.706
11
140.637
21
-148.991
0
LINE
8
Black
10
140.637
20
-148.991
11
140.494
21
-149.134
0
LINE
8
Black
10
140.494
20
-149.134
11
140.209
21
-149.277
0
LINE
8
Black
10
140.209
20
-149.277
11
139.923
21
-149.277
0
LINE
8
Black
10
139.923
20
-149.277
11
139.637
21
-149.134
0
LINE
8
Black
10
139.637
20
-149.134
11
139.494
21
-148.991
0
LINE
8
Black
10
139.494
20
-148.991
11
139.352
21
-148.706
0
LINE
8
Black
10
139.352
20
-148.706
11
139.209
21
-148.134
0
LINE
8
Black
10
139.209
20
-148.134
11
139.209
21
-147.42
0
LINE
8
Black
10
139.209
20
-147.42
11
139.352
21
-146.849
0
LINE
8
Black
10
139.352
20
-146.849
11
139.494
21
-146.563
0
LINE
8
Black
10
139.494
20
-146.563
11
139.637
21
-146.42
0
LINE
8
Black
10
139.637
20
-146.42
11
139.923
21
-146.277
0
LINE
8
Black
10
142.209
20
-148.991
11
142.352
21
-149.134
0
LINE
8
Black
10
142.352
20
-149.134
11
142.209
21
-149.277
0
LINE
8
Black
10
142.209
20
-149.277
11
142.066
21
-149.134
0
LINE
8
Black
10
142.066
20
-149.134
11
142.209
21
-148.991
0
LINE
8
Black
10
142.209
20
-148.991
11
142.209
21
-149.277
0
LINE
8
Black
10
144.209
20
-146.277
11
144.494
21
-146.277
0
LINE
8
Black
10
144.494
20
-146.277
11
144.78
21
-146.42
0
LINE
8
Black
10
144.78
20
-146.42
11
144.923
21
-146.563
0
LINE
8
Black
10
144.923
20
-146.563
11
145.066
21
-146.849
0
LINE
8
Black
10
145.066
20
-146.849
11
145.209
21
-147.42
0
LINE
8
Black
10
145.209
20
-147.42
11
145.209
21
-148.134
0
LINE
8
Black
10
145.209
20
-148.134
11
145.066
21
-148.706
0
LINE
8
Black
10
145.066
20
-148.706
11
144.923
21
-148.991
0
LINE
8
Black
10
144.923
20
-148.991
11
144.78
21
-149.134
0
LINE
8
Black
10
144.78
20
-149.134
11
144.494
21
-149.277
0
LINE
8
Black
10
144.494
20
-149.277
11
144.209
21
-149.277
0
LINE
8
Black
10
144.209
20
-149.277
11
143.923
21
-149.134
0
LINE
8
Black
10
143.923
20
-149.134
11
143.78
21
-148.991
0
LINE
8
Black
10
143.78
20
-148.991
11
143.637
21
-148.706
0
LINE
8
Black
10
143.637
20
-148.706
11
143.494
21
-148.134
0
LINE
8
Black
10
143.494
20
-148.134
11
143.494
21
-147.42
0
LINE
8
Black
10
143.494
20
-147.42
11
143.637
21
-146.849
0
LINE
8
Black
10
143.637
20
-146.849
11
143.78
21
-146.563
0
LINE
8
Black
10
143.78
20
-146.563
11
143.923
21
-146.42
0
LINE
8
Black
10
143.923
20
-146.42
11
144.209
21
-146.277
0
LINE
8
Black
10
147.78
20
-147.277
11
147.78
21
-149.277
0
LINE
8
Black
10
147.066
20
-146.134
11
146.352
21
-148.277
0
LINE
8
Black
10
146.352
20
-148.277
11
148.209
21
-148.277
0
LINE
8
Black
10
149.923
20
-146.277
11
150.209
21
-146.277
0
LINE
8
Black
10
150.209
20
-146.277
11
150.494
21
-146.42
0
LINE
8
Black
10
150.494
20
-146.42
11
150.637
21
-146.563
0
LINE
8
Black
10
150.637
20
-146.563
11
150.78
21
-146.849
0
LINE
8
Black
10
150.78
20
-146.849
11
150.923
21
-147.42
0
LINE
8
Black
10
150.923
20
-147.42
11
150.923
21
-148.134
0
LINE
8
Black
10
150.923
20
-148.134
11
150.78
21
-148.706
0
LINE
8
Black
10
150.78
20
-148.706
11
150.637
21
-148.991
0
LINE
8
Black
10
150.637
20
-148.991
11
150.494
21
-149.134
0
LINE
8
Black
10
150.494
20
-149.134
11
150.209
21
-149.277
0
LINE
8
Black
10
150.209
20
-149.277
11
149.923
21
-149.277
0
LINE
8
Black
10
149.923
20
-149.277
11
149.637
21
-149.134
0
LINE
8
Black
10
149.637
20
-149.134
11
149.494
21
-148.991
0
LINE
8
Black
10
149.494
20
-148.991
11
149.352
21
-148.706
0
LINE
8
Black
10
149.352
20
-148.706
11
149.209
21
-148.134
0
LINE
8
Black
10
149.209
20
-148.134
11
149.209
21
-147.42
0
LINE
8
Black
10
149.209
20
-147.42
11
149.352
21
-146.849
0
LINE
8
Black
10
149.352
20
-146.849
11
149.494
21
-146.563
0
LINE
8
Black
10
149.494
20
-146.563
11
149.637
21
-146.42
0
LINE
8
Black
10
149.637
20
-146.42
11
149.923
21
-146.277
0
LINE
8
Black
10
152.066
20
-146.277
11
152.066
21
-146.849
0
LINE
8
Black
10
153.209
20
-146.277
11
153.209
21
-146.849
0
LINE
8
Black
10
157.637
20
-150.42
11
157.494
21
-150.277
0
LINE
8
Black
10
157.494
20
-150.277
11
157.209
21
-149.849
0
LINE
8
Black
10
157.209
20
-149.849
11
157.066
21
-149.563
0
LINE
8
Black
10
157.066
20
-149.563
11
156.923
21
-149.134
0
LINE
8
Black
10
156.923
20
-149.134
11
156.78
21
-148.42
0
LINE
8
Black
10
156.78
20
-148.42
11
156.78
21
-147.849
0
LINE
8
Black
10
156.78
20
-147.849
11
156.923
21
-147.134
0
LINE
8
Black
10
156.923
20
-147.134
11
157.066
21
-146.706
0
LINE
8
Black
10
157.066
20
-146.706
11
157.209
21
-146.42
0
LINE
8
Black
10
157.209
20
-146.42
11
157.494
21
-145.991
0
LINE
8
Black
10
157.494
20
-145.991
11
157.637
21
-145.849
0
LINE
8
Black
10
160.209
20
-146.277
11
158.78
21
-146.277
0
LINE
8
Black
10
158.78
20
-146.277
11
158.637
21
-147.706
0
LINE
8
Black
10
158.637
20
-147.706
11
158.78
21
-147.563
0
LINE
8
Black
10
158.78
20
-147.563
11
159.066
21
-147.42
0
LINE
8
Black
10
159.066
20
-147.42
11
159.78
21
-147.42
0
LINE
8
Black
10
159.78
20
-147.42
11
160.066
21
-147.563
0
LINE
8
Black
10
160.066
20
-147.563
11
160.209
21
-147.706
0
LINE
8
Black
10
160.209
20
-147.706
11
160.352
21
-147.991
0
LINE
8
Black
10
160.352
20
-147.991
11
160.352
21
-148.706
0
LINE
8
Black
10
160.352
20
-148.706
11
160.209
21
-148.991
0
LINE
8
Black
10
160.209
20
-148.991
11
160.066
21
-149.134
0
LINE
8
Black
10
160.066
20
-149.134
11
159.78
21
-149.277
0
LINE
8
Black
10
159.78
20
-149.277
11
159.066
21
-149.277
0
LINE
8
Black
10
159.066
20
-149.277
11
158.78
21
-149.134
0
LINE
8
Black
10
158.78
20
-149.134
11
158.637
21
-148.991
0
LINE
8
Black
10
161.494
20
-146.563
11
161.637
21
-146.42
0
LINE
8
Black
10
161.637
20
-146.42
11
161.923
21
-146.277
0
LINE
8
Black
10
161.923
20
-146.277
11
162.637
21
-146.277
0
LINE
8
Black
10
162.637
20
-146.277
11
162.923
21
-146.42
0
LINE
8
Black
10
162.923
20
-146.42
11
163.066
21
-146.563
0
LINE
8
Black
10
163.066
20
-146.563
11
163.209
21
-146.849
0
LINE
8
Black
10
163.209
20
-146.849
11
163.209
21
-147.134
0
LINE
8
Black
10
163.209
20
-147.134
11
163.066
21
-147.563
0
LINE
8
Black
10
163.066
20
-147.563
11
161.352
21
-149.277
0
LINE
8
Black
10
161.352
20
-149.277
11
163.209
21
-149.277
0
LINE
8
Black
10
166.78
20
-149.277
11
166.78
21
-146.277
0
LINE
8
Black
10
168.066
20
-149.277
11
168.066
21
-147.706
0
LINE
8
Black
10
168.066
20
-147.706
11
167.923
21
-147.42
0
LINE
8
Black
10
167.923
20
-147.42
11
167.637
21
-147.277
0
LINE
8
Black
10
167.637
20
-147.277
11
167.209
21
-147.277
0
LINE
8
Black
10
167.209
20
-147.277
11
166.923
21
-147.42
0
LINE
8
Black
10
166.923
20
-147.42
11
166.78
21
-147.563
0
LINE
8
Black
10
169.923
20
-149.277
11
169.637
21
-149.134
0
LINE
8
Black
10
169.637
20
-149.134
11
169.494
21
-148.991
0
LINE
8
Black
10
169.494
20
-148.991
11
169.352
21
-148.706
0
LINE
8
Black
10
169.352
20
-148.706
11
169.352
21
-147.849
0
LINE
8
Black
10
169.352
20
-147.849
11
169.494
21
-147.563
0
LINE
8
Black
10
169.494
20
-147.563
11
169.637
21
-147.42
0
LINE
8
Black
10
169.637
20
-147.42
11
169.923
21
-147.277
0
LINE
8
Black
10
169.923
20
-147.277
11
170.352
21
-147.277
0
LINE
8
Black
10
170.352
20
-147.277
11
170.637
21
-147.42
0
LINE
8
Black
10
170.637
20
-147.42
11
170.78
21
-147.563
0
LINE
8
Black
10
170.78
20
-147.563
11
170.923
21
-147.849
0
LINE
8
Black
10
170.923
20
-147.849
11
170.923
21
-148.706
0
LINE
8
Black
10
170.923
20
-148.706
11
170.78
21
-148.991
0
LINE
8
Black
10
170.78
20
-148.991
11
170.637
21
-149.134
0
LINE
8
Black
10
170.637
20
-149.134
11
170.352
21
-149.277
0
LINE
8
Black
10
170.352
20
-149.277
11
169.923
21
-149.277
0
LINE
8
Black
10
172.637
20
-149.277
11
172.352
21
-149.134
0
LINE
8
Black
10
172.352
20
-149.134
11
172.209
21
-148.849
0
LINE
8
Black
10
172.209
20
-148.849
11
172.209
21
-146.277
0
LINE
8
Black
10
174.923
20
-149.134
11
174.637
21
-149.277
0
LINE
8
Black
10
174.637
20
-149.277
11
174.066
21
-149.277
0
LINE
8
Black
10
174.066
20
-149.277
11
173.78
21
-149.134
0
LINE
8
Black
10
173.78
20
-149.134
11
173.637
21
-148.849
0
LINE
8
Black
10
173.637
20
-148.849
11
173.637
21
-147.706
0
LINE
8
Black
10
173.637
20
-147.706
11
173.78
21
-147.42
0
LINE
8
Black
10
173.78
20
-147.42
11
174.066
21
-147.277
0
LINE
8
Black
10
174.066
20
-147.277
11
174.637
21
-147.277
0
LINE
8
Black
10
174.637
20
-147.277
11
174.923
21
-147.42
0
LINE
8
Black
10
174.923
20
-147.42
11
175.066
21
-147.706
0
LINE
8
Black
10
175.066
20
-147.706
11
175.066
21
-147.991
0
LINE
8
Black
10
175.066
20
-147.991
11
173.637
21
-148.277
0
LINE
8
Black
10
176.209
20
-149.134
11
176.494
21
-149.277
0
LINE
8
Black
10
176.494
20
-149.277
11
177.066
21
-149.277
0
LINE
8
Black
10
177.066
20
-149.277
11
177.352
21
-149.134
0
LINE
8
Black
10
177.352
20
-149.134
11
177.494
21
-148.849
0
LINE
8
Black
10
177.494
20
-148.849
11
177.494
21
-148.706
0
LINE
8
Black
10
177.494
20
-148.706
11
177.352
21
-148.42
0
LINE
8
Black
10
177.352
20
-148.42
11
177.066
21
-148.277
0
LINE
8
Black
10
177.066
20
-148.277
11
176.637
21
-148.277
0
LINE
8
Black
10
176.637
20
-148.277
11
176.352
21
-148.134
0
LINE
8
Black
10
176.352
20
-148.134
11
176.209
21
-147.849
0
LINE
8
Black
10
176.209
20
-147.849
11
176.209
21
-147.706
0
LINE
8
Black
10
176.209
20
-147.706
11
176.352
21
-147.42
0
LINE
8
Black
10
176.352
20
-147.42
11
176.637
21
-147.277
0
LINE
8
Black
10
176.637
20
-147.277
11
177.066
21
-147.277
0
LINE
8
Black
10
177.066
20
-147.277
11
177.352
21
-147.42
0
LINE
8
Black
10
178.494
20
-150.42
11
178.637
21
-150.277
0
LINE
8
Black
10
178.637
20
-150.277
11
178.923
21
-149.849
0
LINE
8
Black
10
178.923
20
-149.849
11
179.066
21
-149.563
0
LINE
8
Black
10
179.066
20
-149.563
11
179.209
21
-149.134
0
LINE
8
Black
10
179.209
20
-149.134
11
179.352
21
-148.42
0
LINE
8
Black
10
179.352
20
-148.42
11
179.352
21
-147.849
0
LINE
8
Black
10
179.352
20
-147.849
11
179.209
21
-147.134
0
LINE
8
Black
10
179.209
20
-147.134
11
179.066
21
-146.706
0
LINE
8
Black
10
179.066
20
-146.706
11
178.923
21
-146.42
0
LINE
8
Black
10
178.923
20
-146.42
11
178.637
21
-145.991
0
LINE
8
Black
10
178.637
20
-145.991
11
178.494
21
-145.849
0
LINE
8
Black
10
110.373
20
-152.43
11
110.923
21
-151.88
0
LINE
8
Black
10
110.923
20
-151.88
11
110.373
21
-151.33
0
LINE
8
Black
10
110.373
20
-151.33
11
109.823
21
-151.88
0
LINE
8
Black
10
109.823
20
-151.88
11
110.373
21
-152.43
0
LINE
8
Black
10
115.209
20
-153.237
11
113.494
21
-153.237
0
LINE
8
Black
10
114.352
20
-153.237
11
114.352
21
-150.237
0
LINE
8
Black
10
114.352
20
-150.237
11
114.066
21
-150.666
0
LINE
8
Black
10
114.066
20
-150.666
11
113.78
21
-150.951
0
LINE
8
Black
10
113.78
20
-150.951
11
113.494
21
-151.094
0
LINE
8
Black
10
116.494
20
-152.951
11
116.637
21
-153.094
0
LINE
8
Black
10
116.637
20
-153.094
11
116.494
21
-153.237
0
LINE
8
Black
10
116.494
20
-153.237
11
116.352
21
-153.094
0
LINE
8
Black
10
116.352
20
-153.094
11
116.494
21
-152.951
0
LINE
8
Black
10
116.494
20
-152.951
11
116.494
21
-153.237
0
LINE
8
Black
10
119.494
20
-153.237
11
117.78
21
-153.237
0
LINE
8
Black
10
118.637
20
-153.237
11
118.637
21
-150.237
0
LINE
8
Black
10
118.637
20
-150.237
11
118.352
21
-150.666
0
LINE
8
Black
10
118.352
20
-150.666
11
118.066
21
-150.951
0
LINE
8
Black
10
118.066
20
-150.951
11
117.78
21
-151.094
0
LINE
8
Black
10
121.352
20
-150.237
11
121.637
21
-150.237
0
LINE
8
Black
10
121.637
20
-150.237
11
121.923
21
-150.38
0
LINE
8
Black
10
121.923
20
-150.38
11
122.066
21
-150.523
0
LINE
8
Black
10
122.066
20
-150.523
11
122.209
21
-150.809
0
LINE
8
Black
10
122.209
20
-150.809
11
122.352
21
-151.38
0
LINE
8
Black
10
122.352
20
-151.38
11
122.352
21
-152.094
0
LINE
8
Black
10
122.352
20
-152.094
11
122.209
21
-152.666
0
LINE
8
Black
10
122.209
20
-152.666
11
122.066
21
-152.951
0
LINE
8
Black
10
122.066
20
-152.951
11
121.923
21
-153.094
0
LINE
8
Black
10
121.923
20
-153.094
11
121.637
21
-153.237
0
LINE
8
Black
10
121.637
20
-153.237
11
121.352
21
-153.237
0
LINE
8
Black
10
121.352
20
-153.237
11
121.066
21
-153.094
0
LINE
8
Black
10
121.066
20
-153.094
11
120.923
21
-152.951
0
LINE
8
Black
10
120.923
20
-152.951
11
120.78
21
-152.666
0
LINE
8
Black
10
120.78
20
-152.666
11
120.637
21
-152.094
0
LINE
8
Black
10
120.637
20
-152.094
11
120.637
21
-151.38
0
LINE
8
Black
10
120.637
20
-151.38
11
120.78
21
-150.809
0
LINE
8
Black
10
120.78
20
-150.809
11
120.923
21
-150.523
0
LINE
8
Black
10
120.923
20
-150.523
11
121.066
21
-150.38
0
LINE
8
Black
10
121.066
20
-150.38
11
121.352
21
-150.237
0
LINE
8
Black
10
123.637
20
-153.237
11
123.637
21
-151.237
0
LINE
8
Black
10
123.637
20
-151.523
11
123.78
21
-151.38
0
LINE
8
Black
10
123.78
20
-151.38
11
124.066
21
-151.237
0
LINE
8
Black
10
124.066
20
-151.237
11
124.494
21
-151.237
0
LINE
8
Black
10
124.494
20
-151.237
11
124.78
21
-151.38
0
LINE
8
Black
10
124.78
20
-151.38
11
124.923
21
-151.666
0
LINE
8
Black
10
124.923
20
-151.666
11
124.923
21
-153.237
0
LINE
8
Black
10
124.923
20
-151.666
11
125.066
21
-151.38
0
LINE
8
Black
10
125.066
20
-151.38
11
125.352
21
-151.237
0
LINE
8
Black
10
125.352
20
-151.237
11
125.78
21
-151.237
0
LINE
8
Black
10
125.78
20
-151.237
11
126.066
21
-151.38
0
LINE
8
Black
10
126.066
20
-151.38
11
126.209
21
-151.666
0
LINE
8
Black
10
126.209
20
-151.666
11
126.209
21
-153.237
0
LINE
8
Black
10
127.637
20
-153.237
11
127.637
21
-151.237
0
LINE
8
Black
10
127.637
20
-151.523
11
127.78
21
-151.38
0
LINE
8
Black
10
127.78
20
-151.38
11
128.066
21
-151.237
0
LINE
8
Black
10
128.066
20
-151.237
11
128.494
21
-151.237
0
LINE
8
Black
10
128.494
20
-151.237
11
128.78
21
-151.38
0
LINE
8
Black
10
128.78
20
-151.38
11
128.923
21
-151.666
0
LINE
8
Black
10
128.923
20
-151.666
11
128.923
21
-153.237
0
LINE
8
Black
10
128.923
20
-151.666
11
129.066
21
-151.38
0
LINE
8
Black
10
129.066
20
-151.38
11
129.352
21
-151.237
0
LINE
8
Black
10
129.352
20
-151.237
11
129.78
21
-151.237
0
LINE
8
Black
10
129.78
20
-151.237
11
130.066
21
-151.38
0
LINE
8
Black
10
130.066
20
-151.38
11
130.209
21
-151.666
0
LINE
8
Black
10
130.209
20
-151.666
11
130.209
21
-153.237
0
LINE
8
Black
10
136.066
20
-150.094
11
133.494
21
-153.951
0
LINE
8
Black
10
139.923
20
-150.237
11
140.209
21
-150.237
0
LINE
8
Black
10
140.209
20
-150.237
11
140.494
21
-150.38
0
LINE
8
Black
10
140.494
20
-150.38
11
140.637
21
-150.523
0
LINE
8
Black
10
140.637
20
-150.523
11
140.78
21
-150.809
0
LINE
8
Black
10
140.78
20
-150.809
11
140.923
21
-151.38
0
LINE
8
Black
10
140.923
20
-151.38
11
140.923
21
-152.094
0
LINE
8
Black
10
140.923
20
-152.094
11
140.78
21
-152.666
0
LINE
8
Black
10
140.78
20
-152.666
11
140.637
21
-152.951
0
LINE
8
Black
10
140.637
20
-152.951
11
140.494
21
-153.094
0
LINE
8
Black
10
140.494
20
-153.094
11
140.209
21
-153.237
0
LINE
8
Black
10
140.209
20
-153.237
11
139.923
21
-153.237
0
LINE
8
Black
10
139.923
20
-153.237
11
139.637
21
-153.094
0
LINE
8
Black
10
139.637
20
-153.094
11
139.494
21
-152.951
0
LINE
8
Black
10
139.494
20
-152.951
11
139.352
21
-152.666
0
LINE
8
Black
10
139.352
20
-152.666
11
139.209
21
-152.094
0
LINE
8
Black
10
139.209
20
-152.094
11
139.209
21
-151.38
0
LINE
8
Black
10
139.209
20
-151.38
11
139.352
21
-150.809
0
LINE
8
Black
10
139.352
20
-150.809
11
139.494
21
-150.523
0
LINE
8
Black
10
139.494
20
-150.523
11
139.637
21
-150.38
0
LINE
8
Black
10
139.637
20
-150.38
11
139.923
21
-150.237
0
LINE
8
Black
10
142.209
20
-152.951
11
142.352
21
-153.094
0
LINE
8
Black
10
142.352
20
-153.094
11
142.209
21
-153.237
0
LINE
8
Black
10
142.209
20
-153.237
11
142.066
21
-153.094
0
LINE
8
Black
10
142.066
20
-153.094
11
142.209
21
-152.951
0
LINE
8
Black
10
142.209
20
-152.951
11
142.209
21
-153.237
0
LINE
8
Black
10
144.209
20
-150.237
11
144.494
21
-150.237
0
LINE
8
Black
10
144.494
20
-150.237
11
144.78
21
-150.38
0
LINE
8
Black
10
144.78
20
-150.38
11
144.923
21
-150.523
0
LINE
8
Black
10
144.923
20
-150.523
11
145.066
21
-150.809
0
LINE
8
Black
10
145.066
20
-150.809
11
145.209
21
-151.38
0
LINE
8
Black
10
145.209
20
-151.38
11
145.209
21
-152.094
0
LINE
8
Black
10
145.209
20
-152.094
11
145.066
21
-152.666
0
LINE
8
Black
10
145.066
20
-152.666
11
144.923
21
-152.951
0
LINE
8
Black
10
144.923
20
-152.951
11
144.78
21
-153.094
0
LINE
8
Black
10
144.78
20
-153.094
11
144.494
21
-153.237
0
LINE
8
Black
10
144.494
20
-153.237
11
144.209
21
-153.237
0
LINE
8
Black
10
144.209
20
-153.237
11
143.923
21
-153.094
0
LINE
8
Black
10
143.923
20
-153.094
11
143.78
21
-152.951
0
LINE
8
Black
10
143.78
20
-152.951
11
143.637
21
-152.666
0
LINE
8
Black
10
143.637
20
-152.666
11
143.494
21
-152.094
0
LINE
8
Black
10
143.494
20
-152.094
11
143.494
21
-151.38
0
LINE
8
Black
10
143.494
20
-151.38
11
143.637
21
-150.809
0
LINE
8
Black
10
143.637
20
-150.809
11
143.78
21
-150.523
0
LINE
8
Black
10
143.78
20
-150.523
11
143.923
21
-150.38
0
LINE
8
Black
10
143.923
20
-150.38
11
144.209
21
-150.237
0
LINE
8
Black
10
147.78
20
-151.237
11
147.78
21
-153.237
0
LINE
8
Black
10
147.066
20
-150.094
11
146.352
21
-152.237
0
LINE
8
Black
10
146.352
20
-152.237
11
148.209
21
-152.237
0
LINE
8
Black
10
149.066
20
-150.237
11
150.923
21
-150.237
0
LINE
8
Black
10
150.923
20
-150.237
11
149.923
21
-151.38
0
LINE
8
Black
10
149.923
20
-151.38
11
150.352
21
-151.38
0
LINE
8
Black
10
150.352
20
-151.38
11
150.637
21
-151.523
0
LINE
8
Black
10
150.637
20
-151.523
11
150.78
21
-151.666
0
LINE
8
Black
10
150.78
20
-151.666
11
150.923
21
-151.951
0
LINE
8
Black
10
150.923
20
-151.951
11
150.923
21
-152.666
0
LINE
8
Black
10
150.923
20
-152.666
11
150.78
21
-152.951
0
LINE
8
Black
10
150.78
20
-152.951
11
150.637
21
-153.094
0
LINE
8
Black
10
150.637
20
-153.094
11
150.352
21
-153.237
0
LINE
8
Black
10
150.352
20
-153.237
11
149.494
21
-153.237
0
LINE
8
Black
10
149.494
20
-153.237
11
149.209
21
-153.094
0
LINE
8
Black
10
149.209
20
-153.094
11
149.066
21
-152.951
0
LINE
8
Black
10
152.066
20
-150.237
11
152.066
21
-150.809
0
LINE
8
Black
10
153.209
20
-150.237
11
153.209
21
-150.809
0
LINE
8
Black
10
157.637
20
-154.38
11
157.494
21
-154.237
0
LINE
8
Black
10
157.494
20
-154.237
11
157.209
21
-153.809
0
LINE
8
Black
10
157.209
20
-153.809
11
157.066
21
-153.523
0
LINE
8
Black
10
157.066
20
-153.523
11
156.923
21
-153.094
0
LINE
8
Black
10
156.923
20
-153.094
11
156.78
21
-152.38
0
LINE
8
Black
10
156.78
20
-152.38
11
156.78
21
-151.809
0
LINE
8
Black
10
156.78
20
-151.809
11
156.923
21
-151.094
0
LINE
8
Black
10
156.923
20
-151.094
11
157.066
21
-150.666
0
LINE
8
Black
10
157.066
20
-150.666
11
157.209
21
-150.38
0
LINE
8
Black
10
157.209
20
-150.38
11
157.494
21
-149.951
0
LINE
8
Black
10
157.494
20
-149.951
11
157.637
21
-149.809
0
LINE
8
Black
10
160.066
20
-151.237
11
160.066
21
-153.237
0
LINE
8
Black
10
159.352
20
-150.094
11
158.637
21
-152.237
0
LINE
8
Black
10
158.637
20
-152.237
11
160.494
21
-152.237
0
LINE
8
Black
10
163.923
20
-153.237
11
163.923
21
-150.237
0
LINE
8
Black
10
165.209
20
-153.237
11
165.209
21
-151.666
0
LINE
8
Black
10
165.209
20
-151.666
11
165.066
21
-151.38
0
LINE
8
Black
10
165.066
20
-151.38
11
164.78
21
-151.237
0
LINE
8
Black
10
164.78
20
-151.237
11
164.352
21
-151.237
0
LINE
8
Black
10
164.352
20
-151.237
11
164.066
21
-151.38
0
LINE
8
Black
10
164.066
20
-151.38
11
163.923
21
-151.523
0
LINE
8
Black
10
167.066
20
-153.237
11
166.78
21
-153.094
0
LINE
8
Black
10
166.78
20
-153.094
11
166.637
21
-152.951
0
LINE
8
Black
10
166.637
20
-152.951
11
166.494
21
-152.666
0
LINE
8
Black
10
166.494
20
-152.666
11
166.494
21
-151.809
0
LINE
8
Black
10
166.494
20
-151.809
11
166.637
21
-151.523
0
LINE
8
Black
10
166.637
20
-151.523
11
166.78
21
-151.38
0
LINE
8
Black
10
166.78
20
-151.38
11
167.066
21
-151.237
0
LINE
8
Black
10
167.066
20
-151.237
11
167.494
21
-151.237
0
LINE
8
Black
10
167.494
20
-151.237
11
167.78
21
-151.38
0
LINE
8
Black
10
167.78
20
-151.38
11
167.923
21
-151.523
0
LINE
8
Black
10
167.923
20
-151.523
11
168.066
21
-151.809
0
LINE
8
Black
10
168.066
20
-151.809
11
168.066
21
-152.666
0
LINE
8
Black
10
168.066
20
-152.666
11
167.923
21
-152.951
0
LINE
8
Black
10
167.923
20
-152.951
11
167.78
21
-153.094
0
LINE
8
Black
10
167.78
20
-153.094
11
167.494
21
-153.237
0
LINE
8
Black
10
167.494
20
-153.237
11
167.066
21
-153.237
0
LINE
8
Black
10
169.78
20
-153.237
11
169.494
21
-153.094
0
LINE
8
Black
10
169.494
20
-153.094
11
169.352
21
-152.809
0
LINE
8
Black
10
169.352
20
-152.809
11
169.352
21
-150.237
0
LINE
8
Black
10
172.066
20
-153.094
11
171.78
21
-153.237
0
LINE
8
Black
10
171.78
20
-153.237
11
171.209
21
-153.237
0
LINE
8
Black
10
171.209
20
-153.237
11
170.923
21
-153.094
0
LINE
8
Black
10
170.923
20
-153.094
11
170.78
21
-152.809
0
LINE
8
Black
10
170.78
20
-152.809
11
170.78
21
-151.666
0
LINE
8
Black
10
170.78
20
-151.666
11
170.923
21
-151.38
0
LINE
8
Black
10
170.923
20
-151.38
11
171.209
21
-151.237
0
LINE
8
Black
10
171.209
20
-151.237
11
171.78
21
-151.237
0
LINE
8
Black
10
171.78
20
-151.237
11
172.066
21
-151.38
0
LINE
8
Black
10
172.066
20
-151.38
11
172.209
21
-151.666
0
LINE
8
Black
10
172.209
20
-151.666
11
172.209
21
-151.951
0
LINE
8
Black
10
172.209
20
-151.951
11
170.78
21
-152.237
0
LINE
8
Black
10
173.352
20
-153.094
11
173.637
21
-153.237
0
LINE
8
Black
10
173.637
20
-153.237
11
174.209
21
-153.237
0
LINE
8
Black
10
174.209
20
-153.237
11
174.494
21
-153.094
0
LINE
8
Black
10
174.494
20
-153.094
11
174.637
21
-152.809
0
LINE
8
Black
10
174.637
20
-152.809
11
174.637
21
-152.666
0
LINE
8
Black
10
174.637
20
-152.666
11
174.494
21
-152.38
0
LINE
8
Black
10
174.494
20
-152.38
11
174.209
21
-152.237
0
LINE
8
Black
10
174.209
20
-152.237
11
173.78
21
-152.237
0
LINE
8
Black
10
173.78
20
-152.237
11
173.494
21
-152.094
0
LINE
8
Black
10
173.494
20
-152.094
11
173.352
21
-151.809
0
LINE
8
Black
10
173.352
20
-151.809
11
173.352
21
-151.666
0
LINE
8
Black
10
173.352
20
-151.666
11
173.494
21
-151.38
0
LINE
8
Black
10
173.494
20
-151.38
11
173.78
21
-151.237
0
LINE
8
Black
10
173.78
20
-151.237
11
174.209
21
-151.237
0
LINE
8
Black
10
174.209
20
-151.237
11
174.494
21
-151.38
0
LINE
8
Black
10
175.637
20
-154.38
11
175.78
21
-154.237
0
LINE
8
Black
10
175.78
20
-154.237
11
176.066
21
-153.809
0
LINE
8
Black
10
176.066
20
-153.809
11
176.209
21
-153.523
0
LINE
8
Black
10
176.209
20
-153.523
11
176.352
21
-153.094
0
LINE
8
Black
10
176.352
20
-153.094
11
176.494
21
-152.38
0
LINE
8
Black
10
176.494
20
-152.38
11
176.494
21
-151.809
0
LINE
8
Black
10
176.494
20
-151.809
11
176.352
21
-151.094
0
LINE
8
Black
10
176.352
20
-151.094
11
176.209
21
-150.666
0
LINE
8
Black
10
176.209
20
-150.666
11
176.066
21
-150.38
0
LINE
8
Black
10
176.066
20
-150.38
11
175.78
21
-149.951
0
LINE
8
Black
10
175.78
20
-149.951
11
175.637
21
-149.809
0
LINE
8
Black
10
109.723
20
-155.24
11
110.923
21
-156.44
0
LINE
8
Black
10
110.923
20
-155.24
11
109.723
21
-156.44
0
CIRCLE
8
Black
10
110.323
20
-155.84
40
0.6
0
LINE
8
Black
10
115.209
20
-157.197
11
113.494
21
-157.197
0
LINE
8
Black
10
114.352
20
-157.197
11
114.352
21
-154.197
0
LINE
8
Black
10
114.352
20
-154.197
11
114.066
21
-154.626
0
LINE
8
Black
10
114.066
20
-154.626
11
113.78
21
-154.911
0
LINE
8
Black
10
113.78
20
-154.911
11
113.494
21
-155.054
0
LINE
8
Black
10
116.494
20
-156.911
11
116.637
21
-157.054
0
LINE
8
Black
10
116.637
20
-157.054
11
116.494
21
-157.197
0
LINE
8
Black
10
116.494
20
-157.197
11
116.352
21
-157.054
0
LINE
8
Black
10
116.352
20
-157.054
11
116.494
21
-156.911
0
LINE
8
Black
10
116.494
20
-156.911
11
116.494
21
-157.197
0
LINE
8
Black
10
117.78
20
-154.483
11
117.923
21
-154.34
0
LINE
8
Black
10
117.923
20
-154.34
11
118.209
21
-154.197
0
LINE
8
Black
10
118.209
20
-154.197
11
118.923
21
-154.197
0
LINE
8
Black
10
118.923
20
-154.197
11
119.209
21
-154.34
0
LINE
8
Black
10
119.209
20
-154.34
11
119.352
21
-154.483
0
LINE
8
Black
10
119.352
20
-154.483
11
119.494
21
-154.769
0
LINE
8
Black
10
119.494
20
-154.769
11
119.494
21
-155.054
0
LINE
8
Black
10
119.494
20
-155.054
11
119.352
21
-155.483
0
LINE
8
Black
10
119.352
20
-155.483
11
117.637
21
-157.197
0
LINE
8
Black
10
117.637
20
-157.197
11
119.494
21
-157.197
0
LINE
8
Black
10
121.352
20
-154.197
11
121.637
21
-154.197
0
LINE
8
Black
10
121.637
20
-154.197
11
121.923
21
-154.34
0
LINE
8
Black
10
121.923
20
-154.34
11
122.066
21
-154.483
0
LINE
8
Black
10
122.066
20
-154.483
11
122.209
21
-154.769
0
LINE
8
Black
10
122.209
20
-154.769
11
122.352
21
-155.34
0
LINE
8
Black
10
122.352
20
-155.34
11
122.352
21
-156.054
0
LINE
8
Black
10
122.352
20
-156.054
11
122.209
21
-156.626
0
LINE
8
Black
10
122.209
20
-156.626
11
122.066
21
-156.911
0
LINE
8
Black
10
122.066
20
-156.911
11
121.923
21
-157.054
0
LINE
8
Black
10
121.923
20
-157.054
11
121.637
21
-157.197
0
LINE
8
Black
10
121.637
20
-157.197
11
121.352
21
-157.197
0
LINE
8
Black
10
121.352
20
-157.197
11
121.066
21
-157.054
0
LINE
8
Black
10
121.066
20
-157.054
11
120.923
21
-156.911
0
LINE
8
Black
10
120.923
20
-156.911
11
120.78
21
-156.626
0
LINE
8
Black
10
120.78
20
-156.626
11
120.637
21
-156.054
0
LINE
8
Black
10
120.637
20
-156.054
11
120.637
21
-155.34
0
LINE
8
Black
10
120.637
20
-155.34
11
120.78
21
-154.769
0
LINE
8
Black
10
120.78
20
-154.769
11
120.923
21
-154.483
0
LINE
8
Black
10
120.923
20
-154.483
11
121.066
21
-154.34
0
LINE
8
Black
10
121.066
20
-154.34
11
121.352
21
-154.197
0
LINE
8
Black
10
123.637
20
-157.197
11
123.637
21
-155.197
0
LINE
8
Black
10
123.637
20
-155.483
11
123.78
21
-155.34
0
LINE
8
Black
10
123.78
20
-155.34
11
124.066
21
-155.197
0
LINE
8
Black
10
124.066
20
-155.197
11
124.494
21
-155.197
0
LINE
8
Black
10
124.494
20
-155.197
11
124.78
21
-155.34
0
LINE
8
Black
10
124.78
20
-155.34
11
124.923
21
-155.626
0
LINE
8
Black
10
124.923
20
-155.626
11
124.923
21
-157.197
0
LINE
8
Black
10
124.923
20
-155.626
11
125.066
21
-155.34
0
LINE
8
Black
10
125.066
20
-155.34
11
125.352
21
-155.197
0
LINE
8
Black
10
125.352
20
-155.197
11
125.78
21
-155.197
0
LINE
8
Black
10
125.78
20
-155.197
11
126.066
21
-155.34
0
LINE
8
Black
10
126.066
20
-155.34
11
126.209
21
-155.626
0
LINE
8
Black
10
126.209
20
-155.626
11
126.209
21
-157.197
0
LINE
8
Black
10
127.637
20
-157.197
11
127.637
21
-155.197
0
LINE
8
Black
10
127.637
20
-155.483
11
127.78
21
-155.34
0
LINE
8
Black
10
127.78
20
-155.34
11
128.066
21
-155.197
0
LINE
8
Black
10
128.066
20
-155.197
11
128.494
21
-155.197
0
LINE
8
Black
10
128.494
20
-155.197
11
128.78
21
-155.34
0
LINE
8
Black
10
128.78
20
-155.34
11
128.923
21
-155.626
0
LINE
8
Black
10
128.923
20
-155.626
11
128.923
21
-157.197
0
LINE
8
Black
10
128.923
20
-155.626
11
129.066
21
-155.34
0
LINE
8
Black
10
129.066
20
-155.34
11
129.352
21
-155.197
0
LINE
8
Black
10
129.352
20
-155.197
11
129.78
21
-155.197
0
LINE
8
Black
10
129.78
20
-155.197
11
130.066
21
-155.34
0
LINE
8
Black
10
130.066
20
-155.34
11
130.209
21
-155.626
0
LINE
8
Black
10
130.209
20
-155.626
11
130.209
21
-157.197
0
LINE
8
Black
10
136.066
20
-154.054
11
133.494
21
-157.911
0
LINE
8
Black
10
139.923
20
-154.197
11
140.209
21
-154.197
0
LINE
8
Black
10
140.209
20
-154.197
11
140.494
21
-154.34
0
LINE
8
Black
10
140.494
20
-154.34
11
140.637
21
-154.483
0
LINE
8
Black
10
140.637
20
-154.483
11
140.78
21
-154.769
0
LINE
8
Black
10
140.78
20
-154.769
11
140.923
21
-155.34
0
LINE
8
Black
10
140.923
20
-155.34
11
140.923
21
-156.054
0
LINE
8
Black
10
140.923
20
-156.054
11
140.78
21
-156.626
0
LINE
8
Black
10
140.78
20
-156.626
11
140.637
21
-156.911
0
LINE
8
Black
10
140.637
20
-156.911
11
140.494
21
-157.054
0
LINE
8
Black
10
140.494
20
-157.054
11
140.209
21
-157.197
0
LINE
8
Black
10
140.209
20
-157.197
11
139.923
21
-157.197
0
LINE
8
Black
10
139.923
20
-157.197
11
139.637
21
-157.054
0
LINE
8
Black
10
139.637
20
-157.054
11
139.494
21
-156.911
0
LINE
8
Black
10
139.494
20
-156.911
11
139.352
21
-156.626
0
LINE
8
Black
10
139.352
20
-156.626
11
139.209
21
-156.054
0
LINE
8
Black
10
139.209
20
-156.054
11
139.209
21
-155.34
0
LINE
8
Black
10
139.209
20
-155.34
11
139.352
21
-154.769
0
LINE
8
Black
10
139.352
20
-154.769
11
139.494
21
-154.483
0
LINE
8
Black
10
139.494
20
-154.483
11
139.637
21
-154.34
0
LINE
8
Black
10
139.637
20
-154.34
11
139.923
21
-154.197
0
LINE
8
Black
10
142.209
20
-156.911
11
142.352
21
-157.054
0
LINE
8
Black
10
142.352
20
-157.054
11
142.209
21
-157.197
0
LINE
8
Black
10
142.209
20
-157.197
11
142.066
21
-157.054
0
LINE
8
Black
10
142.066
20
-157.054
11
142.209
21
-156.911
0
LINE
8
Black
10
142.209
20
-156.911
11
142.209
21
-157.197
0
LINE
8
Black
10
144.209
20
-154.197
11
144.494
21
-154.197
0
LINE
8
Black
10
144.494
20
-154.197
11
144.78
21
-154.34
0
LINE
8
Black
10
144.78
20
-154.34
11
144.923
21
-154.483
0
LINE
8
Black
10
144.923
20
-154.483
11
145.066
21
-154.769
0
LINE
8
Black
10
145.066
20
-154.769
11
145.209
21
-155.34
0
LINE
8
Black
10
145.209
20
-155.34
11
145.209
21
-156.054
0
LINE
8
Black
10
145.209
20
-156.054
11
145.066
21
-156.626
0
LINE
8
Black
10
145.066
20
-156.626
11
144.923
21
-156.911
0
LINE
8
Black
10
144.923
20
-156.911
11
144.78
21
-157.054
0
LINE
8
Black
10
144.78
20
-157.054
11
144.494
21
-157.197
0
LINE
8
Black
10
144.494
20
-157.197
11
144.209
21
-157.197
0
LINE
8
Black
10
144.209
20
-157.197
11
143.923
21
-157.054
0
LINE
8
Black
10
143.923
20
-157.054
11
143.78
21
-156.911
0
LINE
8
Black
10
143.78
20
-156.911
11
143.637
21
-156.626
0
LINE
8
Black
10
143.637
20
-156.626
11
143.494
21
-156.054
0
LINE
8
Black
10
143.494
20
-156.054
11
143.494
21
-155.34
0
LINE
8
Black
10
143.494
20
-155.34
11
143.637
21
-154.769
0
LINE
8
Black
10
143.637
20
-154.769
11
143.78
21
-154.483
0
LINE
8
Black
10
143.78
20
-154.483
11
143.923
21
-154.34
0
LINE
8
Black
10
143.923
20
-154.34
11
144.209
21
-154.197
0
LINE
8
Black
10
147.78
20
-155.197
11
147.78
21
-157.197
0
LINE
8
Black
10
147.066
20
-154.054
11
146.352
21
-156.197
0
LINE
8
Black
10
146.352
20
-156.197
11
148.209
21
-156.197
0
LINE
8
Black
10
149.066
20
-154.197
11
151.066
21
-154.197
0
LINE
8
Black
10
151.066
20
-154.197
11
149.78
21
-157.197
0
LINE
8
Black
10
152.066
20
-154.197
11
152.066
21
-154.769
0
LINE
8
Black
10
153.209
20
-154.197
11
153.209
21
-154.769
0
LINE
8
Black
10
157.637
20
-158.34
11
157.494
21
-158.197
0
LINE
8
Black
10
157.494
20
-158.197
11
157.209
21
-157.769
0
LINE
8
Black
10
157.209
20
-157.769
11
157.066
21
-157.483
0
LINE
8
Black
10
157.066
20
-157.483
11
156.923
21
-157.054
0
LINE
8
Black
10
156.923
20
-157.054
11
156.78
21
-156.34
0
LINE
8
Black
10
156.78
20
-156.34
11
156.78
21
-155.769
0
LINE
8
Black
10
156.78
20
-155.769
11
156.923
21
-155.054
0
LINE
8
Black
10
156.923
20
-155.054
11
157.066
21
-154.626
0
LINE
8
Black
10
157.066
20
-154.626
11
157.209
21
-154.34
0
LINE
8
Black
10
157.209
20
-154.34
11
157.494
21
-153.911
0
LINE
8
Black
10
157.494
20
-153.911
11
157.637
21
-153.769
0
LINE
8
Black
10
158.637
20
-154.483
11
158.78
21
-154.34
0
LINE
8
Black
10
158.78
20
-154.34
11
159.066
21
-154.197
0
LINE
8
Black
10
159.066
20
-154.197
11
159.78
21
-154.197
0
LINE
8
Black
10
159.78
20
-154.197
11
160.066
21
-154.34
0
LINE
8
Black
10
160.066
20
-154.34
11
160.209
21
-154.483
0
LINE
8
Black
10
160.209
20
-154.483
11
160.352
21
-154.769
0
LINE
8
Black
10
160.352
20
-154.769
11
160.352
21
-155.054
0
LINE
8
Black
10
160.352
20
-155.054
11
160.209
21
-155.483
0
LINE
8
Black
10
160.209
20
-155.483
11
158.494
21
-157.197
0
LINE
8
Black
10
158.494
20
-157.197
11
160.352
21
-157.197
0
LINE
8
Black
10
162.209
20
-154.197
11
162.494
21
-154.197
0
LINE
8
Black
10
162.494
20
-154.197
11
162.78
21
-154.34
0
LINE
8
Black
10
162.78
20
-154.34
11
162.923
21
-154.483
0
LINE
8
Black
10
162.923
20
-154.483
11
163.066
21
-154.769
0
LINE
8
Black
10
163.066
20
-154.769
11
163.209
21
-155.34
0
LINE
8
Black
10
163.209
20
-155.34
11
163.209
21
-156.054
0
LINE
8
Black
10
163.209
20
-156.054
11
163.066
21
-156.626
0
LINE
8
Black
10
163.066
20
-156.626
11
162.923
21
-156.911
0
LINE
8
Black
10
162.923
20
-156.911
11
162.78
21
-157.054
0
LINE
8
Black
10
162.78
20
-157.054
11
162.494
21
-157.197
0
LINE
8
Black
10
162.494
20
-157.197
11
162.209
21
-157.197
0
LINE
8
Black
10
162.209
20
-157.197
11
161.923
21
-157.054
0
LINE
8
Black
10
161.923
20
-157.054
11
161.78
21
-156.911
0
LINE
8
Black
10
161.78
20
-156.911
11
161.637
21
-156.626
0
LINE
8
Black
10
161.637
20
-156.626
11
161.494
21
-156.054
0
LINE
8
Black
10
161.494
20
-156.054
11
161.494
21
-155.34
0
LINE
8
Black
10
161.494
20
-155.34
11
161.637
21
-154.769
0
LINE
8
Black
10
161.637
20
-154.769
11
161.78
21
-154.483
0
LINE
8
Black
10
161.78
20
-154.483
11
161.923
21
-154.34
0
LINE
8
Black
10
161.923
20
-154.34
11
162.209
21
-154.197
0
LINE
8
Black
10
166.78
20
-157.197
11
166.78
21
-154.197
0
LINE
8
Black
10
168.066
20
-157.197
11
168.066
21
-155.626
0
LINE
8
Black
10
168.066
20
-155.626
11
167.923
21
-155.34
0
LINE
8
Black
10
167.923
20
-155.34
11
167.637
21
-155.197
0
LINE
8
Black
10
167.637
20
-155.197
11
167.209
21
-155.197
0
LINE
8
Black
10
167.209
20
-155.197
11
166.923
21
-155.34
0
LINE
8
Black
10
166.923
20
-155.34
11
166.78
21
-155.483
0
LINE
8
Black
10
169.923
20
-157.197
11
169.637
21
-157.054
0
LINE
8
Black
10
169.637
20
-157.054
11
169.494
21
-156.911
0
LINE
8
Black
10
169.494
20
-156.911
11
169.352
21
-156.626
0
LINE
8
Black
10
169.352
20
-156.626
11
169.352
21
-155.769
0
LINE
8
Black
10
169.352
20
-155.769
11
169.494
21
-155.483
0
LINE
8
Black
10
169.494
20
-155.483
11
169.637
21
-155.34
0
LINE
8
Black
10
169.637
20
-155.34
11
169.923
21
-155.197
0
LINE
8
Black
10
169.923
20
-155.197
11
170.352
21
-155.197
0
LINE
8
Black
10
170.352
20
-155.197
11
170.637
21
-155.34
0
LINE
8
Black
10
170.637
20
-155.34
11
170.78
21
-155.483
0
LINE
8
Black
10
170.78
20
-155.483
11
170.923
21
-155.769
0
LINE
8
Black
10
170.923
20
-155.769
11
170.923
21
-156.626
0
LINE
8
Black
10
170.923
20
-156.626
11
170.78
21
-156.911
0
LINE
8
Black
10
170.78
20
-156.911
11
170.637
21
-157.054
0
LINE
8
Black
10
170.637
20
-157.054
11
170.352
21
-157.197
0
LINE
8
Black
10
170.352
20
-157.197
11
169.923
21
-157.197
0
LINE
8
Black
10
172.637
20
-157.197
11
172.352
21
-157.054
0
LINE
8
Black
10
172.352
20
-157.054
11
172.209
21
-156.769
0
LINE
8
Black
10
172.209
20
-156.769
11
172.209
21
-154.197
0
LINE
8
Black
10
174.923
20
-157.054
11
174.637
21
-157.197
0
LINE
8
Black
10
174.637
20
-157.197
11
174.066
21
-157.197
0
LINE
8
Black
10
174.066
20
-157.197
11
173.78
21
-157.054
0
LINE
8
Black
10
173.78
20
-157.054
11
173.637
21
-156.769
0
LINE
8
Black
10
173.637
20
-156.769
11
173.637
21
-155.626
0
LINE
8
Black
10
173.637
20
-155.626
11
173.78
21
-155.34
0
LINE
8
Black
10
173.78
20
-155.34
11
174.066
21
-155.197
0
LINE
8
Black
10
174.066
20
-155.197
11
174.637
21
-155.197
0
LINE
8
Black
10
174.637
20
-155.197
11
174.923
21
-155.34
0
LINE
8
Black
10
174.923
20
-155.34
11
175.066
21
-155.626
0
LINE
8
Black
10
175.066
20
-155.626
11
175.066
21
-155.911
0
LINE
8
Black
10
175.066
20
-155.911
11
173.637
21
-156.197
0
LINE
8
Black
10
176.209
20
-157.054
11
176.494
21
-157.197
0
LINE
8
Black
10
176.494
20
-157.197
11
177.066
21
-157.197
0
LINE
8
Black
10
177.066
20
-157.197
11
177.352
21
-157.054
0
LINE
8
Black
10
177.352
20
-157.054
11
177.494
21
-156.769
0
LINE
8
Black
10
177.494
20
-156.769
11
177.494
21
-156.626
0
LINE
8
Black
10
177.494
20
-156.626
11
177.352
21
-156.34
0
LINE
8
Black
10
177.352
20
-156.34
11
177.066
21
-156.197
0
LINE
8
Black
10
177.066
20
-156.197
11
176.637
21
-156.197
0
LINE
8
Black
10
176.637
20
-156.197
11
176.352
21
-156.054
0
LINE
8
Black
10
176.352
20
-156.054
11
176.209
21
-155.769
0
LINE
8
Black
10
176.209
20
-155.769
11
176.209
21
-155.626
0
LINE
8
Black
10
176.209
20
-155.626
11
176.352
21
-155.34
0
LINE
8
Black
10
176.352
20
-155.34
11
176.637
21
-155.197
0
LINE
8
Black
10
176.637
20
-155.197
11
177.066
21
-155.197
0
LINE
8
Black
10
177.066
20
-155.197
11
177.352
21
-155.34
0
LINE
8
Black
10
178.494
20
-158.34
11
178.637
21
-158.197
0
LINE
8
Black
10
178.637
20
-158.197
11
178.923
21
-157.769
0
LINE
8
Black
10
178.923
20
-157.769
11
179.066
21
-157.483
0
LINE
8
Black
10
179.066
20
-157.483
11
179.209
21
-157.054
0
LINE
8
Black
10
179.209
20
-157.054
11
179.352
21
-156.34
0
LINE
8
Black
10
179.352
20
-156.34
11
179.352
21
-155.769
0
LINE
8
Black
10
179.352
20
-155.769
11
179.209
21
-155.054
0
LINE
8
Black
10
179.209
20
-155.054
11
179.066
21
-154.626
0
LINE
8
Black
10
179.066
20
-154.626
11
178.923
21
-154.34
0
LINE
8
Black
10
178.923
20
-154.34
11
178.637
21
-153.911
0
LINE
8
Black
10
178.637
20
-153.911
11
178.494
21
-153.769
0
LINE
8
Black
10
109.399
20
-159.038
11
110.923
21
-160.562
0
LINE
8
Black
10
110.923
20
-159.038
11
109.399
21
-160.562
0
LINE
8
Black
10
110.161
20
-159.038
11
110.161
21
-160.562
0
LINE
8
Black
10
109.399
20
-159.8
11
110.923
21
-159.8
0
LINE
8
Black
10
115.209
20
-161.157
11
113.494
21
-161.157
0
LINE
8
Black
10
114.352
20
-161.157
11
114.352
21
-158.157
0
LINE
8
Black
10
114.352
20
-158.157
11
114.066
21
-158.586
0
LINE
8
Black
10
114.066
20
-158.586
11
113.78
21
-158.871
0
LINE
8
Black
10
113.78
20
-158.871
11
113.494
21
-159.014
0
LINE
8
Black
10
116.494
20
-160.871
11
116.637
21
-161.014
0
LINE
8
Black
10
116.637
20
-161.014
11
116.494
21
-161.157
0
LINE
8
Black
10
116.494
20
-161.157
11
116.352
21
-161.014
0
LINE
8
Black
10
116.352
20
-161.014
11
116.494
21
-160.871
0
LINE
8
Black
10
116.494
20
-160.871
11
116.494
21
-161.157
0
LINE
8
Black
10
119.352
20
-158.157
11
117.923
21
-158.157
0
LINE
8
Black
10
117.923
20
-158.157
11
117.78
21
-159.586
0
LINE
8
Black
10
117.78
20
-159.586
11
117.923
21
-159.443
0
LINE
8
Black
10
117.923
20
-159.443
11
118.209
21
-159.3
0
LINE
8
Black
10
118.209
20
-159.3
11
118.923
21
-159.3
0
LINE
8
Black
10
118.923
20
-159.3
11
119.209
21
-159.443
0
LINE
8
Black
10
119.209
20
-159.443
11
119.352
21
-159.586
0
LINE
8
Black
10
119.352
20
-159.586
11
119.494
21
-159.871
0
LINE
8
Black
10
119.494
20
-159.871
11
119.494
21
-160.586
0
LINE
8
Black
10
119.494
20
-160.586
11
119.352
21
-160.871
0
LINE
8
Black
10
119.352
20
-160.871
11
119.209
21
-161.014
0
LINE
8
Black
10
119.209
20
-161.014
11
118.923
21
-161.157
0
LINE
8
Black
10
118.923
20
-161.157
11
118.209
21
-161.157
0
LINE
8
Black
10
118.209
20
-161.157
11
117.923
21
-161.014
0
LINE
8
Black
10
117.923
20
-161.014
11
117.78
21
-160.871
0
LINE
8
Black
10
120.637
20
-158.443
11
120.78
21
-158.3
0
LINE
8
Black
10
120.78
20
-158.3
11
121.066
21
-158.157
0
LINE
8
Black
10
121.066
20
-158.157
11
121.78
21
-158.157
0
LINE
8
Black
10
121.78
20
-158.157
11
122.066
21
-158.3
0
LINE
8
Black
10
122.066
20
-158.3
11
122.209
21
-158.443
0
LINE
8
Black
10
122.209
20
-158.443
11
122.352
21
-158.729
0
LINE
8
Black
10
122.352
20
-158.729
11
122.352
21
-159.014
0
LINE
8
Black
10
122.352
20
-159.014
11
122.209
21
-159.443
0
LINE
8
Black
10
122.209
20
-159.443
11
120.494
21
-161.157
0
LINE
8
Black
10
120.494
20
-161.157
11
122.352
21
-161.157
0
LINE
8
Black
10
123.637
20
-161.157
11
123.637
21
-159.157
0
LINE
8
Black
10
123.637
20
-159.443
11
123.78
21
-159.3
0
LINE
8
Black
10
123.78
20
-159.3
11
124.066
21
-159.157
0
LINE
8
Black
10
124.066
20
-159.157
11
124.494
21
-159.157
0
LINE
8
Black
10
124.494
20
-159.157
11
124.78
21
-159.3
0
LINE
8
Black
10
124.78
20
-159.3
11
124.923
21
-159.586
0
LINE
8
Black
10
124.923
20
-159.586
11
124.923
21
-161.157
0
LINE
8
Black
10
124.923
20
-159.586
11
125.066
21
-159.3
0
LINE
8
Black
10
125.066
20
-159.3
11
125.352
21
-159.157
0
LINE
8
Black
10
125.352
20
-159.157
11
125.78
21
-159.157
0
LINE
8
Black
10
125.78
20
-159.157
11
126.066
21
-159.3
0
LINE
8
Black
10
126.066
20
-159.3
11
126.209
21
-159.586
0
LINE
8
Black
10
126.209
20
-159.586
11
126.209
21
-161.157
0
LINE
8
Black
10
127.637
20
-161.157
11
127.637
21
-159.157
0
LINE
8
Black
10
127.637
20
-159.443
11
127.78
21
-159.3
0
LINE
8
Black
10
127.78
20
-159.3
11
128.066
21
-159.157
0
LINE
8
Black
10
128.066
20
-159.157
11
128.494
21
-159.157
0
LINE
8
Black
10
128.494
20
-159.157
11
128.78
21
-159.3
0
LINE
8
Black
10
128.78
20
-159.3
11
128.923
21
-159.586
0
LINE
8
Black
10
128.923
20
-159.586
11
128.923
21
-161.157
0
LINE
8
Black
10
128.923
20
-159.586
11
129.066
21
-159.3
0
LINE
8
Black
10
129.066
20
-159.3
11
129.352
21
-159.157
0
LINE
8
Black
10
129.352
20
-159.157
11
129.78
21
-159.157
0
LINE
8
Black
10
129.78
20
-159.157
11
130.066
21
-159.3
0
LINE
8
Black
10
130.066
20
-159.3
11
130.209
21
-159.586
0
LINE
8
Black
10
130.209
20
-159.586
11
130.209
21
-161.157
0
LINE
8
Black
10
136.066
20
-158.014
11
133.494
21
-161.871
0
LINE
8
Black
10
139.923
20
-158.157
11
140.209
21
-158.157
0
LINE
8
Black
10
140.209
20
-158.157
11
140.494
21
-158.3
0
LINE
8
Black
10
140.494
20
-158.3
11
140.637
21
-158.443
0
LINE
8
Black
10
140.637
20
-158.443
11
140.78
21
-158.729
0
LINE
8
Black
10
140.78
20
-158.729
11
140.923
21
-159.3
0
LINE
8
Black
10
140.923
20
-159.3
11
140.923
21
-160.014
0
LINE
8
Black
10
140.923
20
-160.014
11
140.78
21
-160.586
0
LINE
8
Black
10
140.78
20
-160.586
11
140.637
21
-160.871
0
LINE
8
Black
10
140.637
20
-160.871
11
140.494
21
-161.014
0
LINE
8
Black
10
140.494
20
-161.014
11
140.209
21
-161.157
0
LINE
8
Black
10
140.209
20
-161.157
11
139.923
21
-161.157
0
LINE
8
Black
10
139.923
20
-161.157
11
139.637
21
-161.014
0
LINE
8
Black
10
139.637
20
-161.014
11
139.494
21
-160.871
0
LINE
8
Black
10
139.494
20
-160.871
11
139.352
21
-160.586
0
LINE
8
Black
10
139.352
20
-160.586
11
139.209
21
-160.014
0
LINE
8
Black
10
139.209
20
-160.014
11
139.209
21
-159.3
0
LINE
8
Black
10
139.209
20
-159.3
11
139.352
21
-158.729
0
LINE
8
Black
10
139.352
20
-158.729
11
139.494
21
-158.443
0
LINE
8
Black
10
139.494
20
-158.443
11
139.637
21
-158.3
0
LINE
8
Black
10
139.637
20
-158.3
11
139.923
21
-158.157
0
LINE
8
Black
10
142.209
20
-160.871
11
142.352
21
-161.014
0
LINE
8
Black
10
142.352
20
-161.014
11
142.209
21
-161.157
0
LINE
8
Black
10
142.209
20
-161.157
11
142.066
21
-161.014
0
LINE
8
Black
10
142.066
20
-161.014
11
142.209
21
-160.871
0
LINE
8
Black
10
142.209
20
-160.871
11
142.209
21
-161.157
0
LINE
8
Black
10
144.209
20
-158.157
11
144.494
21
-158.157
0
LINE
8
Black
10
144.494
20
-158.157
11
144.78
21
-158.3
0
LINE
8
Black
10
144.78
20
-158.3
11
144.923
21
-158.443
0
LINE
8
Black
10
144.923
20
-158.443
11
145.066
21
-158.729
0
LINE
8
Black
10
145.066
20
-158.729
11
145.209
21
-159.3
0
LINE
8
Black
10
145.209
20
-159.3
11
145.209
21
-160.014
0
LINE
8
Black
10
145.209
20
-160.014
11
145.066
21
-160.586
0
LINE
8
Black
10
145.066
20
-160.586
11
144.923
21
-160.871
0
LINE
8
Black
10
144.923
20
-160.871
11
144.78
21
-161.014
0
LINE
8
Black
10
144.78
20
-161.014
11
144.494
21
-161.157
0
LINE
8
Black
10
144.494
20
-161.157
11
144.209
21
-161.157
0
LINE
8
Black
10
144.209
20
-161.157
11
143.923
21
-161.014
0
LINE
8
Black
10
143.923
20
-161.014
11
143.78
21
-160.871
0
LINE
8
Black
10
143.78
20
-160.871
11
143.637
21
-160.586
0
LINE
8
Black
10
143.637
20
-160.586
11
143.494
21
-160.014
0
LINE
8
Black
10
143.494
20
-160.014
11
143.494
21
-159.3
0
LINE
8
Black
10
143.494
20
-159.3
11
143.637
21
-158.729
0
LINE
8
Black
10
143.637
20
-158.729
11
143.78
21
-158.443
0
LINE
8
Black
10
143.78
20
-158.443
11
143.923
21
-158.3
0
LINE
8
Black
10
143.923
20
-158.3
11
144.209
21
-158.157
0
LINE
8
Black
10
147.78
20
-158.157
11
147.209
21
-158.157
0
LINE
8
Black
10
147.209
20
-158.157
11
146.923
21
-158.3
0
LINE
8
Black
10
146.923
20
-158.3
11
146.78
21
-158.443
0
LINE
8
Black
10
146.78
20
-158.443
11
146.494
21
-158.871
0
LINE
8
Black
10
146.494
20
-158.871
11
146.352
21
-159.443
0
LINE
8
Black
10
146.352
20
-159.443
11
146.352
21
-160.586
0
LINE
8
Black
10
146.352
20
-160.586
11
146.494
21
-160.871
0
LINE
8
Black
10
146.494
20
-160.871
11
146.637
21
-161.014
0
LINE
8
Black
10
146.637
20
-161.014
11
146.923
21
-161.157
0
LINE
8
Black
10
146.923
20
-161.157
11
147.494
21
-161.157
0
LINE
8
Black
10
147.494
20
-161.157
11
147.78
21
-161.014
0
LINE
8
Black
10
147.78
20
-161.014
11
147.923
21
-160.871
0
LINE
8
Black
10
147.923
20
-160.871
11
148.066
21
-160.586
0
LINE
8
Black
10
148.066
20
-160.586
11
148.066
21
-159.871
0
LINE
8
Black
10
148.066
20
-159.871
11
147.923
21
-159.586
0
LINE
8
Black
10
147.923
20
-159.586
11
147.78
21
-159.443
0
LINE
8
Black
10
147.78
20
-159.443
11
147.494
21
-159.3
0
LINE
8
Black
10
147.494
20
-159.3
11
146.923
21
-159.3
0
LINE
8
Black
10
146.923
20
-159.3
11
146.637
21
-159.443
0
LINE
8
Black
10
146.637
20
-159.443
11
146.494
21
-159.586
0
LINE
8
Black
10
146.494
20
-159.586
11
146.352
21
-159.871
0
LINE
8
Black
10
149.923
20
-158.157
11
150.209
21
-158.157
0
LINE
8
Black
10
150.209
20
-158.157
11
150.494
21
-158.3
0
LINE
8
Black
10
150.494
20
-158.3
11
150.637
21
-158.443
0
LINE
8
Black
10
150.637
20
-158.443
11
150.78
21
-158.729
0
LINE
8
Black
10
150.78
20
-158.729
11
150.923
21
-159.3
0
LINE
8
Black
10
150.923
20
-159.3
11
150.923
21
-160.014
0
LINE
8
Black
10
150.923
20
-160.014
11
150.78
21
-160.586
0
LINE
8
Black
10
150.78
20
-160.586
11
150.637
21
-160.871
0
LINE
8
Black
10
150.637
20
-160.871
11
150.494
21
-161.014
0
LINE
8
Black
10
150.494
20
-161.014
11
150.209
21
-161.157
0
LINE
8
Black
10
150.209
20
-161.157
11
149.923
21
-161.157
0
LINE
8
Black
10
149.923
20
-161.157
11
149.637
21
-161.014
0
LINE
8
Black
10
149.637
20
-161.014
11
149.494
21
-160.871
0
LINE
8
Black
10
149.494
20
-160.871
11
149.352
21
-160.586
0
LINE
8
Black
10
149.352
20
-160.586
11
149.209
21
-160.014
0
LINE
8
Black
10
149.209
20
-160.014
11
149.209
21
-159.3
0
LINE
8
Black
10
149.209
20
-159.3
11
149.352
21
-158.729
0
LINE
8
Black
10
149.352
20
-158.729
11
149.494
21
-158.443
0
LINE
8
Black
10
149.494
20
-158.443
11
149.637
21
-158.3
0
LINE
8
Black
10
149.637
20
-158.3
11
149.923
21
-158.157
0
LINE
8
Black
10
152.066
20
-158.157
11
152.066
21
-158.729
0
LINE
8
Black
10
153.209
20
-158.157
11
153.209
21
-158.729
0
LINE
8
Black
10
157.637
20
-162.3
11
157.494
21
-162.157
0
LINE
8
Black
10
157.494
20
-162.157
11
157.209
21
-161.729
0
LINE
8
Black
10
157.209
20
-161.729
11
157.066
21
-161.443
0
LINE
8
Black
10
157.066
20
-161.443
11
156.923
21
-161.014
0
LINE
8
Black
10
156.923
20
-161.014
11
156.78
21
-160.3
0
LINE
8
Black
10
156.78
20
-160.3
11
156.78
21
-159.729
0
LINE
8
Black
10
156.78
20
-159.729
11
156.923
21
-159.014
0
LINE
8
Black
10
156.923
20
-159.014
11
157.066
21
-158.586
0
LINE
8
Black
10
157.066
20
-158.586
11
157.209
21
-158.3
0
LINE
8
Black
10
157.209
20
-158.3
11
157.494
21
-157.871
0
LINE
8
Black
10
157.494
20
-157.871
11
157.637
21
-157.729
0
LINE
8
Black
10
158.637
20
-158.443
11
158.78
21
-158.3
0
LINE
8
Black
10
158.78
20
-158.3
11
159.066
21
-158.157
0
LINE
8
Black
10
159.066
20
-158.157
11
159.78
21
-158.157
0
LINE
8
Black
10
159.78
20
-158.157
11
160.066
21
-158.3
0
LINE
8
Black
10
160.066
20
-158.3
11
160.209
21
-158.443
0
LINE
8
Black
10
160.209
20
-158.443
11
160.352
21
-158.729
0
LINE
8
Black
10
160.352
20
-158.729
11
160.352
21
-159.014
0
LINE
8
Black
10
160.352
20
-159.014
11
160.209
21
-159.443
0
LINE
8
Black
10
160.209
20
-159.443
11
158.494
21
-161.157
0
LINE
8
Black
10
158.494
20
-161.157
11
160.352
21
-161.157
0
LINE
8
Black
10
163.923
20
-161.157
11
163.923
21
-158.157
0
LINE
8
Black
10
165.209
20
-161.157
11
165.209
21
-159.586
0
LINE
8
Black
10
165.209
20
-159.586
11
165.066
21
-159.3
0
LINE
8
Black
10
165.066
20
-159.3
11
164.78
21
-159.157
0
LINE
8
Black
10
164.78
20
-159.157
11
164.352
21
-159.157
0
LINE
8
Black
10
164.352
20
-159.157
11
164.066
21
-159.3
0
LINE
8
Black
10
164.066
20
-159.3
11
163.923
21
-159.443
0
LINE
8
Black
10
167.066
20
-161.157
11
166.78
21
-161.014
0
LINE
8
Black
10
166.78
20
-161.014
11
166.637
21
-160.871
0
LINE
8
Black
10
166.637
20
-160.871
11
166.494
21
-160.586
0
LINE
8
Black
10
166.494
20
-160.586
11
166.494
21
-159.729
0
LINE
8
Black
10
166.494
20
-159.729
11
166.637
21
-159.443
0
LINE
8
Black
10
166.637
20
-159.443
11
166.78
21
-159.3
0
LINE
8
Black
10
166.78
20
-159.3
11
167.066
21
-159.157
0
LINE
8
Black
10
167.066
20
-159.157
11
167.494
21
-159.157
0
LINE
8
Black
10
167.494
20
-159.157
11
167.78
21
-159.3
0
LINE
8
Black
10
167.78
20
-159.3
11
167.923
21
-159.443
0
LINE
8
Black
10
167.923
20
-159.443
11
168.066
21
-159.729
0
LINE
8
Black
10
168.066
20
-159.729
11
168.066
21
-160.586
0
LINE
8
Black
10
168.066
20
-160.586
11
167.923
21
-160.871
0
LINE
8
Black
10
167.923
20
-160.871
11
167.78
21
-161.014
0
LINE
8
Black
10
167.78
20
-161.014
11
167.494
21
-161.157
0
LINE
8
Black
10
167.494
20
-161.157
11
167.066
21
-161.157
0
LINE
8
Black
10
169.78
20
-161.157
11
169.494
21
-161.014
0
LINE
8
Black
10
169.494
20
-161.014
11
169.352
21
-160.729
0
LINE
8
Black
10
169.352
20
-160.729
11
169.352
21
-158.157
0
LINE
8
Black
10
172.066
20
-161.014
11
171.78
21
-161.157
0
LINE
8
Black
10
171.78
20
-161.157
11
171.209
21
-161.157
0
LINE
8
Black
10
171.209
20
-161.157
11
170.923
21
-161.014
0
LINE
8
Black
10
170.923
20
-161.014
11
170.78
21
-160.729
0
LINE
8
Black
10
170.78
20
-160.729
11
170.78
21
-159.586
0
LINE
8
Black
10
170.78
20
-159.586
11
170.923
21
-159.3
0
LINE
8
Black
10
170.923
20
-159.3
11
171.209
21
-159.157
0
LINE
8
Black
10
171.209
20
-159.157
11
171.78
21
-159.157
0
LINE
8
Black
10
171.78
20
-159.157
11
172.066
21
-159.3
0
LINE
8
Black
10
172.066
20
-159.3
11
172.209
21
-159.586
0
LINE
8
Black
10
172.209
20
-159.586
11
172.209
21
-159.871
0
LINE
8
Black
10
172.209
20
-159.871
11
170.78
21
-160.157
0
LINE
8
Black
10
173.352
20
-161.014
11
173.637
21
-161.157
0
LINE
8
Black
10
173.637
20
-161.157
11
174.209
21
-161.157
0
LINE
8
Black
10
174.209
20
-161.157
11
174.494
21
-161.014
0
LINE
8
Black
10
174.494
20
-161.014
11
174.637
21
-160.729
0
LINE
8
Black
10
174.637
20
-160.729
11
174.637
21
-160.586
0
LINE
8
Black
10
174.637
20
-160.586
11
174.494
21
-160.3
0
LINE
8
Black
10
174.494
20
-160.3
11
174.209
21
-160.157
0
LINE
8
Black
10
174.209
20
-160.157
11
173.78
21
-160.157
0
LINE
8
Black
10
173.78
20
-160.157
11
173.494
21
-160.014
0
LINE
8
Black
10
173.494
20
-160.014
11
173.352
21
-159.729
0
LINE
8
Black
10
173.352
20
-159.729
11
173.352
21
-159.586
0
LINE
8
Black
10
173.352
20
-159.586
11
173.494
21
-159.3
0
LINE
8
Black
10
173.494
20
-159.3
11
173.78
21
-159.157
0
LINE
8
Black
10
173.78
20
-159.157
11
174.209
21
-159.157
0
LINE
8
Black
10
174.209
20
-159.157
11
174.494
21
-159.3
0
LINE
8
Black
10
175.637
20
-162.3
11
175.78
21
-162.157
0
LINE
8
Black
10
175.78
20
-162.157
11
176.066
21
-161.729
0
LINE
8
Black
10
176.066
20
-161.729
11
176.209
21
-161.443
0
LINE
8
Black
10
176.209
20
-161.443
11
176.352
21
-161.014
0
LINE
8
Black
10
176.352
20
-161.014
11
176.494
21
-160.3
0
LINE
8
Black
10
176.494
20
-160.3
11
176.494
21
-159.729
0
LINE
8
Black
10
176.494
20
-159.729
11
176.352
21
-159.014
0
LINE
8
Black
10
176.352
20
-159.014
11
176.209
21
-158.586
0
LINE
8
Black
10
176.209
20
-158.586
11
176.066
21
-158.3
0
LINE
8
Black
10
176.066
20
-158.3
11
175.78
21
-157.871
0
LINE
8
Black
10
175.78
20
-157.871
11
175.637
21
-157.729
0
LINE
8
Black
10
108.423
20
-162.51
11
110.923
21
-165.01
0
LINE
8
Black
10
110.923
20
-162.51
11
108.423
21
-165.01
0
LINE
8
Black
10
110.557
20
-164.644
11
110.557
21
-162.876
0
LINE
8
Black
10
110.557
20
-162.876
11
108.789
21
-162.876
0
LINE
8
Black
10
108.789
20
-162.876
11
108.789
21
-164.644
0
LINE
8
Black
10
108.789
20
-164.644
11
110.557
21
-164.644
0
LINE
8
Black
10
113.494
20
-162.403
11
113.637
21
-162.26
0
LINE
8
Black
10
113.637
20
-162.26
11
113.923
21
-162.117
0
LINE
8
Black
10
113.923
20
-162.117
11
114.637
21
-162.117
0
LINE
8
Black
10
114.637
20
-162.117
11
114.923
21
-162.26
0
LINE
8
Black
10
114.923
20
-162.26
11
115.066
21
-162.403
0
LINE
8
Black
10
115.066
20
-162.403
11
115.209
21
-162.689
0
LINE
8
Black
10
115.209
20
-162.689
11
115.209
21
-162.974
0
LINE
8
Black
10
115.209
20
-162.974
11
115.066
21
-163.403
0
LINE
8
Black
10
115.066
20
-163.403
11
113.352
21
-165.117
0
LINE
8
Black
10
113.352
20
-165.117
11
115.209
21
-165.117
0
LINE
8
Black
10
116.494
20
-164.831
11
116.637
21
-164.974
0
LINE
8
Black
10
116.637
20
-164.974
11
116.494
21
-165.117
0
LINE
8
Black
10
116.494
20
-165.117
11
116.352
21
-164.974
0
LINE
8
Black
10
116.352
20
-164.974
11
116.494
21
-164.831
0
LINE
8
Black
10
116.494
20
-164.831
11
116.494
21
-165.117
0
LINE
8
Black
10
119.352
20
-162.117
11
117.923
21
-162.117
0
LINE
8
Black
10
117.923
20
-162.117
11
117.78
21
-163.546
0
LINE
8
Black
10
117.78
20
-163.546
11
117.923
21
-163.403
0
LINE
8
Black
10
117.923
20
-163.403
11
118.209
21
-163.26
0
LINE
8
Black
10
118.209
20
-163.26
11
118.923
21
-163.26
0
LINE
8
Black
10
118.923
20
-163.26
11
119.209
21
-163.403
0
LINE
8
Black
10
119.209
20
-163.403
11
119.352
21
-163.546
0
LINE
8
Black
10
119.352
20
-163.546
11
119.494
21
-163.831
0
LINE
8
Black
10
119.494
20
-163.831
11
119.494
21
-164.546
0
LINE
8
Black
10
119.494
20
-164.546
11
119.352
21
-164.831
0
LINE
8
Black
10
119.352
20
-164.831
11
119.209
21
-164.974
0
LINE
8
Black
10
119.209
20
-164.974
11
118.923
21
-165.117
0
LINE
8
Black
10
118.923
20
-165.117
11
118.209
21
-165.117
0
LINE
8
Black
10
118.209
20
-165.117
11
117.923
21
-164.974
0
LINE
8
Black
10
117.923
20
-164.974
11
117.78
21
-164.831
0
LINE
8
Black
10
121.352
20
-162.117
11
121.637
21
-162.117
0
LINE
8
Black
10
121.637
20
-162.117
11
121.923
21
-162.26
0
LINE
8
Black
10
121.923
20
-162.26
11
122.066
21
-162.403
0
LINE
8
Black
10
122.066
20
-162.403
11
122.209
21
-162.689
0
LINE
8
Black
10
122.209
20
-162.689
11
122.352
21
-163.26
0
LINE
8
Black
10
122.352
20
-163.26
11
122.352
21
-163.974
0
LINE
8
Black
10
122.352
20
-163.974
11
122.209
21
-164.546
0
LINE
8
Black
10
122.209
20
-164.546
11
122.066
21
-164.831
0
LINE
8
Black
10
122.066
20
-164.831
11
121.923
21
-164.974
0
LINE
8
Black
10
121.923
20
-164.974
11
121.637
21
-165.117
0
LINE
8
Black
10
121.637
20
-165.117
11
121.352
21
-165.117
0
LINE
8
Black
10
121.352
20
-165.117
11
121.066
21
-164.974
0
LINE
8
Black
10
121.066
20
-164.974
11
120.923
21
-164.831
0
LINE
8
Black
10
120.923
20
-164.831
11
120.78
21
-164.546
0
LINE
8
Black
10
120.78
20
-164.546
11
120.637
21
-163.974
0
LINE
8
Black
10
120.637
20
-163.974
11
120.637
21
-163.26
0
LINE
8
Black
10
120.637
20
-163.26
11
120.78
21
-162.689
0
LINE
8
Black
10
120.78
20
-162.689
11
120.923
21
-162.403
0
LINE
8
Black
10
120.923
20
-162.403
11
121.066
21
-162.26
0
LINE
8
Black
10
121.066
20
-162.26
11
121.352
21
-162.117
0
LINE
8
Black
10
123.637
20
-165.117
11
123.637
21
-163.117
0
LINE
8
Black
10
123.637
20
-163.403
11
123.78
21
-163.26
0
LINE
8
Black
10
123.78
20
-163.26
11
124.066
21
-163.117
0
LINE
8
Black
10
124.066
20
-163.117
11
124.494
21
-163.117
0
LINE
8
Black
10
124.494
20
-163.117
11
124.78
21
-163.26
0
LINE
8
Black
10
124.78
20
-163.26
11
124.923
21
-163.546
0
LINE
8
Black
10
124.923
20
-163.546
11
124.923
21
-165.117
0
LINE
8
Black
10
124.923
20
-163.546
11
125.066
21
-163.26
0
LINE
8
Black
10
125.066
20
-163.26
11
125.352
21
-163.117
0
LINE
8
Black
10
125.352
20
-163.117
11
125.78
21
-163.117
0
LINE
8
Black
10
125.78
20
-163.117
11
126.066
21
-163.26
0
LINE
8
Black
10
126.066
20
-163.26
11
126.209
21
-163.546
0
LINE
8
Black
10
126.209
20
-163.546
11
126.209
21
-165.117
0
LINE
8
Black
10
127.637
20
-165.117
11
127.637
21
-163.117
0
LINE
8
Black
10
127.637
20
-163.403
11
127.78
21
-163.26
0
LINE
8
Black
10
127.78
20
-163.26
11
128.066
21
-163.117
0
LINE
8
Black
10
128.066
20
-163.117
11
128.494
21
-163.117
0
LINE
8
Black
10
128.494
20
-163.117
11
128.78
21
-163.26
0
LINE
8
Black
10
128.78
20
-163.26
11
128.923
21
-163.546
0
LINE
8
Black
10
128.923
20
-163.546
11
128.923
21
-165.117
0
LINE
8
Black
10
128.923
20
-163.546
11
129.066
21
-163.26
0
LINE
8
Black
10
129.066
20
-163.26
11
129.352
21
-163.117
0
LINE
8
Black
10
129.352
20
-163.117
11
129.78
21
-163.117
0
LINE
8
Black
10
129.78
20
-163.117
11
130.066
21
-163.26
0
LINE
8
Black
10
130.066
20
-163.26
11
130.209
21
-163.546
0
LINE
8
Black
10
130.209
20
-163.546
11
130.209
21
-165.117
0
LINE
8
Black
10
136.066
20
-161.974
11
133.494
21
-165.831
0
LINE
8
Black
10
139.923
20
-162.117
11
140.209
21
-162.117
0
LINE
8
Black
10
140.209
20
-162.117
11
140.494
21
-162.26
0
LINE
8
Black
10
140.494
20
-162.26
11
140.637
21
-162.403
0
LINE
8
Black
10
140.637
20
-162.403
11
140.78
21
-162.689
0
LINE
8
Black
10
140.78
20
-162.689
11
140.923
21
-163.26
0
LINE
8
Black
10
140.923
20
-163.26
11
140.923
21
-163.974
0
LINE
8
Black
10
140.923
20
-163.974
11
140.78
21
-164.546
0
LINE
8
Black
10
140.78
20
-164.546
11
140.637
21
-164.831
0
LINE
8
Black
10
140.637
20
-164.831
11
140.494
21
-164.974
0
LINE
8
Black
10
140.494
20
-164.974
11
140.209
21
-165.117
0
LINE
8
Black
10
140.209
20
-165.117
11
139.923
21
-165.117
0
LINE
8
Black
10
139.923
20
-165.117
11
139.637
21
-164.974
0
LINE
8
Black
10
139.637
20
-164.974
11
139.494
21
-164.831
0
LINE
8
Black
10
139.494
20
-164.831
11
139.352
21
-164.546
0
LINE
8
Black
10
139.352
20
-164.546
11
139.209
21
-163.974
0
LINE
8
Black
10
139.209
20
-163.974
11
139.209
21
-163.26
0
LINE
8
Black
10
139.209
20
-163.26
11
139.352
21
-162.689
0
LINE
8
Black
10
139.352
20
-162.689
11
139.494
21
-162.403
0
LINE
8
Black
10
139.494
20
-162.403
11
139.637
21
-162.26
0
LINE
8
Black
10
139.637
20
-162.26
11
139.923
21
-162.117
0
LINE
8
Black
10
142.209
20
-164.831
11
142.352
21
-164.974
0
LINE
8
Black
10
142.352
20
-164.974
11
142.209
21
-165.117
0
LINE
8
Black
10
142.209
20
-165.117
11
142.066
21
-164.974
0
LINE
8
Black
10
142.066
20
-164.974
11
142.209
21
-164.831
0
LINE
8
Black
10
142.209
20
-164.831
11
142.209
21
-165.117
0
LINE
8
Black
10
144.209
20
-162.117
11
144.494
21
-162.117
0
LINE
8
Black
10
144.494
20
-162.117
11
144.78
21
-162.26
0
LINE
8
Black
10
144.78
20
-162.26
11
144.923
21
-162.403
0
LINE
8
Black
10
144.923
20
-162.403
11
145.066
21
-162.689
0
LINE
8
Black
10
145.066
20
-162.689
11
145.209
21
-163.26
0
LINE
8
Black
10
145.209
20
-163.26
11
145.209
21
-163.974
0
LINE
8
Black
10
145.209
20
-163.974
11
145.066
21
-164.546
0
LINE
8
Black
10
145.066
20
-164.546
11
144.923
21
-164.831
0
LINE
8
Black
10
144.923
20
-164.831
11
144.78
21
-164.974
0
LINE
8
Black
10
144.78
20
-164.974
11
144.494
21
-165.117
0
LINE
8
Black
10
144.494
20
-165.117
11
144.209
21
-165.117
0
LINE
8
Black
10
144.209
20
-165.117
11
143.923
21
-164.974
0
LINE
8
Black
10
143.923
20
-164.974
11
143.78
21
-164.831
0
LINE
8
Black
10
143.78
20
-164.831
11
143.637
21
-164.546
0
LINE
8
Black
10
143.637
20
-164.546
11
143.494
21
-163.974
0
LINE
8
Black
10
143.494
20
-163.974
11
143.494
21
-163.26
0
LINE
8
Black
10
143.494
20
-163.26
11
143.637
21
-162.689
0
LINE
8
Black
10
143.637
20
-162.689
11
143.78
21
-162.403
0
LINE
8
Black
10
143.78
20
-162.403
11
143.923
21
-162.26
0
LINE
8
Black
10
143.923
20
-162.26
11
144.209
21
-162.117
0
LINE
8
Black
10
146.637
20
-165.117
11
147.209
21
-165.117
0
LINE
8
Black
10
147.209
20
-165.117
11
147.494
21
-164.974
0
LINE
8
Black
10
147.494
20
-164.974
11
147.637
21
-164.831
0
LINE
8
Black
10
147.637
20
-164.831
11
147.923
21
-164.403
0
LINE
8
Black
10
147.923
20
-164.403
11
148.066
21
-163.831
0
LINE
8
Black
10
148.066
20
-163.831
11
148.066
21
-162.689
0
LINE
8
Black
10
148.066
20
-162.689
11
147.923
21
-162.403
0
LINE
8
Black
10
147.923
20
-162.403
11
147.78
21
-162.26
0
LINE
8
Black
10
147.78
20
-162.26
11
147.494
21
-162.117
0
LINE
8
Black
10
147.494
20
-162.117
11
146.923
21
-162.117
0
LINE
8
Black
10
146.923
20
-162.117
11
146.637
21
-162.26
0
LINE
8
Black
10
146.637
20
-162.26
11
146.494
21
-162.403
0
LINE
8
Black
10
146.494
20
-162.403
11
146.352
21
-162.689
0
LINE
8
Black
10
146.352
20
-162.689
11
146.352
21
-163.403
0
LINE
8
Black
10
146.352
20
-163.403
11
146.494
21
-163.689
0
LINE
8
Black
10
146.494
20
-163.689
11
146.637
21
-163.831
0
LINE
8
Black
10
146.637
20
-163.831
11
146.923
21
-163.974
0
LINE
8
Black
10
146.923
20
-163.974
11
147.494
21
-163.974
0
LINE
8
Black
10
147.494
20
-163.974
11
147.78
21
-163.831
0
LINE
8
Black
10
147.78
20
-163.831
11
147.923
21
-163.689
0
LINE
8
Black
10
147.923
20
-163.689
11
148.066
21
-163.403
0
LINE
8
Black
10
149.78
20
-163.403
11
149.494
21
-163.26
0
LINE
8
Black
10
149.494
20
-163.26
11
149.352
21
-163.117
0
LINE
8
Black
10
149.352
20
-163.117
11
149.209
21
-162.831
0
LINE
8
Black
10
149.209
20
-162.831
11
149.209
21
-162.689
0
LINE
8
Black
10
149.209
20
-162.689
11
149.352
21
-162.403
0
LINE
8
Black
10
149.352
20
-162.403
11
149.494
21
-162.26
0
LINE
8
Black
10
149.494
20
-162.26
11
149.78
21
-162.117
0
LINE
8
Black
10
149.78
20
-162.117
11
150.352
21
-162.117
0
LINE
8
Black
10
150.352
20
-162.117
11
150.637
21
-162.26
0
LINE
8
Black
10
150.637
20
-162.26
11
150.78
21
-162.403
0
LINE
8
Black
10
150.78
20
-162.403
11
150.923
21
-162.689
0
LINE
8
Black
10
150.923
20
-162.689
11
150.923
21
-162.831
0
LINE
8
Black
10
150.923
20
-162.831
11
150.78
21
-163.117
0
LINE
8
Black
10
150.78
20
-163.117
11
150.637
21
-163.26
0
LINE
8
Black
10
150.637
20
-163.26
11
150.352
21
-163.403
0
LINE
8
Black
10
150.352
20
-163.403
11
149.78
21
-163.403
0
LINE
8
Black
10
149.78
20
-163.403
11
149.494
21
-163.546
0
LINE
8
Black
10
149.494
20
-163.546
11
149.352
21
-163.689
0
LINE
8
Black
10
149.352
20
-163.689
11
149.209
21
-163.974
0
LINE
8
Black
10
149.209
20
-163.974
11
149.209
21
-164.546
0
LINE
8
Black
10
149.209
20
-164.546
11
149.352
21
-164.831
0
LINE
8
Black
10
149.352
20
-164.831
11
149.494
21
-164.974
0
LINE
8
Black
10
149.494
20
-164.974
11
149.78
21
-165.117
0
LINE
8
Black
10
149.78
20
-165.117
11
150.352
21
-165.117
0
LINE
8
Black
10
150.352
20
-165.117
11
150.637
21
-164.974
0
LINE
8
Black
10
150.637
20
-164.974
11
150.78
21
-164.831
0
LINE
8
Black
10
150.78
20
-164.831
11
150.923
21
-164.546
0
LINE
8
Black
10
150.923
20
-164.546
11
150.923
21
-163.974
0
LINE
8
Black
10
150.923
20
-163.974
11
150.78
21
-163.689
0
LINE
8
Black
10
150.78
20
-163.689
11
150.637
21
-163.546
0
LINE
8
Black
10
150.637
20
-163.546
11
150.352
21
-163.403
0
LINE
8
Black
10
152.066
20
-162.117
11
152.066
21
-162.689
0
LINE
8
Black
10
153.209
20
-162.117
11
153.209
21
-162.689
0
LINE
8
Black
10
157.637
20
-166.26
11
157.494
21
-166.117
0
LINE
8
Black
10
157.494
20
-166.117
11
157.209
21
-165.689
0
LINE
8
Black
10
157.209
20
-165.689
11
157.066
21
-165.403
0
LINE
8
Black
10
157.066
20
-165.403
11
156.923
21
-164.974
0
LINE
8
Black
10
156.923
20
-164.974
11
156.78
21
-164.26
0
LINE
8
Black
10
156.78
20
-164.26
11
156.78
21
-163.689
0
LINE
8
Black
10
156.78
20
-163.689
11
156.923
21
-162.974
0
LINE
8
Black
10
156.923
20
-162.974
11
157.066
21
-162.546
0
LINE
8
Black
10
157.066
20
-162.546
11
157.209
21
-162.26
0
LINE
8
Black
10
157.209
20
-162.26
11
157.494
21
-161.831
0
LINE
8
Black
10
157.494
20
-161.831
11
157.637
21
-161.689
0
LINE
8
Black
10
160.066
20
-163.117
11
160.066
21
-165.117
0
LINE
8
Black
10
159.352
20
-161.974
11
158.637
21
-164.117
0
LINE
8
Black
10
158.637
20
-164.117
11
160.494
21
-164.117
0
LINE
8
Black
10
163.923
20
-165.117
11
163.923
21
-162.117
0
LINE
8
Black
10
165.209
20
-165.117
11
165.209
21
-163.546
0
LINE
8
Black
10
165.209
20
-163.546
11
165.066
21
-163.26
0
LINE
8
Black
10
165.066
20
-163.26
11
164.78
21
-163.117
0
LINE
8
Black
10
164.78
20
-163.117
11
164.352
21
-163.117
0
LINE
8
Black
10
164.352
20
-163.117
11
164.066
21
-163.26
0
LINE
8
Black
10
164.066
20
-163.26
11
163.923
21
-163.403
0
LINE
8
Black
10
167.066
20
-165.117
11
166.78
21
-164.974
0
LINE
8
Black
10
166.78
20
-164.974
11
166.637
21
-164.831
0
LINE
8
Black
10
166.637
20
-164.831
11
166.494
21
-164.546
0
LINE
8
Black
10
166.494
20
-164.546
11
166.494
21
-163.689
0
LINE
8
Black
10
166.494
20
-163.689
11
166.637
21
-163.403
0
LINE
8
Black
10
166.637
20
-163.403
11
166.78
21
-163.26
0
LINE
8
Black
10
166.78
20
-163.26
11
167.066
21
-163.117
0
LINE
8
Black
10
167.066
20
-163.117
11
167.494
21
-163.117
0
LINE
8
Black
10
167.494
20
-163.117
11
167.78
21
-163.26
0
LINE
8
Black
10
167.78
20
-163.26
11
167.923
21
-163.403
0
LINE
8
Black
10
167.923
20
-163.403
11
168.066
21
-163.689
0
LINE
8
Black
10
168.066
20
-163.689
11
168.066
21
-164.546
0
LINE
8
Black
10
168.066
20
-164.546
11
167.923
21
-164.831
0
LINE
8
Black
10
167.923
20
-164.831
11
167.78
21
-164.974
0
LINE
8
Black
10
167.78
20
-164.974
11
167.494
21
-165.117
0
LINE
8
Black
10
167.494
20
-165.117
11
167.066
21
-165.117
0
LINE
8
Black
10
169.78
20
-165.117
11
169.494
21
-164.974
0
LINE
8
Black
10
169.494
20
-164.974
11
169.352
21
-164.689
0
LINE
8
Black
10
169.352
20
-164.689
11
169.352
21
-162.117
0
LINE
8
Black
10
172.066
20
-164.974
11
171.78
21
-165.117
0
LINE
8
Black
10
171.78
20
-165.117
11
171.209
21
-165.117
0
LINE
8
Black
10
171.209
20
-165.117
11
170.923
21
-164.974
0
LINE
8
Black
10
170.923
20
-164.974
11
170.78
21
-164.689
0
LINE
8
Black
10
170.78
20
-164.689
11
170.78
21
-163.546
0
LINE
8
Black
10
170.78
20
-163.546
11
170.923
21
-163.26
0
LINE
8
Black
10
170.923
20
-163.26
11
171.209
21
-163.117
0
LINE
8
Black
10
171.209
20
-163.117
11
171.78
21
-163.117
0
LINE
8
Black
10
171.78
20
-163.117
11
172.066
21
-163.26
0
LINE
8
Black
10
172.066
20
-163.26
11
172.209
21
-163.546
0
LINE
8
Black
10
172.209
20
-163.546
11
172.209
21
-163.831
0
LINE
8
Black
10
172.209
20
-163.831
11
170.78
21
-164.117
0
LINE
8
Black
10
173.352
20
-164.974
11
173.637
21
-165.117
0
LINE
8
Black
10
173.637
20
-165.117
11
174.209
21
-165.117
0
LINE
8
Black
10
174.209
20
-165.117
11
174.494
21
-164.974
0
LINE
8
Black
10
174.494
20
-164.974
11
174.637
21
-164.689
0
LINE
8
Black
10
174.637
20
-164.689
11
174.637
21
-164.546
0
LINE
8
Black
10
174.637
20
-164.546
11
174.494
21
-164.26
0
LINE
8
Black
10
174.494
20
-164.26
11
174.209
21
-164.117
0
LINE
8
Black
10
174.209
20
-164.117
11
173.78
21
-164.117
0
LINE
8
Black
10
173.78
20
-164.117
11
173.494
21
-163.974
0
LINE
8
Black
10
173.494
20
-163.974
11
173.352
21
-163.689
0
LINE
8
Black
10
173.352
20
-163.689
11
173.352
21
-163.546
0
LINE
8
Black
10
173.352
20
-163.546
11
173.494
21
-163.26
0
LINE
8
Black
10
173.494
20
-163.26
11
173.78
21
-163.117
0
LINE
8
Black
10
173.78
20
-163.117
11
174.209
21
-163.117
0
LINE
8
Black
10
174.209
20
-163.117
11
174.494
21
-163.26
0
LINE
8
Black
10
175.637
20
-166.26
11
175.78
21
-166.117
0
LINE
8
Black
10
175.78
20
-166.117
11
176.066
21
-165.689
0
LINE
8
Black
10
176.066
20
-165.689
11
176.209
21
-165.403
0
LINE
8
Black
10
176.209
20
-165.403
11
176.352
21
-164.974
0
LINE
8
Black
10
176.352
20
-164.974
11
176.494
21
-164.26
0
LINE
8
Black
10
176.494
20
-164.26
11
176.494
21
-163.689
0
LINE
8
Black
10
176.494
20
-163.689
11
176.352
21
-162.974
0
LINE
8
Black
10
176.352
20
-162.974
11
176.209
21
-162.546
0
LINE
8
Black
10
176.209
20
-162.546
11
176.066
21
-162.26
0
LINE
8
Black
10
176.066
20
-162.26
11
175.78
21
-161.831
0
LINE
8
Black
10
175.78
20
-161.831
11
175.637
21
-161.689
0
LINE
8
Black
10
107.875
20
-166.196
11
110.923
21
-169.244
0
LINE
8
Black
10
110.923
20
-166.196
11
107.875
21
-169.244
0
LINE
8
Black
10
109.399
20
-169.244
11
110.923
21
-167.72
0
LINE
8
Black
10
110.923
20
-167.72
11
109.399
21
-166.196
0
LINE
8
Black
10
109.399
20
-166.196
11
107.875
21
-167.72
0
LINE
8
Black
10
107.875
20
-167.72
11
109.399
21
-169.244
0
LINE
8
Black
10
113.352
20
-166.077
11
115.209
21
-166.077
0
LINE
8
Black
10
115.209
20
-166.077
11
114.209
21
-167.22
0
LINE
8
Black
10
114.209
20
-167.22
11
114.637
21
-167.22
0
LINE
8
Black
10
114.637
20
-167.22
11
114.923
21
-167.363
0
LINE
8
Black
10
114.923
20
-167.363
11
115.066
21
-167.506
0
LINE
8
Black
10
115.066
20
-167.506
11
115.209
21
-167.791
0
LINE
8
Black
10
115.209
20
-167.791
11
115.209
21
-168.506
0
LINE
8
Black
10
115.209
20
-168.506
11
115.066
21
-168.791
0
LINE
8
Black
10
115.066
20
-168.791
11
114.923
21
-168.934
0
LINE
8
Black
10
114.923
20
-168.934
11
114.637
21
-169.077
0
LINE
8
Black
10
114.637
20
-169.077
11
113.78
21
-169.077
0
LINE
8
Black
10
113.78
20
-169.077
11
113.494
21
-168.934
0
LINE
8
Black
10
113.494
20
-168.934
11
113.352
21
-168.791
0
LINE
8
Black
10
116.494
20
-168.791
11
116.637
21
-168.934
0
LINE
8
Black
10
116.637
20
-168.934
11
116.494
21
-169.077
0
LINE
8
Black
10
116.494
20
-169.077
11
116.352
21
-168.934
0
LINE
8
Black
10
116.352
20
-168.934
11
116.494
21
-168.791
0
LINE
8
Black
10
116.494
20
-168.791
11
116.494
21
-169.077
0
LINE
8
Black
10
118.494
20
-166.077
11
118.78
21
-166.077
0
LINE
8
Black
10
118.78
20
-166.077
11
119.066
21
-166.22
0
LINE
8
Black
10
119.066
20
-166.22
11
119.209
21
-166.363
0
LINE
8
Black
10
119.209
20
-166.363
11
119.352
21
-166.649
0
LINE
8
Black
10
119.352
20
-166.649
11
119.494
21
-167.22
0
LINE
8
Black
10
119.494
20
-167.22
11
119.494
21
-167.934
0
LINE
8
Black
10
119.494
20
-167.934
11
119.352
21
-168.506
0
LINE
8
Black
10
119.352
20
-168.506
11
119.209
21
-168.791
0
LINE
8
Black
10
119.209
20
-168.791
11
119.066
21
-168.934
0
LINE
8
Black
10
119.066
20
-168.934
11
118.78
21
-169.077
0
LINE
8
Black
10
118.78
20
-169.077
11
118.494
21
-169.077
0
LINE
8
Black
10
118.494
20
-169.077
11
118.209
21
-168.934
0
LINE
8
Black
10
118.209
20
-168.934
11
118.066
21
-168.791
0
LINE
8
Black
10
118.066
20
-168.791
11
117.923
21
-168.506
0
LINE
8
Black
10
117.923
20
-168.506
11
117.78
21
-167.934
0
LINE
8
Black
10
117.78
20
-167.934
11
117.78
21
-167.22
0
LINE
8
Black
10
117.78
20
-167.22
11
117.923
21
-166.649
0
LINE
8
Black
10
117.923
20
-166.649
11
118.066
21
-166.363
0
LINE
8
Black
10
118.066
20
-166.363
11
118.209
21
-166.22
0
LINE
8
Black
10
118.209
20
-166.22
11
118.494
21
-166.077
0
LINE
8
Black
10
122.209
20
-166.077
11
120.78
21
-166.077
0
LINE
8
Black
10
120.78
20
-166.077
11
120.637
21
-167.506
0
LINE
8
Black
10
120.637
20
-167.506
11
120.78
21
-167.363
0
LINE
8
Black
10
120.78
20
-167.363
11
121.066
21
-167.22
0
LINE
8
Black
10
121.066
20
-167.22
11
121.78
21
-167.22
0
LINE
8
Black
10
121.78
20
-167.22
11
122.066
21
-167.363
0
LINE
8
Black
10
122.066
20
-167.363
11
122.209
21
-167.506
0
LINE
8
Black
10
122.209
20
-167.506
11
122.352
21
-167.791
0
LINE
8
Black
10
122.352
20
-167.791
11
122.352
21
-168.506
0
LINE
8
Black
10
122.352
20
-168.506
11
122.209
21
-168.791
0
LINE
8
Black
10
122.209
20
-168.791
11
122.066
21
-168.934
0
LINE
8
Black
10
122.066
20
-168.934
11
121.78
21
-169.077
0
LINE
8
Black
10
121.78
20
-169.077
11
121.066
21
-169.077
0
LINE
8
Black
10
121.066
20
-169.077
11
120.78
21
-168.934
0
LINE
8
Black
10
120.78
20
-168.934
11
120.637
21
-168.791
0
LINE
8
Black
10
123.637
20
-169.077
11
123.637
21
-167.077
0
LINE
8
Black
10
123.637
20
-167.363
11
123.78
21
-167.22
0
LINE
8
Black
10
123.78
20
-167.22
11
124.066
21
-167.077
0
LINE
8
Black
10
124.066
20
-167.077
11
124.494
21
-167.077
0
LINE
8
Black
10
124.494
20
-167.077
11
124.78
21
-167.22
0
LINE
8
Black
10
124.78
20
-167.22
11
124.923
21
-167.506
0
LINE
8
Black
10
124.923
20
-167.506
11
124.923
21
-169.077
0
LINE
8
Black
10
124.923
20
-167.506
11
125.066
21
-167.22
0
LINE
8
Black
10
125.066
20
-167.22
11
125.352
21
-167.077
0
LINE
8
Black
10
125.352
20
-167.077
11
125.78
21
-167.077
0
LINE
8
Black
10
125.78
20
-167.077
11
126.066
21
-167.22
0
LINE
8
Black
10
126.066
20
-167.22
11
126.209
21
-167.506
0
LINE
8
Black
10
126.209
20
-167.506
11
126.209
21
-169.077
0
LINE
8
Black
10
127.637
20
-169.077
11
127.637
21
-167.077
0
LINE
8
Black
10
127.637
20
-167.363
11
127.78
21
-167.22
0
LINE
8
Black
10
127.78
20
-167.22
11
128.066
21
-167.077
0
LINE
8
Black
10
128.066
20
-167.077
11
128.494
21
-167.077
0
LINE
8
Black
10
128.494
20
-167.077
11
128.78
21
-167.22
0
LINE
8
Black
10
128.78
20
-167.22
11
128.923
21
-167.506
0
LINE
8
Black
10
128.923
20
-167.506
11
128.923
21
-169.077
0
LINE
8
Black
10
128.923
20
-167.506
11
129.066
21
-167.22
0
LINE
8
Black
10
129.066
20
-167.22
11
129.352
21
-167.077
0
LINE
8
Black
10
129.352
20
-167.077
11
129.78
21
-167.077
0
LINE
8
Black
10
129.78
20
-167.077
11
130.066
21
-167.22
0
LINE
8
Black
10
130.066
20
-167.22
11
130.209
21
-167.506
0
LINE
8
Black
10
130.209
20
-167.506
11
130.209
21
-169.077
0
LINE
8
Black
10
136.066
20
-165.934
11
133.494
21
-169.791
0
LINE
8
Black
10
139.923
20
-166.077
11
140.209
21
-166.077
0
LINE
8
Black
10
140.209
20
-166.077
11
140.494
21
-166.22
0
LINE
8
Black
10
140.494
20
-166.22
11
140.637
21
-166.363
0
LINE
8
Black
10
140.637
20
-166.363
11
140.78
21
-166.649
0
LINE
8
Black
10
140.78
20
-166.649
11
140.923
21
-167.22
0
LINE
8
Black
10
140.923
20
-167.22
11
140.923
21
-167.934
0
LINE
8
Black
10
140.923
20
-167.934
11
140.78
21
-168.506
0
LINE
8
Black
10
140.78
20
-168.506
11
140.637
21
-168.791
0
LINE
8
Black
10
140.637
20
-168.791
11
140.494
21
-168.934
0
LINE
8
Black
10
140.494
20
-168.934
11
140.209
21
-169.077
0
LINE
8
Black
10
140.209
20
-169.077
11
139.923
21
-169.077
0
LINE
8
Black
10
139.923
20
-169.077
11
139.637
21
-168.934
0
LINE
8
Black
10
139.637
20
-168.934
11
139.494
21
-168.791
0
LINE
8
Black
10
139.494
20
-168.791
11
139.352
21
-168.506
0
LINE
8
Black
10
139.352
20
-168.506
11
139.209
21
-167.934
0
LINE
8
Black
10
139.209
20
-167.934
11
139.209
21
-167.22
0
LINE
8
Black
10
139.209
20
-167.22
11
139.352
21
-166.649
0
LINE
8
Black
10
139.352
20
-166.649
11
139.494
21
-166.363
0
LINE
8
Black
10
139.494
20
-166.363
11
139.637
21
-166.22
0
LINE
8
Black
10
139.637
20
-166.22
11
139.923
21
-166.077
0
LINE
8
Black
10
142.209
20
-168.791
11
142.352
21
-168.934
0
LINE
8
Black
10
142.352
20
-168.934
11
142.209
21
-169.077
0
LINE
8
Black
10
142.209
20
-169.077
11
142.066
21
-168.934
0
LINE
8
Black
10
142.066
20
-168.934
11
142.209
21
-168.791
0
LINE
8
Black
10
142.209
20
-168.791
11
142.209
21
-169.077
0
LINE
8
Black
10
145.209
20
-169.077
11
143.494
21
-169.077
0
LINE
8
Black
10
144.352
20
-169.077
11
144.352
21
-166.077
0
LINE
8
Black
10
144.352
20
-166.077
11
144.066
21
-166.506
0
LINE
8
Black
10
144.066
20
-166.506
11
143.78
21
-166.791
0
LINE
8
Black
10
143.78
20
-166.791
11
143.494
21
-166.934
0
LINE
8
Black
10
146.352
20
-166.363
11
146.494
21
-166.22
0
LINE
8
Black
10
146.494
20
-166.22
11
146.78
21
-166.077
0
LINE
8
Black
10
146.78
20
-166.077
11
147.494
21
-166.077
0
LINE
8
Black
10
147.494
20
-166.077
11
147.78
21
-166.22
0
LINE
8
Black
10
147.78
20
-166.22
11
147.923
21
-166.363
0
LINE
8
Black
10
147.923
20
-166.363
11
148.066
21
-166.649
0
LINE
8
Black
10
148.066
20
-166.649
11
148.066
21
-166.934
0
LINE
8
Black
10
148.066
20
-166.934
11
147.923
21
-167.363
0
LINE
8
Black
10
147.923
20
-167.363
11
146.209
21
-169.077
0
LINE
8
Black
10
146.209
20
-169.077
11
148.066
21
-169.077
0
LINE
8
Black
10
149.923
20
-166.077
11
150.209
21
-166.077
0
LINE
8
Black
10
150.209
20
-166.077
11
150.494
21
-166.22
0
LINE
8
Black
10
150.494
20
-166.22
11
150.637
21
-166.363
0
LINE
8
Black
10
150.637
20
-166.363
11
150.78
21
-166.649
0
LINE
8
Black
10
150.78
20
-166.649
11
150.923
21
-167.22
0
LINE
8
Black
10
150.923
20
-167.22
11
150.923
21
-167.934
0
LINE
8
Black
10
150.923
20
-167.934
11
150.78
21
-168.506
0
LINE
8
Black
10
150.78
20
-168.506
11
150.637
21
-168.791
0
LINE
8
Black
10
150.637
20
-168.791
11
150.494
21
-168.934
0
LINE
8
Black
10
150.494
20
-168.934
11
150.209
21
-169.077
0
LINE
8
Black
10
150.209
20
-169.077
11
149.923
21
-169.077
0
LINE
8
Black
10
149.923
20
-169.077
11
149.637
21
-168.934
0
LINE
8
Black
10
149.637
20
-168.934
11
149.494
21
-168.791
0
LINE
8
Black
10
149.494
20
-168.791
11
149.352
21
-168.506
0
LINE
8
Black
10
149.352
20
-168.506
11
149.209
21
-167.934
0
LINE
8
Black
10
149.209
20
-167.934
11
149.209
21
-167.22
0
LINE
8
Black
10
149.209
20
-167.22
11
149.352
21
-166.649
0
LINE
8
Black
10
149.352
20
-166.649
11
149.494
21
-166.363
0
LINE
8
Black
10
149.494
20
-166.363
11
149.637
21
-166.22
0
LINE
8
Black
10
149.637
20
-166.22
11
149.923
21
-166.077
0
LINE
8
Black
10
152.066
20
-166.077
11
152.066
21
-166.649
0
LINE
8
Black
10
153.209
20
-166.077
11
153.209
21
-166.649
0
LINE
8
Black
10
157.637
20
-170.22
11
157.494
21
-170.077
0
LINE
8
Black
10
157.494
20
-170.077
11
157.209
21
-169.649
0
LINE
8
Black
10
157.209
20
-169.649
11
157.066
21
-169.363
0
LINE
8
Black
10
157.066
20
-169.363
11
156.923
21
-168.934
0
LINE
8
Black
10
156.923
20
-168.934
11
156.78
21
-168.22
0
LINE
8
Black
10
156.78
20
-168.22
11
156.78
21
-167.649
0
LINE
8
Black
10
156.78
20
-167.649
11
156.923
21
-166.934
0
LINE
8
Black
10
156.923
20
-166.934
11
157.066
21
-166.506
0
LINE
8
Black
10
157.066
20
-166.506
11
157.209
21
-166.22
0
LINE
8
Black
10
157.209
20
-166.22
11
157.494
21
-165.791
0
LINE
8
Black
10
157.494
20
-165.791
11
157.637
21
-165.649
0
LINE
8
Black
10
160.066
20
-166.077
11
159.494
21
-166.077
0
LINE
8
Black
10
159.494
20
-166.077
11
159.209
21
-166.22
0
LINE
8
Black
10
159.209
20
-166.22
11
159.066
21
-166.363
0
LINE
8
Black
10
159.066
20
-166.363
11
158.78
21
-166.791
0
LINE
8
Black
10
158.78
20
-166.791
11
158.637
21
-167.363
0
LINE
8
Black
10
158.637
20
-167.363
11
158.637
21
-168.506
0
LINE
8
Black
10
158.637
20
-168.506
11
158.78
21
-168.791
0
LINE
8
Black
10
158.78
20
-168.791
11
158.923
21
-168.934
0
LINE
8
Black
10
158.923
20
-168.934
11
159.209
21
-169.077
0
LINE
8
Black
10
159.209
20
-169.077
11
159.78
21
-169.077
0
LINE
8
Black
10
159.78
20
-169.077
11
160.066
21
-168.934
0
LINE
8
Black
10
160.066
20
-168.934
11
160.209
21
-168.791
0
LINE
8
Black
10
160.209
20
-168.791
11
160.352
21
-168.506
0
LINE
8
Black
10
160.352
20
-168.506
11
160.352
21
-167.791
0
LINE
8
Black
10
160.352
20
-167.791
11
160.209
21
-167.506
0
LINE
8
Black
10
160.209
20
-167.506
11
160.066
21
-167.363
0
LINE
8
Black
10
160.066
20
-167.363
11
159.78
21
-167.22
0
LINE
8
Black
10
159.78
20
-167.22
11
159.209
21
-167.22
0
LINE
8
Black
10
159.209
20
-167.22
11
158.923
21
-167.363
0
LINE
8
Black
10
158.923
20
-167.363
11
158.78
21
-167.506
0
LINE
8
Black
10
158.78
20
-167.506
11
158.637
21
-167.791
0
LINE
8
Black
10
163.923
20
-169.077
11
163.923
21
-166.077
0
LINE
8
Black
10
165.209
20
-169.077
11
165.209
21
-167.506
0
LINE
8
Black
10
165.209
20
-167.506
11
165.066
21
-167.22
0
LINE
8
Black
10
165.066
20
-167.22
11
164.78
21
-167.077
0
LINE
8
Black
10
164.78
20
-167.077
11
164.352
21
-167.077
0
LINE
8
Black
10
164.352
20
-167.077
11
164.066
21
-167.22
0
LINE
8
Black
10
164.066
20
-167.22
11
163.923
21
-167.363
0
LINE
8
Black
10
167.066
20
-169.077
11
166.78
21
-168.934
0
LINE
8
Black
10
166.78
20
-168.934
11
166.637
21
-168.791
0
LINE
8
Black
10
166.637
20
-168.791
11
166.494
21
-168.506
0
LINE
8
Black
10
166.494
20
-168.506
11
166.494
21
-167.649
0
LINE
8
Black
10
166.494
20
-167.649
11
166.637
21
-167.363
0
LINE
8
Black
10
166.637
20
-167.363
11
166.78
21
-167.22
0
LINE
8
Black
10
166.78
20
-167.22
11
167.066
21
-167.077
0
LINE
8
Black
10
167.066
20
-167.077
11
167.494
21
-167.077
0
LINE
8
Black
10
167.494
20
-167.077
11
167.78
21
-167.22
0
LINE
8
Black
10
167.78
20
-167.22
11
167.923
21
-167.363
0
LINE
8
Black
10
167.923
20
-167.363
11
168.066
21
-167.649
0
LINE
8
Black
10
168.066
20
-167.649
11
168.066
21
-168.506
0
LINE
8
Black
10
168.066
20
-168.506
11
167.923
21
-168.791
0
LINE
8
Black
10
167.923
20
-168.791
11
167.78
21
-168.934
0
LINE
8
Black
10
167.78
20
-168.934
11
167.494
21
-169.077
0
LINE
8
Black
10
167.494
20
-169.077
11
167.066
21
-169.077
0
LINE
8
Black
10
169.78
20
-169.077
11
169.494
21
-168.934
0
LINE
8
Black
10
169.494
20
-168.934
11
169.352
21
-168.649
0
LINE
8
Black
10
169.352
20
-168.649
11
169.352
21
-166.077
0
LINE
8
Black
10
172.066
20
-168.934
11
171.78
21
-169.077
0
LINE
8
Black
10
171.78
20
-169.077
11
171.209
21
-169.077
0
LINE
8
Black
10
171.209
20
-169.077
11
170.923
21
-168.934
0
LINE
8
Black
10
170.923
20
-168.934
11
170.78
21
-168.649
0
LINE
8
Black
10
170.78
20
-168.649
11
170.78
21
-167.506
0
LINE
8
Black
10
170.78
20
-167.506
11
170.923
21
-167.22
0
LINE
8
Black
10
170.923
20
-167.22
11
171.209
21
-167.077
0
LINE
8
Black
10
171.209
20
-167.077
11
171.78
21
-167.077
0
LINE
8
Black
10
171.78
20
-167.077
11
172.066
21
-167.22
0
LINE
8
Black
10
172.066
20
-167.22
11
172.209
21
-167.506
0
LINE
8
Black
10
172.209
20
-167.506
11
172.209
21
-167.791
0
LINE
8
Black
10
172.209
20
-167.791
11
170.78
21
-168.077
0
LINE
8
Black
10
173.352
20
-168.934
11
173.637
21
-169.077
0
LINE
8
Black
10
173.637
20
-169.077
11
174.209
21
-169.077
0
LINE
8
Black
10
174.209
20
-169.077
11
174.494
21
-168.934
0
LINE
8
Black
10
174.494
20
-168.934
11
174.637
21
-168.649
0
LINE
8
Black
10
174.637
20
-168.649
11
174.637
21
-168.506
0
LINE
8
Black
10
174.637
20
-168.506
11
174.494
21
-168.22
0
LINE
8
Black
10
174.494
20
-168.22
11
174.209
21
-168.077
0
LINE
8
Black
10
174.209
20
-168.077
11
173.78
21
-168.077
0
LINE
8
Black
10
173.78
20
-168.077
11
173.494
21
-167.934
0
LINE
8
Black
10
173.494
20
-167.934
11
173.352
21
-167.649
0
LINE
8
Black
10
173.352
20
-167.649
11
173.352
21
-167.506
0
LINE
8
Black
10
173.352
20
-167.506
11
173.494
21
-167.22
0
LINE
8
Black
10
173.494
20
-167.22
11
173.78
21
-167.077
0
LINE
8
Black
10
173.78
20
-167.077
11
174.209
21
-167.077
0
LINE
8
Black
10
174.209
20
-167.077
11
174.494
21
-167.22
0
LINE
8
Black
10
175.637
20
-170.22
11
175.78
21
-170.077
0
LINE
8
Black
10
175.78
20
-170.077
11
176.066
21
-169.649
0
LINE
8
Black
10
176.066
20
-169.649
11
176.209
21
-169.363
0
LINE
8
Black
10
176.209
20
-169.363
11
176.352
21
-168.934
0
LINE
8
Black
10
176.352
20
-168.934
11
176.494
21
-168.22
0
LINE
8
Black
10
176.494
20
-168.22
11
176.494
21
-167.649
0
LINE
8
Black
10
176.494
20
-167.649
11
176.352
21
-166.934
0
LINE
8
Black
10
176.352
20
-166.934
11
176.209
21
-166.506
0
LINE
8
Black
10
176.209
20
-166.506
11
176.066
21
-166.22
0
LINE
8
Black
10
176.066
20
-166.22
11
175.78
21
-165.791
0
LINE
8
Black
10
175.78
20
-165.791
11
175.637
21
-165.649
  0
ENDSEC
  0
EOF
