M48
;DRILL file {KiCad 4.0.4+e1-6308~48~ubuntu14.04.1-stable} date Fri Oct  7 11:38:56 2016
;FORMAT={-:-/ absolute / metric / decimal}
FMAT,2
METRIC,TZ
T1C0.800
T2C1.016
T3C1.100
T4C1.200
T5C1.524
T6C2.500
T7C3.048
%
G90
G05
M71
T1
X3.81Y18.36
X8.026Y86.868
X8.81Y17.06
X10.566Y86.868
X10.922Y39.37
X10.922Y36.83
X10.922Y29.21
X10.922Y26.67
X13.106Y86.868
X13.462Y39.37
X13.462Y26.67
X13.462Y22.733
X15.646Y86.868
X16.002Y39.37
X16.002Y26.67
X16.002Y22.733
X17.74Y12.24
X17.74Y7.74
X18.186Y86.868
X18.542Y39.37
X18.542Y26.67
X18.542Y22.733
X20.726Y86.868
X21.082Y45.72
X21.082Y43.18
X21.082Y39.37
X21.082Y36.83
X21.082Y29.21
X21.082Y26.67
X21.082Y22.733
X23.266Y86.868
X23.622Y45.72
X23.622Y43.18
X23.622Y39.37
X23.622Y26.67
X24.24Y12.24
X24.24Y7.74
X25.806Y86.868
X26.162Y45.72
X26.162Y43.18
X26.162Y39.37
X26.162Y26.67
X27.468Y18.76
X27.468Y16.26
X28.346Y86.868
X28.702Y39.37
X28.702Y26.67
X29.591Y42.037
X29.833Y18.77
X29.858Y16.23
X30.886Y86.868
X32.512Y34.036
X32.537Y31.496
X32.766Y23.368
X32.893Y48.514
X33.426Y86.868
X35.052Y39.37
X35.052Y36.83
X35.052Y29.21
X35.052Y26.67
X35.966Y86.868
X37.592Y39.37
X37.592Y26.67
X38.506Y86.868
X40.132Y39.37
X40.132Y26.67
X41.046Y86.868
X41.529Y42.037
X42.672Y39.37
X42.672Y26.67
X43.586Y86.868
X45.212Y45.72
X45.212Y43.18
X45.212Y39.37
X45.212Y36.83
X45.212Y29.21
X45.212Y26.67
X46.126Y86.868
X47.752Y45.72
X47.752Y43.18
X47.752Y39.37
X47.752Y26.67
X50.292Y45.72
X50.292Y43.18
X50.292Y39.37
X50.292Y26.67
X52.29Y18.35
X52.29Y5.65
X52.832Y39.37
X52.832Y26.67
X56.1Y18.35
X56.617Y34.29
X56.642Y31.75
X58.674Y44.45
X58.674Y34.29
X59.91Y18.35
X59.91Y5.65
X60.071Y46.482
X62.611Y46.482
T2
X18.796Y50.8
X21.336Y50.8
X23.876Y50.8
X26.416Y50.8
X27.94Y2.54
X28.956Y50.8
X30.48Y2.54
X31.496Y50.8
X33.02Y2.54
X34.036Y50.8
X35.56Y2.54
X36.576Y50.8
X37.592Y22.733
X38.1Y2.54
X39.116Y50.8
X40.132Y22.733
X40.64Y2.54
X41.656Y50.8
X42.672Y22.733
X43.18Y2.54
X45.212Y22.733
X45.72Y50.8
X45.72Y2.54
X48.26Y50.8
X50.8Y50.8
X50.8Y2.54
X53.34Y50.8
X53.34Y2.54
X55.88Y50.8
X55.88Y2.54
X58.42Y50.8
X58.42Y2.54
X60.96Y50.8
X60.96Y2.54
X63.5Y50.8
X63.5Y2.54
T3
X8.026Y81.788
X8.026Y79.248
X8.026Y76.708
X8.026Y74.168
T4
X8.039Y86.881
X10.579Y86.881
X13.119Y86.881
X15.659Y86.881
X18.199Y86.881
X20.739Y86.881
X23.279Y86.881
X25.819Y86.881
X28.359Y86.881
X30.899Y86.881
X33.439Y86.881
X35.56Y8.88
X35.58Y12.02
X35.979Y86.881
X38.519Y86.881
X41.059Y86.881
X43.599Y86.881
X45.72Y8.88
X45.74Y12.02
X46.139Y86.881
T5
X3.81Y28.12
X3.81Y23.04
T6
X49.75Y12.
X62.45Y12.
X77.539Y86.881
X77.539Y55.88
T7
X2.54Y86.881
X2.54Y55.88
X13.97Y2.54
X15.24Y50.8
X66.04Y35.56
X66.04Y7.62
T0
M30
