  0
SECTION
  2
HEADER
  9
$ANGBASE
  50
0.0
  9
$ANGDIR
  70
  1
  9
$MEASUREMENT
  70
0
  0
ENDSEC
  0
SECTION
  2
TABLES
  0
TABLE
  2
LTYPE
  70
1
  0
LTYPE
  2
CONTINUOUS
  70
0
  3
Solid line
  72
65
  73
0
  40
0.0
  0
ENDTAB
  0
TABLE
  2
STYLE
  70
4
  0
STYLE
  2
KICAD
  70
0
  40
0
  41
1
  42
1
  50
0
  71
0
  3
isocp.shx
  0
STYLE
  2
KICADB
  70
0
  40
0
  41
1
  42
1
  50
0
  71
0
  3
isocp.shx
  0
STYLE
  2
KICADI
  70
0
  40
0
  41
1
  42
1
  50
15
  71
0
  3
isocp.shx
  0
STYLE
  2
KICADBI
  70
0
  40
0
  41
1
  42
1
  50
15
  71
0
  3
isocp.shx
  0
ENDTAB
  0
TABLE
  2
LAYER
  70
30
  0
LAYER
  2
BLACK
  70
0
  62
7
  6
CONTINUOUS
  0
LAYER
  2
GRAY1
  70
0
  62
251
  6
CONTINUOUS
  0
LAYER
  2
GRAY2
  70
0
  62
8
  6
CONTINUOUS
  0
LAYER
  2
GRAY3
  70
0
  62
9
  6
CONTINUOUS
  0
LAYER
  2
WHITE
  70
0
  62
7
  6
CONTINUOUS
  0
LAYER
  2
LYELLOW
  70
0
  62
51
  6
CONTINUOUS
  0
LAYER
  2
BLUE1
  70
0
  62
178
  6
CONTINUOUS
  0
LAYER
  2
GREEN1
  70
0
  62
98
  6
CONTINUOUS
  0
LAYER
  2
CYAN1
  70
0
  62
138
  6
CONTINUOUS
  0
LAYER
  2
RED1
  70
0
  62
18
  6
CONTINUOUS
  0
LAYER
  2
MAGENTA1
  70
0
  62
228
  6
CONTINUOUS
  0
LAYER
  2
BROWN1
  70
0
  62
58
  6
CONTINUOUS
  0
LAYER
  2
BLUE2
  70
0
  62
5
  6
CONTINUOUS
  0
LAYER
  2
GREEN2
  70
0
  62
3
  6
CONTINUOUS
  0
LAYER
  2
CYAN2
  70
0
  62
4
  6
CONTINUOUS
  0
LAYER
  2
RED2
  70
0
  62
1
  6
CONTINUOUS
  0
LAYER
  2
MAGENTA2
  70
0
  62
6
  6
CONTINUOUS
  0
LAYER
  2
BROWN2
  70
0
  62
54
  6
CONTINUOUS
  0
LAYER
  2
BLUE3
  70
0
  62
171
  6
CONTINUOUS
  0
LAYER
  2
GREEN3
  70
0
  62
91
  6
CONTINUOUS
  0
LAYER
  2
CYAN3
  70
0
  62
131
  6
CONTINUOUS
  0
LAYER
  2
RED3
  70
0
  62
11
  6
CONTINUOUS
  0
LAYER
  2
MAGENTA3
  70
0
  62
221
  6
CONTINUOUS
  0
LAYER
  2
YELLOW3
  70
0
  62
2
  6
CONTINUOUS
  0
LAYER
  2
BLUE4
  70
0
  62
5
  6
CONTINUOUS
  0
LAYER
  2
GREEN4
  70
0
  62
3
  6
CONTINUOUS
  0
LAYER
  2
CYAN4
  70
0
  62
4
  6
CONTINUOUS
  0
LAYER
  2
RED4
  70
0
  62
1
  6
CONTINUOUS
  0
LAYER
  2
MAGENTA4
  70
0
  62
6
  6
CONTINUOUS
  0
LAYER
  2
YELLOW4
  70
0
  62
2
  6
CONTINUOUS
  0
ENDTAB
  0
ENDSEC
  0
SECTION
  2
ENTITIES
0
ARC
8
Black
10
125.095
20
-59.944
40
2.78533
50
-180
51
-133.152
0
ARC
8
Black
10
118.364
20
-41.148
40
1.143
50
-153.435
51
-90
0
LINE
8
Black
10
122.354
20
-43.635
11
120.957
21
-42.238
0
LINE
8
Black
10
122.248
20
-43.741
11
120.851
21
-42.344
0
ARC
8
Black
10
120.904
20
-42.291
40
0.075
50
405
51
585
0
ARC
8
Black
10
122.301
20
-43.688
40
0.075
50
225
51
405
0
LINE
8
Black
10
118.364
20
-42.366
11
120.904
21
-42.366
0
LINE
8
Black
10
118.364
20
-42.216
11
120.904
21
-42.216
0
ARC
8
Black
10
120.904
20
-42.291
40
0.075
50
270
51
450
0
ARC
8
Black
10
118.364
20
-42.291
40
0.075
50
90
51
270
0
LINE
8
Black
10
177.091
20
-74.496
11
175.567
21
-72.972
0
LINE
8
Black
10
176.985
20
-74.602
11
175.461
21
-73.078
0
ARC
8
Black
10
175.514
20
-73.025
40
0.075
50
405
51
585
0
ARC
8
Black
10
177.038
20
-74.549
40
0.075
50
225
51
405
0
LINE
8
Black
10
132.768
20
-71.448
11
123.243
21
-61.923
0
LINE
8
Black
10
132.662
20
-71.554
11
123.137
21
-62.029
0
ARC
8
Black
10
123.19
20
-61.976
40
0.075
50
405
51
585
0
ARC
8
Black
10
132.715
20
-71.501
40
0.075
50
225
51
405
0
ARC
8
Black
10
137.287
20
-65.405
40
7.62
50
-126.87
51
-90
0
LINE
8
Black
10
122.376
20
-59.944
11
122.376
21
-43.688
0
LINE
8
Black
10
122.226
20
-59.944
11
122.226
21
-43.688
0
ARC
8
Black
10
122.301
20
-43.688
40
0.075
50
360
51
540
0
ARC
8
Black
10
122.301
20
-59.944
40
0.075
50
180
51
360
0
LINE
8
Black
10
137.287
20
-73.1
11
175.514
21
-73.1
0
LINE
8
Black
10
137.287
20
-72.95
11
175.514
21
-72.95
0
ARC
8
Black
10
175.514
20
-73.025
40
0.075
50
270
51
450
0
ARC
8
Black
10
137.287
20
-73.025
40
0.075
50
90
51
270
0
LINE
8
Black
10
177.113
20
-85.979
11
177.113
21
-74.549
0
LINE
8
Black
10
176.963
20
-85.979
11
176.963
21
-74.549
0
ARC
8
Black
10
177.038
20
-74.549
40
0.075
50
360
51
540
0
ARC
8
Black
10
177.038
20
-85.979
40
0.075
50
180
51
360
0
LINE
8
Black
10
179.631
20
-88.466
11
177.091
21
-85.926
0
LINE
8
Black
10
179.525
20
-88.572
11
176.985
21
-86.032
0
ARC
8
Black
10
177.038
20
-85.979
40
0.075
50
405
51
585
0
ARC
8
Black
10
179.578
20
-88.519
40
0.075
50
225
51
405
0
LINE
8
Black
10
179.653
20
-121.285
11
179.653
21
-88.519
0
LINE
8
Black
10
179.503
20
-121.285
11
179.503
21
-88.519
0
ARC
8
Black
10
179.578
20
-88.519
40
0.075
50
360
51
540
0
ARC
8
Black
10
179.578
20
-121.285
40
0.075
50
180
51
360
0
ARC
8
Black
10
113.538
20
-39.497
40
2.54
50
36.8699
51
180
0
LINE
8
Black
10
117.416
20
-41.6234
11
115.638
21
-37.9404
0
LINE
8
Black
10
117.28
20
-41.6886
11
115.502
21
-38.0056
0
ARC
8
Black
10
115.57
20
-37.973
40
0.075
50
385.769
51
565.769
0
ARC
8
Black
10
117.348
20
-41.656
40
0.075
50
205.769
51
385.769
0
LINE
8
Black
10
177.091
20
-123.878
11
179.631
21
-121.338
0
LINE
8
Black
10
176.985
20
-123.772
11
179.525
21
-121.232
0
ARC
8
Black
10
179.578
20
-121.285
40
0.075
50
315
51
495
0
ARC
8
Black
10
177.038
20
-123.825
40
0.075
50
135
51
315
0
LINE
8
Black
10
177.113
20
-126.365
11
177.113
21
-123.825
0
LINE
8
Black
10
176.963
20
-126.365
11
176.963
21
-123.825
0
ARC
8
Black
10
177.038
20
-123.825
40
0.075
50
360
51
540
0
ARC
8
Black
10
177.038
20
-126.365
40
0.075
50
180
51
360
0
LINE
8
Black
10
110.998
20
-126.44
11
177.038
21
-126.44
0
LINE
8
Black
10
110.998
20
-126.29
11
177.038
21
-126.29
0
ARC
8
Black
10
177.038
20
-126.365
40
0.075
50
270
51
450
0
ARC
8
Black
10
110.998
20
-126.365
40
0.075
50
90
51
270
0
LINE
8
Black
10
111.073
20
-126.365
11
111.073
21
-39.497
0
LINE
8
Black
10
110.923
20
-126.365
11
110.923
21
-39.497
0
ARC
8
Black
10
110.998
20
-39.497
40
0.075
50
360
51
540
0
ARC
8
Black
10
110.998
20
-126.365
40
0.075
50
180
51
360
0
LINE
8
Black
10
114.408
20
-107.605
11
115.208
21
-108.405
0
LINE
8
Black
10
115.208
20
-107.605
11
114.408
21
-108.405
0
LINE
8
Black
10
118.624
20
-39.097
11
119.424
21
-39.897
0
LINE
8
Black
10
119.424
20
-39.097
11
118.624
21
-39.897
0
LINE
8
Black
10
119.408
20
-108.905
11
120.208
21
-109.705
0
LINE
8
Black
10
120.208
20
-108.905
11
119.408
21
-109.705
0
LINE
8
Black
10
121.164
20
-39.097
11
121.964
21
-39.897
0
LINE
8
Black
10
121.964
20
-39.097
11
121.164
21
-39.897
0
LINE
8
Black
10
121.52
20
-86.595
11
122.32
21
-87.395
0
LINE
8
Black
10
122.32
20
-86.595
11
121.52
21
-87.395
0
LINE
8
Black
10
121.52
20
-89.135
11
122.32
21
-89.935
0
LINE
8
Black
10
122.32
20
-89.135
11
121.52
21
-89.935
0
LINE
8
Black
10
121.52
20
-96.755
11
122.32
21
-97.555
0
LINE
8
Black
10
122.32
20
-96.755
11
121.52
21
-97.555
0
LINE
8
Black
10
121.52
20
-99.295
11
122.32
21
-100.095
0
LINE
8
Black
10
122.32
20
-99.295
11
121.52
21
-100.095
0
LINE
8
Black
10
123.704
20
-39.097
11
124.504
21
-39.897
0
LINE
8
Black
10
124.504
20
-39.097
11
123.704
21
-39.897
0
LINE
8
Black
10
124.06
20
-86.595
11
124.86
21
-87.395
0
LINE
8
Black
10
124.86
20
-86.595
11
124.06
21
-87.395
0
LINE
8
Black
10
124.06
20
-99.295
11
124.86
21
-100.095
0
LINE
8
Black
10
124.86
20
-99.295
11
124.06
21
-100.095
0
LINE
8
Black
10
124.06
20
-103.232
11
124.86
21
-104.032
0
LINE
8
Black
10
124.86
20
-103.232
11
124.06
21
-104.032
0
LINE
8
Black
10
126.244
20
-39.097
11
127.044
21
-39.897
0
LINE
8
Black
10
127.044
20
-39.097
11
126.244
21
-39.897
0
LINE
8
Black
10
126.6
20
-86.595
11
127.4
21
-87.395
0
LINE
8
Black
10
127.4
20
-86.595
11
126.6
21
-87.395
0
LINE
8
Black
10
126.6
20
-99.295
11
127.4
21
-100.095
0
LINE
8
Black
10
127.4
20
-99.295
11
126.6
21
-100.095
0
LINE
8
Black
10
126.6
20
-103.232
11
127.4
21
-104.032
0
LINE
8
Black
10
127.4
20
-103.232
11
126.6
21
-104.032
0
LINE
8
Black
10
128.338
20
-113.725
11
129.138
21
-114.525
0
LINE
8
Black
10
129.138
20
-113.725
11
128.338
21
-114.525
0
LINE
8
Black
10
128.338
20
-118.225
11
129.138
21
-119.025
0
LINE
8
Black
10
129.138
20
-118.225
11
128.338
21
-119.025
0
LINE
8
Black
10
128.784
20
-39.097
11
129.584
21
-39.897
0
LINE
8
Black
10
129.584
20
-39.097
11
128.784
21
-39.897
0
LINE
8
Black
10
129.14
20
-86.595
11
129.94
21
-87.395
0
LINE
8
Black
10
129.94
20
-86.595
11
129.14
21
-87.395
0
LINE
8
Black
10
129.14
20
-99.295
11
129.94
21
-100.095
0
LINE
8
Black
10
129.94
20
-99.295
11
129.14
21
-100.095
0
LINE
8
Black
10
129.14
20
-103.232
11
129.94
21
-104.032
0
LINE
8
Black
10
129.94
20
-103.232
11
129.14
21
-104.032
0
LINE
8
Black
10
131.324
20
-39.097
11
132.124
21
-39.897
0
LINE
8
Black
10
132.124
20
-39.097
11
131.324
21
-39.897
0
LINE
8
Black
10
131.68
20
-80.245
11
132.48
21
-81.045
0
LINE
8
Black
10
132.48
20
-80.245
11
131.68
21
-81.045
0
LINE
8
Black
10
131.68
20
-82.785
11
132.48
21
-83.585
0
LINE
8
Black
10
132.48
20
-82.785
11
131.68
21
-83.585
0
LINE
8
Black
10
131.68
20
-86.595
11
132.48
21
-87.395
0
LINE
8
Black
10
132.48
20
-86.595
11
131.68
21
-87.395
0
LINE
8
Black
10
131.68
20
-89.135
11
132.48
21
-89.935
0
LINE
8
Black
10
132.48
20
-89.135
11
131.68
21
-89.935
0
LINE
8
Black
10
131.68
20
-96.755
11
132.48
21
-97.555
0
LINE
8
Black
10
132.48
20
-96.755
11
131.68
21
-97.555
0
LINE
8
Black
10
131.68
20
-99.295
11
132.48
21
-100.095
0
LINE
8
Black
10
132.48
20
-99.295
11
131.68
21
-100.095
0
LINE
8
Black
10
131.68
20
-103.232
11
132.48
21
-104.032
0
LINE
8
Black
10
132.48
20
-103.232
11
131.68
21
-104.032
0
LINE
8
Black
10
133.864
20
-39.097
11
134.664
21
-39.897
0
LINE
8
Black
10
134.664
20
-39.097
11
133.864
21
-39.897
0
LINE
8
Black
10
134.22
20
-80.245
11
135.02
21
-81.045
0
LINE
8
Black
10
135.02
20
-80.245
11
134.22
21
-81.045
0
LINE
8
Black
10
134.22
20
-82.785
11
135.02
21
-83.585
0
LINE
8
Black
10
135.02
20
-82.785
11
134.22
21
-83.585
0
LINE
8
Black
10
134.22
20
-86.595
11
135.02
21
-87.395
0
LINE
8
Black
10
135.02
20
-86.595
11
134.22
21
-87.395
0
LINE
8
Black
10
134.22
20
-99.295
11
135.02
21
-100.095
0
LINE
8
Black
10
135.02
20
-99.295
11
134.22
21
-100.095
0
LINE
8
Black
10
134.838
20
-113.725
11
135.638
21
-114.525
0
LINE
8
Black
10
135.638
20
-113.725
11
134.838
21
-114.525
0
LINE
8
Black
10
134.838
20
-118.225
11
135.638
21
-119.025
0
LINE
8
Black
10
135.638
20
-118.225
11
134.838
21
-119.025
0
LINE
8
Black
10
136.404
20
-39.097
11
137.204
21
-39.897
0
LINE
8
Black
10
137.204
20
-39.097
11
136.404
21
-39.897
0
LINE
8
Black
10
136.76
20
-80.245
11
137.56
21
-81.045
0
LINE
8
Black
10
137.56
20
-80.245
11
136.76
21
-81.045
0
LINE
8
Black
10
136.76
20
-82.785
11
137.56
21
-83.585
0
LINE
8
Black
10
137.56
20
-82.785
11
136.76
21
-83.585
0
LINE
8
Black
10
136.76
20
-86.595
11
137.56
21
-87.395
0
LINE
8
Black
10
137.56
20
-86.595
11
136.76
21
-87.395
0
LINE
8
Black
10
136.76
20
-99.295
11
137.56
21
-100.095
0
LINE
8
Black
10
137.56
20
-99.295
11
136.76
21
-100.095
0
LINE
8
Black
10
138.066
20
-107.205
11
138.866
21
-108.005
0
LINE
8
Black
10
138.866
20
-107.205
11
138.066
21
-108.005
0
LINE
8
Black
10
138.066
20
-109.705
11
138.866
21
-110.505
0
LINE
8
Black
10
138.866
20
-109.705
11
138.066
21
-110.505
0
LINE
8
Black
10
138.944
20
-39.097
11
139.744
21
-39.897
0
LINE
8
Black
10
139.744
20
-39.097
11
138.944
21
-39.897
0
LINE
8
Black
10
139.3
20
-86.595
11
140.1
21
-87.395
0
LINE
8
Black
10
140.1
20
-86.595
11
139.3
21
-87.395
0
LINE
8
Black
10
139.3
20
-99.295
11
140.1
21
-100.095
0
LINE
8
Black
10
140.1
20
-99.295
11
139.3
21
-100.095
0
LINE
8
Black
10
140.189
20
-83.928
11
140.989
21
-84.728
0
LINE
8
Black
10
140.989
20
-83.928
11
140.189
21
-84.728
0
LINE
8
Black
10
140.431
20
-107.195
11
141.231
21
-107.995
0
LINE
8
Black
10
141.231
20
-107.195
11
140.431
21
-107.995
0
LINE
8
Black
10
140.456
20
-109.735
11
141.256
21
-110.535
0
LINE
8
Black
10
141.256
20
-109.735
11
140.456
21
-110.535
0
LINE
8
Black
10
141.484
20
-39.097
11
142.284
21
-39.897
0
LINE
8
Black
10
142.284
20
-39.097
11
141.484
21
-39.897
0
LINE
8
Black
10
143.11
20
-91.929
11
143.91
21
-92.729
0
LINE
8
Black
10
143.91
20
-91.929
11
143.11
21
-92.729
0
LINE
8
Black
10
143.135
20
-94.469
11
143.935
21
-95.269
0
LINE
8
Black
10
143.935
20
-94.469
11
143.135
21
-95.269
0
LINE
8
Black
10
143.364
20
-102.597
11
144.164
21
-103.397
0
LINE
8
Black
10
144.164
20
-102.597
11
143.364
21
-103.397
0
LINE
8
Black
10
143.491
20
-77.451
11
144.291
21
-78.251
0
LINE
8
Black
10
144.291
20
-77.451
11
143.491
21
-78.251
0
LINE
8
Black
10
144.024
20
-39.097
11
144.824
21
-39.897
0
LINE
8
Black
10
144.824
20
-39.097
11
144.024
21
-39.897
0
LINE
8
Black
10
145.65
20
-86.595
11
146.45
21
-87.395
0
LINE
8
Black
10
146.45
20
-86.595
11
145.65
21
-87.395
0
LINE
8
Black
10
145.65
20
-89.135
11
146.45
21
-89.935
0
LINE
8
Black
10
146.45
20
-89.135
11
145.65
21
-89.935
0
LINE
8
Black
10
145.65
20
-96.755
11
146.45
21
-97.555
0
LINE
8
Black
10
146.45
20
-96.755
11
145.65
21
-97.555
0
LINE
8
Black
10
145.65
20
-99.295
11
146.45
21
-100.095
0
LINE
8
Black
10
146.45
20
-99.295
11
145.65
21
-100.095
0
LINE
8
Black
10
146.564
20
-39.097
11
147.364
21
-39.897
0
LINE
8
Black
10
147.364
20
-39.097
11
146.564
21
-39.897
0
LINE
8
Black
10
148.19
20
-86.595
11
148.99
21
-87.395
0
LINE
8
Black
10
148.99
20
-86.595
11
148.19
21
-87.395
0
LINE
8
Black
10
148.19
20
-99.295
11
148.99
21
-100.095
0
LINE
8
Black
10
148.99
20
-99.295
11
148.19
21
-100.095
0
LINE
8
Black
10
149.104
20
-39.097
11
149.904
21
-39.897
0
LINE
8
Black
10
149.904
20
-39.097
11
149.104
21
-39.897
0
LINE
8
Black
10
150.73
20
-86.595
11
151.53
21
-87.395
0
LINE
8
Black
10
151.53
20
-86.595
11
150.73
21
-87.395
0
LINE
8
Black
10
150.73
20
-99.295
11
151.53
21
-100.095
0
LINE
8
Black
10
151.53
20
-99.295
11
150.73
21
-100.095
0
LINE
8
Black
10
151.644
20
-39.097
11
152.444
21
-39.897
0
LINE
8
Black
10
152.444
20
-39.097
11
151.644
21
-39.897
0
LINE
8
Black
10
152.127
20
-83.928
11
152.927
21
-84.728
0
LINE
8
Black
10
152.927
20
-83.928
11
152.127
21
-84.728
0
LINE
8
Black
10
153.27
20
-86.595
11
154.07
21
-87.395
0
LINE
8
Black
10
154.07
20
-86.595
11
153.27
21
-87.395
0
LINE
8
Black
10
153.27
20
-99.295
11
154.07
21
-100.095
0
LINE
8
Black
10
154.07
20
-99.295
11
153.27
21
-100.095
0
LINE
8
Black
10
154.184
20
-39.097
11
154.984
21
-39.897
0
LINE
8
Black
10
154.984
20
-39.097
11
154.184
21
-39.897
0
LINE
8
Black
10
155.81
20
-80.245
11
156.61
21
-81.045
0
LINE
8
Black
10
156.61
20
-80.245
11
155.81
21
-81.045
0
LINE
8
Black
10
155.81
20
-82.785
11
156.61
21
-83.585
0
LINE
8
Black
10
156.61
20
-82.785
11
155.81
21
-83.585
0
LINE
8
Black
10
155.81
20
-86.595
11
156.61
21
-87.395
0
LINE
8
Black
10
156.61
20
-86.595
11
155.81
21
-87.395
0
LINE
8
Black
10
155.81
20
-89.135
11
156.61
21
-89.935
0
LINE
8
Black
10
156.61
20
-89.135
11
155.81
21
-89.935
0
LINE
8
Black
10
155.81
20
-96.755
11
156.61
21
-97.555
0
LINE
8
Black
10
156.61
20
-96.755
11
155.81
21
-97.555
0
LINE
8
Black
10
155.81
20
-99.295
11
156.61
21
-100.095
0
LINE
8
Black
10
156.61
20
-99.295
11
155.81
21
-100.095
0
LINE
8
Black
10
156.724
20
-39.097
11
157.524
21
-39.897
0
LINE
8
Black
10
157.524
20
-39.097
11
156.724
21
-39.897
0
LINE
8
Black
10
158.35
20
-80.245
11
159.15
21
-81.045
0
LINE
8
Black
10
159.15
20
-80.245
11
158.35
21
-81.045
0
LINE
8
Black
10
158.35
20
-82.785
11
159.15
21
-83.585
0
LINE
8
Black
10
159.15
20
-82.785
11
158.35
21
-83.585
0
LINE
8
Black
10
158.35
20
-86.595
11
159.15
21
-87.395
0
LINE
8
Black
10
159.15
20
-86.595
11
158.35
21
-87.395
0
LINE
8
Black
10
158.35
20
-99.295
11
159.15
21
-100.095
0
LINE
8
Black
10
159.15
20
-99.295
11
158.35
21
-100.095
0
LINE
8
Black
10
160.89
20
-80.245
11
161.69
21
-81.045
0
LINE
8
Black
10
161.69
20
-80.245
11
160.89
21
-81.045
0
LINE
8
Black
10
160.89
20
-82.785
11
161.69
21
-83.585
0
LINE
8
Black
10
161.69
20
-82.785
11
160.89
21
-83.585
0
LINE
8
Black
10
160.89
20
-86.595
11
161.69
21
-87.395
0
LINE
8
Black
10
161.69
20
-86.595
11
160.89
21
-87.395
0
LINE
8
Black
10
160.89
20
-99.295
11
161.69
21
-100.095
0
LINE
8
Black
10
161.69
20
-99.295
11
160.89
21
-100.095
0
LINE
8
Black
10
162.888
20
-107.615
11
163.688
21
-108.415
0
LINE
8
Black
10
163.688
20
-107.615
11
162.888
21
-108.415
0
LINE
8
Black
10
162.888
20
-120.315
11
163.688
21
-121.115
0
LINE
8
Black
10
163.688
20
-120.315
11
162.888
21
-121.115
0
LINE
8
Black
10
163.43
20
-86.595
11
164.23
21
-87.395
0
LINE
8
Black
10
164.23
20
-86.595
11
163.43
21
-87.395
0
LINE
8
Black
10
163.43
20
-99.295
11
164.23
21
-100.095
0
LINE
8
Black
10
164.23
20
-99.295
11
163.43
21
-100.095
0
LINE
8
Black
10
166.698
20
-107.615
11
167.498
21
-108.415
0
LINE
8
Black
10
167.498
20
-107.615
11
166.698
21
-108.415
0
LINE
8
Black
10
167.215
20
-91.675
11
168.015
21
-92.475
0
LINE
8
Black
10
168.015
20
-91.675
11
167.215
21
-92.475
0
LINE
8
Black
10
167.24
20
-94.215
11
168.04
21
-95.015
0
LINE
8
Black
10
168.04
20
-94.215
11
167.24
21
-95.015
0
LINE
8
Black
10
169.272
20
-81.515
11
170.072
21
-82.315
0
LINE
8
Black
10
170.072
20
-81.515
11
169.272
21
-82.315
0
LINE
8
Black
10
169.272
20
-91.675
11
170.072
21
-92.475
0
LINE
8
Black
10
170.072
20
-91.675
11
169.272
21
-92.475
0
LINE
8
Black
10
170.508
20
-107.615
11
171.308
21
-108.415
0
LINE
8
Black
10
171.308
20
-107.615
11
170.508
21
-108.415
0
LINE
8
Black
10
170.508
20
-120.315
11
171.308
21
-121.115
0
LINE
8
Black
10
171.308
20
-120.315
11
170.508
21
-121.115
0
LINE
8
Black
10
170.669
20
-79.483
11
171.469
21
-80.283
0
LINE
8
Black
10
171.469
20
-79.483
11
170.669
21
-80.283
0
LINE
8
Black
10
173.209
20
-79.483
11
174.009
21
-80.283
0
LINE
8
Black
10
174.009
20
-79.483
11
173.209
21
-80.283
0
CIRCLE
8
Black
10
129.794
20
-75.565
40
0.508
0
CIRCLE
8
Black
10
132.334
20
-75.565
40
0.508
0
CIRCLE
8
Black
10
134.874
20
-75.565
40
0.508
0
CIRCLE
8
Black
10
137.414
20
-75.565
40
0.508
0
CIRCLE
8
Black
10
138.938
20
-123.825
40
0.508
0
CIRCLE
8
Black
10
139.954
20
-75.565
40
0.508
0
CIRCLE
8
Black
10
141.478
20
-123.825
40
0.508
0
CIRCLE
8
Black
10
142.494
20
-75.565
40
0.508
0
CIRCLE
8
Black
10
144.018
20
-123.825
40
0.508
0
CIRCLE
8
Black
10
145.034
20
-75.565
40
0.508
0
CIRCLE
8
Black
10
146.558
20
-123.825
40
0.508
0
CIRCLE
8
Black
10
147.574
20
-75.565
40
0.508
0
CIRCLE
8
Black
10
148.59
20
-103.632
40
0.508
0
CIRCLE
8
Black
10
149.098
20
-123.825
40
0.508
0
CIRCLE
8
Black
10
150.114
20
-75.565
40
0.508
0
CIRCLE
8
Black
10
151.13
20
-103.632
40
0.508
0
CIRCLE
8
Black
10
151.638
20
-123.825
40
0.508
0
CIRCLE
8
Black
10
152.654
20
-75.565
40
0.508
0
CIRCLE
8
Black
10
153.67
20
-103.632
40
0.508
0
CIRCLE
8
Black
10
154.178
20
-123.825
40
0.508
0
CIRCLE
8
Black
10
156.21
20
-103.632
40
0.508
0
CIRCLE
8
Black
10
156.718
20
-75.565
40
0.508
0
CIRCLE
8
Black
10
156.718
20
-123.825
40
0.508
0
CIRCLE
8
Black
10
159.258
20
-75.565
40
0.508
0
CIRCLE
8
Black
10
161.798
20
-75.565
40
0.508
0
CIRCLE
8
Black
10
161.798
20
-123.825
40
0.508
0
CIRCLE
8
Black
10
164.338
20
-75.565
40
0.508
0
CIRCLE
8
Black
10
164.338
20
-123.825
40
0.508
0
CIRCLE
8
Black
10
166.878
20
-75.565
40
0.508
0
CIRCLE
8
Black
10
166.878
20
-123.825
40
0.508
0
CIRCLE
8
Black
10
169.418
20
-75.565
40
0.508
0
CIRCLE
8
Black
10
169.418
20
-123.825
40
0.508
0
CIRCLE
8
Black
10
171.958
20
-75.565
40
0.508
0
CIRCLE
8
Black
10
171.958
20
-123.825
40
0.508
0
CIRCLE
8
Black
10
174.498
20
-75.565
40
0.508
0
CIRCLE
8
Black
10
174.498
20
-123.825
40
0.508
0
LINE
8
Black
10
119.024
20
-44.027
11
119.024
21
-45.127
0
LINE
8
Black
10
118.474
20
-44.577
11
119.574
21
-44.577
0
LINE
8
Black
10
119.024
20
-46.567
11
119.024
21
-47.667
0
LINE
8
Black
10
118.474
20
-47.117
11
119.574
21
-47.117
0
LINE
8
Black
10
119.024
20
-49.107
11
119.024
21
-50.207
0
LINE
8
Black
10
118.474
20
-49.657
11
119.574
21
-49.657
0
LINE
8
Black
10
119.024
20
-51.647
11
119.024
21
-52.747
0
LINE
8
Black
10
118.474
20
-52.197
11
119.574
21
-52.197
0
LINE
8
Black
10
119.461
20
-39.9086
11
119.461
21
-39.06
0
LINE
8
Black
10
119.461
20
-39.06
11
118.613
21
-39.06
0
LINE
8
Black
10
118.613
20
-39.06
11
118.613
21
-39.9086
0
LINE
8
Black
10
118.613
20
-39.9086
11
119.461
21
-39.9086
0
LINE
8
Black
10
122.001
20
-39.9086
11
122.001
21
-39.06
0
LINE
8
Black
10
122.001
20
-39.06
11
121.153
21
-39.06
0
LINE
8
Black
10
121.153
20
-39.06
11
121.153
21
-39.9086
0
LINE
8
Black
10
121.153
20
-39.9086
11
122.001
21
-39.9086
0
LINE
8
Black
10
124.541
20
-39.9086
11
124.541
21
-39.06
0
LINE
8
Black
10
124.541
20
-39.06
11
123.693
21
-39.06
0
LINE
8
Black
10
123.693
20
-39.06
11
123.693
21
-39.9086
0
LINE
8
Black
10
123.693
20
-39.9086
11
124.541
21
-39.9086
0
LINE
8
Black
10
127.081
20
-39.9086
11
127.081
21
-39.06
0
LINE
8
Black
10
127.081
20
-39.06
11
126.233
21
-39.06
0
LINE
8
Black
10
126.233
20
-39.06
11
126.233
21
-39.9086
0
LINE
8
Black
10
126.233
20
-39.9086
11
127.081
21
-39.9086
0
LINE
8
Black
10
129.621
20
-39.9086
11
129.621
21
-39.06
0
LINE
8
Black
10
129.621
20
-39.06
11
128.773
21
-39.06
0
LINE
8
Black
10
128.773
20
-39.06
11
128.773
21
-39.9086
0
LINE
8
Black
10
128.773
20
-39.9086
11
129.621
21
-39.9086
0
LINE
8
Black
10
132.161
20
-39.9086
11
132.161
21
-39.06
0
LINE
8
Black
10
132.161
20
-39.06
11
131.313
21
-39.06
0
LINE
8
Black
10
131.313
20
-39.06
11
131.313
21
-39.9086
0
LINE
8
Black
10
131.313
20
-39.9086
11
132.161
21
-39.9086
0
LINE
8
Black
10
134.701
20
-39.9086
11
134.701
21
-39.06
0
LINE
8
Black
10
134.701
20
-39.06
11
133.853
21
-39.06
0
LINE
8
Black
10
133.853
20
-39.06
11
133.853
21
-39.9086
0
LINE
8
Black
10
133.853
20
-39.9086
11
134.701
21
-39.9086
0
LINE
8
Black
10
137.241
20
-39.9086
11
137.241
21
-39.06
0
LINE
8
Black
10
137.241
20
-39.06
11
136.393
21
-39.06
0
LINE
8
Black
10
136.393
20
-39.06
11
136.393
21
-39.9086
0
LINE
8
Black
10
136.393
20
-39.9086
11
137.241
21
-39.9086
0
LINE
8
Black
10
139.781
20
-39.9086
11
139.781
21
-39.06
0
LINE
8
Black
10
139.781
20
-39.06
11
138.933
21
-39.06
0
LINE
8
Black
10
138.933
20
-39.06
11
138.933
21
-39.9086
0
LINE
8
Black
10
138.933
20
-39.9086
11
139.781
21
-39.9086
0
LINE
8
Black
10
142.321
20
-39.9086
11
142.321
21
-39.06
0
LINE
8
Black
10
142.321
20
-39.06
11
141.473
21
-39.06
0
LINE
8
Black
10
141.473
20
-39.06
11
141.473
21
-39.9086
0
LINE
8
Black
10
141.473
20
-39.9086
11
142.321
21
-39.9086
0
LINE
8
Black
10
144.861
20
-39.9086
11
144.861
21
-39.06
0
LINE
8
Black
10
144.861
20
-39.06
11
144.013
21
-39.06
0
LINE
8
Black
10
144.013
20
-39.06
11
144.013
21
-39.9086
0
LINE
8
Black
10
144.013
20
-39.9086
11
144.861
21
-39.9086
0
LINE
8
Black
10
146.982
20
-117.909
11
146.982
21
-117.061
0
LINE
8
Black
10
146.982
20
-117.061
11
146.134
21
-117.061
0
LINE
8
Black
10
146.134
20
-117.061
11
146.134
21
-117.909
0
LINE
8
Black
10
146.134
20
-117.909
11
146.982
21
-117.909
0
LINE
8
Black
10
147.002
20
-114.769
11
147.002
21
-113.921
0
LINE
8
Black
10
147.002
20
-113.921
11
146.154
21
-113.921
0
LINE
8
Black
10
146.154
20
-113.921
11
146.154
21
-114.769
0
LINE
8
Black
10
146.154
20
-114.769
11
147.002
21
-114.769
0
LINE
8
Black
10
147.401
20
-39.9086
11
147.401
21
-39.06
0
LINE
8
Black
10
147.401
20
-39.06
11
146.553
21
-39.06
0
LINE
8
Black
10
146.553
20
-39.06
11
146.553
21
-39.9086
0
LINE
8
Black
10
146.553
20
-39.9086
11
147.401
21
-39.9086
0
LINE
8
Black
10
149.941
20
-39.9086
11
149.941
21
-39.06
0
LINE
8
Black
10
149.941
20
-39.06
11
149.093
21
-39.06
0
LINE
8
Black
10
149.093
20
-39.06
11
149.093
21
-39.9086
0
LINE
8
Black
10
149.093
20
-39.9086
11
149.941
21
-39.9086
0
LINE
8
Black
10
152.481
20
-39.9086
11
152.481
21
-39.06
0
LINE
8
Black
10
152.481
20
-39.06
11
151.633
21
-39.06
0
LINE
8
Black
10
151.633
20
-39.06
11
151.633
21
-39.9086
0
LINE
8
Black
10
151.633
20
-39.9086
11
152.481
21
-39.9086
0
LINE
8
Black
10
155.021
20
-39.9086
11
155.021
21
-39.06
0
LINE
8
Black
10
155.021
20
-39.06
11
154.173
21
-39.06
0
LINE
8
Black
10
154.173
20
-39.06
11
154.173
21
-39.9086
0
LINE
8
Black
10
154.173
20
-39.9086
11
155.021
21
-39.9086
0
LINE
8
Black
10
157.142
20
-117.909
11
157.142
21
-117.061
0
LINE
8
Black
10
157.142
20
-117.061
11
156.294
21
-117.061
0
LINE
8
Black
10
156.294
20
-117.061
11
156.294
21
-117.909
0
LINE
8
Black
10
156.294
20
-117.909
11
157.142
21
-117.909
0
LINE
8
Black
10
157.162
20
-114.769
11
157.162
21
-113.921
0
LINE
8
Black
10
157.162
20
-113.921
11
156.314
21
-113.921
0
LINE
8
Black
10
156.314
20
-113.921
11
156.314
21
-114.769
0
LINE
8
Black
10
156.314
20
-114.769
11
157.162
21
-114.769
0
LINE
8
Black
10
157.561
20
-39.9086
11
157.561
21
-39.06
0
LINE
8
Black
10
157.561
20
-39.06
11
156.713
21
-39.06
0
LINE
8
Black
10
156.713
20
-39.06
11
156.713
21
-39.9086
0
LINE
8
Black
10
156.713
20
-39.9086
11
157.561
21
-39.9086
0
LINE
8
Black
10
114.808
20
-99.007
11
115.57
21
-98.245
0
LINE
8
Black
10
115.57
20
-98.245
11
114.808
21
-97.483
0
LINE
8
Black
10
114.808
20
-97.483
11
114.046
21
-98.245
0
LINE
8
Black
10
114.046
20
-98.245
11
114.808
21
-99.007
0
LINE
8
Black
10
114.808
20
-104.087
11
115.57
21
-103.325
0
LINE
8
Black
10
115.57
20
-103.325
11
114.808
21
-102.563
0
LINE
8
Black
10
114.808
20
-102.563
11
114.046
21
-103.325
0
LINE
8
Black
10
114.046
20
-103.325
11
114.808
21
-104.087
0
LINE
8
Black
10
159.498
20
-113.115
11
161.998
21
-115.615
0
LINE
8
Black
10
161.998
20
-113.115
11
159.498
21
-115.615
0
CIRCLE
8
Black
10
160.748
20
-114.365
40
1.25
0
LINE
8
Black
10
172.198
20
-113.115
11
174.698
21
-115.615
0
LINE
8
Black
10
174.698
20
-113.115
11
172.198
21
-115.615
0
CIRCLE
8
Black
10
173.448
20
-114.365
40
1.25
0
LINE
8
Black
10
187.287
20
-38.2343
11
189.787
21
-40.7343
0
LINE
8
Black
10
189.787
20
-38.2343
11
187.287
21
-40.7343
0
CIRCLE
8
Black
10
188.537
20
-39.4843
40
1.25
0
LINE
8
Black
10
187.287
20
-69.235
11
189.787
21
-71.735
0
LINE
8
Black
10
189.787
20
-69.235
11
187.287
21
-71.735
0
CIRCLE
8
Black
10
188.537
20
-70.485
40
1.25
0
LINE
8
Black
10
112.014
20
-37.9603
11
115.062
21
-41.0083
0
LINE
8
Black
10
115.062
20
-37.9603
11
112.014
21
-41.0083
0
LINE
8
Black
10
113.538
20
-37.9603
11
113.538
21
-41.0083
0
LINE
8
Black
10
112.014
20
-39.4843
11
115.062
21
-39.4843
0
LINE
8
Black
10
112.014
20
-68.961
11
115.062
21
-72.009
0
LINE
8
Black
10
115.062
20
-68.961
11
112.014
21
-72.009
0
LINE
8
Black
10
113.538
20
-68.961
11
113.538
21
-72.009
0
LINE
8
Black
10
112.014
20
-70.485
11
115.062
21
-70.485
0
LINE
8
Black
10
123.444
20
-122.301
11
126.492
21
-125.349
0
LINE
8
Black
10
126.492
20
-122.301
11
123.444
21
-125.349
0
LINE
8
Black
10
124.968
20
-122.301
11
124.968
21
-125.349
0
LINE
8
Black
10
123.444
20
-123.825
11
126.492
21
-123.825
0
LINE
8
Black
10
124.714
20
-74.041
11
127.762
21
-77.089
0
LINE
8
Black
10
127.762
20
-74.041
11
124.714
21
-77.089
0
LINE
8
Black
10
126.238
20
-74.041
11
126.238
21
-77.089
0
LINE
8
Black
10
124.714
20
-75.565
11
127.762
21
-75.565
0
LINE
8
Black
10
175.514
20
-89.281
11
178.562
21
-92.329
0
LINE
8
Black
10
178.562
20
-89.281
11
175.514
21
-92.329
0
LINE
8
Black
10
177.038
20
-89.281
11
177.038
21
-92.329
0
LINE
8
Black
10
175.514
20
-90.805
11
178.562
21
-90.805
0
LINE
8
Black
10
175.514
20
-117.221
11
178.562
21
-120.269
0
LINE
8
Black
10
178.562
20
-117.221
11
175.514
21
-120.269
0
LINE
8
Black
10
177.038
20
-117.221
11
177.038
21
-120.269
0
LINE
8
Black
10
175.514
20
-118.745
11
178.562
21
-118.745
0
LINE
8
Black
10
113.637
20
-131.097
11
113.637
21
-128.097
0
LINE
8
Black
10
113.637
20
-128.097
11
114.352
21
-128.097
0
LINE
8
Black
10
114.352
20
-128.097
11
114.78
21
-128.24
0
LINE
8
Black
10
114.78
20
-128.24
11
115.066
21
-128.526
0
LINE
8
Black
10
115.066
20
-128.526
11
115.209
21
-128.811
0
LINE
8
Black
10
115.209
20
-128.811
11
115.352
21
-129.383
0
LINE
8
Black
10
115.352
20
-129.383
11
115.352
21
-129.811
0
LINE
8
Black
10
115.352
20
-129.811
11
115.209
21
-130.383
0
LINE
8
Black
10
115.209
20
-130.383
11
115.066
21
-130.669
0
LINE
8
Black
10
115.066
20
-130.669
11
114.78
21
-130.954
0
LINE
8
Black
10
114.78
20
-130.954
11
114.352
21
-131.097
0
LINE
8
Black
10
114.352
20
-131.097
11
113.637
21
-131.097
0
LINE
8
Black
10
116.637
20
-131.097
11
116.637
21
-129.097
0
LINE
8
Black
10
116.637
20
-129.669
11
116.78
21
-129.383
0
LINE
8
Black
10
116.78
20
-129.383
11
116.923
21
-129.24
0
LINE
8
Black
10
116.923
20
-129.24
11
117.209
21
-129.097
0
LINE
8
Black
10
117.209
20
-129.097
11
117.494
21
-129.097
0
LINE
8
Black
10
118.494
20
-131.097
11
118.494
21
-129.097
0
LINE
8
Black
10
118.494
20
-128.097
11
118.352
21
-128.24
0
LINE
8
Black
10
118.352
20
-128.24
11
118.494
21
-128.383
0
LINE
8
Black
10
118.494
20
-128.383
11
118.637
21
-128.24
0
LINE
8
Black
10
118.637
20
-128.24
11
118.494
21
-128.097
0
LINE
8
Black
10
118.494
20
-128.097
11
118.494
21
-128.383
0
LINE
8
Black
10
120.352
20
-131.097
11
120.066
21
-130.954
0
LINE
8
Black
10
120.066
20
-130.954
11
119.923
21
-130.669
0
LINE
8
Black
10
119.923
20
-130.669
11
119.923
21
-128.097
0
LINE
8
Black
10
121.923
20
-131.097
11
121.637
21
-130.954
0
LINE
8
Black
10
121.637
20
-130.954
11
121.494
21
-130.669
0
LINE
8
Black
10
121.494
20
-130.669
11
121.494
21
-128.097
0
LINE
8
Black
10
125.352
20
-131.097
11
125.352
21
-128.097
0
LINE
8
Black
10
125.352
20
-128.097
11
126.352
21
-130.24
0
LINE
8
Black
10
126.352
20
-130.24
11
127.352
21
-128.097
0
LINE
8
Black
10
127.352
20
-128.097
11
127.352
21
-131.097
0
LINE
8
Black
10
130.066
20
-131.097
11
130.066
21
-129.526
0
LINE
8
Black
10
130.066
20
-129.526
11
129.923
21
-129.24
0
LINE
8
Black
10
129.923
20
-129.24
11
129.637
21
-129.097
0
LINE
8
Black
10
129.637
20
-129.097
11
129.066
21
-129.097
0
LINE
8
Black
10
129.066
20
-129.097
11
128.78
21
-129.24
0
LINE
8
Black
10
130.066
20
-130.954
11
129.78
21
-131.097
0
LINE
8
Black
10
129.78
20
-131.097
11
129.066
21
-131.097
0
LINE
8
Black
10
129.066
20
-131.097
11
128.78
21
-130.954
0
LINE
8
Black
10
128.78
20
-130.954
11
128.637
21
-130.669
0
LINE
8
Black
10
128.637
20
-130.669
11
128.637
21
-130.383
0
LINE
8
Black
10
128.637
20
-130.383
11
128.78
21
-130.097
0
LINE
8
Black
10
128.78
20
-130.097
11
129.066
21
-129.954
0
LINE
8
Black
10
129.066
20
-129.954
11
129.78
21
-129.954
0
LINE
8
Black
10
129.78
20
-129.954
11
130.066
21
-129.811
0
LINE
8
Black
10
131.494
20
-129.097
11
131.494
21
-132.097
0
LINE
8
Black
10
131.494
20
-129.24
11
131.78
21
-129.097
0
LINE
8
Black
10
131.78
20
-129.097
11
132.352
21
-129.097
0
LINE
8
Black
10
132.352
20
-129.097
11
132.637
21
-129.24
0
LINE
8
Black
10
132.637
20
-129.24
11
132.78
21
-129.383
0
LINE
8
Black
10
132.78
20
-129.383
11
132.923
21
-129.669
0
LINE
8
Black
10
132.923
20
-129.669
11
132.923
21
-130.526
0
LINE
8
Black
10
132.923
20
-130.526
11
132.78
21
-130.811
0
LINE
8
Black
10
132.78
20
-130.811
11
132.637
21
-130.954
0
LINE
8
Black
10
132.637
20
-130.954
11
132.352
21
-131.097
0
LINE
8
Black
10
132.352
20
-131.097
11
131.78
21
-131.097
0
LINE
8
Black
10
131.78
20
-131.097
11
131.494
21
-130.954
0
LINE
8
Black
10
134.209
20
-130.811
11
134.352
21
-130.954
0
LINE
8
Black
10
134.352
20
-130.954
11
134.209
21
-131.097
0
LINE
8
Black
10
134.209
20
-131.097
11
134.066
21
-130.954
0
LINE
8
Black
10
134.066
20
-130.954
11
134.209
21
-130.811
0
LINE
8
Black
10
134.209
20
-130.811
11
134.209
21
-131.097
0
LINE
8
Black
10
134.209
20
-129.24
11
134.352
21
-129.383
0
LINE
8
Black
10
134.352
20
-129.383
11
134.209
21
-129.526
0
LINE
8
Black
10
134.209
20
-129.526
11
134.066
21
-129.383
0
LINE
8
Black
10
134.066
20
-129.383
11
134.209
21
-129.24
0
LINE
8
Black
10
134.209
20
-129.24
11
134.209
21
-129.526
0
LINE
8
Black
10
110.123
20
-135.64
11
110.923
21
-136.44
0
LINE
8
Black
10
110.923
20
-135.64
11
110.123
21
-136.44
0
LINE
8
Black
10
114.209
20
-134.397
11
114.494
21
-134.397
0
LINE
8
Black
10
114.494
20
-134.397
11
114.78
21
-134.54
0
LINE
8
Black
10
114.78
20
-134.54
11
114.923
21
-134.683
0
LINE
8
Black
10
114.923
20
-134.683
11
115.066
21
-134.969
0
LINE
8
Black
10
115.066
20
-134.969
11
115.209
21
-135.54
0
LINE
8
Black
10
115.209
20
-135.54
11
115.209
21
-136.254
0
LINE
8
Black
10
115.209
20
-136.254
11
115.066
21
-136.826
0
LINE
8
Black
10
115.066
20
-136.826
11
114.923
21
-137.111
0
LINE
8
Black
10
114.923
20
-137.111
11
114.78
21
-137.254
0
LINE
8
Black
10
114.78
20
-137.254
11
114.494
21
-137.397
0
LINE
8
Black
10
114.494
20
-137.397
11
114.209
21
-137.397
0
LINE
8
Black
10
114.209
20
-137.397
11
113.923
21
-137.254
0
LINE
8
Black
10
113.923
20
-137.254
11
113.78
21
-137.111
0
LINE
8
Black
10
113.78
20
-137.111
11
113.637
21
-136.826
0
LINE
8
Black
10
113.637
20
-136.826
11
113.494
21
-136.254
0
LINE
8
Black
10
113.494
20
-136.254
11
113.494
21
-135.54
0
LINE
8
Black
10
113.494
20
-135.54
11
113.637
21
-134.969
0
LINE
8
Black
10
113.637
20
-134.969
11
113.78
21
-134.683
0
LINE
8
Black
10
113.78
20
-134.683
11
113.923
21
-134.54
0
LINE
8
Black
10
113.923
20
-134.54
11
114.209
21
-134.397
0
LINE
8
Black
10
116.494
20
-137.111
11
116.637
21
-137.254
0
LINE
8
Black
10
116.637
20
-137.254
11
116.494
21
-137.397
0
LINE
8
Black
10
116.494
20
-137.397
11
116.352
21
-137.254
0
LINE
8
Black
10
116.352
20
-137.254
11
116.494
21
-137.111
0
LINE
8
Black
10
116.494
20
-137.111
11
116.494
21
-137.397
0
LINE
8
Black
10
118.352
20
-135.683
11
118.066
21
-135.54
0
LINE
8
Black
10
118.066
20
-135.54
11
117.923
21
-135.397
0
LINE
8
Black
10
117.923
20
-135.397
11
117.78
21
-135.111
0
LINE
8
Black
10
117.78
20
-135.111
11
117.78
21
-134.969
0
LINE
8
Black
10
117.78
20
-134.969
11
117.923
21
-134.683
0
LINE
8
Black
10
117.923
20
-134.683
11
118.066
21
-134.54
0
LINE
8
Black
10
118.066
20
-134.54
11
118.352
21
-134.397
0
LINE
8
Black
10
118.352
20
-134.397
11
118.923
21
-134.397
0
LINE
8
Black
10
118.923
20
-134.397
11
119.209
21
-134.54
0
LINE
8
Black
10
119.209
20
-134.54
11
119.352
21
-134.683
0
LINE
8
Black
10
119.352
20
-134.683
11
119.494
21
-134.969
0
LINE
8
Black
10
119.494
20
-134.969
11
119.494
21
-135.111
0
LINE
8
Black
10
119.494
20
-135.111
11
119.352
21
-135.397
0
LINE
8
Black
10
119.352
20
-135.397
11
119.209
21
-135.54
0
LINE
8
Black
10
119.209
20
-135.54
11
118.923
21
-135.683
0
LINE
8
Black
10
118.923
20
-135.683
11
118.352
21
-135.683
0
LINE
8
Black
10
118.352
20
-135.683
11
118.066
21
-135.826
0
LINE
8
Black
10
118.066
20
-135.826
11
117.923
21
-135.969
0
LINE
8
Black
10
117.923
20
-135.969
11
117.78
21
-136.254
0
LINE
8
Black
10
117.78
20
-136.254
11
117.78
21
-136.826
0
LINE
8
Black
10
117.78
20
-136.826
11
117.923
21
-137.111
0
LINE
8
Black
10
117.923
20
-137.111
11
118.066
21
-137.254
0
LINE
8
Black
10
118.066
20
-137.254
11
118.352
21
-137.397
0
LINE
8
Black
10
118.352
20
-137.397
11
118.923
21
-137.397
0
LINE
8
Black
10
118.923
20
-137.397
11
119.209
21
-137.254
0
LINE
8
Black
10
119.209
20
-137.254
11
119.352
21
-137.111
0
LINE
8
Black
10
119.352
20
-137.111
11
119.494
21
-136.826
0
LINE
8
Black
10
119.494
20
-136.826
11
119.494
21
-136.254
0
LINE
8
Black
10
119.494
20
-136.254
11
119.352
21
-135.969
0
LINE
8
Black
10
119.352
20
-135.969
11
119.209
21
-135.826
0
LINE
8
Black
10
119.209
20
-135.826
11
118.923
21
-135.683
0
LINE
8
Black
10
121.352
20
-134.397
11
121.637
21
-134.397
0
LINE
8
Black
10
121.637
20
-134.397
11
121.923
21
-134.54
0
LINE
8
Black
10
121.923
20
-134.54
11
122.066
21
-134.683
0
LINE
8
Black
10
122.066
20
-134.683
11
122.209
21
-134.969
0
LINE
8
Black
10
122.209
20
-134.969
11
122.352
21
-135.54
0
LINE
8
Black
10
122.352
20
-135.54
11
122.352
21
-136.254
0
LINE
8
Black
10
122.352
20
-136.254
11
122.209
21
-136.826
0
LINE
8
Black
10
122.209
20
-136.826
11
122.066
21
-137.111
0
LINE
8
Black
10
122.066
20
-137.111
11
121.923
21
-137.254
0
LINE
8
Black
10
121.923
20
-137.254
11
121.637
21
-137.397
0
LINE
8
Black
10
121.637
20
-137.397
11
121.352
21
-137.397
0
LINE
8
Black
10
121.352
20
-137.397
11
121.066
21
-137.254
0
LINE
8
Black
10
121.066
20
-137.254
11
120.923
21
-137.111
0
LINE
8
Black
10
120.923
20
-137.111
11
120.78
21
-136.826
0
LINE
8
Black
10
120.78
20
-136.826
11
120.637
21
-136.254
0
LINE
8
Black
10
120.637
20
-136.254
11
120.637
21
-135.54
0
LINE
8
Black
10
120.637
20
-135.54
11
120.78
21
-134.969
0
LINE
8
Black
10
120.78
20
-134.969
11
120.923
21
-134.683
0
LINE
8
Black
10
120.923
20
-134.683
11
121.066
21
-134.54
0
LINE
8
Black
10
121.066
20
-134.54
11
121.352
21
-134.397
0
LINE
8
Black
10
123.637
20
-137.397
11
123.637
21
-135.397
0
LINE
8
Black
10
123.637
20
-135.683
11
123.78
21
-135.54
0
LINE
8
Black
10
123.78
20
-135.54
11
124.066
21
-135.397
0
LINE
8
Black
10
124.066
20
-135.397
11
124.494
21
-135.397
0
LINE
8
Black
10
124.494
20
-135.397
11
124.78
21
-135.54
0
LINE
8
Black
10
124.78
20
-135.54
11
124.923
21
-135.826
0
LINE
8
Black
10
124.923
20
-135.826
11
124.923
21
-137.397
0
LINE
8
Black
10
124.923
20
-135.826
11
125.066
21
-135.54
0
LINE
8
Black
10
125.066
20
-135.54
11
125.352
21
-135.397
0
LINE
8
Black
10
125.352
20
-135.397
11
125.78
21
-135.397
0
LINE
8
Black
10
125.78
20
-135.397
11
126.066
21
-135.54
0
LINE
8
Black
10
126.066
20
-135.54
11
126.209
21
-135.826
0
LINE
8
Black
10
126.209
20
-135.826
11
126.209
21
-137.397
0
LINE
8
Black
10
127.637
20
-137.397
11
127.637
21
-135.397
0
LINE
8
Black
10
127.637
20
-135.683
11
127.78
21
-135.54
0
LINE
8
Black
10
127.78
20
-135.54
11
128.066
21
-135.397
0
LINE
8
Black
10
128.066
20
-135.397
11
128.494
21
-135.397
0
LINE
8
Black
10
128.494
20
-135.397
11
128.78
21
-135.54
0
LINE
8
Black
10
128.78
20
-135.54
11
128.923
21
-135.826
0
LINE
8
Black
10
128.923
20
-135.826
11
128.923
21
-137.397
0
LINE
8
Black
10
128.923
20
-135.826
11
129.066
21
-135.54
0
LINE
8
Black
10
129.066
20
-135.54
11
129.352
21
-135.397
0
LINE
8
Black
10
129.352
20
-135.397
11
129.78
21
-135.397
0
LINE
8
Black
10
129.78
20
-135.397
11
130.066
21
-135.54
0
LINE
8
Black
10
130.066
20
-135.54
11
130.209
21
-135.826
0
LINE
8
Black
10
130.209
20
-135.826
11
130.209
21
-137.397
0
LINE
8
Black
10
136.066
20
-134.254
11
133.494
21
-138.111
0
LINE
8
Black
10
139.923
20
-134.397
11
140.209
21
-134.397
0
LINE
8
Black
10
140.209
20
-134.397
11
140.494
21
-134.54
0
LINE
8
Black
10
140.494
20
-134.54
11
140.637
21
-134.683
0
LINE
8
Black
10
140.637
20
-134.683
11
140.78
21
-134.969
0
LINE
8
Black
10
140.78
20
-134.969
11
140.923
21
-135.54
0
LINE
8
Black
10
140.923
20
-135.54
11
140.923
21
-136.254
0
LINE
8
Black
10
140.923
20
-136.254
11
140.78
21
-136.826
0
LINE
8
Black
10
140.78
20
-136.826
11
140.637
21
-137.111
0
LINE
8
Black
10
140.637
20
-137.111
11
140.494
21
-137.254
0
LINE
8
Black
10
140.494
20
-137.254
11
140.209
21
-137.397
0
LINE
8
Black
10
140.209
20
-137.397
11
139.923
21
-137.397
0
LINE
8
Black
10
139.923
20
-137.397
11
139.637
21
-137.254
0
LINE
8
Black
10
139.637
20
-137.254
11
139.494
21
-137.111
0
LINE
8
Black
10
139.494
20
-137.111
11
139.352
21
-136.826
0
LINE
8
Black
10
139.352
20
-136.826
11
139.209
21
-136.254
0
LINE
8
Black
10
139.209
20
-136.254
11
139.209
21
-135.54
0
LINE
8
Black
10
139.209
20
-135.54
11
139.352
21
-134.969
0
LINE
8
Black
10
139.352
20
-134.969
11
139.494
21
-134.683
0
LINE
8
Black
10
139.494
20
-134.683
11
139.637
21
-134.54
0
LINE
8
Black
10
139.637
20
-134.54
11
139.923
21
-134.397
0
LINE
8
Black
10
142.209
20
-137.111
11
142.352
21
-137.254
0
LINE
8
Black
10
142.352
20
-137.254
11
142.209
21
-137.397
0
LINE
8
Black
10
142.209
20
-137.397
11
142.066
21
-137.254
0
LINE
8
Black
10
142.066
20
-137.254
11
142.209
21
-137.111
0
LINE
8
Black
10
142.209
20
-137.111
11
142.209
21
-137.397
0
LINE
8
Black
10
144.209
20
-134.397
11
144.494
21
-134.397
0
LINE
8
Black
10
144.494
20
-134.397
11
144.78
21
-134.54
0
LINE
8
Black
10
144.78
20
-134.54
11
144.923
21
-134.683
0
LINE
8
Black
10
144.923
20
-134.683
11
145.066
21
-134.969
0
LINE
8
Black
10
145.066
20
-134.969
11
145.209
21
-135.54
0
LINE
8
Black
10
145.209
20
-135.54
11
145.209
21
-136.254
0
LINE
8
Black
10
145.209
20
-136.254
11
145.066
21
-136.826
0
LINE
8
Black
10
145.066
20
-136.826
11
144.923
21
-137.111
0
LINE
8
Black
10
144.923
20
-137.111
11
144.78
21
-137.254
0
LINE
8
Black
10
144.78
20
-137.254
11
144.494
21
-137.397
0
LINE
8
Black
10
144.494
20
-137.397
11
144.209
21
-137.397
0
LINE
8
Black
10
144.209
20
-137.397
11
143.923
21
-137.254
0
LINE
8
Black
10
143.923
20
-137.254
11
143.78
21
-137.111
0
LINE
8
Black
10
143.78
20
-137.111
11
143.637
21
-136.826
0
LINE
8
Black
10
143.637
20
-136.826
11
143.494
21
-136.254
0
LINE
8
Black
10
143.494
20
-136.254
11
143.494
21
-135.54
0
LINE
8
Black
10
143.494
20
-135.54
11
143.637
21
-134.969
0
LINE
8
Black
10
143.637
20
-134.969
11
143.78
21
-134.683
0
LINE
8
Black
10
143.78
20
-134.683
11
143.923
21
-134.54
0
LINE
8
Black
10
143.923
20
-134.54
11
144.209
21
-134.397
0
LINE
8
Black
10
146.209
20
-134.397
11
148.066
21
-134.397
0
LINE
8
Black
10
148.066
20
-134.397
11
147.066
21
-135.54
0
LINE
8
Black
10
147.066
20
-135.54
11
147.494
21
-135.54
0
LINE
8
Black
10
147.494
20
-135.54
11
147.78
21
-135.683
0
LINE
8
Black
10
147.78
20
-135.683
11
147.923
21
-135.826
0
LINE
8
Black
10
147.923
20
-135.826
11
148.066
21
-136.111
0
LINE
8
Black
10
148.066
20
-136.111
11
148.066
21
-136.826
0
LINE
8
Black
10
148.066
20
-136.826
11
147.923
21
-137.111
0
LINE
8
Black
10
147.923
20
-137.111
11
147.78
21
-137.254
0
LINE
8
Black
10
147.78
20
-137.254
11
147.494
21
-137.397
0
LINE
8
Black
10
147.494
20
-137.397
11
146.637
21
-137.397
0
LINE
8
Black
10
146.637
20
-137.397
11
146.352
21
-137.254
0
LINE
8
Black
10
146.352
20
-137.254
11
146.209
21
-137.111
0
LINE
8
Black
10
150.923
20
-137.397
11
149.209
21
-137.397
0
LINE
8
Black
10
150.066
20
-137.397
11
150.066
21
-134.397
0
LINE
8
Black
10
150.066
20
-134.397
11
149.78
21
-134.826
0
LINE
8
Black
10
149.78
20
-134.826
11
149.494
21
-135.111
0
LINE
8
Black
10
149.494
20
-135.111
11
149.209
21
-135.254
0
LINE
8
Black
10
152.066
20
-134.397
11
152.066
21
-134.969
0
LINE
8
Black
10
153.209
20
-134.397
11
153.209
21
-134.969
0
LINE
8
Black
10
157.637
20
-138.54
11
157.494
21
-138.397
0
LINE
8
Black
10
157.494
20
-138.397
11
157.209
21
-137.969
0
LINE
8
Black
10
157.209
20
-137.969
11
157.066
21
-137.683
0
LINE
8
Black
10
157.066
20
-137.683
11
156.923
21
-137.254
0
LINE
8
Black
10
156.923
20
-137.254
11
156.78
21
-136.54
0
LINE
8
Black
10
156.78
20
-136.54
11
156.78
21
-135.969
0
LINE
8
Black
10
156.78
20
-135.969
11
156.923
21
-135.254
0
LINE
8
Black
10
156.923
20
-135.254
11
157.066
21
-134.826
0
LINE
8
Black
10
157.066
20
-134.826
11
157.209
21
-134.54
0
LINE
8
Black
10
157.209
20
-134.54
11
157.494
21
-134.111
0
LINE
8
Black
10
157.494
20
-134.111
11
157.637
21
-133.969
0
LINE
8
Black
10
158.923
20
-137.397
11
159.494
21
-137.397
0
LINE
8
Black
10
159.494
20
-137.397
11
159.78
21
-137.254
0
LINE
8
Black
10
159.78
20
-137.254
11
159.923
21
-137.111
0
LINE
8
Black
10
159.923
20
-137.111
11
160.209
21
-136.683
0
LINE
8
Black
10
160.209
20
-136.683
11
160.352
21
-136.111
0
LINE
8
Black
10
160.352
20
-136.111
11
160.352
21
-134.969
0
LINE
8
Black
10
160.352
20
-134.969
11
160.209
21
-134.683
0
LINE
8
Black
10
160.209
20
-134.683
11
160.066
21
-134.54
0
LINE
8
Black
10
160.066
20
-134.54
11
159.78
21
-134.397
0
LINE
8
Black
10
159.78
20
-134.397
11
159.209
21
-134.397
0
LINE
8
Black
10
159.209
20
-134.397
11
158.923
21
-134.54
0
LINE
8
Black
10
158.923
20
-134.54
11
158.78
21
-134.683
0
LINE
8
Black
10
158.78
20
-134.683
11
158.637
21
-134.969
0
LINE
8
Black
10
158.637
20
-134.969
11
158.637
21
-135.683
0
LINE
8
Black
10
158.637
20
-135.683
11
158.78
21
-135.969
0
LINE
8
Black
10
158.78
20
-135.969
11
158.923
21
-136.111
0
LINE
8
Black
10
158.923
20
-136.111
11
159.209
21
-136.254
0
LINE
8
Black
10
159.209
20
-136.254
11
159.78
21
-136.254
0
LINE
8
Black
10
159.78
20
-136.254
11
160.066
21
-136.111
0
LINE
8
Black
10
160.066
20
-136.111
11
160.209
21
-135.969
0
LINE
8
Black
10
160.209
20
-135.969
11
160.352
21
-135.683
0
LINE
8
Black
10
161.78
20
-137.397
11
162.352
21
-137.397
0
LINE
8
Black
10
162.352
20
-137.397
11
162.637
21
-137.254
0
LINE
8
Black
10
162.637
20
-137.254
11
162.78
21
-137.111
0
LINE
8
Black
10
162.78
20
-137.111
11
163.066
21
-136.683
0
LINE
8
Black
10
163.066
20
-136.683
11
163.209
21
-136.111
0
LINE
8
Black
10
163.209
20
-136.111
11
163.209
21
-134.969
0
LINE
8
Black
10
163.209
20
-134.969
11
163.066
21
-134.683
0
LINE
8
Black
10
163.066
20
-134.683
11
162.923
21
-134.54
0
LINE
8
Black
10
162.923
20
-134.54
11
162.637
21
-134.397
0
LINE
8
Black
10
162.637
20
-134.397
11
162.066
21
-134.397
0
LINE
8
Black
10
162.066
20
-134.397
11
161.78
21
-134.54
0
LINE
8
Black
10
161.78
20
-134.54
11
161.637
21
-134.683
0
LINE
8
Black
10
161.637
20
-134.683
11
161.494
21
-134.969
0
LINE
8
Black
10
161.494
20
-134.969
11
161.494
21
-135.683
0
LINE
8
Black
10
161.494
20
-135.683
11
161.637
21
-135.969
0
LINE
8
Black
10
161.637
20
-135.969
11
161.78
21
-136.111
0
LINE
8
Black
10
161.78
20
-136.111
11
162.066
21
-136.254
0
LINE
8
Black
10
162.066
20
-136.254
11
162.637
21
-136.254
0
LINE
8
Black
10
162.637
20
-136.254
11
162.923
21
-136.111
0
LINE
8
Black
10
162.923
20
-136.111
11
163.066
21
-135.969
0
LINE
8
Black
10
163.066
20
-135.969
11
163.209
21
-135.683
0
LINE
8
Black
10
166.78
20
-137.397
11
166.78
21
-134.397
0
LINE
8
Black
10
168.066
20
-137.397
11
168.066
21
-135.826
0
LINE
8
Black
10
168.066
20
-135.826
11
167.923
21
-135.54
0
LINE
8
Black
10
167.923
20
-135.54
11
167.637
21
-135.397
0
LINE
8
Black
10
167.637
20
-135.397
11
167.209
21
-135.397
0
LINE
8
Black
10
167.209
20
-135.397
11
166.923
21
-135.54
0
LINE
8
Black
10
166.923
20
-135.54
11
166.78
21
-135.683
0
LINE
8
Black
10
169.923
20
-137.397
11
169.637
21
-137.254
0
LINE
8
Black
10
169.637
20
-137.254
11
169.494
21
-137.111
0
LINE
8
Black
10
169.494
20
-137.111
11
169.352
21
-136.826
0
LINE
8
Black
10
169.352
20
-136.826
11
169.352
21
-135.969
0
LINE
8
Black
10
169.352
20
-135.969
11
169.494
21
-135.683
0
LINE
8
Black
10
169.494
20
-135.683
11
169.637
21
-135.54
0
LINE
8
Black
10
169.637
20
-135.54
11
169.923
21
-135.397
0
LINE
8
Black
10
169.923
20
-135.397
11
170.352
21
-135.397
0
LINE
8
Black
10
170.352
20
-135.397
11
170.637
21
-135.54
0
LINE
8
Black
10
170.637
20
-135.54
11
170.78
21
-135.683
0
LINE
8
Black
10
170.78
20
-135.683
11
170.923
21
-135.969
0
LINE
8
Black
10
170.923
20
-135.969
11
170.923
21
-136.826
0
LINE
8
Black
10
170.923
20
-136.826
11
170.78
21
-137.111
0
LINE
8
Black
10
170.78
20
-137.111
11
170.637
21
-137.254
0
LINE
8
Black
10
170.637
20
-137.254
11
170.352
21
-137.397
0
LINE
8
Black
10
170.352
20
-137.397
11
169.923
21
-137.397
0
LINE
8
Black
10
172.637
20
-137.397
11
172.352
21
-137.254
0
LINE
8
Black
10
172.352
20
-137.254
11
172.209
21
-136.969
0
LINE
8
Black
10
172.209
20
-136.969
11
172.209
21
-134.397
0
LINE
8
Black
10
174.923
20
-137.254
11
174.637
21
-137.397
0
LINE
8
Black
10
174.637
20
-137.397
11
174.066
21
-137.397
0
LINE
8
Black
10
174.066
20
-137.397
11
173.78
21
-137.254
0
LINE
8
Black
10
173.78
20
-137.254
11
173.637
21
-136.969
0
LINE
8
Black
10
173.637
20
-136.969
11
173.637
21
-135.826
0
LINE
8
Black
10
173.637
20
-135.826
11
173.78
21
-135.54
0
LINE
8
Black
10
173.78
20
-135.54
11
174.066
21
-135.397
0
LINE
8
Black
10
174.066
20
-135.397
11
174.637
21
-135.397
0
LINE
8
Black
10
174.637
20
-135.397
11
174.923
21
-135.54
0
LINE
8
Black
10
174.923
20
-135.54
11
175.066
21
-135.826
0
LINE
8
Black
10
175.066
20
-135.826
11
175.066
21
-136.111
0
LINE
8
Black
10
175.066
20
-136.111
11
173.637
21
-136.397
0
LINE
8
Black
10
176.209
20
-137.254
11
176.494
21
-137.397
0
LINE
8
Black
10
176.494
20
-137.397
11
177.066
21
-137.397
0
LINE
8
Black
10
177.066
20
-137.397
11
177.352
21
-137.254
0
LINE
8
Black
10
177.352
20
-137.254
11
177.494
21
-136.969
0
LINE
8
Black
10
177.494
20
-136.969
11
177.494
21
-136.826
0
LINE
8
Black
10
177.494
20
-136.826
11
177.352
21
-136.54
0
LINE
8
Black
10
177.352
20
-136.54
11
177.066
21
-136.397
0
LINE
8
Black
10
177.066
20
-136.397
11
176.637
21
-136.397
0
LINE
8
Black
10
176.637
20
-136.397
11
176.352
21
-136.254
0
LINE
8
Black
10
176.352
20
-136.254
11
176.209
21
-135.969
0
LINE
8
Black
10
176.209
20
-135.969
11
176.209
21
-135.826
0
LINE
8
Black
10
176.209
20
-135.826
11
176.352
21
-135.54
0
LINE
8
Black
10
176.352
20
-135.54
11
176.637
21
-135.397
0
LINE
8
Black
10
176.637
20
-135.397
11
177.066
21
-135.397
0
LINE
8
Black
10
177.066
20
-135.397
11
177.352
21
-135.54
0
LINE
8
Black
10
178.494
20
-138.54
11
178.637
21
-138.397
0
LINE
8
Black
10
178.637
20
-138.397
11
178.923
21
-137.969
0
LINE
8
Black
10
178.923
20
-137.969
11
179.066
21
-137.683
0
LINE
8
Black
10
179.066
20
-137.683
11
179.209
21
-137.254
0
LINE
8
Black
10
179.209
20
-137.254
11
179.352
21
-136.54
0
LINE
8
Black
10
179.352
20
-136.54
11
179.352
21
-135.969
0
LINE
8
Black
10
179.352
20
-135.969
11
179.209
21
-135.254
0
LINE
8
Black
10
179.209
20
-135.254
11
179.066
21
-134.826
0
LINE
8
Black
10
179.066
20
-134.826
11
178.923
21
-134.54
0
LINE
8
Black
10
178.923
20
-134.54
11
178.637
21
-134.111
0
LINE
8
Black
10
178.637
20
-134.111
11
178.494
21
-133.969
0
CIRCLE
8
Black
10
110.415
20
-140
40
0.508
0
LINE
8
Black
10
115.209
20
-141.357
11
113.494
21
-141.357
0
LINE
8
Black
10
114.352
20
-141.357
11
114.352
21
-138.357
0
LINE
8
Black
10
114.352
20
-138.357
11
114.066
21
-138.786
0
LINE
8
Black
10
114.066
20
-138.786
11
113.78
21
-139.071
0
LINE
8
Black
10
113.78
20
-139.071
11
113.494
21
-139.214
0
LINE
8
Black
10
116.494
20
-141.071
11
116.637
21
-141.214
0
LINE
8
Black
10
116.637
20
-141.214
11
116.494
21
-141.357
0
LINE
8
Black
10
116.494
20
-141.357
11
116.352
21
-141.214
0
LINE
8
Black
10
116.352
20
-141.214
11
116.494
21
-141.071
0
LINE
8
Black
10
116.494
20
-141.071
11
116.494
21
-141.357
0
LINE
8
Black
10
118.494
20
-138.357
11
118.78
21
-138.357
0
LINE
8
Black
10
118.78
20
-138.357
11
119.066
21
-138.5
0
LINE
8
Black
10
119.066
20
-138.5
11
119.209
21
-138.643
0
LINE
8
Black
10
119.209
20
-138.643
11
119.352
21
-138.929
0
LINE
8
Black
10
119.352
20
-138.929
11
119.494
21
-139.5
0
LINE
8
Black
10
119.494
20
-139.5
11
119.494
21
-140.214
0
LINE
8
Black
10
119.494
20
-140.214
11
119.352
21
-140.786
0
LINE
8
Black
10
119.352
20
-140.786
11
119.209
21
-141.071
0
LINE
8
Black
10
119.209
20
-141.071
11
119.066
21
-141.214
0
LINE
8
Black
10
119.066
20
-141.214
11
118.78
21
-141.357
0
LINE
8
Black
10
118.78
20
-141.357
11
118.494
21
-141.357
0
LINE
8
Black
10
118.494
20
-141.357
11
118.209
21
-141.214
0
LINE
8
Black
10
118.209
20
-141.214
11
118.066
21
-141.071
0
LINE
8
Black
10
118.066
20
-141.071
11
117.923
21
-140.786
0
LINE
8
Black
10
117.923
20
-140.786
11
117.78
21
-140.214
0
LINE
8
Black
10
117.78
20
-140.214
11
117.78
21
-139.5
0
LINE
8
Black
10
117.78
20
-139.5
11
117.923
21
-138.929
0
LINE
8
Black
10
117.923
20
-138.929
11
118.066
21
-138.643
0
LINE
8
Black
10
118.066
20
-138.643
11
118.209
21
-138.5
0
LINE
8
Black
10
118.209
20
-138.5
11
118.494
21
-138.357
0
LINE
8
Black
10
120.637
20
-138.643
11
120.78
21
-138.5
0
LINE
8
Black
10
120.78
20
-138.5
11
121.066
21
-138.357
0
LINE
8
Black
10
121.066
20
-138.357
11
121.78
21
-138.357
0
LINE
8
Black
10
121.78
20
-138.357
11
122.066
21
-138.5
0
LINE
8
Black
10
122.066
20
-138.5
11
122.209
21
-138.643
0
LINE
8
Black
10
122.209
20
-138.643
11
122.352
21
-138.929
0
LINE
8
Black
10
122.352
20
-138.929
11
122.352
21
-139.214
0
LINE
8
Black
10
122.352
20
-139.214
11
122.209
21
-139.643
0
LINE
8
Black
10
122.209
20
-139.643
11
120.494
21
-141.357
0
LINE
8
Black
10
120.494
20
-141.357
11
122.352
21
-141.357
0
LINE
8
Black
10
123.637
20
-141.357
11
123.637
21
-139.357
0
LINE
8
Black
10
123.637
20
-139.643
11
123.78
21
-139.5
0
LINE
8
Black
10
123.78
20
-139.5
11
124.066
21
-139.357
0
LINE
8
Black
10
124.066
20
-139.357
11
124.494
21
-139.357
0
LINE
8
Black
10
124.494
20
-139.357
11
124.78
21
-139.5
0
LINE
8
Black
10
124.78
20
-139.5
11
124.923
21
-139.786
0
LINE
8
Black
10
124.923
20
-139.786
11
124.923
21
-141.357
0
LINE
8
Black
10
124.923
20
-139.786
11
125.066
21
-139.5
0
LINE
8
Black
10
125.066
20
-139.5
11
125.352
21
-139.357
0
LINE
8
Black
10
125.352
20
-139.357
11
125.78
21
-139.357
0
LINE
8
Black
10
125.78
20
-139.357
11
126.066
21
-139.5
0
LINE
8
Black
10
126.066
20
-139.5
11
126.209
21
-139.786
0
LINE
8
Black
10
126.209
20
-139.786
11
126.209
21
-141.357
0
LINE
8
Black
10
127.637
20
-141.357
11
127.637
21
-139.357
0
LINE
8
Black
10
127.637
20
-139.643
11
127.78
21
-139.5
0
LINE
8
Black
10
127.78
20
-139.5
11
128.066
21
-139.357
0
LINE
8
Black
10
128.066
20
-139.357
11
128.494
21
-139.357
0
LINE
8
Black
10
128.494
20
-139.357
11
128.78
21
-139.5
0
LINE
8
Black
10
128.78
20
-139.5
11
128.923
21
-139.786
0
LINE
8
Black
10
128.923
20
-139.786
11
128.923
21
-141.357
0
LINE
8
Black
10
128.923
20
-139.786
11
129.066
21
-139.5
0
LINE
8
Black
10
129.066
20
-139.5
11
129.352
21
-139.357
0
LINE
8
Black
10
129.352
20
-139.357
11
129.78
21
-139.357
0
LINE
8
Black
10
129.78
20
-139.357
11
130.066
21
-139.5
0
LINE
8
Black
10
130.066
20
-139.5
11
130.209
21
-139.786
0
LINE
8
Black
10
130.209
20
-139.786
11
130.209
21
-141.357
0
LINE
8
Black
10
136.066
20
-138.214
11
133.494
21
-142.071
0
LINE
8
Black
10
139.923
20
-138.357
11
140.209
21
-138.357
0
LINE
8
Black
10
140.209
20
-138.357
11
140.494
21
-138.5
0
LINE
8
Black
10
140.494
20
-138.5
11
140.637
21
-138.643
0
LINE
8
Black
10
140.637
20
-138.643
11
140.78
21
-138.929
0
LINE
8
Black
10
140.78
20
-138.929
11
140.923
21
-139.5
0
LINE
8
Black
10
140.923
20
-139.5
11
140.923
21
-140.214
0
LINE
8
Black
10
140.923
20
-140.214
11
140.78
21
-140.786
0
LINE
8
Black
10
140.78
20
-140.786
11
140.637
21
-141.071
0
LINE
8
Black
10
140.637
20
-141.071
11
140.494
21
-141.214
0
LINE
8
Black
10
140.494
20
-141.214
11
140.209
21
-141.357
0
LINE
8
Black
10
140.209
20
-141.357
11
139.923
21
-141.357
0
LINE
8
Black
10
139.923
20
-141.357
11
139.637
21
-141.214
0
LINE
8
Black
10
139.637
20
-141.214
11
139.494
21
-141.071
0
LINE
8
Black
10
139.494
20
-141.071
11
139.352
21
-140.786
0
LINE
8
Black
10
139.352
20
-140.786
11
139.209
21
-140.214
0
LINE
8
Black
10
139.209
20
-140.214
11
139.209
21
-139.5
0
LINE
8
Black
10
139.209
20
-139.5
11
139.352
21
-138.929
0
LINE
8
Black
10
139.352
20
-138.929
11
139.494
21
-138.643
0
LINE
8
Black
10
139.494
20
-138.643
11
139.637
21
-138.5
0
LINE
8
Black
10
139.637
20
-138.5
11
139.923
21
-138.357
0
LINE
8
Black
10
142.209
20
-141.071
11
142.352
21
-141.214
0
LINE
8
Black
10
142.352
20
-141.214
11
142.209
21
-141.357
0
LINE
8
Black
10
142.209
20
-141.357
11
142.066
21
-141.214
0
LINE
8
Black
10
142.066
20
-141.214
11
142.209
21
-141.071
0
LINE
8
Black
10
142.209
20
-141.071
11
142.209
21
-141.357
0
LINE
8
Black
10
144.209
20
-138.357
11
144.494
21
-138.357
0
LINE
8
Black
10
144.494
20
-138.357
11
144.78
21
-138.5
0
LINE
8
Black
10
144.78
20
-138.5
11
144.923
21
-138.643
0
LINE
8
Black
10
144.923
20
-138.643
11
145.066
21
-138.929
0
LINE
8
Black
10
145.066
20
-138.929
11
145.209
21
-139.5
0
LINE
8
Black
10
145.209
20
-139.5
11
145.209
21
-140.214
0
LINE
8
Black
10
145.209
20
-140.214
11
145.066
21
-140.786
0
LINE
8
Black
10
145.066
20
-140.786
11
144.923
21
-141.071
0
LINE
8
Black
10
144.923
20
-141.071
11
144.78
21
-141.214
0
LINE
8
Black
10
144.78
20
-141.214
11
144.494
21
-141.357
0
LINE
8
Black
10
144.494
20
-141.357
11
144.209
21
-141.357
0
LINE
8
Black
10
144.209
20
-141.357
11
143.923
21
-141.214
0
LINE
8
Black
10
143.923
20
-141.214
11
143.78
21
-141.071
0
LINE
8
Black
10
143.78
20
-141.071
11
143.637
21
-140.786
0
LINE
8
Black
10
143.637
20
-140.786
11
143.494
21
-140.214
0
LINE
8
Black
10
143.494
20
-140.214
11
143.494
21
-139.5
0
LINE
8
Black
10
143.494
20
-139.5
11
143.637
21
-138.929
0
LINE
8
Black
10
143.637
20
-138.929
11
143.78
21
-138.643
0
LINE
8
Black
10
143.78
20
-138.643
11
143.923
21
-138.5
0
LINE
8
Black
10
143.923
20
-138.5
11
144.209
21
-138.357
0
LINE
8
Black
10
147.78
20
-139.357
11
147.78
21
-141.357
0
LINE
8
Black
10
147.066
20
-138.214
11
146.352
21
-140.357
0
LINE
8
Black
10
146.352
20
-140.357
11
148.209
21
-140.357
0
LINE
8
Black
10
149.923
20
-138.357
11
150.209
21
-138.357
0
LINE
8
Black
10
150.209
20
-138.357
11
150.494
21
-138.5
0
LINE
8
Black
10
150.494
20
-138.5
11
150.637
21
-138.643
0
LINE
8
Black
10
150.637
20
-138.643
11
150.78
21
-138.929
0
LINE
8
Black
10
150.78
20
-138.929
11
150.923
21
-139.5
0
LINE
8
Black
10
150.923
20
-139.5
11
150.923
21
-140.214
0
LINE
8
Black
10
150.923
20
-140.214
11
150.78
21
-140.786
0
LINE
8
Black
10
150.78
20
-140.786
11
150.637
21
-141.071
0
LINE
8
Black
10
150.637
20
-141.071
11
150.494
21
-141.214
0
LINE
8
Black
10
150.494
20
-141.214
11
150.209
21
-141.357
0
LINE
8
Black
10
150.209
20
-141.357
11
149.923
21
-141.357
0
LINE
8
Black
10
149.923
20
-141.357
11
149.637
21
-141.214
0
LINE
8
Black
10
149.637
20
-141.214
11
149.494
21
-141.071
0
LINE
8
Black
10
149.494
20
-141.071
11
149.352
21
-140.786
0
LINE
8
Black
10
149.352
20
-140.786
11
149.209
21
-140.214
0
LINE
8
Black
10
149.209
20
-140.214
11
149.209
21
-139.5
0
LINE
8
Black
10
149.209
20
-139.5
11
149.352
21
-138.929
0
LINE
8
Black
10
149.352
20
-138.929
11
149.494
21
-138.643
0
LINE
8
Black
10
149.494
20
-138.643
11
149.637
21
-138.5
0
LINE
8
Black
10
149.637
20
-138.5
11
149.923
21
-138.357
0
LINE
8
Black
10
152.066
20
-138.357
11
152.066
21
-138.929
0
LINE
8
Black
10
153.209
20
-138.357
11
153.209
21
-138.929
0
LINE
8
Black
10
157.637
20
-142.5
11
157.494
21
-142.357
0
LINE
8
Black
10
157.494
20
-142.357
11
157.209
21
-141.929
0
LINE
8
Black
10
157.209
20
-141.929
11
157.066
21
-141.643
0
LINE
8
Black
10
157.066
20
-141.643
11
156.923
21
-141.214
0
LINE
8
Black
10
156.923
20
-141.214
11
156.78
21
-140.5
0
LINE
8
Black
10
156.78
20
-140.5
11
156.78
21
-139.929
0
LINE
8
Black
10
156.78
20
-139.929
11
156.923
21
-139.214
0
LINE
8
Black
10
156.923
20
-139.214
11
157.066
21
-138.786
0
LINE
8
Black
10
157.066
20
-138.786
11
157.209
21
-138.5
0
LINE
8
Black
10
157.209
20
-138.5
11
157.494
21
-138.071
0
LINE
8
Black
10
157.494
20
-138.071
11
157.637
21
-137.929
0
LINE
8
Black
10
158.494
20
-138.357
11
160.352
21
-138.357
0
LINE
8
Black
10
160.352
20
-138.357
11
159.352
21
-139.5
0
LINE
8
Black
10
159.352
20
-139.5
11
159.78
21
-139.5
0
LINE
8
Black
10
159.78
20
-139.5
11
160.066
21
-139.643
0
LINE
8
Black
10
160.066
20
-139.643
11
160.209
21
-139.786
0
LINE
8
Black
10
160.209
20
-139.786
11
160.352
21
-140.071
0
LINE
8
Black
10
160.352
20
-140.071
11
160.352
21
-140.786
0
LINE
8
Black
10
160.352
20
-140.786
11
160.209
21
-141.071
0
LINE
8
Black
10
160.209
20
-141.071
11
160.066
21
-141.214
0
LINE
8
Black
10
160.066
20
-141.214
11
159.78
21
-141.357
0
LINE
8
Black
10
159.78
20
-141.357
11
158.923
21
-141.357
0
LINE
8
Black
10
158.923
20
-141.357
11
158.637
21
-141.214
0
LINE
8
Black
10
158.637
20
-141.214
11
158.494
21
-141.071
0
LINE
8
Black
10
162.923
20
-138.357
11
162.352
21
-138.357
0
LINE
8
Black
10
162.352
20
-138.357
11
162.066
21
-138.5
0
LINE
8
Black
10
162.066
20
-138.5
11
161.923
21
-138.643
0
LINE
8
Black
10
161.923
20
-138.643
11
161.637
21
-139.071
0
LINE
8
Black
10
161.637
20
-139.071
11
161.494
21
-139.643
0
LINE
8
Black
10
161.494
20
-139.643
11
161.494
21
-140.786
0
LINE
8
Black
10
161.494
20
-140.786
11
161.637
21
-141.071
0
LINE
8
Black
10
161.637
20
-141.071
11
161.78
21
-141.214
0
LINE
8
Black
10
161.78
20
-141.214
11
162.066
21
-141.357
0
LINE
8
Black
10
162.066
20
-141.357
11
162.637
21
-141.357
0
LINE
8
Black
10
162.637
20
-141.357
11
162.923
21
-141.214
0
LINE
8
Black
10
162.923
20
-141.214
11
163.066
21
-141.071
0
LINE
8
Black
10
163.066
20
-141.071
11
163.209
21
-140.786
0
LINE
8
Black
10
163.209
20
-140.786
11
163.209
21
-140.071
0
LINE
8
Black
10
163.209
20
-140.071
11
163.066
21
-139.786
0
LINE
8
Black
10
163.066
20
-139.786
11
162.923
21
-139.643
0
LINE
8
Black
10
162.923
20
-139.643
11
162.637
21
-139.5
0
LINE
8
Black
10
162.637
20
-139.5
11
162.066
21
-139.5
0
LINE
8
Black
10
162.066
20
-139.5
11
161.78
21
-139.643
0
LINE
8
Black
10
161.78
20
-139.643
11
161.637
21
-139.786
0
LINE
8
Black
10
161.637
20
-139.786
11
161.494
21
-140.071
0
LINE
8
Black
10
166.78
20
-141.357
11
166.78
21
-138.357
0
LINE
8
Black
10
168.066
20
-141.357
11
168.066
21
-139.786
0
LINE
8
Black
10
168.066
20
-139.786
11
167.923
21
-139.5
0
LINE
8
Black
10
167.923
20
-139.5
11
167.637
21
-139.357
0
LINE
8
Black
10
167.637
20
-139.357
11
167.209
21
-139.357
0
LINE
8
Black
10
167.209
20
-139.357
11
166.923
21
-139.5
0
LINE
8
Black
10
166.923
20
-139.5
11
166.78
21
-139.643
0
LINE
8
Black
10
169.923
20
-141.357
11
169.637
21
-141.214
0
LINE
8
Black
10
169.637
20
-141.214
11
169.494
21
-141.071
0
LINE
8
Black
10
169.494
20
-141.071
11
169.352
21
-140.786
0
LINE
8
Black
10
169.352
20
-140.786
11
169.352
21
-139.929
0
LINE
8
Black
10
169.352
20
-139.929
11
169.494
21
-139.643
0
LINE
8
Black
10
169.494
20
-139.643
11
169.637
21
-139.5
0
LINE
8
Black
10
169.637
20
-139.5
11
169.923
21
-139.357
0
LINE
8
Black
10
169.923
20
-139.357
11
170.352
21
-139.357
0
LINE
8
Black
10
170.352
20
-139.357
11
170.637
21
-139.5
0
LINE
8
Black
10
170.637
20
-139.5
11
170.78
21
-139.643
0
LINE
8
Black
10
170.78
20
-139.643
11
170.923
21
-139.929
0
LINE
8
Black
10
170.923
20
-139.929
11
170.923
21
-140.786
0
LINE
8
Black
10
170.923
20
-140.786
11
170.78
21
-141.071
0
LINE
8
Black
10
170.78
20
-141.071
11
170.637
21
-141.214
0
LINE
8
Black
10
170.637
20
-141.214
11
170.352
21
-141.357
0
LINE
8
Black
10
170.352
20
-141.357
11
169.923
21
-141.357
0
LINE
8
Black
10
172.637
20
-141.357
11
172.352
21
-141.214
0
LINE
8
Black
10
172.352
20
-141.214
11
172.209
21
-140.929
0
LINE
8
Black
10
172.209
20
-140.929
11
172.209
21
-138.357
0
LINE
8
Black
10
174.923
20
-141.214
11
174.637
21
-141.357
0
LINE
8
Black
10
174.637
20
-141.357
11
174.066
21
-141.357
0
LINE
8
Black
10
174.066
20
-141.357
11
173.78
21
-141.214
0
LINE
8
Black
10
173.78
20
-141.214
11
173.637
21
-140.929
0
LINE
8
Black
10
173.637
20
-140.929
11
173.637
21
-139.786
0
LINE
8
Black
10
173.637
20
-139.786
11
173.78
21
-139.5
0
LINE
8
Black
10
173.78
20
-139.5
11
174.066
21
-139.357
0
LINE
8
Black
10
174.066
20
-139.357
11
174.637
21
-139.357
0
LINE
8
Black
10
174.637
20
-139.357
11
174.923
21
-139.5
0
LINE
8
Black
10
174.923
20
-139.5
11
175.066
21
-139.786
0
LINE
8
Black
10
175.066
20
-139.786
11
175.066
21
-140.071
0
LINE
8
Black
10
175.066
20
-140.071
11
173.637
21
-140.357
0
LINE
8
Black
10
176.209
20
-141.214
11
176.494
21
-141.357
0
LINE
8
Black
10
176.494
20
-141.357
11
177.066
21
-141.357
0
LINE
8
Black
10
177.066
20
-141.357
11
177.352
21
-141.214
0
LINE
8
Black
10
177.352
20
-141.214
11
177.494
21
-140.929
0
LINE
8
Black
10
177.494
20
-140.929
11
177.494
21
-140.786
0
LINE
8
Black
10
177.494
20
-140.786
11
177.352
21
-140.5
0
LINE
8
Black
10
177.352
20
-140.5
11
177.066
21
-140.357
0
LINE
8
Black
10
177.066
20
-140.357
11
176.637
21
-140.357
0
LINE
8
Black
10
176.637
20
-140.357
11
176.352
21
-140.214
0
LINE
8
Black
10
176.352
20
-140.214
11
176.209
21
-139.929
0
LINE
8
Black
10
176.209
20
-139.929
11
176.209
21
-139.786
0
LINE
8
Black
10
176.209
20
-139.786
11
176.352
21
-139.5
0
LINE
8
Black
10
176.352
20
-139.5
11
176.637
21
-139.357
0
LINE
8
Black
10
176.637
20
-139.357
11
177.066
21
-139.357
0
LINE
8
Black
10
177.066
20
-139.357
11
177.352
21
-139.5
0
LINE
8
Black
10
178.494
20
-142.5
11
178.637
21
-142.357
0
LINE
8
Black
10
178.637
20
-142.357
11
178.923
21
-141.929
0
LINE
8
Black
10
178.923
20
-141.929
11
179.066
21
-141.643
0
LINE
8
Black
10
179.066
20
-141.643
11
179.209
21
-141.214
0
LINE
8
Black
10
179.209
20
-141.214
11
179.352
21
-140.5
0
LINE
8
Black
10
179.352
20
-140.5
11
179.352
21
-139.929
0
LINE
8
Black
10
179.352
20
-139.929
11
179.209
21
-139.214
0
LINE
8
Black
10
179.209
20
-139.214
11
179.066
21
-138.786
0
LINE
8
Black
10
179.066
20
-138.786
11
178.923
21
-138.5
0
LINE
8
Black
10
178.923
20
-138.5
11
178.637
21
-138.071
0
LINE
8
Black
10
178.637
20
-138.071
11
178.494
21
-137.929
0
LINE
8
Black
10
110.373
20
-143.41
11
110.373
21
-144.51
0
LINE
8
Black
10
109.823
20
-143.96
11
110.923
21
-143.96
0
LINE
8
Black
10
115.209
20
-145.317
11
113.494
21
-145.317
0
LINE
8
Black
10
114.352
20
-145.317
11
114.352
21
-142.317
0
LINE
8
Black
10
114.352
20
-142.317
11
114.066
21
-142.746
0
LINE
8
Black
10
114.066
20
-142.746
11
113.78
21
-143.031
0
LINE
8
Black
10
113.78
20
-143.031
11
113.494
21
-143.174
0
LINE
8
Black
10
116.494
20
-145.031
11
116.637
21
-145.174
0
LINE
8
Black
10
116.637
20
-145.174
11
116.494
21
-145.317
0
LINE
8
Black
10
116.494
20
-145.317
11
116.352
21
-145.174
0
LINE
8
Black
10
116.352
20
-145.174
11
116.494
21
-145.031
0
LINE
8
Black
10
116.494
20
-145.031
11
116.494
21
-145.317
0
LINE
8
Black
10
119.494
20
-145.317
11
117.78
21
-145.317
0
LINE
8
Black
10
118.637
20
-145.317
11
118.637
21
-142.317
0
LINE
8
Black
10
118.637
20
-142.317
11
118.352
21
-142.746
0
LINE
8
Black
10
118.352
20
-142.746
11
118.066
21
-143.031
0
LINE
8
Black
10
118.066
20
-143.031
11
117.78
21
-143.174
0
LINE
8
Black
10
121.352
20
-142.317
11
121.637
21
-142.317
0
LINE
8
Black
10
121.637
20
-142.317
11
121.923
21
-142.46
0
LINE
8
Black
10
121.923
20
-142.46
11
122.066
21
-142.603
0
LINE
8
Black
10
122.066
20
-142.603
11
122.209
21
-142.889
0
LINE
8
Black
10
122.209
20
-142.889
11
122.352
21
-143.46
0
LINE
8
Black
10
122.352
20
-143.46
11
122.352
21
-144.174
0
LINE
8
Black
10
122.352
20
-144.174
11
122.209
21
-144.746
0
LINE
8
Black
10
122.209
20
-144.746
11
122.066
21
-145.031
0
LINE
8
Black
10
122.066
20
-145.031
11
121.923
21
-145.174
0
LINE
8
Black
10
121.923
20
-145.174
11
121.637
21
-145.317
0
LINE
8
Black
10
121.637
20
-145.317
11
121.352
21
-145.317
0
LINE
8
Black
10
121.352
20
-145.317
11
121.066
21
-145.174
0
LINE
8
Black
10
121.066
20
-145.174
11
120.923
21
-145.031
0
LINE
8
Black
10
120.923
20
-145.031
11
120.78
21
-144.746
0
LINE
8
Black
10
120.78
20
-144.746
11
120.637
21
-144.174
0
LINE
8
Black
10
120.637
20
-144.174
11
120.637
21
-143.46
0
LINE
8
Black
10
120.637
20
-143.46
11
120.78
21
-142.889
0
LINE
8
Black
10
120.78
20
-142.889
11
120.923
21
-142.603
0
LINE
8
Black
10
120.923
20
-142.603
11
121.066
21
-142.46
0
LINE
8
Black
10
121.066
20
-142.46
11
121.352
21
-142.317
0
LINE
8
Black
10
123.637
20
-145.317
11
123.637
21
-143.317
0
LINE
8
Black
10
123.637
20
-143.603
11
123.78
21
-143.46
0
LINE
8
Black
10
123.78
20
-143.46
11
124.066
21
-143.317
0
LINE
8
Black
10
124.066
20
-143.317
11
124.494
21
-143.317
0
LINE
8
Black
10
124.494
20
-143.317
11
124.78
21
-143.46
0
LINE
8
Black
10
124.78
20
-143.46
11
124.923
21
-143.746
0
LINE
8
Black
10
124.923
20
-143.746
11
124.923
21
-145.317
0
LINE
8
Black
10
124.923
20
-143.746
11
125.066
21
-143.46
0
LINE
8
Black
10
125.066
20
-143.46
11
125.352
21
-143.317
0
LINE
8
Black
10
125.352
20
-143.317
11
125.78
21
-143.317
0
LINE
8
Black
10
125.78
20
-143.317
11
126.066
21
-143.46
0
LINE
8
Black
10
126.066
20
-143.46
11
126.209
21
-143.746
0
LINE
8
Black
10
126.209
20
-143.746
11
126.209
21
-145.317
0
LINE
8
Black
10
127.637
20
-145.317
11
127.637
21
-143.317
0
LINE
8
Black
10
127.637
20
-143.603
11
127.78
21
-143.46
0
LINE
8
Black
10
127.78
20
-143.46
11
128.066
21
-143.317
0
LINE
8
Black
10
128.066
20
-143.317
11
128.494
21
-143.317
0
LINE
8
Black
10
128.494
20
-143.317
11
128.78
21
-143.46
0
LINE
8
Black
10
128.78
20
-143.46
11
128.923
21
-143.746
0
LINE
8
Black
10
128.923
20
-143.746
11
128.923
21
-145.317
0
LINE
8
Black
10
128.923
20
-143.746
11
129.066
21
-143.46
0
LINE
8
Black
10
129.066
20
-143.46
11
129.352
21
-143.317
0
LINE
8
Black
10
129.352
20
-143.317
11
129.78
21
-143.317
0
LINE
8
Black
10
129.78
20
-143.317
11
130.066
21
-143.46
0
LINE
8
Black
10
130.066
20
-143.46
11
130.209
21
-143.746
0
LINE
8
Black
10
130.209
20
-143.746
11
130.209
21
-145.317
0
LINE
8
Black
10
136.066
20
-142.174
11
133.494
21
-146.031
0
LINE
8
Black
10
139.923
20
-142.317
11
140.209
21
-142.317
0
LINE
8
Black
10
140.209
20
-142.317
11
140.494
21
-142.46
0
LINE
8
Black
10
140.494
20
-142.46
11
140.637
21
-142.603
0
LINE
8
Black
10
140.637
20
-142.603
11
140.78
21
-142.889
0
LINE
8
Black
10
140.78
20
-142.889
11
140.923
21
-143.46
0
LINE
8
Black
10
140.923
20
-143.46
11
140.923
21
-144.174
0
LINE
8
Black
10
140.923
20
-144.174
11
140.78
21
-144.746
0
LINE
8
Black
10
140.78
20
-144.746
11
140.637
21
-145.031
0
LINE
8
Black
10
140.637
20
-145.031
11
140.494
21
-145.174
0
LINE
8
Black
10
140.494
20
-145.174
11
140.209
21
-145.317
0
LINE
8
Black
10
140.209
20
-145.317
11
139.923
21
-145.317
0
LINE
8
Black
10
139.923
20
-145.317
11
139.637
21
-145.174
0
LINE
8
Black
10
139.637
20
-145.174
11
139.494
21
-145.031
0
LINE
8
Black
10
139.494
20
-145.031
11
139.352
21
-144.746
0
LINE
8
Black
10
139.352
20
-144.746
11
139.209
21
-144.174
0
LINE
8
Black
10
139.209
20
-144.174
11
139.209
21
-143.46
0
LINE
8
Black
10
139.209
20
-143.46
11
139.352
21
-142.889
0
LINE
8
Black
10
139.352
20
-142.889
11
139.494
21
-142.603
0
LINE
8
Black
10
139.494
20
-142.603
11
139.637
21
-142.46
0
LINE
8
Black
10
139.637
20
-142.46
11
139.923
21
-142.317
0
LINE
8
Black
10
142.209
20
-145.031
11
142.352
21
-145.174
0
LINE
8
Black
10
142.352
20
-145.174
11
142.209
21
-145.317
0
LINE
8
Black
10
142.209
20
-145.317
11
142.066
21
-145.174
0
LINE
8
Black
10
142.066
20
-145.174
11
142.209
21
-145.031
0
LINE
8
Black
10
142.209
20
-145.031
11
142.209
21
-145.317
0
LINE
8
Black
10
144.209
20
-142.317
11
144.494
21
-142.317
0
LINE
8
Black
10
144.494
20
-142.317
11
144.78
21
-142.46
0
LINE
8
Black
10
144.78
20
-142.46
11
144.923
21
-142.603
0
LINE
8
Black
10
144.923
20
-142.603
11
145.066
21
-142.889
0
LINE
8
Black
10
145.066
20
-142.889
11
145.209
21
-143.46
0
LINE
8
Black
10
145.209
20
-143.46
11
145.209
21
-144.174
0
LINE
8
Black
10
145.209
20
-144.174
11
145.066
21
-144.746
0
LINE
8
Black
10
145.066
20
-144.746
11
144.923
21
-145.031
0
LINE
8
Black
10
144.923
20
-145.031
11
144.78
21
-145.174
0
LINE
8
Black
10
144.78
20
-145.174
11
144.494
21
-145.317
0
LINE
8
Black
10
144.494
20
-145.317
11
144.209
21
-145.317
0
LINE
8
Black
10
144.209
20
-145.317
11
143.923
21
-145.174
0
LINE
8
Black
10
143.923
20
-145.174
11
143.78
21
-145.031
0
LINE
8
Black
10
143.78
20
-145.031
11
143.637
21
-144.746
0
LINE
8
Black
10
143.637
20
-144.746
11
143.494
21
-144.174
0
LINE
8
Black
10
143.494
20
-144.174
11
143.494
21
-143.46
0
LINE
8
Black
10
143.494
20
-143.46
11
143.637
21
-142.889
0
LINE
8
Black
10
143.637
20
-142.889
11
143.78
21
-142.603
0
LINE
8
Black
10
143.78
20
-142.603
11
143.923
21
-142.46
0
LINE
8
Black
10
143.923
20
-142.46
11
144.209
21
-142.317
0
LINE
8
Black
10
147.78
20
-143.317
11
147.78
21
-145.317
0
LINE
8
Black
10
147.066
20
-142.174
11
146.352
21
-144.317
0
LINE
8
Black
10
146.352
20
-144.317
11
148.209
21
-144.317
0
LINE
8
Black
10
149.066
20
-142.317
11
150.923
21
-142.317
0
LINE
8
Black
10
150.923
20
-142.317
11
149.923
21
-143.46
0
LINE
8
Black
10
149.923
20
-143.46
11
150.352
21
-143.46
0
LINE
8
Black
10
150.352
20
-143.46
11
150.637
21
-143.603
0
LINE
8
Black
10
150.637
20
-143.603
11
150.78
21
-143.746
0
LINE
8
Black
10
150.78
20
-143.746
11
150.923
21
-144.031
0
LINE
8
Black
10
150.923
20
-144.031
11
150.923
21
-144.746
0
LINE
8
Black
10
150.923
20
-144.746
11
150.78
21
-145.031
0
LINE
8
Black
10
150.78
20
-145.031
11
150.637
21
-145.174
0
LINE
8
Black
10
150.637
20
-145.174
11
150.352
21
-145.317
0
LINE
8
Black
10
150.352
20
-145.317
11
149.494
21
-145.317
0
LINE
8
Black
10
149.494
20
-145.317
11
149.209
21
-145.174
0
LINE
8
Black
10
149.209
20
-145.174
11
149.066
21
-145.031
0
LINE
8
Black
10
152.066
20
-142.317
11
152.066
21
-142.889
0
LINE
8
Black
10
153.209
20
-142.317
11
153.209
21
-142.889
0
LINE
8
Black
10
157.637
20
-146.46
11
157.494
21
-146.317
0
LINE
8
Black
10
157.494
20
-146.317
11
157.209
21
-145.889
0
LINE
8
Black
10
157.209
20
-145.889
11
157.066
21
-145.603
0
LINE
8
Black
10
157.066
20
-145.603
11
156.923
21
-145.174
0
LINE
8
Black
10
156.923
20
-145.174
11
156.78
21
-144.46
0
LINE
8
Black
10
156.78
20
-144.46
11
156.78
21
-143.889
0
LINE
8
Black
10
156.78
20
-143.889
11
156.923
21
-143.174
0
LINE
8
Black
10
156.923
20
-143.174
11
157.066
21
-142.746
0
LINE
8
Black
10
157.066
20
-142.746
11
157.209
21
-142.46
0
LINE
8
Black
10
157.209
20
-142.46
11
157.494
21
-142.031
0
LINE
8
Black
10
157.494
20
-142.031
11
157.637
21
-141.889
0
LINE
8
Black
10
160.066
20
-143.317
11
160.066
21
-145.317
0
LINE
8
Black
10
159.352
20
-142.174
11
158.637
21
-144.317
0
LINE
8
Black
10
158.637
20
-144.317
11
160.494
21
-144.317
0
LINE
8
Black
10
163.923
20
-145.317
11
163.923
21
-142.317
0
LINE
8
Black
10
165.209
20
-145.317
11
165.209
21
-143.746
0
LINE
8
Black
10
165.209
20
-143.746
11
165.066
21
-143.46
0
LINE
8
Black
10
165.066
20
-143.46
11
164.78
21
-143.317
0
LINE
8
Black
10
164.78
20
-143.317
11
164.352
21
-143.317
0
LINE
8
Black
10
164.352
20
-143.317
11
164.066
21
-143.46
0
LINE
8
Black
10
164.066
20
-143.46
11
163.923
21
-143.603
0
LINE
8
Black
10
167.066
20
-145.317
11
166.78
21
-145.174
0
LINE
8
Black
10
166.78
20
-145.174
11
166.637
21
-145.031
0
LINE
8
Black
10
166.637
20
-145.031
11
166.494
21
-144.746
0
LINE
8
Black
10
166.494
20
-144.746
11
166.494
21
-143.889
0
LINE
8
Black
10
166.494
20
-143.889
11
166.637
21
-143.603
0
LINE
8
Black
10
166.637
20
-143.603
11
166.78
21
-143.46
0
LINE
8
Black
10
166.78
20
-143.46
11
167.066
21
-143.317
0
LINE
8
Black
10
167.066
20
-143.317
11
167.494
21
-143.317
0
LINE
8
Black
10
167.494
20
-143.317
11
167.78
21
-143.46
0
LINE
8
Black
10
167.78
20
-143.46
11
167.923
21
-143.603
0
LINE
8
Black
10
167.923
20
-143.603
11
168.066
21
-143.889
0
LINE
8
Black
10
168.066
20
-143.889
11
168.066
21
-144.746
0
LINE
8
Black
10
168.066
20
-144.746
11
167.923
21
-145.031
0
LINE
8
Black
10
167.923
20
-145.031
11
167.78
21
-145.174
0
LINE
8
Black
10
167.78
20
-145.174
11
167.494
21
-145.317
0
LINE
8
Black
10
167.494
20
-145.317
11
167.066
21
-145.317
0
LINE
8
Black
10
169.78
20
-145.317
11
169.494
21
-145.174
0
LINE
8
Black
10
169.494
20
-145.174
11
169.352
21
-144.889
0
LINE
8
Black
10
169.352
20
-144.889
11
169.352
21
-142.317
0
LINE
8
Black
10
172.066
20
-145.174
11
171.78
21
-145.317
0
LINE
8
Black
10
171.78
20
-145.317
11
171.209
21
-145.317
0
LINE
8
Black
10
171.209
20
-145.317
11
170.923
21
-145.174
0
LINE
8
Black
10
170.923
20
-145.174
11
170.78
21
-144.889
0
LINE
8
Black
10
170.78
20
-144.889
11
170.78
21
-143.746
0
LINE
8
Black
10
170.78
20
-143.746
11
170.923
21
-143.46
0
LINE
8
Black
10
170.923
20
-143.46
11
171.209
21
-143.317
0
LINE
8
Black
10
171.209
20
-143.317
11
171.78
21
-143.317
0
LINE
8
Black
10
171.78
20
-143.317
11
172.066
21
-143.46
0
LINE
8
Black
10
172.066
20
-143.46
11
172.209
21
-143.746
0
LINE
8
Black
10
172.209
20
-143.746
11
172.209
21
-144.031
0
LINE
8
Black
10
172.209
20
-144.031
11
170.78
21
-144.317
0
LINE
8
Black
10
173.352
20
-145.174
11
173.637
21
-145.317
0
LINE
8
Black
10
173.637
20
-145.317
11
174.209
21
-145.317
0
LINE
8
Black
10
174.209
20
-145.317
11
174.494
21
-145.174
0
LINE
8
Black
10
174.494
20
-145.174
11
174.637
21
-144.889
0
LINE
8
Black
10
174.637
20
-144.889
11
174.637
21
-144.746
0
LINE
8
Black
10
174.637
20
-144.746
11
174.494
21
-144.46
0
LINE
8
Black
10
174.494
20
-144.46
11
174.209
21
-144.317
0
LINE
8
Black
10
174.209
20
-144.317
11
173.78
21
-144.317
0
LINE
8
Black
10
173.78
20
-144.317
11
173.494
21
-144.174
0
LINE
8
Black
10
173.494
20
-144.174
11
173.352
21
-143.889
0
LINE
8
Black
10
173.352
20
-143.889
11
173.352
21
-143.746
0
LINE
8
Black
10
173.352
20
-143.746
11
173.494
21
-143.46
0
LINE
8
Black
10
173.494
20
-143.46
11
173.78
21
-143.317
0
LINE
8
Black
10
173.78
20
-143.317
11
174.209
21
-143.317
0
LINE
8
Black
10
174.209
20
-143.317
11
174.494
21
-143.46
0
LINE
8
Black
10
175.637
20
-146.46
11
175.78
21
-146.317
0
LINE
8
Black
10
175.78
20
-146.317
11
176.066
21
-145.889
0
LINE
8
Black
10
176.066
20
-145.889
11
176.209
21
-145.603
0
LINE
8
Black
10
176.209
20
-145.603
11
176.352
21
-145.174
0
LINE
8
Black
10
176.352
20
-145.174
11
176.494
21
-144.46
0
LINE
8
Black
10
176.494
20
-144.46
11
176.494
21
-143.889
0
LINE
8
Black
10
176.494
20
-143.889
11
176.352
21
-143.174
0
LINE
8
Black
10
176.352
20
-143.174
11
176.209
21
-142.746
0
LINE
8
Black
10
176.209
20
-142.746
11
176.066
21
-142.46
0
LINE
8
Black
10
176.066
20
-142.46
11
175.78
21
-142.031
0
LINE
8
Black
10
175.78
20
-142.031
11
175.637
21
-141.889
0
LINE
8
Black
10
110.747
20
-148.344
11
110.747
21
-147.496
0
LINE
8
Black
10
110.747
20
-147.496
11
109.899
21
-147.496
0
LINE
8
Black
10
109.899
20
-147.496
11
109.899
21
-148.344
0
LINE
8
Black
10
109.899
20
-148.344
11
110.747
21
-148.344
0
LINE
8
Black
10
115.209
20
-149.277
11
113.494
21
-149.277
0
LINE
8
Black
10
114.352
20
-149.277
11
114.352
21
-146.277
0
LINE
8
Black
10
114.352
20
-146.277
11
114.066
21
-146.706
0
LINE
8
Black
10
114.066
20
-146.706
11
113.78
21
-146.991
0
LINE
8
Black
10
113.78
20
-146.991
11
113.494
21
-147.134
0
LINE
8
Black
10
116.494
20
-148.991
11
116.637
21
-149.134
0
LINE
8
Black
10
116.637
20
-149.134
11
116.494
21
-149.277
0
LINE
8
Black
10
116.494
20
-149.277
11
116.352
21
-149.134
0
LINE
8
Black
10
116.352
20
-149.134
11
116.494
21
-148.991
0
LINE
8
Black
10
116.494
20
-148.991
11
116.494
21
-149.277
0
LINE
8
Black
10
117.78
20
-146.563
11
117.923
21
-146.42
0
LINE
8
Black
10
117.923
20
-146.42
11
118.209
21
-146.277
0
LINE
8
Black
10
118.209
20
-146.277
11
118.923
21
-146.277
0
LINE
8
Black
10
118.923
20
-146.277
11
119.209
21
-146.42
0
LINE
8
Black
10
119.209
20
-146.42
11
119.352
21
-146.563
0
LINE
8
Black
10
119.352
20
-146.563
11
119.494
21
-146.849
0
LINE
8
Black
10
119.494
20
-146.849
11
119.494
21
-147.134
0
LINE
8
Black
10
119.494
20
-147.134
11
119.352
21
-147.563
0
LINE
8
Black
10
119.352
20
-147.563
11
117.637
21
-149.277
0
LINE
8
Black
10
117.637
20
-149.277
11
119.494
21
-149.277
0
LINE
8
Black
10
121.352
20
-146.277
11
121.637
21
-146.277
0
LINE
8
Black
10
121.637
20
-146.277
11
121.923
21
-146.42
0
LINE
8
Black
10
121.923
20
-146.42
11
122.066
21
-146.563
0
LINE
8
Black
10
122.066
20
-146.563
11
122.209
21
-146.849
0
LINE
8
Black
10
122.209
20
-146.849
11
122.352
21
-147.42
0
LINE
8
Black
10
122.352
20
-147.42
11
122.352
21
-148.134
0
LINE
8
Black
10
122.352
20
-148.134
11
122.209
21
-148.706
0
LINE
8
Black
10
122.209
20
-148.706
11
122.066
21
-148.991
0
LINE
8
Black
10
122.066
20
-148.991
11
121.923
21
-149.134
0
LINE
8
Black
10
121.923
20
-149.134
11
121.637
21
-149.277
0
LINE
8
Black
10
121.637
20
-149.277
11
121.352
21
-149.277
0
LINE
8
Black
10
121.352
20
-149.277
11
121.066
21
-149.134
0
LINE
8
Black
10
121.066
20
-149.134
11
120.923
21
-148.991
0
LINE
8
Black
10
120.923
20
-148.991
11
120.78
21
-148.706
0
LINE
8
Black
10
120.78
20
-148.706
11
120.637
21
-148.134
0
LINE
8
Black
10
120.637
20
-148.134
11
120.637
21
-147.42
0
LINE
8
Black
10
120.637
20
-147.42
11
120.78
21
-146.849
0
LINE
8
Black
10
120.78
20
-146.849
11
120.923
21
-146.563
0
LINE
8
Black
10
120.923
20
-146.563
11
121.066
21
-146.42
0
LINE
8
Black
10
121.066
20
-146.42
11
121.352
21
-146.277
0
LINE
8
Black
10
123.637
20
-149.277
11
123.637
21
-147.277
0
LINE
8
Black
10
123.637
20
-147.563
11
123.78
21
-147.42
0
LINE
8
Black
10
123.78
20
-147.42
11
124.066
21
-147.277
0
LINE
8
Black
10
124.066
20
-147.277
11
124.494
21
-147.277
0
LINE
8
Black
10
124.494
20
-147.277
11
124.78
21
-147.42
0
LINE
8
Black
10
124.78
20
-147.42
11
124.923
21
-147.706
0
LINE
8
Black
10
124.923
20
-147.706
11
124.923
21
-149.277
0
LINE
8
Black
10
124.923
20
-147.706
11
125.066
21
-147.42
0
LINE
8
Black
10
125.066
20
-147.42
11
125.352
21
-147.277
0
LINE
8
Black
10
125.352
20
-147.277
11
125.78
21
-147.277
0
LINE
8
Black
10
125.78
20
-147.277
11
126.066
21
-147.42
0
LINE
8
Black
10
126.066
20
-147.42
11
126.209
21
-147.706
0
LINE
8
Black
10
126.209
20
-147.706
11
126.209
21
-149.277
0
LINE
8
Black
10
127.637
20
-149.277
11
127.637
21
-147.277
0
LINE
8
Black
10
127.637
20
-147.563
11
127.78
21
-147.42
0
LINE
8
Black
10
127.78
20
-147.42
11
128.066
21
-147.277
0
LINE
8
Black
10
128.066
20
-147.277
11
128.494
21
-147.277
0
LINE
8
Black
10
128.494
20
-147.277
11
128.78
21
-147.42
0
LINE
8
Black
10
128.78
20
-147.42
11
128.923
21
-147.706
0
LINE
8
Black
10
128.923
20
-147.706
11
128.923
21
-149.277
0
LINE
8
Black
10
128.923
20
-147.706
11
129.066
21
-147.42
0
LINE
8
Black
10
129.066
20
-147.42
11
129.352
21
-147.277
0
LINE
8
Black
10
129.352
20
-147.277
11
129.78
21
-147.277
0
LINE
8
Black
10
129.78
20
-147.277
11
130.066
21
-147.42
0
LINE
8
Black
10
130.066
20
-147.42
11
130.209
21
-147.706
0
LINE
8
Black
10
130.209
20
-147.706
11
130.209
21
-149.277
0
LINE
8
Black
10
136.066
20
-146.134
11
133.494
21
-149.991
0
LINE
8
Black
10
139.923
20
-146.277
11
140.209
21
-146.277
0
LINE
8
Black
10
140.209
20
-146.277
11
140.494
21
-146.42
0
LINE
8
Black
10
140.494
20
-146.42
11
140.637
21
-146.563
0
LINE
8
Black
10
140.637
20
-146.563
11
140.78
21
-146.849
0
LINE
8
Black
10
140.78
20
-146.849
11
140.923
21
-147.42
0
LINE
8
Black
10
140.923
20
-147.42
11
140.923
21
-148.134
0
LINE
8
Black
10
140.923
20
-148.134
11
140.78
21
-148.706
0
LINE
8
Black
10
140.78
20
-148.706
11
140.637
21
-148.991
0
LINE
8
Black
10
140.637
20
-148.991
11
140.494
21
-149.134
0
LINE
8
Black
10
140.494
20
-149.134
11
140.209
21
-149.277
0
LINE
8
Black
10
140.209
20
-149.277
11
139.923
21
-149.277
0
LINE
8
Black
10
139.923
20
-149.277
11
139.637
21
-149.134
0
LINE
8
Black
10
139.637
20
-149.134
11
139.494
21
-148.991
0
LINE
8
Black
10
139.494
20
-148.991
11
139.352
21
-148.706
0
LINE
8
Black
10
139.352
20
-148.706
11
139.209
21
-148.134
0
LINE
8
Black
10
139.209
20
-148.134
11
139.209
21
-147.42
0
LINE
8
Black
10
139.209
20
-147.42
11
139.352
21
-146.849
0
LINE
8
Black
10
139.352
20
-146.849
11
139.494
21
-146.563
0
LINE
8
Black
10
139.494
20
-146.563
11
139.637
21
-146.42
0
LINE
8
Black
10
139.637
20
-146.42
11
139.923
21
-146.277
0
LINE
8
Black
10
142.209
20
-148.991
11
142.352
21
-149.134
0
LINE
8
Black
10
142.352
20
-149.134
11
142.209
21
-149.277
0
LINE
8
Black
10
142.209
20
-149.277
11
142.066
21
-149.134
0
LINE
8
Black
10
142.066
20
-149.134
11
142.209
21
-148.991
0
LINE
8
Black
10
142.209
20
-148.991
11
142.209
21
-149.277
0
LINE
8
Black
10
144.209
20
-146.277
11
144.494
21
-146.277
0
LINE
8
Black
10
144.494
20
-146.277
11
144.78
21
-146.42
0
LINE
8
Black
10
144.78
20
-146.42
11
144.923
21
-146.563
0
LINE
8
Black
10
144.923
20
-146.563
11
145.066
21
-146.849
0
LINE
8
Black
10
145.066
20
-146.849
11
145.209
21
-147.42
0
LINE
8
Black
10
145.209
20
-147.42
11
145.209
21
-148.134
0
LINE
8
Black
10
145.209
20
-148.134
11
145.066
21
-148.706
0
LINE
8
Black
10
145.066
20
-148.706
11
144.923
21
-148.991
0
LINE
8
Black
10
144.923
20
-148.991
11
144.78
21
-149.134
0
LINE
8
Black
10
144.78
20
-149.134
11
144.494
21
-149.277
0
LINE
8
Black
10
144.494
20
-149.277
11
144.209
21
-149.277
0
LINE
8
Black
10
144.209
20
-149.277
11
143.923
21
-149.134
0
LINE
8
Black
10
143.923
20
-149.134
11
143.78
21
-148.991
0
LINE
8
Black
10
143.78
20
-148.991
11
143.637
21
-148.706
0
LINE
8
Black
10
143.637
20
-148.706
11
143.494
21
-148.134
0
LINE
8
Black
10
143.494
20
-148.134
11
143.494
21
-147.42
0
LINE
8
Black
10
143.494
20
-147.42
11
143.637
21
-146.849
0
LINE
8
Black
10
143.637
20
-146.849
11
143.78
21
-146.563
0
LINE
8
Black
10
143.78
20
-146.563
11
143.923
21
-146.42
0
LINE
8
Black
10
143.923
20
-146.42
11
144.209
21
-146.277
0
LINE
8
Black
10
147.78
20
-147.277
11
147.78
21
-149.277
0
LINE
8
Black
10
147.066
20
-146.134
11
146.352
21
-148.277
0
LINE
8
Black
10
146.352
20
-148.277
11
148.209
21
-148.277
0
LINE
8
Black
10
149.066
20
-146.277
11
151.066
21
-146.277
0
LINE
8
Black
10
151.066
20
-146.277
11
149.78
21
-149.277
0
LINE
8
Black
10
152.066
20
-146.277
11
152.066
21
-146.849
0
LINE
8
Black
10
153.209
20
-146.277
11
153.209
21
-146.849
0
LINE
8
Black
10
157.637
20
-150.42
11
157.494
21
-150.277
0
LINE
8
Black
10
157.494
20
-150.277
11
157.209
21
-149.849
0
LINE
8
Black
10
157.209
20
-149.849
11
157.066
21
-149.563
0
LINE
8
Black
10
157.066
20
-149.563
11
156.923
21
-149.134
0
LINE
8
Black
10
156.923
20
-149.134
11
156.78
21
-148.42
0
LINE
8
Black
10
156.78
20
-148.42
11
156.78
21
-147.849
0
LINE
8
Black
10
156.78
20
-147.849
11
156.923
21
-147.134
0
LINE
8
Black
10
156.923
20
-147.134
11
157.066
21
-146.706
0
LINE
8
Black
10
157.066
20
-146.706
11
157.209
21
-146.42
0
LINE
8
Black
10
157.209
20
-146.42
11
157.494
21
-145.991
0
LINE
8
Black
10
157.494
20
-145.991
11
157.637
21
-145.849
0
LINE
8
Black
10
158.637
20
-146.563
11
158.78
21
-146.42
0
LINE
8
Black
10
158.78
20
-146.42
11
159.066
21
-146.277
0
LINE
8
Black
10
159.066
20
-146.277
11
159.78
21
-146.277
0
LINE
8
Black
10
159.78
20
-146.277
11
160.066
21
-146.42
0
LINE
8
Black
10
160.066
20
-146.42
11
160.209
21
-146.563
0
LINE
8
Black
10
160.209
20
-146.563
11
160.352
21
-146.849
0
LINE
8
Black
10
160.352
20
-146.849
11
160.352
21
-147.134
0
LINE
8
Black
10
160.352
20
-147.134
11
160.209
21
-147.563
0
LINE
8
Black
10
160.209
20
-147.563
11
158.494
21
-149.277
0
LINE
8
Black
10
158.494
20
-149.277
11
160.352
21
-149.277
0
LINE
8
Black
10
162.209
20
-146.277
11
162.494
21
-146.277
0
LINE
8
Black
10
162.494
20
-146.277
11
162.78
21
-146.42
0
LINE
8
Black
10
162.78
20
-146.42
11
162.923
21
-146.563
0
LINE
8
Black
10
162.923
20
-146.563
11
163.066
21
-146.849
0
LINE
8
Black
10
163.066
20
-146.849
11
163.209
21
-147.42
0
LINE
8
Black
10
163.209
20
-147.42
11
163.209
21
-148.134
0
LINE
8
Black
10
163.209
20
-148.134
11
163.066
21
-148.706
0
LINE
8
Black
10
163.066
20
-148.706
11
162.923
21
-148.991
0
LINE
8
Black
10
162.923
20
-148.991
11
162.78
21
-149.134
0
LINE
8
Black
10
162.78
20
-149.134
11
162.494
21
-149.277
0
LINE
8
Black
10
162.494
20
-149.277
11
162.209
21
-149.277
0
LINE
8
Black
10
162.209
20
-149.277
11
161.923
21
-149.134
0
LINE
8
Black
10
161.923
20
-149.134
11
161.78
21
-148.991
0
LINE
8
Black
10
161.78
20
-148.991
11
161.637
21
-148.706
0
LINE
8
Black
10
161.637
20
-148.706
11
161.494
21
-148.134
0
LINE
8
Black
10
161.494
20
-148.134
11
161.494
21
-147.42
0
LINE
8
Black
10
161.494
20
-147.42
11
161.637
21
-146.849
0
LINE
8
Black
10
161.637
20
-146.849
11
161.78
21
-146.563
0
LINE
8
Black
10
161.78
20
-146.563
11
161.923
21
-146.42
0
LINE
8
Black
10
161.923
20
-146.42
11
162.209
21
-146.277
0
LINE
8
Black
10
166.78
20
-149.277
11
166.78
21
-146.277
0
LINE
8
Black
10
168.066
20
-149.277
11
168.066
21
-147.706
0
LINE
8
Black
10
168.066
20
-147.706
11
167.923
21
-147.42
0
LINE
8
Black
10
167.923
20
-147.42
11
167.637
21
-147.277
0
LINE
8
Black
10
167.637
20
-147.277
11
167.209
21
-147.277
0
LINE
8
Black
10
167.209
20
-147.277
11
166.923
21
-147.42
0
LINE
8
Black
10
166.923
20
-147.42
11
166.78
21
-147.563
0
LINE
8
Black
10
169.923
20
-149.277
11
169.637
21
-149.134
0
LINE
8
Black
10
169.637
20
-149.134
11
169.494
21
-148.991
0
LINE
8
Black
10
169.494
20
-148.991
11
169.352
21
-148.706
0
LINE
8
Black
10
169.352
20
-148.706
11
169.352
21
-147.849
0
LINE
8
Black
10
169.352
20
-147.849
11
169.494
21
-147.563
0
LINE
8
Black
10
169.494
20
-147.563
11
169.637
21
-147.42
0
LINE
8
Black
10
169.637
20
-147.42
11
169.923
21
-147.277
0
LINE
8
Black
10
169.923
20
-147.277
11
170.352
21
-147.277
0
LINE
8
Black
10
170.352
20
-147.277
11
170.637
21
-147.42
0
LINE
8
Black
10
170.637
20
-147.42
11
170.78
21
-147.563
0
LINE
8
Black
10
170.78
20
-147.563
11
170.923
21
-147.849
0
LINE
8
Black
10
170.923
20
-147.849
11
170.923
21
-148.706
0
LINE
8
Black
10
170.923
20
-148.706
11
170.78
21
-148.991
0
LINE
8
Black
10
170.78
20
-148.991
11
170.637
21
-149.134
0
LINE
8
Black
10
170.637
20
-149.134
11
170.352
21
-149.277
0
LINE
8
Black
10
170.352
20
-149.277
11
169.923
21
-149.277
0
LINE
8
Black
10
172.637
20
-149.277
11
172.352
21
-149.134
0
LINE
8
Black
10
172.352
20
-149.134
11
172.209
21
-148.849
0
LINE
8
Black
10
172.209
20
-148.849
11
172.209
21
-146.277
0
LINE
8
Black
10
174.923
20
-149.134
11
174.637
21
-149.277
0
LINE
8
Black
10
174.637
20
-149.277
11
174.066
21
-149.277
0
LINE
8
Black
10
174.066
20
-149.277
11
173.78
21
-149.134
0
LINE
8
Black
10
173.78
20
-149.134
11
173.637
21
-148.849
0
LINE
8
Black
10
173.637
20
-148.849
11
173.637
21
-147.706
0
LINE
8
Black
10
173.637
20
-147.706
11
173.78
21
-147.42
0
LINE
8
Black
10
173.78
20
-147.42
11
174.066
21
-147.277
0
LINE
8
Black
10
174.066
20
-147.277
11
174.637
21
-147.277
0
LINE
8
Black
10
174.637
20
-147.277
11
174.923
21
-147.42
0
LINE
8
Black
10
174.923
20
-147.42
11
175.066
21
-147.706
0
LINE
8
Black
10
175.066
20
-147.706
11
175.066
21
-147.991
0
LINE
8
Black
10
175.066
20
-147.991
11
173.637
21
-148.277
0
LINE
8
Black
10
176.209
20
-149.134
11
176.494
21
-149.277
0
LINE
8
Black
10
176.494
20
-149.277
11
177.066
21
-149.277
0
LINE
8
Black
10
177.066
20
-149.277
11
177.352
21
-149.134
0
LINE
8
Black
10
177.352
20
-149.134
11
177.494
21
-148.849
0
LINE
8
Black
10
177.494
20
-148.849
11
177.494
21
-148.706
0
LINE
8
Black
10
177.494
20
-148.706
11
177.352
21
-148.42
0
LINE
8
Black
10
177.352
20
-148.42
11
177.066
21
-148.277
0
LINE
8
Black
10
177.066
20
-148.277
11
176.637
21
-148.277
0
LINE
8
Black
10
176.637
20
-148.277
11
176.352
21
-148.134
0
LINE
8
Black
10
176.352
20
-148.134
11
176.209
21
-147.849
0
LINE
8
Black
10
176.209
20
-147.849
11
176.209
21
-147.706
0
LINE
8
Black
10
176.209
20
-147.706
11
176.352
21
-147.42
0
LINE
8
Black
10
176.352
20
-147.42
11
176.637
21
-147.277
0
LINE
8
Black
10
176.637
20
-147.277
11
177.066
21
-147.277
0
LINE
8
Black
10
177.066
20
-147.277
11
177.352
21
-147.42
0
LINE
8
Black
10
178.494
20
-150.42
11
178.637
21
-150.277
0
LINE
8
Black
10
178.637
20
-150.277
11
178.923
21
-149.849
0
LINE
8
Black
10
178.923
20
-149.849
11
179.066
21
-149.563
0
LINE
8
Black
10
179.066
20
-149.563
11
179.209
21
-149.134
0
LINE
8
Black
10
179.209
20
-149.134
11
179.352
21
-148.42
0
LINE
8
Black
10
179.352
20
-148.42
11
179.352
21
-147.849
0
LINE
8
Black
10
179.352
20
-147.849
11
179.209
21
-147.134
0
LINE
8
Black
10
179.209
20
-147.134
11
179.066
21
-146.706
0
LINE
8
Black
10
179.066
20
-146.706
11
178.923
21
-146.42
0
LINE
8
Black
10
178.923
20
-146.42
11
178.637
21
-145.991
0
LINE
8
Black
10
178.637
20
-145.991
11
178.494
21
-145.849
0
LINE
8
Black
10
110.161
20
-152.642
11
110.923
21
-151.88
0
LINE
8
Black
10
110.923
20
-151.88
11
110.161
21
-151.118
0
LINE
8
Black
10
110.161
20
-151.118
11
109.399
21
-151.88
0
LINE
8
Black
10
109.399
20
-151.88
11
110.161
21
-152.642
0
LINE
8
Black
10
115.209
20
-153.237
11
113.494
21
-153.237
0
LINE
8
Black
10
114.352
20
-153.237
11
114.352
21
-150.237
0
LINE
8
Black
10
114.352
20
-150.237
11
114.066
21
-150.666
0
LINE
8
Black
10
114.066
20
-150.666
11
113.78
21
-150.951
0
LINE
8
Black
10
113.78
20
-150.951
11
113.494
21
-151.094
0
LINE
8
Black
10
116.494
20
-152.951
11
116.637
21
-153.094
0
LINE
8
Black
10
116.637
20
-153.094
11
116.494
21
-153.237
0
LINE
8
Black
10
116.494
20
-153.237
11
116.352
21
-153.094
0
LINE
8
Black
10
116.352
20
-153.094
11
116.494
21
-152.951
0
LINE
8
Black
10
116.494
20
-152.951
11
116.494
21
-153.237
0
LINE
8
Black
10
119.352
20
-150.237
11
117.923
21
-150.237
0
LINE
8
Black
10
117.923
20
-150.237
11
117.78
21
-151.666
0
LINE
8
Black
10
117.78
20
-151.666
11
117.923
21
-151.523
0
LINE
8
Black
10
117.923
20
-151.523
11
118.209
21
-151.38
0
LINE
8
Black
10
118.209
20
-151.38
11
118.923
21
-151.38
0
LINE
8
Black
10
118.923
20
-151.38
11
119.209
21
-151.523
0
LINE
8
Black
10
119.209
20
-151.523
11
119.352
21
-151.666
0
LINE
8
Black
10
119.352
20
-151.666
11
119.494
21
-151.951
0
LINE
8
Black
10
119.494
20
-151.951
11
119.494
21
-152.666
0
LINE
8
Black
10
119.494
20
-152.666
11
119.352
21
-152.951
0
LINE
8
Black
10
119.352
20
-152.951
11
119.209
21
-153.094
0
LINE
8
Black
10
119.209
20
-153.094
11
118.923
21
-153.237
0
LINE
8
Black
10
118.923
20
-153.237
11
118.209
21
-153.237
0
LINE
8
Black
10
118.209
20
-153.237
11
117.923
21
-153.094
0
LINE
8
Black
10
117.923
20
-153.094
11
117.78
21
-152.951
0
LINE
8
Black
10
120.637
20
-150.523
11
120.78
21
-150.38
0
LINE
8
Black
10
120.78
20
-150.38
11
121.066
21
-150.237
0
LINE
8
Black
10
121.066
20
-150.237
11
121.78
21
-150.237
0
LINE
8
Black
10
121.78
20
-150.237
11
122.066
21
-150.38
0
LINE
8
Black
10
122.066
20
-150.38
11
122.209
21
-150.523
0
LINE
8
Black
10
122.209
20
-150.523
11
122.352
21
-150.809
0
LINE
8
Black
10
122.352
20
-150.809
11
122.352
21
-151.094
0
LINE
8
Black
10
122.352
20
-151.094
11
122.209
21
-151.523
0
LINE
8
Black
10
122.209
20
-151.523
11
120.494
21
-153.237
0
LINE
8
Black
10
120.494
20
-153.237
11
122.352
21
-153.237
0
LINE
8
Black
10
123.637
20
-153.237
11
123.637
21
-151.237
0
LINE
8
Black
10
123.637
20
-151.523
11
123.78
21
-151.38
0
LINE
8
Black
10
123.78
20
-151.38
11
124.066
21
-151.237
0
LINE
8
Black
10
124.066
20
-151.237
11
124.494
21
-151.237
0
LINE
8
Black
10
124.494
20
-151.237
11
124.78
21
-151.38
0
LINE
8
Black
10
124.78
20
-151.38
11
124.923
21
-151.666
0
LINE
8
Black
10
124.923
20
-151.666
11
124.923
21
-153.237
0
LINE
8
Black
10
124.923
20
-151.666
11
125.066
21
-151.38
0
LINE
8
Black
10
125.066
20
-151.38
11
125.352
21
-151.237
0
LINE
8
Black
10
125.352
20
-151.237
11
125.78
21
-151.237
0
LINE
8
Black
10
125.78
20
-151.237
11
126.066
21
-151.38
0
LINE
8
Black
10
126.066
20
-151.38
11
126.209
21
-151.666
0
LINE
8
Black
10
126.209
20
-151.666
11
126.209
21
-153.237
0
LINE
8
Black
10
127.637
20
-153.237
11
127.637
21
-151.237
0
LINE
8
Black
10
127.637
20
-151.523
11
127.78
21
-151.38
0
LINE
8
Black
10
127.78
20
-151.38
11
128.066
21
-151.237
0
LINE
8
Black
10
128.066
20
-151.237
11
128.494
21
-151.237
0
LINE
8
Black
10
128.494
20
-151.237
11
128.78
21
-151.38
0
LINE
8
Black
10
128.78
20
-151.38
11
128.923
21
-151.666
0
LINE
8
Black
10
128.923
20
-151.666
11
128.923
21
-153.237
0
LINE
8
Black
10
128.923
20
-151.666
11
129.066
21
-151.38
0
LINE
8
Black
10
129.066
20
-151.38
11
129.352
21
-151.237
0
LINE
8
Black
10
129.352
20
-151.237
11
129.78
21
-151.237
0
LINE
8
Black
10
129.78
20
-151.237
11
130.066
21
-151.38
0
LINE
8
Black
10
130.066
20
-151.38
11
130.209
21
-151.666
0
LINE
8
Black
10
130.209
20
-151.666
11
130.209
21
-153.237
0
LINE
8
Black
10
136.066
20
-150.094
11
133.494
21
-153.951
0
LINE
8
Black
10
139.923
20
-150.237
11
140.209
21
-150.237
0
LINE
8
Black
10
140.209
20
-150.237
11
140.494
21
-150.38
0
LINE
8
Black
10
140.494
20
-150.38
11
140.637
21
-150.523
0
LINE
8
Black
10
140.637
20
-150.523
11
140.78
21
-150.809
0
LINE
8
Black
10
140.78
20
-150.809
11
140.923
21
-151.38
0
LINE
8
Black
10
140.923
20
-151.38
11
140.923
21
-152.094
0
LINE
8
Black
10
140.923
20
-152.094
11
140.78
21
-152.666
0
LINE
8
Black
10
140.78
20
-152.666
11
140.637
21
-152.951
0
LINE
8
Black
10
140.637
20
-152.951
11
140.494
21
-153.094
0
LINE
8
Black
10
140.494
20
-153.094
11
140.209
21
-153.237
0
LINE
8
Black
10
140.209
20
-153.237
11
139.923
21
-153.237
0
LINE
8
Black
10
139.923
20
-153.237
11
139.637
21
-153.094
0
LINE
8
Black
10
139.637
20
-153.094
11
139.494
21
-152.951
0
LINE
8
Black
10
139.494
20
-152.951
11
139.352
21
-152.666
0
LINE
8
Black
10
139.352
20
-152.666
11
139.209
21
-152.094
0
LINE
8
Black
10
139.209
20
-152.094
11
139.209
21
-151.38
0
LINE
8
Black
10
139.209
20
-151.38
11
139.352
21
-150.809
0
LINE
8
Black
10
139.352
20
-150.809
11
139.494
21
-150.523
0
LINE
8
Black
10
139.494
20
-150.523
11
139.637
21
-150.38
0
LINE
8
Black
10
139.637
20
-150.38
11
139.923
21
-150.237
0
LINE
8
Black
10
142.209
20
-152.951
11
142.352
21
-153.094
0
LINE
8
Black
10
142.352
20
-153.094
11
142.209
21
-153.237
0
LINE
8
Black
10
142.209
20
-153.237
11
142.066
21
-153.094
0
LINE
8
Black
10
142.066
20
-153.094
11
142.209
21
-152.951
0
LINE
8
Black
10
142.209
20
-152.951
11
142.209
21
-153.237
0
LINE
8
Black
10
144.209
20
-150.237
11
144.494
21
-150.237
0
LINE
8
Black
10
144.494
20
-150.237
11
144.78
21
-150.38
0
LINE
8
Black
10
144.78
20
-150.38
11
144.923
21
-150.523
0
LINE
8
Black
10
144.923
20
-150.523
11
145.066
21
-150.809
0
LINE
8
Black
10
145.066
20
-150.809
11
145.209
21
-151.38
0
LINE
8
Black
10
145.209
20
-151.38
11
145.209
21
-152.094
0
LINE
8
Black
10
145.209
20
-152.094
11
145.066
21
-152.666
0
LINE
8
Black
10
145.066
20
-152.666
11
144.923
21
-152.951
0
LINE
8
Black
10
144.923
20
-152.951
11
144.78
21
-153.094
0
LINE
8
Black
10
144.78
20
-153.094
11
144.494
21
-153.237
0
LINE
8
Black
10
144.494
20
-153.237
11
144.209
21
-153.237
0
LINE
8
Black
10
144.209
20
-153.237
11
143.923
21
-153.094
0
LINE
8
Black
10
143.923
20
-153.094
11
143.78
21
-152.951
0
LINE
8
Black
10
143.78
20
-152.951
11
143.637
21
-152.666
0
LINE
8
Black
10
143.637
20
-152.666
11
143.494
21
-152.094
0
LINE
8
Black
10
143.494
20
-152.094
11
143.494
21
-151.38
0
LINE
8
Black
10
143.494
20
-151.38
11
143.637
21
-150.809
0
LINE
8
Black
10
143.637
20
-150.809
11
143.78
21
-150.523
0
LINE
8
Black
10
143.78
20
-150.523
11
143.923
21
-150.38
0
LINE
8
Black
10
143.923
20
-150.38
11
144.209
21
-150.237
0
LINE
8
Black
10
147.78
20
-150.237
11
147.209
21
-150.237
0
LINE
8
Black
10
147.209
20
-150.237
11
146.923
21
-150.38
0
LINE
8
Black
10
146.923
20
-150.38
11
146.78
21
-150.523
0
LINE
8
Black
10
146.78
20
-150.523
11
146.494
21
-150.951
0
LINE
8
Black
10
146.494
20
-150.951
11
146.352
21
-151.523
0
LINE
8
Black
10
146.352
20
-151.523
11
146.352
21
-152.666
0
LINE
8
Black
10
146.352
20
-152.666
11
146.494
21
-152.951
0
LINE
8
Black
10
146.494
20
-152.951
11
146.637
21
-153.094
0
LINE
8
Black
10
146.637
20
-153.094
11
146.923
21
-153.237
0
LINE
8
Black
10
146.923
20
-153.237
11
147.494
21
-153.237
0
LINE
8
Black
10
147.494
20
-153.237
11
147.78
21
-153.094
0
LINE
8
Black
10
147.78
20
-153.094
11
147.923
21
-152.951
0
LINE
8
Black
10
147.923
20
-152.951
11
148.066
21
-152.666
0
LINE
8
Black
10
148.066
20
-152.666
11
148.066
21
-151.951
0
LINE
8
Black
10
148.066
20
-151.951
11
147.923
21
-151.666
0
LINE
8
Black
10
147.923
20
-151.666
11
147.78
21
-151.523
0
LINE
8
Black
10
147.78
20
-151.523
11
147.494
21
-151.38
0
LINE
8
Black
10
147.494
20
-151.38
11
146.923
21
-151.38
0
LINE
8
Black
10
146.923
20
-151.38
11
146.637
21
-151.523
0
LINE
8
Black
10
146.637
20
-151.523
11
146.494
21
-151.666
0
LINE
8
Black
10
146.494
20
-151.666
11
146.352
21
-151.951
0
LINE
8
Black
10
149.923
20
-150.237
11
150.209
21
-150.237
0
LINE
8
Black
10
150.209
20
-150.237
11
150.494
21
-150.38
0
LINE
8
Black
10
150.494
20
-150.38
11
150.637
21
-150.523
0
LINE
8
Black
10
150.637
20
-150.523
11
150.78
21
-150.809
0
LINE
8
Black
10
150.78
20
-150.809
11
150.923
21
-151.38
0
LINE
8
Black
10
150.923
20
-151.38
11
150.923
21
-152.094
0
LINE
8
Black
10
150.923
20
-152.094
11
150.78
21
-152.666
0
LINE
8
Black
10
150.78
20
-152.666
11
150.637
21
-152.951
0
LINE
8
Black
10
150.637
20
-152.951
11
150.494
21
-153.094
0
LINE
8
Black
10
150.494
20
-153.094
11
150.209
21
-153.237
0
LINE
8
Black
10
150.209
20
-153.237
11
149.923
21
-153.237
0
LINE
8
Black
10
149.923
20
-153.237
11
149.637
21
-153.094
0
LINE
8
Black
10
149.637
20
-153.094
11
149.494
21
-152.951
0
LINE
8
Black
10
149.494
20
-152.951
11
149.352
21
-152.666
0
LINE
8
Black
10
149.352
20
-152.666
11
149.209
21
-152.094
0
LINE
8
Black
10
149.209
20
-152.094
11
149.209
21
-151.38
0
LINE
8
Black
10
149.209
20
-151.38
11
149.352
21
-150.809
0
LINE
8
Black
10
149.352
20
-150.809
11
149.494
21
-150.523
0
LINE
8
Black
10
149.494
20
-150.523
11
149.637
21
-150.38
0
LINE
8
Black
10
149.637
20
-150.38
11
149.923
21
-150.237
0
LINE
8
Black
10
152.066
20
-150.237
11
152.066
21
-150.809
0
LINE
8
Black
10
153.209
20
-150.237
11
153.209
21
-150.809
0
LINE
8
Black
10
157.637
20
-154.38
11
157.494
21
-154.237
0
LINE
8
Black
10
157.494
20
-154.237
11
157.209
21
-153.809
0
LINE
8
Black
10
157.209
20
-153.809
11
157.066
21
-153.523
0
LINE
8
Black
10
157.066
20
-153.523
11
156.923
21
-153.094
0
LINE
8
Black
10
156.923
20
-153.094
11
156.78
21
-152.38
0
LINE
8
Black
10
156.78
20
-152.38
11
156.78
21
-151.809
0
LINE
8
Black
10
156.78
20
-151.809
11
156.923
21
-151.094
0
LINE
8
Black
10
156.923
20
-151.094
11
157.066
21
-150.666
0
LINE
8
Black
10
157.066
20
-150.666
11
157.209
21
-150.38
0
LINE
8
Black
10
157.209
20
-150.38
11
157.494
21
-149.951
0
LINE
8
Black
10
157.494
20
-149.951
11
157.637
21
-149.809
0
LINE
8
Black
10
158.637
20
-150.523
11
158.78
21
-150.38
0
LINE
8
Black
10
158.78
20
-150.38
11
159.066
21
-150.237
0
LINE
8
Black
10
159.066
20
-150.237
11
159.78
21
-150.237
0
LINE
8
Black
10
159.78
20
-150.237
11
160.066
21
-150.38
0
LINE
8
Black
10
160.066
20
-150.38
11
160.209
21
-150.523
0
LINE
8
Black
10
160.209
20
-150.523
11
160.352
21
-150.809
0
LINE
8
Black
10
160.352
20
-150.809
11
160.352
21
-151.094
0
LINE
8
Black
10
160.352
20
-151.094
11
160.209
21
-151.523
0
LINE
8
Black
10
160.209
20
-151.523
11
158.494
21
-153.237
0
LINE
8
Black
10
158.494
20
-153.237
11
160.352
21
-153.237
0
LINE
8
Black
10
163.923
20
-153.237
11
163.923
21
-150.237
0
LINE
8
Black
10
165.209
20
-153.237
11
165.209
21
-151.666
0
LINE
8
Black
10
165.209
20
-151.666
11
165.066
21
-151.38
0
LINE
8
Black
10
165.066
20
-151.38
11
164.78
21
-151.237
0
LINE
8
Black
10
164.78
20
-151.237
11
164.352
21
-151.237
0
LINE
8
Black
10
164.352
20
-151.237
11
164.066
21
-151.38
0
LINE
8
Black
10
164.066
20
-151.38
11
163.923
21
-151.523
0
LINE
8
Black
10
167.066
20
-153.237
11
166.78
21
-153.094
0
LINE
8
Black
10
166.78
20
-153.094
11
166.637
21
-152.951
0
LINE
8
Black
10
166.637
20
-152.951
11
166.494
21
-152.666
0
LINE
8
Black
10
166.494
20
-152.666
11
166.494
21
-151.809
0
LINE
8
Black
10
166.494
20
-151.809
11
166.637
21
-151.523
0
LINE
8
Black
10
166.637
20
-151.523
11
166.78
21
-151.38
0
LINE
8
Black
10
166.78
20
-151.38
11
167.066
21
-151.237
0
LINE
8
Black
10
167.066
20
-151.237
11
167.494
21
-151.237
0
LINE
8
Black
10
167.494
20
-151.237
11
167.78
21
-151.38
0
LINE
8
Black
10
167.78
20
-151.38
11
167.923
21
-151.523
0
LINE
8
Black
10
167.923
20
-151.523
11
168.066
21
-151.809
0
LINE
8
Black
10
168.066
20
-151.809
11
168.066
21
-152.666
0
LINE
8
Black
10
168.066
20
-152.666
11
167.923
21
-152.951
0
LINE
8
Black
10
167.923
20
-152.951
11
167.78
21
-153.094
0
LINE
8
Black
10
167.78
20
-153.094
11
167.494
21
-153.237
0
LINE
8
Black
10
167.494
20
-153.237
11
167.066
21
-153.237
0
LINE
8
Black
10
169.78
20
-153.237
11
169.494
21
-153.094
0
LINE
8
Black
10
169.494
20
-153.094
11
169.352
21
-152.809
0
LINE
8
Black
10
169.352
20
-152.809
11
169.352
21
-150.237
0
LINE
8
Black
10
172.066
20
-153.094
11
171.78
21
-153.237
0
LINE
8
Black
10
171.78
20
-153.237
11
171.209
21
-153.237
0
LINE
8
Black
10
171.209
20
-153.237
11
170.923
21
-153.094
0
LINE
8
Black
10
170.923
20
-153.094
11
170.78
21
-152.809
0
LINE
8
Black
10
170.78
20
-152.809
11
170.78
21
-151.666
0
LINE
8
Black
10
170.78
20
-151.666
11
170.923
21
-151.38
0
LINE
8
Black
10
170.923
20
-151.38
11
171.209
21
-151.237
0
LINE
8
Black
10
171.209
20
-151.237
11
171.78
21
-151.237
0
LINE
8
Black
10
171.78
20
-151.237
11
172.066
21
-151.38
0
LINE
8
Black
10
172.066
20
-151.38
11
172.209
21
-151.666
0
LINE
8
Black
10
172.209
20
-151.666
11
172.209
21
-151.951
0
LINE
8
Black
10
172.209
20
-151.951
11
170.78
21
-152.237
0
LINE
8
Black
10
173.352
20
-153.094
11
173.637
21
-153.237
0
LINE
8
Black
10
173.637
20
-153.237
11
174.209
21
-153.237
0
LINE
8
Black
10
174.209
20
-153.237
11
174.494
21
-153.094
0
LINE
8
Black
10
174.494
20
-153.094
11
174.637
21
-152.809
0
LINE
8
Black
10
174.637
20
-152.809
11
174.637
21
-152.666
0
LINE
8
Black
10
174.637
20
-152.666
11
174.494
21
-152.38
0
LINE
8
Black
10
174.494
20
-152.38
11
174.209
21
-152.237
0
LINE
8
Black
10
174.209
20
-152.237
11
173.78
21
-152.237
0
LINE
8
Black
10
173.78
20
-152.237
11
173.494
21
-152.094
0
LINE
8
Black
10
173.494
20
-152.094
11
173.352
21
-151.809
0
LINE
8
Black
10
173.352
20
-151.809
11
173.352
21
-151.666
0
LINE
8
Black
10
173.352
20
-151.666
11
173.494
21
-151.38
0
LINE
8
Black
10
173.494
20
-151.38
11
173.78
21
-151.237
0
LINE
8
Black
10
173.78
20
-151.237
11
174.209
21
-151.237
0
LINE
8
Black
10
174.209
20
-151.237
11
174.494
21
-151.38
0
LINE
8
Black
10
175.637
20
-154.38
11
175.78
21
-154.237
0
LINE
8
Black
10
175.78
20
-154.237
11
176.066
21
-153.809
0
LINE
8
Black
10
176.066
20
-153.809
11
176.209
21
-153.523
0
LINE
8
Black
10
176.209
20
-153.523
11
176.352
21
-153.094
0
LINE
8
Black
10
176.352
20
-153.094
11
176.494
21
-152.38
0
LINE
8
Black
10
176.494
20
-152.38
11
176.494
21
-151.809
0
LINE
8
Black
10
176.494
20
-151.809
11
176.352
21
-151.094
0
LINE
8
Black
10
176.352
20
-151.094
11
176.209
21
-150.666
0
LINE
8
Black
10
176.209
20
-150.666
11
176.066
21
-150.38
0
LINE
8
Black
10
176.066
20
-150.38
11
175.78
21
-149.951
0
LINE
8
Black
10
175.78
20
-149.951
11
175.637
21
-149.809
0
LINE
8
Black
10
108.423
20
-154.59
11
110.923
21
-157.09
0
LINE
8
Black
10
110.923
20
-154.59
11
108.423
21
-157.09
0
CIRCLE
8
Black
10
109.673
20
-155.84
40
1.25
0
LINE
8
Black
10
113.494
20
-154.483
11
113.637
21
-154.34
0
LINE
8
Black
10
113.637
20
-154.34
11
113.923
21
-154.197
0
LINE
8
Black
10
113.923
20
-154.197
11
114.637
21
-154.197
0
LINE
8
Black
10
114.637
20
-154.197
11
114.923
21
-154.34
0
LINE
8
Black
10
114.923
20
-154.34
11
115.066
21
-154.483
0
LINE
8
Black
10
115.066
20
-154.483
11
115.209
21
-154.769
0
LINE
8
Black
10
115.209
20
-154.769
11
115.209
21
-155.054
0
LINE
8
Black
10
115.209
20
-155.054
11
115.066
21
-155.483
0
LINE
8
Black
10
115.066
20
-155.483
11
113.352
21
-157.197
0
LINE
8
Black
10
113.352
20
-157.197
11
115.209
21
-157.197
0
LINE
8
Black
10
116.494
20
-156.911
11
116.637
21
-157.054
0
LINE
8
Black
10
116.637
20
-157.054
11
116.494
21
-157.197
0
LINE
8
Black
10
116.494
20
-157.197
11
116.352
21
-157.054
0
LINE
8
Black
10
116.352
20
-157.054
11
116.494
21
-156.911
0
LINE
8
Black
10
116.494
20
-156.911
11
116.494
21
-157.197
0
LINE
8
Black
10
119.352
20
-154.197
11
117.923
21
-154.197
0
LINE
8
Black
10
117.923
20
-154.197
11
117.78
21
-155.626
0
LINE
8
Black
10
117.78
20
-155.626
11
117.923
21
-155.483
0
LINE
8
Black
10
117.923
20
-155.483
11
118.209
21
-155.34
0
LINE
8
Black
10
118.209
20
-155.34
11
118.923
21
-155.34
0
LINE
8
Black
10
118.923
20
-155.34
11
119.209
21
-155.483
0
LINE
8
Black
10
119.209
20
-155.483
11
119.352
21
-155.626
0
LINE
8
Black
10
119.352
20
-155.626
11
119.494
21
-155.911
0
LINE
8
Black
10
119.494
20
-155.911
11
119.494
21
-156.626
0
LINE
8
Black
10
119.494
20
-156.626
11
119.352
21
-156.911
0
LINE
8
Black
10
119.352
20
-156.911
11
119.209
21
-157.054
0
LINE
8
Black
10
119.209
20
-157.054
11
118.923
21
-157.197
0
LINE
8
Black
10
118.923
20
-157.197
11
118.209
21
-157.197
0
LINE
8
Black
10
118.209
20
-157.197
11
117.923
21
-157.054
0
LINE
8
Black
10
117.923
20
-157.054
11
117.78
21
-156.911
0
LINE
8
Black
10
121.352
20
-154.197
11
121.637
21
-154.197
0
LINE
8
Black
10
121.637
20
-154.197
11
121.923
21
-154.34
0
LINE
8
Black
10
121.923
20
-154.34
11
122.066
21
-154.483
0
LINE
8
Black
10
122.066
20
-154.483
11
122.209
21
-154.769
0
LINE
8
Black
10
122.209
20
-154.769
11
122.352
21
-155.34
0
LINE
8
Black
10
122.352
20
-155.34
11
122.352
21
-156.054
0
LINE
8
Black
10
122.352
20
-156.054
11
122.209
21
-156.626
0
LINE
8
Black
10
122.209
20
-156.626
11
122.066
21
-156.911
0
LINE
8
Black
10
122.066
20
-156.911
11
121.923
21
-157.054
0
LINE
8
Black
10
121.923
20
-157.054
11
121.637
21
-157.197
0
LINE
8
Black
10
121.637
20
-157.197
11
121.352
21
-157.197
0
LINE
8
Black
10
121.352
20
-157.197
11
121.066
21
-157.054
0
LINE
8
Black
10
121.066
20
-157.054
11
120.923
21
-156.911
0
LINE
8
Black
10
120.923
20
-156.911
11
120.78
21
-156.626
0
LINE
8
Black
10
120.78
20
-156.626
11
120.637
21
-156.054
0
LINE
8
Black
10
120.637
20
-156.054
11
120.637
21
-155.34
0
LINE
8
Black
10
120.637
20
-155.34
11
120.78
21
-154.769
0
LINE
8
Black
10
120.78
20
-154.769
11
120.923
21
-154.483
0
LINE
8
Black
10
120.923
20
-154.483
11
121.066
21
-154.34
0
LINE
8
Black
10
121.066
20
-154.34
11
121.352
21
-154.197
0
LINE
8
Black
10
123.637
20
-157.197
11
123.637
21
-155.197
0
LINE
8
Black
10
123.637
20
-155.483
11
123.78
21
-155.34
0
LINE
8
Black
10
123.78
20
-155.34
11
124.066
21
-155.197
0
LINE
8
Black
10
124.066
20
-155.197
11
124.494
21
-155.197
0
LINE
8
Black
10
124.494
20
-155.197
11
124.78
21
-155.34
0
LINE
8
Black
10
124.78
20
-155.34
11
124.923
21
-155.626
0
LINE
8
Black
10
124.923
20
-155.626
11
124.923
21
-157.197
0
LINE
8
Black
10
124.923
20
-155.626
11
125.066
21
-155.34
0
LINE
8
Black
10
125.066
20
-155.34
11
125.352
21
-155.197
0
LINE
8
Black
10
125.352
20
-155.197
11
125.78
21
-155.197
0
LINE
8
Black
10
125.78
20
-155.197
11
126.066
21
-155.34
0
LINE
8
Black
10
126.066
20
-155.34
11
126.209
21
-155.626
0
LINE
8
Black
10
126.209
20
-155.626
11
126.209
21
-157.197
0
LINE
8
Black
10
127.637
20
-157.197
11
127.637
21
-155.197
0
LINE
8
Black
10
127.637
20
-155.483
11
127.78
21
-155.34
0
LINE
8
Black
10
127.78
20
-155.34
11
128.066
21
-155.197
0
LINE
8
Black
10
128.066
20
-155.197
11
128.494
21
-155.197
0
LINE
8
Black
10
128.494
20
-155.197
11
128.78
21
-155.34
0
LINE
8
Black
10
128.78
20
-155.34
11
128.923
21
-155.626
0
LINE
8
Black
10
128.923
20
-155.626
11
128.923
21
-157.197
0
LINE
8
Black
10
128.923
20
-155.626
11
129.066
21
-155.34
0
LINE
8
Black
10
129.066
20
-155.34
11
129.352
21
-155.197
0
LINE
8
Black
10
129.352
20
-155.197
11
129.78
21
-155.197
0
LINE
8
Black
10
129.78
20
-155.197
11
130.066
21
-155.34
0
LINE
8
Black
10
130.066
20
-155.34
11
130.209
21
-155.626
0
LINE
8
Black
10
130.209
20
-155.626
11
130.209
21
-157.197
0
LINE
8
Black
10
136.066
20
-154.054
11
133.494
21
-157.911
0
LINE
8
Black
10
139.923
20
-154.197
11
140.209
21
-154.197
0
LINE
8
Black
10
140.209
20
-154.197
11
140.494
21
-154.34
0
LINE
8
Black
10
140.494
20
-154.34
11
140.637
21
-154.483
0
LINE
8
Black
10
140.637
20
-154.483
11
140.78
21
-154.769
0
LINE
8
Black
10
140.78
20
-154.769
11
140.923
21
-155.34
0
LINE
8
Black
10
140.923
20
-155.34
11
140.923
21
-156.054
0
LINE
8
Black
10
140.923
20
-156.054
11
140.78
21
-156.626
0
LINE
8
Black
10
140.78
20
-156.626
11
140.637
21
-156.911
0
LINE
8
Black
10
140.637
20
-156.911
11
140.494
21
-157.054
0
LINE
8
Black
10
140.494
20
-157.054
11
140.209
21
-157.197
0
LINE
8
Black
10
140.209
20
-157.197
11
139.923
21
-157.197
0
LINE
8
Black
10
139.923
20
-157.197
11
139.637
21
-157.054
0
LINE
8
Black
10
139.637
20
-157.054
11
139.494
21
-156.911
0
LINE
8
Black
10
139.494
20
-156.911
11
139.352
21
-156.626
0
LINE
8
Black
10
139.352
20
-156.626
11
139.209
21
-156.054
0
LINE
8
Black
10
139.209
20
-156.054
11
139.209
21
-155.34
0
LINE
8
Black
10
139.209
20
-155.34
11
139.352
21
-154.769
0
LINE
8
Black
10
139.352
20
-154.769
11
139.494
21
-154.483
0
LINE
8
Black
10
139.494
20
-154.483
11
139.637
21
-154.34
0
LINE
8
Black
10
139.637
20
-154.34
11
139.923
21
-154.197
0
LINE
8
Black
10
142.209
20
-156.911
11
142.352
21
-157.054
0
LINE
8
Black
10
142.352
20
-157.054
11
142.209
21
-157.197
0
LINE
8
Black
10
142.209
20
-157.197
11
142.066
21
-157.054
0
LINE
8
Black
10
142.066
20
-157.054
11
142.209
21
-156.911
0
LINE
8
Black
10
142.209
20
-156.911
11
142.209
21
-157.197
0
LINE
8
Black
10
144.209
20
-154.197
11
144.494
21
-154.197
0
LINE
8
Black
10
144.494
20
-154.197
11
144.78
21
-154.34
0
LINE
8
Black
10
144.78
20
-154.34
11
144.923
21
-154.483
0
LINE
8
Black
10
144.923
20
-154.483
11
145.066
21
-154.769
0
LINE
8
Black
10
145.066
20
-154.769
11
145.209
21
-155.34
0
LINE
8
Black
10
145.209
20
-155.34
11
145.209
21
-156.054
0
LINE
8
Black
10
145.209
20
-156.054
11
145.066
21
-156.626
0
LINE
8
Black
10
145.066
20
-156.626
11
144.923
21
-156.911
0
LINE
8
Black
10
144.923
20
-156.911
11
144.78
21
-157.054
0
LINE
8
Black
10
144.78
20
-157.054
11
144.494
21
-157.197
0
LINE
8
Black
10
144.494
20
-157.197
11
144.209
21
-157.197
0
LINE
8
Black
10
144.209
20
-157.197
11
143.923
21
-157.054
0
LINE
8
Black
10
143.923
20
-157.054
11
143.78
21
-156.911
0
LINE
8
Black
10
143.78
20
-156.911
11
143.637
21
-156.626
0
LINE
8
Black
10
143.637
20
-156.626
11
143.494
21
-156.054
0
LINE
8
Black
10
143.494
20
-156.054
11
143.494
21
-155.34
0
LINE
8
Black
10
143.494
20
-155.34
11
143.637
21
-154.769
0
LINE
8
Black
10
143.637
20
-154.769
11
143.78
21
-154.483
0
LINE
8
Black
10
143.78
20
-154.483
11
143.923
21
-154.34
0
LINE
8
Black
10
143.923
20
-154.34
11
144.209
21
-154.197
0
LINE
8
Black
10
146.637
20
-157.197
11
147.209
21
-157.197
0
LINE
8
Black
10
147.209
20
-157.197
11
147.494
21
-157.054
0
LINE
8
Black
10
147.494
20
-157.054
11
147.637
21
-156.911
0
LINE
8
Black
10
147.637
20
-156.911
11
147.923
21
-156.483
0
LINE
8
Black
10
147.923
20
-156.483
11
148.066
21
-155.911
0
LINE
8
Black
10
148.066
20
-155.911
11
148.066
21
-154.769
0
LINE
8
Black
10
148.066
20
-154.769
11
147.923
21
-154.483
0
LINE
8
Black
10
147.923
20
-154.483
11
147.78
21
-154.34
0
LINE
8
Black
10
147.78
20
-154.34
11
147.494
21
-154.197
0
LINE
8
Black
10
147.494
20
-154.197
11
146.923
21
-154.197
0
LINE
8
Black
10
146.923
20
-154.197
11
146.637
21
-154.34
0
LINE
8
Black
10
146.637
20
-154.34
11
146.494
21
-154.483
0
LINE
8
Black
10
146.494
20
-154.483
11
146.352
21
-154.769
0
LINE
8
Black
10
146.352
20
-154.769
11
146.352
21
-155.483
0
LINE
8
Black
10
146.352
20
-155.483
11
146.494
21
-155.769
0
LINE
8
Black
10
146.494
20
-155.769
11
146.637
21
-155.911
0
LINE
8
Black
10
146.637
20
-155.911
11
146.923
21
-156.054
0
LINE
8
Black
10
146.923
20
-156.054
11
147.494
21
-156.054
0
LINE
8
Black
10
147.494
20
-156.054
11
147.78
21
-155.911
0
LINE
8
Black
10
147.78
20
-155.911
11
147.923
21
-155.769
0
LINE
8
Black
10
147.923
20
-155.769
11
148.066
21
-155.483
0
LINE
8
Black
10
149.78
20
-155.483
11
149.494
21
-155.34
0
LINE
8
Black
10
149.494
20
-155.34
11
149.352
21
-155.197
0
LINE
8
Black
10
149.352
20
-155.197
11
149.209
21
-154.911
0
LINE
8
Black
10
149.209
20
-154.911
11
149.209
21
-154.769
0
LINE
8
Black
10
149.209
20
-154.769
11
149.352
21
-154.483
0
LINE
8
Black
10
149.352
20
-154.483
11
149.494
21
-154.34
0
LINE
8
Black
10
149.494
20
-154.34
11
149.78
21
-154.197
0
LINE
8
Black
10
149.78
20
-154.197
11
150.352
21
-154.197
0
LINE
8
Black
10
150.352
20
-154.197
11
150.637
21
-154.34
0
LINE
8
Black
10
150.637
20
-154.34
11
150.78
21
-154.483
0
LINE
8
Black
10
150.78
20
-154.483
11
150.923
21
-154.769
0
LINE
8
Black
10
150.923
20
-154.769
11
150.923
21
-154.911
0
LINE
8
Black
10
150.923
20
-154.911
11
150.78
21
-155.197
0
LINE
8
Black
10
150.78
20
-155.197
11
150.637
21
-155.34
0
LINE
8
Black
10
150.637
20
-155.34
11
150.352
21
-155.483
0
LINE
8
Black
10
150.352
20
-155.483
11
149.78
21
-155.483
0
LINE
8
Black
10
149.78
20
-155.483
11
149.494
21
-155.626
0
LINE
8
Black
10
149.494
20
-155.626
11
149.352
21
-155.769
0
LINE
8
Black
10
149.352
20
-155.769
11
149.209
21
-156.054
0
LINE
8
Black
10
149.209
20
-156.054
11
149.209
21
-156.626
0
LINE
8
Black
10
149.209
20
-156.626
11
149.352
21
-156.911
0
LINE
8
Black
10
149.352
20
-156.911
11
149.494
21
-157.054
0
LINE
8
Black
10
149.494
20
-157.054
11
149.78
21
-157.197
0
LINE
8
Black
10
149.78
20
-157.197
11
150.352
21
-157.197
0
LINE
8
Black
10
150.352
20
-157.197
11
150.637
21
-157.054
0
LINE
8
Black
10
150.637
20
-157.054
11
150.78
21
-156.911
0
LINE
8
Black
10
150.78
20
-156.911
11
150.923
21
-156.626
0
LINE
8
Black
10
150.923
20
-156.626
11
150.923
21
-156.054
0
LINE
8
Black
10
150.923
20
-156.054
11
150.78
21
-155.769
0
LINE
8
Black
10
150.78
20
-155.769
11
150.637
21
-155.626
0
LINE
8
Black
10
150.637
20
-155.626
11
150.352
21
-155.483
0
LINE
8
Black
10
152.066
20
-154.197
11
152.066
21
-154.769
0
LINE
8
Black
10
153.209
20
-154.197
11
153.209
21
-154.769
0
LINE
8
Black
10
157.637
20
-158.34
11
157.494
21
-158.197
0
LINE
8
Black
10
157.494
20
-158.197
11
157.209
21
-157.769
0
LINE
8
Black
10
157.209
20
-157.769
11
157.066
21
-157.483
0
LINE
8
Black
10
157.066
20
-157.483
11
156.923
21
-157.054
0
LINE
8
Black
10
156.923
20
-157.054
11
156.78
21
-156.34
0
LINE
8
Black
10
156.78
20
-156.34
11
156.78
21
-155.769
0
LINE
8
Black
10
156.78
20
-155.769
11
156.923
21
-155.054
0
LINE
8
Black
10
156.923
20
-155.054
11
157.066
21
-154.626
0
LINE
8
Black
10
157.066
20
-154.626
11
157.209
21
-154.34
0
LINE
8
Black
10
157.209
20
-154.34
11
157.494
21
-153.911
0
LINE
8
Black
10
157.494
20
-153.911
11
157.637
21
-153.769
0
LINE
8
Black
10
160.066
20
-155.197
11
160.066
21
-157.197
0
LINE
8
Black
10
159.352
20
-154.054
11
158.637
21
-156.197
0
LINE
8
Black
10
158.637
20
-156.197
11
160.494
21
-156.197
0
LINE
8
Black
10
163.923
20
-157.197
11
163.923
21
-154.197
0
LINE
8
Black
10
165.209
20
-157.197
11
165.209
21
-155.626
0
LINE
8
Black
10
165.209
20
-155.626
11
165.066
21
-155.34
0
LINE
8
Black
10
165.066
20
-155.34
11
164.78
21
-155.197
0
LINE
8
Black
10
164.78
20
-155.197
11
164.352
21
-155.197
0
LINE
8
Black
10
164.352
20
-155.197
11
164.066
21
-155.34
0
LINE
8
Black
10
164.066
20
-155.34
11
163.923
21
-155.483
0
LINE
8
Black
10
167.066
20
-157.197
11
166.78
21
-157.054
0
LINE
8
Black
10
166.78
20
-157.054
11
166.637
21
-156.911
0
LINE
8
Black
10
166.637
20
-156.911
11
166.494
21
-156.626
0
LINE
8
Black
10
166.494
20
-156.626
11
166.494
21
-155.769
0
LINE
8
Black
10
166.494
20
-155.769
11
166.637
21
-155.483
0
LINE
8
Black
10
166.637
20
-155.483
11
166.78
21
-155.34
0
LINE
8
Black
10
166.78
20
-155.34
11
167.066
21
-155.197
0
LINE
8
Black
10
167.066
20
-155.197
11
167.494
21
-155.197
0
LINE
8
Black
10
167.494
20
-155.197
11
167.78
21
-155.34
0
LINE
8
Black
10
167.78
20
-155.34
11
167.923
21
-155.483
0
LINE
8
Black
10
167.923
20
-155.483
11
168.066
21
-155.769
0
LINE
8
Black
10
168.066
20
-155.769
11
168.066
21
-156.626
0
LINE
8
Black
10
168.066
20
-156.626
11
167.923
21
-156.911
0
LINE
8
Black
10
167.923
20
-156.911
11
167.78
21
-157.054
0
LINE
8
Black
10
167.78
20
-157.054
11
167.494
21
-157.197
0
LINE
8
Black
10
167.494
20
-157.197
11
167.066
21
-157.197
0
LINE
8
Black
10
169.78
20
-157.197
11
169.494
21
-157.054
0
LINE
8
Black
10
169.494
20
-157.054
11
169.352
21
-156.769
0
LINE
8
Black
10
169.352
20
-156.769
11
169.352
21
-154.197
0
LINE
8
Black
10
172.066
20
-157.054
11
171.78
21
-157.197
0
LINE
8
Black
10
171.78
20
-157.197
11
171.209
21
-157.197
0
LINE
8
Black
10
171.209
20
-157.197
11
170.923
21
-157.054
0
LINE
8
Black
10
170.923
20
-157.054
11
170.78
21
-156.769
0
LINE
8
Black
10
170.78
20
-156.769
11
170.78
21
-155.626
0
LINE
8
Black
10
170.78
20
-155.626
11
170.923
21
-155.34
0
LINE
8
Black
10
170.923
20
-155.34
11
171.209
21
-155.197
0
LINE
8
Black
10
171.209
20
-155.197
11
171.78
21
-155.197
0
LINE
8
Black
10
171.78
20
-155.197
11
172.066
21
-155.34
0
LINE
8
Black
10
172.066
20
-155.34
11
172.209
21
-155.626
0
LINE
8
Black
10
172.209
20
-155.626
11
172.209
21
-155.911
0
LINE
8
Black
10
172.209
20
-155.911
11
170.78
21
-156.197
0
LINE
8
Black
10
173.352
20
-157.054
11
173.637
21
-157.197
0
LINE
8
Black
10
173.637
20
-157.197
11
174.209
21
-157.197
0
LINE
8
Black
10
174.209
20
-157.197
11
174.494
21
-157.054
0
LINE
8
Black
10
174.494
20
-157.054
11
174.637
21
-156.769
0
LINE
8
Black
10
174.637
20
-156.769
11
174.637
21
-156.626
0
LINE
8
Black
10
174.637
20
-156.626
11
174.494
21
-156.34
0
LINE
8
Black
10
174.494
20
-156.34
11
174.209
21
-156.197
0
LINE
8
Black
10
174.209
20
-156.197
11
173.78
21
-156.197
0
LINE
8
Black
10
173.78
20
-156.197
11
173.494
21
-156.054
0
LINE
8
Black
10
173.494
20
-156.054
11
173.352
21
-155.769
0
LINE
8
Black
10
173.352
20
-155.769
11
173.352
21
-155.626
0
LINE
8
Black
10
173.352
20
-155.626
11
173.494
21
-155.34
0
LINE
8
Black
10
173.494
20
-155.34
11
173.78
21
-155.197
0
LINE
8
Black
10
173.78
20
-155.197
11
174.209
21
-155.197
0
LINE
8
Black
10
174.209
20
-155.197
11
174.494
21
-155.34
0
LINE
8
Black
10
175.637
20
-158.34
11
175.78
21
-158.197
0
LINE
8
Black
10
175.78
20
-158.197
11
176.066
21
-157.769
0
LINE
8
Black
10
176.066
20
-157.769
11
176.209
21
-157.483
0
LINE
8
Black
10
176.209
20
-157.483
11
176.352
21
-157.054
0
LINE
8
Black
10
176.352
20
-157.054
11
176.494
21
-156.34
0
LINE
8
Black
10
176.494
20
-156.34
11
176.494
21
-155.769
0
LINE
8
Black
10
176.494
20
-155.769
11
176.352
21
-155.054
0
LINE
8
Black
10
176.352
20
-155.054
11
176.209
21
-154.626
0
LINE
8
Black
10
176.209
20
-154.626
11
176.066
21
-154.34
0
LINE
8
Black
10
176.066
20
-154.34
11
175.78
21
-153.911
0
LINE
8
Black
10
175.78
20
-153.911
11
175.637
21
-153.769
0
LINE
8
Black
10
107.875
20
-158.276
11
110.923
21
-161.324
0
LINE
8
Black
10
110.923
20
-158.276
11
107.875
21
-161.324
0
LINE
8
Black
10
109.399
20
-158.276
11
109.399
21
-161.324
0
LINE
8
Black
10
107.875
20
-159.8
11
110.923
21
-159.8
0
LINE
8
Black
10
113.352
20
-158.157
11
115.209
21
-158.157
0
LINE
8
Black
10
115.209
20
-158.157
11
114.209
21
-159.3
0
LINE
8
Black
10
114.209
20
-159.3
11
114.637
21
-159.3
0
LINE
8
Black
10
114.637
20
-159.3
11
114.923
21
-159.443
0
LINE
8
Black
10
114.923
20
-159.443
11
115.066
21
-159.586
0
LINE
8
Black
10
115.066
20
-159.586
11
115.209
21
-159.871
0
LINE
8
Black
10
115.209
20
-159.871
11
115.209
21
-160.586
0
LINE
8
Black
10
115.209
20
-160.586
11
115.066
21
-160.871
0
LINE
8
Black
10
115.066
20
-160.871
11
114.923
21
-161.014
0
LINE
8
Black
10
114.923
20
-161.014
11
114.637
21
-161.157
0
LINE
8
Black
10
114.637
20
-161.157
11
113.78
21
-161.157
0
LINE
8
Black
10
113.78
20
-161.157
11
113.494
21
-161.014
0
LINE
8
Black
10
113.494
20
-161.014
11
113.352
21
-160.871
0
LINE
8
Black
10
116.494
20
-160.871
11
116.637
21
-161.014
0
LINE
8
Black
10
116.637
20
-161.014
11
116.494
21
-161.157
0
LINE
8
Black
10
116.494
20
-161.157
11
116.352
21
-161.014
0
LINE
8
Black
10
116.352
20
-161.014
11
116.494
21
-160.871
0
LINE
8
Black
10
116.494
20
-160.871
11
116.494
21
-161.157
0
LINE
8
Black
10
118.494
20
-158.157
11
118.78
21
-158.157
0
LINE
8
Black
10
118.78
20
-158.157
11
119.066
21
-158.3
0
LINE
8
Black
10
119.066
20
-158.3
11
119.209
21
-158.443
0
LINE
8
Black
10
119.209
20
-158.443
11
119.352
21
-158.729
0
LINE
8
Black
10
119.352
20
-158.729
11
119.494
21
-159.3
0
LINE
8
Black
10
119.494
20
-159.3
11
119.494
21
-160.014
0
LINE
8
Black
10
119.494
20
-160.014
11
119.352
21
-160.586
0
LINE
8
Black
10
119.352
20
-160.586
11
119.209
21
-160.871
0
LINE
8
Black
10
119.209
20
-160.871
11
119.066
21
-161.014
0
LINE
8
Black
10
119.066
20
-161.014
11
118.78
21
-161.157
0
LINE
8
Black
10
118.78
20
-161.157
11
118.494
21
-161.157
0
LINE
8
Black
10
118.494
20
-161.157
11
118.209
21
-161.014
0
LINE
8
Black
10
118.209
20
-161.014
11
118.066
21
-160.871
0
LINE
8
Black
10
118.066
20
-160.871
11
117.923
21
-160.586
0
LINE
8
Black
10
117.923
20
-160.586
11
117.78
21
-160.014
0
LINE
8
Black
10
117.78
20
-160.014
11
117.78
21
-159.3
0
LINE
8
Black
10
117.78
20
-159.3
11
117.923
21
-158.729
0
LINE
8
Black
10
117.923
20
-158.729
11
118.066
21
-158.443
0
LINE
8
Black
10
118.066
20
-158.443
11
118.209
21
-158.3
0
LINE
8
Black
10
118.209
20
-158.3
11
118.494
21
-158.157
0
LINE
8
Black
10
122.209
20
-158.157
11
120.78
21
-158.157
0
LINE
8
Black
10
120.78
20
-158.157
11
120.637
21
-159.586
0
LINE
8
Black
10
120.637
20
-159.586
11
120.78
21
-159.443
0
LINE
8
Black
10
120.78
20
-159.443
11
121.066
21
-159.3
0
LINE
8
Black
10
121.066
20
-159.3
11
121.78
21
-159.3
0
LINE
8
Black
10
121.78
20
-159.3
11
122.066
21
-159.443
0
LINE
8
Black
10
122.066
20
-159.443
11
122.209
21
-159.586
0
LINE
8
Black
10
122.209
20
-159.586
11
122.352
21
-159.871
0
LINE
8
Black
10
122.352
20
-159.871
11
122.352
21
-160.586
0
LINE
8
Black
10
122.352
20
-160.586
11
122.209
21
-160.871
0
LINE
8
Black
10
122.209
20
-160.871
11
122.066
21
-161.014
0
LINE
8
Black
10
122.066
20
-161.014
11
121.78
21
-161.157
0
LINE
8
Black
10
121.78
20
-161.157
11
121.066
21
-161.157
0
LINE
8
Black
10
121.066
20
-161.157
11
120.78
21
-161.014
0
LINE
8
Black
10
120.78
20
-161.014
11
120.637
21
-160.871
0
LINE
8
Black
10
123.637
20
-161.157
11
123.637
21
-159.157
0
LINE
8
Black
10
123.637
20
-159.443
11
123.78
21
-159.3
0
LINE
8
Black
10
123.78
20
-159.3
11
124.066
21
-159.157
0
LINE
8
Black
10
124.066
20
-159.157
11
124.494
21
-159.157
0
LINE
8
Black
10
124.494
20
-159.157
11
124.78
21
-159.3
0
LINE
8
Black
10
124.78
20
-159.3
11
124.923
21
-159.586
0
LINE
8
Black
10
124.923
20
-159.586
11
124.923
21
-161.157
0
LINE
8
Black
10
124.923
20
-159.586
11
125.066
21
-159.3
0
LINE
8
Black
10
125.066
20
-159.3
11
125.352
21
-159.157
0
LINE
8
Black
10
125.352
20
-159.157
11
125.78
21
-159.157
0
LINE
8
Black
10
125.78
20
-159.157
11
126.066
21
-159.3
0
LINE
8
Black
10
126.066
20
-159.3
11
126.209
21
-159.586
0
LINE
8
Black
10
126.209
20
-159.586
11
126.209
21
-161.157
0
LINE
8
Black
10
127.637
20
-161.157
11
127.637
21
-159.157
0
LINE
8
Black
10
127.637
20
-159.443
11
127.78
21
-159.3
0
LINE
8
Black
10
127.78
20
-159.3
11
128.066
21
-159.157
0
LINE
8
Black
10
128.066
20
-159.157
11
128.494
21
-159.157
0
LINE
8
Black
10
128.494
20
-159.157
11
128.78
21
-159.3
0
LINE
8
Black
10
128.78
20
-159.3
11
128.923
21
-159.586
0
LINE
8
Black
10
128.923
20
-159.586
11
128.923
21
-161.157
0
LINE
8
Black
10
128.923
20
-159.586
11
129.066
21
-159.3
0
LINE
8
Black
10
129.066
20
-159.3
11
129.352
21
-159.157
0
LINE
8
Black
10
129.352
20
-159.157
11
129.78
21
-159.157
0
LINE
8
Black
10
129.78
20
-159.157
11
130.066
21
-159.3
0
LINE
8
Black
10
130.066
20
-159.3
11
130.209
21
-159.586
0
LINE
8
Black
10
130.209
20
-159.586
11
130.209
21
-161.157
0
LINE
8
Black
10
136.066
20
-158.014
11
133.494
21
-161.871
0
LINE
8
Black
10
139.923
20
-158.157
11
140.209
21
-158.157
0
LINE
8
Black
10
140.209
20
-158.157
11
140.494
21
-158.3
0
LINE
8
Black
10
140.494
20
-158.3
11
140.637
21
-158.443
0
LINE
8
Black
10
140.637
20
-158.443
11
140.78
21
-158.729
0
LINE
8
Black
10
140.78
20
-158.729
11
140.923
21
-159.3
0
LINE
8
Black
10
140.923
20
-159.3
11
140.923
21
-160.014
0
LINE
8
Black
10
140.923
20
-160.014
11
140.78
21
-160.586
0
LINE
8
Black
10
140.78
20
-160.586
11
140.637
21
-160.871
0
LINE
8
Black
10
140.637
20
-160.871
11
140.494
21
-161.014
0
LINE
8
Black
10
140.494
20
-161.014
11
140.209
21
-161.157
0
LINE
8
Black
10
140.209
20
-161.157
11
139.923
21
-161.157
0
LINE
8
Black
10
139.923
20
-161.157
11
139.637
21
-161.014
0
LINE
8
Black
10
139.637
20
-161.014
11
139.494
21
-160.871
0
LINE
8
Black
10
139.494
20
-160.871
11
139.352
21
-160.586
0
LINE
8
Black
10
139.352
20
-160.586
11
139.209
21
-160.014
0
LINE
8
Black
10
139.209
20
-160.014
11
139.209
21
-159.3
0
LINE
8
Black
10
139.209
20
-159.3
11
139.352
21
-158.729
0
LINE
8
Black
10
139.352
20
-158.729
11
139.494
21
-158.443
0
LINE
8
Black
10
139.494
20
-158.443
11
139.637
21
-158.3
0
LINE
8
Black
10
139.637
20
-158.3
11
139.923
21
-158.157
0
LINE
8
Black
10
142.209
20
-160.871
11
142.352
21
-161.014
0
LINE
8
Black
10
142.352
20
-161.014
11
142.209
21
-161.157
0
LINE
8
Black
10
142.209
20
-161.157
11
142.066
21
-161.014
0
LINE
8
Black
10
142.066
20
-161.014
11
142.209
21
-160.871
0
LINE
8
Black
10
142.209
20
-160.871
11
142.209
21
-161.157
0
LINE
8
Black
10
145.209
20
-161.157
11
143.494
21
-161.157
0
LINE
8
Black
10
144.352
20
-161.157
11
144.352
21
-158.157
0
LINE
8
Black
10
144.352
20
-158.157
11
144.066
21
-158.586
0
LINE
8
Black
10
144.066
20
-158.586
11
143.78
21
-158.871
0
LINE
8
Black
10
143.78
20
-158.871
11
143.494
21
-159.014
0
LINE
8
Black
10
146.352
20
-158.443
11
146.494
21
-158.3
0
LINE
8
Black
10
146.494
20
-158.3
11
146.78
21
-158.157
0
LINE
8
Black
10
146.78
20
-158.157
11
147.494
21
-158.157
0
LINE
8
Black
10
147.494
20
-158.157
11
147.78
21
-158.3
0
LINE
8
Black
10
147.78
20
-158.3
11
147.923
21
-158.443
0
LINE
8
Black
10
147.923
20
-158.443
11
148.066
21
-158.729
0
LINE
8
Black
10
148.066
20
-158.729
11
148.066
21
-159.014
0
LINE
8
Black
10
148.066
20
-159.014
11
147.923
21
-159.443
0
LINE
8
Black
10
147.923
20
-159.443
11
146.209
21
-161.157
0
LINE
8
Black
10
146.209
20
-161.157
11
148.066
21
-161.157
0
LINE
8
Black
10
149.923
20
-158.157
11
150.209
21
-158.157
0
LINE
8
Black
10
150.209
20
-158.157
11
150.494
21
-158.3
0
LINE
8
Black
10
150.494
20
-158.3
11
150.637
21
-158.443
0
LINE
8
Black
10
150.637
20
-158.443
11
150.78
21
-158.729
0
LINE
8
Black
10
150.78
20
-158.729
11
150.923
21
-159.3
0
LINE
8
Black
10
150.923
20
-159.3
11
150.923
21
-160.014
0
LINE
8
Black
10
150.923
20
-160.014
11
150.78
21
-160.586
0
LINE
8
Black
10
150.78
20
-160.586
11
150.637
21
-160.871
0
LINE
8
Black
10
150.637
20
-160.871
11
150.494
21
-161.014
0
LINE
8
Black
10
150.494
20
-161.014
11
150.209
21
-161.157
0
LINE
8
Black
10
150.209
20
-161.157
11
149.923
21
-161.157
0
LINE
8
Black
10
149.923
20
-161.157
11
149.637
21
-161.014
0
LINE
8
Black
10
149.637
20
-161.014
11
149.494
21
-160.871
0
LINE
8
Black
10
149.494
20
-160.871
11
149.352
21
-160.586
0
LINE
8
Black
10
149.352
20
-160.586
11
149.209
21
-160.014
0
LINE
8
Black
10
149.209
20
-160.014
11
149.209
21
-159.3
0
LINE
8
Black
10
149.209
20
-159.3
11
149.352
21
-158.729
0
LINE
8
Black
10
149.352
20
-158.729
11
149.494
21
-158.443
0
LINE
8
Black
10
149.494
20
-158.443
11
149.637
21
-158.3
0
LINE
8
Black
10
149.637
20
-158.3
11
149.923
21
-158.157
0
LINE
8
Black
10
152.066
20
-158.157
11
152.066
21
-158.729
0
LINE
8
Black
10
153.209
20
-158.157
11
153.209
21
-158.729
0
LINE
8
Black
10
157.637
20
-162.3
11
157.494
21
-162.157
0
LINE
8
Black
10
157.494
20
-162.157
11
157.209
21
-161.729
0
LINE
8
Black
10
157.209
20
-161.729
11
157.066
21
-161.443
0
LINE
8
Black
10
157.066
20
-161.443
11
156.923
21
-161.014
0
LINE
8
Black
10
156.923
20
-161.014
11
156.78
21
-160.3
0
LINE
8
Black
10
156.78
20
-160.3
11
156.78
21
-159.729
0
LINE
8
Black
10
156.78
20
-159.729
11
156.923
21
-159.014
0
LINE
8
Black
10
156.923
20
-159.014
11
157.066
21
-158.586
0
LINE
8
Black
10
157.066
20
-158.586
11
157.209
21
-158.3
0
LINE
8
Black
10
157.209
20
-158.3
11
157.494
21
-157.871
0
LINE
8
Black
10
157.494
20
-157.871
11
157.637
21
-157.729
0
LINE
8
Black
10
160.066
20
-158.157
11
159.494
21
-158.157
0
LINE
8
Black
10
159.494
20
-158.157
11
159.209
21
-158.3
0
LINE
8
Black
10
159.209
20
-158.3
11
159.066
21
-158.443
0
LINE
8
Black
10
159.066
20
-158.443
11
158.78
21
-158.871
0
LINE
8
Black
10
158.78
20
-158.871
11
158.637
21
-159.443
0
LINE
8
Black
10
158.637
20
-159.443
11
158.637
21
-160.586
0
LINE
8
Black
10
158.637
20
-160.586
11
158.78
21
-160.871
0
LINE
8
Black
10
158.78
20
-160.871
11
158.923
21
-161.014
0
LINE
8
Black
10
158.923
20
-161.014
11
159.209
21
-161.157
0
LINE
8
Black
10
159.209
20
-161.157
11
159.78
21
-161.157
0
LINE
8
Black
10
159.78
20
-161.157
11
160.066
21
-161.014
0
LINE
8
Black
10
160.066
20
-161.014
11
160.209
21
-160.871
0
LINE
8
Black
10
160.209
20
-160.871
11
160.352
21
-160.586
0
LINE
8
Black
10
160.352
20
-160.586
11
160.352
21
-159.871
0
LINE
8
Black
10
160.352
20
-159.871
11
160.209
21
-159.586
0
LINE
8
Black
10
160.209
20
-159.586
11
160.066
21
-159.443
0
LINE
8
Black
10
160.066
20
-159.443
11
159.78
21
-159.3
0
LINE
8
Black
10
159.78
20
-159.3
11
159.209
21
-159.3
0
LINE
8
Black
10
159.209
20
-159.3
11
158.923
21
-159.443
0
LINE
8
Black
10
158.923
20
-159.443
11
158.78
21
-159.586
0
LINE
8
Black
10
158.78
20
-159.586
11
158.637
21
-159.871
0
LINE
8
Black
10
163.923
20
-161.157
11
163.923
21
-158.157
0
LINE
8
Black
10
165.209
20
-161.157
11
165.209
21
-159.586
0
LINE
8
Black
10
165.209
20
-159.586
11
165.066
21
-159.3
0
LINE
8
Black
10
165.066
20
-159.3
11
164.78
21
-159.157
0
LINE
8
Black
10
164.78
20
-159.157
11
164.352
21
-159.157
0
LINE
8
Black
10
164.352
20
-159.157
11
164.066
21
-159.3
0
LINE
8
Black
10
164.066
20
-159.3
11
163.923
21
-159.443
0
LINE
8
Black
10
167.066
20
-161.157
11
166.78
21
-161.014
0
LINE
8
Black
10
166.78
20
-161.014
11
166.637
21
-160.871
0
LINE
8
Black
10
166.637
20
-160.871
11
166.494
21
-160.586
0
LINE
8
Black
10
166.494
20
-160.586
11
166.494
21
-159.729
0
LINE
8
Black
10
166.494
20
-159.729
11
166.637
21
-159.443
0
LINE
8
Black
10
166.637
20
-159.443
11
166.78
21
-159.3
0
LINE
8
Black
10
166.78
20
-159.3
11
167.066
21
-159.157
0
LINE
8
Black
10
167.066
20
-159.157
11
167.494
21
-159.157
0
LINE
8
Black
10
167.494
20
-159.157
11
167.78
21
-159.3
0
LINE
8
Black
10
167.78
20
-159.3
11
167.923
21
-159.443
0
LINE
8
Black
10
167.923
20
-159.443
11
168.066
21
-159.729
0
LINE
8
Black
10
168.066
20
-159.729
11
168.066
21
-160.586
0
LINE
8
Black
10
168.066
20
-160.586
11
167.923
21
-160.871
0
LINE
8
Black
10
167.923
20
-160.871
11
167.78
21
-161.014
0
LINE
8
Black
10
167.78
20
-161.014
11
167.494
21
-161.157
0
LINE
8
Black
10
167.494
20
-161.157
11
167.066
21
-161.157
0
LINE
8
Black
10
169.78
20
-161.157
11
169.494
21
-161.014
0
LINE
8
Black
10
169.494
20
-161.014
11
169.352
21
-160.729
0
LINE
8
Black
10
169.352
20
-160.729
11
169.352
21
-158.157
0
LINE
8
Black
10
172.066
20
-161.014
11
171.78
21
-161.157
0
LINE
8
Black
10
171.78
20
-161.157
11
171.209
21
-161.157
0
LINE
8
Black
10
171.209
20
-161.157
11
170.923
21
-161.014
0
LINE
8
Black
10
170.923
20
-161.014
11
170.78
21
-160.729
0
LINE
8
Black
10
170.78
20
-160.729
11
170.78
21
-159.586
0
LINE
8
Black
10
170.78
20
-159.586
11
170.923
21
-159.3
0
LINE
8
Black
10
170.923
20
-159.3
11
171.209
21
-159.157
0
LINE
8
Black
10
171.209
20
-159.157
11
171.78
21
-159.157
0
LINE
8
Black
10
171.78
20
-159.157
11
172.066
21
-159.3
0
LINE
8
Black
10
172.066
20
-159.3
11
172.209
21
-159.586
0
LINE
8
Black
10
172.209
20
-159.586
11
172.209
21
-159.871
0
LINE
8
Black
10
172.209
20
-159.871
11
170.78
21
-160.157
0
LINE
8
Black
10
173.352
20
-161.014
11
173.637
21
-161.157
0
LINE
8
Black
10
173.637
20
-161.157
11
174.209
21
-161.157
0
LINE
8
Black
10
174.209
20
-161.157
11
174.494
21
-161.014
0
LINE
8
Black
10
174.494
20
-161.014
11
174.637
21
-160.729
0
LINE
8
Black
10
174.637
20
-160.729
11
174.637
21
-160.586
0
LINE
8
Black
10
174.637
20
-160.586
11
174.494
21
-160.3
0
LINE
8
Black
10
174.494
20
-160.3
11
174.209
21
-160.157
0
LINE
8
Black
10
174.209
20
-160.157
11
173.78
21
-160.157
0
LINE
8
Black
10
173.78
20
-160.157
11
173.494
21
-160.014
0
LINE
8
Black
10
173.494
20
-160.014
11
173.352
21
-159.729
0
LINE
8
Black
10
173.352
20
-159.729
11
173.352
21
-159.586
0
LINE
8
Black
10
173.352
20
-159.586
11
173.494
21
-159.3
0
LINE
8
Black
10
173.494
20
-159.3
11
173.78
21
-159.157
0
LINE
8
Black
10
173.78
20
-159.157
11
174.209
21
-159.157
0
LINE
8
Black
10
174.209
20
-159.157
11
174.494
21
-159.3
0
LINE
8
Black
10
175.637
20
-162.3
11
175.78
21
-162.157
0
LINE
8
Black
10
175.78
20
-162.157
11
176.066
21
-161.729
0
LINE
8
Black
10
176.066
20
-161.729
11
176.209
21
-161.443
0
LINE
8
Black
10
176.209
20
-161.443
11
176.352
21
-161.014
0
LINE
8
Black
10
176.352
20
-161.014
11
176.494
21
-160.3
0
LINE
8
Black
10
176.494
20
-160.3
11
176.494
21
-159.729
0
LINE
8
Black
10
176.494
20
-159.729
11
176.352
21
-159.014
0
LINE
8
Black
10
176.352
20
-159.014
11
176.209
21
-158.586
0
LINE
8
Black
10
176.209
20
-158.586
11
176.066
21
-158.3
0
LINE
8
Black
10
176.066
20
-158.3
11
175.78
21
-157.871
0
LINE
8
Black
10
175.78
20
-157.871
11
175.637
21
-157.729
  0
ENDSEC
  0
EOF
